<svg xmlns="http://www.w3.org/2000/svg" xmlns:xlink="http://www.w3.org/1999/xlink" width="100.672" height="100.673" viewBox="0 0 100.672 100.673">
  <defs>
    <filter id="Path_874925" x="0" y="0" width="100.672" height="100.673" filterUnits="userSpaceOnUse">
      <feOffset dy="3" input="SourceAlpha"/>
      <feGaussianBlur stdDeviation="3" result="blur"/>
      <feFlood flood-opacity="0.161"/>
      <feComposite operator="in" in2="blur"/>
      <feComposite in="SourceGraphic"/>
    </filter>
    <clipPath id="clip-path">
      <path id="path4029" d="M0-682.665H48.144v48.144H0Z" transform="translate(0 682.665)"/>
    </clipPath>
  </defs>
  <g id="Group_1204080" data-name="Group 1204080" transform="translate(-1268 -908.001)">
    <g id="Group_1200946" data-name="Group 1200946" transform="translate(992 -5336.873)">
      <g id="Group_1200232" data-name="Group 1200232" transform="translate(285 6250.874)">
        <g id="Group_1187153" data-name="Group 1187153">
          <g id="Group_1182177" data-name="Group 1182177">
            <g id="Group_1181903" data-name="Group 1181903">
              <g id="Group_1181438" data-name="Group 1181438">
                <g id="Group_1111314" data-name="Group 1111314">
                  <g transform="matrix(1, 0, 0, 1, -9, -6)" filter="url(#Path_874925)">
                    <path id="Path_874925-2" data-name="Path 874925" d="M41.336,0A41.336,41.336,0,0,1,82.672,41.336h0A41.336,41.336,0,0,1,0,41.337H0A41.336,41.336,0,0,1,41.336,0Z" transform="translate(9 6)" fill="#ef8c1a"/>
                  </g>
                </g>
              </g>
            </g>
          </g>
        </g>
      </g>
    </g>
    <g id="g4023" transform="translate(1294 1613.664)">
      <g id="g4025" transform="translate(0 -682.665)">
        <g id="g4027" clip-path="url(#clip-path)">
          <g id="g4033" transform="translate(4.649 12.412)">
            <path id="path4035" d="M-410.358-205.724a15.588,15.588,0,0,1-15.568,15.609,15.588,15.588,0,0,1-15.568-15.609,15.588,15.588,0,0,1,15.568-15.609,15.588,15.588,0,0,1,15.568,15.609" transform="translate(441.494 221.333)" fill="#97c9e8"/>
          </g>
          <g id="g4037" transform="translate(17.866 12.412)">
            <path id="path4039" d="M-30.982,0a15.652,15.652,0,0,0-2.351.177A15.6,15.6,0,0,1-20.116,15.609,15.6,15.6,0,0,1-33.333,31.041a15.652,15.652,0,0,0,2.351.177A15.588,15.588,0,0,0-15.415,15.609,15.588,15.588,0,0,0-30.982,0" transform="translate(33.333 0)" fill="#60b6ff"/>
          </g>
          <g id="g4041" transform="translate(14.883 12.443)">
            <path id="path4043" d="M-43.631-79.538c-2.4,1.5-4.2,3.907-2.848,6.612s4.347,1.653,7.12,1.277.674,8.19,2.323,10.294,6.3-2.1,5.845-4.809c-.666-4.005-.9-5.41,4.5-8.265l.015-.005A15.585,15.585,0,0,0-40.633-85.573v.024s-.6,4.508-3,6.011" transform="translate(46.941 85.573)" fill="#baeb6c"/>
          </g>
          <g id="g4045" transform="translate(21.191 12.443)">
            <path id="path4047" d="M0,0Z" fill="#baeb6c"/>
          </g>
          <g id="g4049" transform="translate(29.97 15.856)">
            <path id="path4051" d="M0,0,0,0,0,0" fill="#baeb6c"/>
          </g>
          <g id="g4053" transform="translate(31.874 17.677)">
            <path id="path4055" d="M0,0H0" fill="#baeb6c"/>
          </g>
          <g id="g4057" transform="translate(4.649 22.582)">
            <path id="path4059" d="M-68.874-164.777c-.72-1.1,1.274-3.682,1.724-5.636s-2.248-1.8-3.073-2.48S-72.172-176.5-73-177.176l-.132-.1a15.611,15.611,0,0,0-.972,5.439,15.6,15.6,0,0,0,6.345,12.575l0-.327a7.186,7.186,0,0,0-1.124-5.185" transform="translate(74.1 177.28)" fill="#baeb6c"/>
          </g>
          <g id="g4061" transform="translate(29.33 31.795)">
            <path id="path4063" d="M-17.174-.77l-.01-.058A15.528,15.528,0,0,1-18.477,2.6a4.552,4.552,0,0,0,1.3-3.368" transform="translate(18.477 0.828)" fill="#baeb6c"/>
          </g>
          <g id="g4065" transform="translate(21.012 12.443)">
            <path id="path4067" d="M-2.368,0V.024s-.05.376-.179.947A15.615,15.615,0,0,1,7.458,14.144a11.931,11.931,0,0,1,4.112-3l.015-.005A15.585,15.585,0,0,0-2.368,0" transform="translate(2.548)" fill="#96d629"/>
          </g>
          <g id="g4069" transform="translate(3.716 0.734)">
            <path id="path4071" d="M-160.773-224.512c-7.528-1.277-12.2-10.756-12.2-10.756s7.536-7.408,15.064-6.131,12.2,10.756,12.2,10.756-7.536,7.408-15.064,6.131" transform="translate(172.972 241.546)" fill="#49cb5c"/>
          </g>
          <g id="g4073" transform="translate(14.519 0.735)">
            <path id="path4075" d="M-56.15-1.948a11.685,11.685,0,0,0-4.26.107C-53.2-.221-48.747,8.808-48.747,8.808s-4.933,4.848-10.8,6.024c.177.04.355.077.535.107,7.528,1.277,15.064-6.131,15.064-6.131s-4.67-9.479-12.2-10.756" transform="translate(60.411 2.095)" fill="#07b128"/>
          </g>
          <g id="g4077" transform="translate(35.498 2.181)">
            <path id="path4079" d="M-7.913-84.189c2.02-4.779,9.017-6.388,9.017-6.388s3.723,6.139,1.7,10.918-9.017,6.388-9.017,6.388-3.723-6.139-1.7-10.918" transform="translate(8.513 90.577)" fill="#49cb5c"/>
          </g>
          <g id="g4081" transform="translate(37.14 2.181)">
            <path id="path4083" d="M-105.115,0a18.711,18.711,0,0,0-3.475,1.267c.967,2.048,2.5,6.2,1.041,9.65-1.056,2.5-3.475,4.132-5.542,5.12.373.791.662,1.267.662,1.267s7-1.609,9.017-6.388S-105.115,0-105.115,0" transform="translate(113.09)" fill="#07b128"/>
          </g>
          <g id="g4085" transform="translate(0.017 0.004)">
            <path id="path4087" d="M-451.938-308.16c-2.542,1.354-3.788,2.419-4.378,3.716-.634,1.394-.4,2.89-.08,4.96.19,1.221-1.261,3.494-3.162,4.308-.7.3-1.2.265-1.49-.106-.56-.729-.545-2.937-.533-4.71.017-2.454.031-4.573-.981-5.473a1.662,1.662,0,0,0-1.347-.4c-.443.055-.893.127-1.328.2-2.592.414-4.224.579-5.069-1.159-1.369-2.814,1.4-4.9,2.658-5.664a4.5,4.5,0,0,0,.713-.544,20.507,20.507,0,0,0,8.455-3.294,14.968,14.968,0,0,1,6.542,8.166m-19.137-13.772,5.849,1.14-7.507,5.5a14.6,14.6,0,0,1-3.8-2.639Zm.439-1.351-4.149-5.659a15.864,15.864,0,0,1,3.942-1.091l5.739,7.828Zm-5.462-5.065,3.422,4.667-8.232-1.6a27.762,27.762,0,0,1,4.81-3.063m-1.445,9.409a27.45,27.45,0,0,1-3.6-4.954l8.179,1.594Zm7.134,4.413c-.249-.049-.5-.108-.738-.176l7.806-5.722,6.426,1.253c-2.341,1.845-8.039,5.714-13.494,4.645m25.43.4a18.772,18.772,0,0,1-2.158.913l2.125-5.08,5.408-2.232a6.825,6.825,0,0,1-.471,1.783c-.956,2.261-3.194,3.758-4.9,4.615m-4.518-8.6a6.7,6.7,0,0,1,.788-1.369l2.282,5.528-2.048,4.9a18.836,18.836,0,0,1-.914-2.322c-.576-1.823-1.063-4.471-.108-6.733m8.432-5.007a18.818,18.818,0,0,1,.882,2.255,13.461,13.461,0,0,1,.639,3.4l-4.7,1.938Zm-4.595,7.33-2-4.857a13.2,13.2,0,0,1,3.071-2.082,18.8,18.8,0,0,1,2.228-.938Zm-34.121,13.859a8.785,8.785,0,0,0,1.537,2.366,4.042,4.042,0,0,0,1.412.627c1.378.424,1.539.632,1.407,1.177a12.322,12.322,0,0,1-.932,2.244c-.728,1.49-1.416,2.9-.764,3.914a6.709,6.709,0,0,1,1.067,3.742,15.03,15.03,0,0,1-4.346-15.208c.207.355.426.768.621,1.138m40.933-19.392a19.4,19.4,0,0,0-1.678-3.819.72.72,0,0,0-.761-.322,19.4,19.4,0,0,0-3.908,1.458,11.222,11.222,0,0,0-5.6,5.342,10.346,10.346,0,0,0-.322,6.28,20.007,20.007,0,0,0-3.76-3.273,29.156,29.156,0,0,0-3.268-5.009.706.706,0,0,0-1.094.89,28.2,28.2,0,0,1,2.6,3.828l-6.424-1.252-6.1-8.325a9.991,9.991,0,0,1,1.779.182,12.18,12.18,0,0,1,5.509,2.839.706.706,0,0,0,.915-1.073,13.564,13.564,0,0,0-6.153-3.15c-3.231-.633-7,.2-10.9,2.4a28.159,28.159,0,0,0-4.932,3.523.746.746,0,0,0-.084.968,28.789,28.789,0,0,0,3.163,4.965,22.051,22.051,0,0,0,3.334,3.427q-.493.412-.958.866a16.26,16.26,0,0,0-3.748,5.607,16.291,16.291,0,0,0-1.151,5.865,16.2,16.2,0,0,0,2.8,9.314,16.281,16.281,0,0,0,7.376,5.973.706.706,0,0,0,.53-1.307,14.883,14.883,0,0,1-3.051-1.678,7.944,7.944,0,0,0-1.2-5.562c-.224-.348.445-1.716.844-2.532a13.241,13.241,0,0,0,1.036-2.532,1.93,1.93,0,0,0-.686-2.114,5.2,5.2,0,0,0-1.677-.743,3.59,3.59,0,0,1-.921-.361,9.381,9.381,0,0,1-1.194-1.943,12.057,12.057,0,0,0-1.289-2.119,15,15,0,0,1,4.452-5.866,12.332,12.332,0,0,0,5.943,2.208c-2.493,1.931-3.3,4.4-2.146,6.766,1.345,2.766,4.115,2.324,6.559,1.935.423-.068.86-.137,1.279-.189.157-.02.2.023.236.051.535.476.519,2.749.508,4.41-.016,2.3-.03,4.465.825,5.579a2.152,2.152,0,0,0,1.771.858,3.559,3.559,0,0,0,1.392-.315c2.127-.911,4.338-3.653,4-5.822-.295-1.9-.49-3.149-.03-4.159.425-.935,1.453-1.8,3.477-2.9a14.87,14.87,0,0,1,.352,3.392,14.79,14.79,0,0,1-4.476,10.48,14.975,14.975,0,0,1-12.059,4.156.706.706,0,0,0-.154,1.4,16.394,16.394,0,0,0,13.2-4.55,16.192,16.192,0,0,0,4.9-11.473A16.3,16.3,0,0,0-457.2-317.19c.932-.664,1.626-1.239,2.011-1.572a18.75,18.75,0,0,1,4.315,4.325,18.6,18.6,0,0,1,3.253,13.953,18.74,18.74,0,0,1-21.521,15.419,18.6,18.6,0,0,1-12.167-7.566,18.6,18.6,0,0,1-3.253-13.953.706.706,0,0,0-1.392-.23,20,20,0,0,0,3.5,15,20,20,0,0,0,13.084,8.136,20.383,20.383,0,0,0,3.323.274,19.984,19.984,0,0,0,11.682-3.771,20,20,0,0,0,8.137-13.083,19.989,19.989,0,0,0-1.4-11.314,20.341,20.341,0,0,0,3.252-1.281,11.222,11.222,0,0,0,5.6-5.342,11.221,11.221,0,0,0-.072-7.739" transform="translate(486.228 331.542)"/>
          </g>
        </g>
      </g>
    </g>
  </g>
</svg>
