<svg xmlns="http://www.w3.org/2000/svg" xmlns:xlink="http://www.w3.org/1999/xlink" width="119.053" height="119.054" viewBox="0 0 119.053 119.054">
  <defs>
    <filter id="Path_874925" x="0" y="0" width="119.053" height="119.054" filterUnits="userSpaceOnUse">
      <feOffset dy="3" input="SourceAlpha"/>
      <feGaussianBlur stdDeviation="3" result="blur"/>
      <feFlood flood-opacity="0.161"/>
      <feComposite operator="in" in2="blur"/>
      <feComposite in="SourceGraphic"/>
    </filter>
  </defs>
  <g id="Group_1203470" data-name="Group 1203470" transform="translate(-740.474 -649.675)">
    <g id="Group_1203353" data-name="Group 1203353" transform="translate(464.474 -5595.199)">
      <g id="Group_1200232" data-name="Group 1200232" transform="translate(285 6250.874)">
        <g id="Group_1187153" data-name="Group 1187153">
          <g id="Group_1182177" data-name="Group 1182177">
            <g id="Group_1181903" data-name="Group 1181903">
              <g id="Group_1181438" data-name="Group 1181438">
                <g id="Group_1111314" data-name="Group 1111314">
                  <g transform="matrix(1, 0, 0, 1, -9, -6)" filter="url(#Path_874925)">
                    <g id="Path_874925-2" data-name="Path 874925" transform="translate(9 6)" fill="#ef8c1a">
                      <path d="M 50.52651596069336 99.55361938476562 C 43.90731430053711 99.55361938476562 37.48691558837891 98.25757598876953 31.44364547729492 95.70149230957031 C 25.60577392578125 93.23227691650391 20.36252975463867 89.69707489013672 15.85953044891357 85.194091796875 C 11.35654449462891 80.69109344482422 7.821344375610352 75.44783782958984 5.35213041305542 69.60997772216797 C 2.796044588088989 63.56670761108398 1.500001668930054 57.14628982543945 1.500001668930054 50.52709197998047 C 1.500001668930054 43.90732192993164 2.796044588088989 37.48691940307617 5.35213041305542 31.44364929199219 C 7.821344375610352 25.60577774047852 11.35654449462891 20.36253356933594 15.85953044891357 15.85953426361084 C 20.36252975463867 11.35654830932617 25.60577392578125 7.821348667144775 31.44364547729492 5.352134227752686 C 37.48691558837891 2.796048641204834 43.90731430053711 1.500005841255188 50.52651596069336 1.500005841255188 C 57.14571762084961 1.500005841255188 63.56611633300781 2.796048641204834 69.60939025878906 5.352134227752686 C 75.44724273681641 7.821348667144775 80.69049835205078 11.35654830932617 85.19348907470703 15.85953426361084 C 89.69648742675781 20.36253356933594 93.231689453125 25.60577774047852 95.70090484619141 31.44364929199219 C 98.25698852539062 37.48691940307617 99.55303192138672 43.90732192993164 99.55303192138672 50.52651977539062 C 99.55303192138672 57.14628982543945 98.25698852539062 63.56670761108398 95.70090484619141 69.60997772216797 C 93.231689453125 75.44783782958984 89.69648742675781 80.69109344482422 85.19348907470703 85.194091796875 C 80.69049835205078 89.69707489013672 75.44724273681641 93.23227691650391 69.60939025878906 95.70149230957031 C 63.56611633300781 98.25757598876953 57.14571762084961 99.55361938476562 50.52651596069336 99.55361938476562 Z" stroke="none"/>
                      <path d="M 50.52651596069336 2.999992370605469 C 44.10914611816406 2.999992370605469 37.88534545898438 4.256172180175781 32.02796173095703 6.733619689941406 C 26.36890411376953 9.127204895019531 21.28591918945312 12.55446624755859 16.92019653320312 16.92018890380859 C 12.55446624755859 21.28591156005859 9.127204895019531 26.368896484375 6.733627319335938 32.02796173095703 C 4.256179809570312 37.88534545898438 2.999992370605469 44.10914611816406 2.999992370605469 50.527099609375 C 2.999992370605469 56.94446563720703 4.256179809570312 63.16826629638672 6.733627319335938 69.025634765625 C 9.127204895019531 74.68471527099609 12.55446624755859 79.7677001953125 16.92019653320312 84.1334228515625 C 21.28591918945312 88.4991455078125 26.36890411376953 91.9263916015625 32.02796173095703 94.31997680664062 C 37.88534545898438 96.79743957519531 44.10914611816406 98.05360412597656 50.52651596069336 98.05360412597656 C 56.94387054443359 98.05360412597656 63.16768646240234 96.79743957519531 69.02505493164062 94.31997680664062 C 74.68411254882812 91.9263916015625 79.76712036132812 88.4991455078125 84.13282775878906 84.1334228515625 C 88.49855041503906 79.7677001953125 91.92581176757812 74.68471527099609 94.31938934326172 69.025634765625 C 96.79683685302734 63.16826629638672 98.05302429199219 56.94446563720703 98.05302429199219 50.52651214599609 C 98.05302429199219 44.10914611816406 96.79683685302734 37.88534545898438 94.31938934326172 32.02796173095703 C 91.92581176757812 26.368896484375 88.49855041503906 21.28591156005859 84.13282775878906 16.92018890380859 C 79.76712036132812 12.55446624755859 74.68411254882812 9.127204895019531 69.02505493164062 6.733619689941406 C 63.16768646240234 4.256172180175781 56.94387054443359 2.999992370605469 50.52651596069336 2.999992370605469 M 50.52651596069336 -7.62939453125e-06 C 78.43153381347656 -7.62939453125e-06 101.0530242919922 22.62148284912109 101.0530242919922 50.52651214599609 L 101.0530242919922 50.527099609375 C 101.0530242919922 78.43212890625 78.43153381347656 101.0536041259766 50.52651596069336 101.0536041259766 C 22.62148284912109 101.0536041259766 -7.62939453125e-06 78.43212890625 -7.62939453125e-06 50.527099609375 L -7.62939453125e-06 50.52651214599609 C -7.62939453125e-06 22.62148284912109 22.62148284912109 -7.62939453125e-06 50.52651596069336 -7.62939453125e-06 Z" stroke="none" fill="#fff"/>
                    </g>
                  </g>
                </g>
              </g>
            </g>
          </g>
        </g>
      </g>
    </g>
    <g id="norma4" transform="translate(739.44 674.84)">
      <g id="Group_1203863" data-name="Group 1203863" transform="translate(23.369 0.928)">
        <path id="Path_1258551" data-name="Path 1258551" d="M215.582,7.5H181.917a1.862,1.862,0,0,0-1.857,1.857V54.162L216.2,55.4l1.238-46.043A1.862,1.862,0,0,0,215.582,7.5Z" transform="translate(-161.479 -7.5)" fill="#e1dee2"/>
        <path id="Path_1258552" data-name="Path 1258552" d="M214.964,24.357v1.857h-34.9V69.781h35.522a1.862,1.862,0,0,0,1.857-1.857V22.5h-.619A1.862,1.862,0,0,0,214.964,24.357Z" transform="translate(-161.479 -20.643)" fill="#c5bec6"/>
        <path id="Path_1258553" data-name="Path 1258553" d="M185.582,37.5H151.917a1.862,1.862,0,0,0-1.857,1.857V84.162L186.2,85.4l1.238-46.043A1.862,1.862,0,0,0,185.582,37.5Z" transform="translate(-135.193 -33.787)" fill="#faf8f8"/>
        <path id="Path_1258554" data-name="Path 1258554" d="M184.964,54.357v42.02a.928.928,0,0,1-.928.928H150.06v.619a1.862,1.862,0,0,0,1.857,1.857h33.666a1.862,1.862,0,0,0,1.857-1.857V52.5h-.619A1.862,1.862,0,0,0,184.964,54.357Z" transform="translate(-135.193 -46.93)" fill="#e1dee2"/>
        <path id="Path_1258555" data-name="Path 1258555" d="M63.788,462.3a5.943,5.943,0,0,0-.81-.054H42.157A5.19,5.19,0,0,0,37.5,465l28.6,1.238A6.131,6.131,0,0,0,63.788,462.3Z" transform="translate(-36.561 -405.962)" fill="#d09180"/>
        <path id="Path_1258556" data-name="Path 1258556" d="M61.953,467.862s-.753-4.622-4.785-5.175a7.825,7.825,0,0,1,.717,1.453.927.927,0,0,1-.872,1.247H30.875a8.028,8.028,0,0,0-.935,2.475Z" transform="translate(-29.94 -406.348)" fill="#b46e5a"/>
        <path id="Path_1258557" data-name="Path 1258557" d="M297.713,422.179c.312-.54.767-2.577-.291-3.136-2.871-1.469-9.947-4.919-9.947-4.919l-1.857.877v2.339s6.526,4.4,9.233,6.154C295.865,424.131,297.4,422.718,297.713,422.179Z" transform="translate(-253.972 -363.795)" fill="#d09180"/>
        <path id="Path_1258558" data-name="Path 1258558" d="M363.847,454.427c-.185-.107-.559-.3-1.058-.559a4.648,4.648,0,0,1-2.57,4.451c.471.3.828.53,1.013.637a2.615,2.615,0,1,0,2.615-4.529Z" transform="translate(-319.34 -398.62)" fill="#b46e5a"/>
        <path id="Path_1258559" data-name="Path 1258559" d="M235.832,384.309l-7.295-4.212-1.857.937v2.279l7.295,4.212Z" transform="translate(-202.33 -333.98)" fill="#b46e5a"/>
        <path id="Path_1258560" data-name="Path 1258560" d="M0,0H3.713V4.106H0Z" transform="matrix(0.5, -0.866, 0.866, 0.5, 20.794, 47.28)" fill="#a65d4e"/>
        <path id="Path_1258561" data-name="Path 1258561" d="M168.572,345.6s2.615,1.445,1.754,2.935l-1.857,3.216c-.86,1.49-3.419-.052-3.419-.052l-2.164-5.315Z" transform="translate(-146.432 -303.749)" fill="#d09180"/>
        <path id="Path_1258562" data-name="Path 1258562" d="M102.521,278.211l-1.529-3.314-7.522.689c-.931,1.612-.931,4.225-1.862,5.837s-3.193,2.919-4.124,4.531l3.164,6.859,3.635-.333Z" transform="translate(-80.361 -241.801)" fill="#d09180"/>
        <path id="Path_1258563" data-name="Path 1258563" d="M150.654,301.676c-1.356,2.2-4.425,4-5.7,6.219s-1.308,5.777-2.534,8.05l3.888-.356c.931-1.613.931-4.225,1.862-5.837s3.193-2.919,4.124-4.531Z" transform="translate(-128.495 -265.265)" fill="#b46e5a"/>
        <path id="Path_1258564" data-name="Path 1258564" d="M67.365,397.815c1.686,0,5.009-2.2,5.009-2.2L59.6,390.12a5.248,5.248,0,0,0-.225,2.715c.249.929,1.5,2.136,3.084,3.239A11.278,11.278,0,0,0,67.365,397.815Z" transform="translate(-55.65 -342.763)" fill="#d09180"/>
        <path id="Path_1258565" data-name="Path 1258565" d="M89.332,435.739c-.929.249-2.6-.229-4.347-1.051,2.58,1.794,6.052,3.313,7.562,2.908a5.268,5.268,0,0,0,2.242-1.55v-1.857H91.573a5.266,5.266,0,0,1-2.242,1.55Z" transform="translate(-78.172 -381.377)" fill="#b46e5a"/>
        <path id="Path_1258566" data-name="Path 1258566" d="M65.054,362.957a1.284,1.284,0,0,0-1.786.478l-.872,1.51a6.329,6.329,0,0,0-.51,1.215l9.447,5.454,3.814-1.321c.361-.625-.775-1.957-2.5-2.951Z" transform="translate(-57.932 -318.803)" fill="#ebae9d"/>
        <path id="Path_1258567" data-name="Path 1258567" d="M139.534,399.676a1.191,1.191,0,0,1,.353,1.713l-.872,1.51a6.292,6.292,0,0,1-.8,1.049l3.216,1.857a6.288,6.288,0,0,0,.8-1.049l.872-1.51a1.307,1.307,0,0,0-.479-1.786Z" transform="translate(-124.815 -351.136)" fill="#d09180"/>
        <path id="Path_1258568" data-name="Path 1258568" d="M156.009,236.779c.843,1.461.6,5.439.6,5.439L145.464,233.9a5.248,5.248,0,0,1,2.239-1.552c.929-.249,2.6.229,4.347,1.051A11.276,11.276,0,0,1,156.009,236.779Z" transform="translate(-131.165 -204.465)" fill="#d09180"/>
        <path id="Path_1258569" data-name="Path 1258569" d="M201.752,244.553c-.249-.929-1.5-2.136-3.084-3.239,2.844,1.337,5.895,3.584,6.3,5.1a5.266,5.266,0,0,1-.222,2.716l-1.608.928-1.608-2.785A5.267,5.267,0,0,0,201.752,244.553Z" transform="translate(-177.784 -212.374)" fill="#b46e5a"/>
        <path id="Path_1258570" data-name="Path 1258570" d="M131.137,249.7a1.284,1.284,0,0,1-.479-1.786l.872-1.51a6.339,6.339,0,0,1,.8-1.05l9.447,5.454.763,3.963c-.361.625-2.082.307-3.8-.686Z" transform="translate(-118.029 -215.918)" fill="#ebae9d"/>
        <path id="Path_1258571" data-name="Path 1258571" d="M197.227,292.7a1.191,1.191,0,0,0,1.66-.551l.872-1.51a6.286,6.286,0,0,0,.509-1.216l3.216,1.857a6.3,6.3,0,0,1-.509,1.216l-.872,1.51a1.307,1.307,0,0,1-1.786.478Z" transform="translate(-176.522 -254.532)" fill="#d09180"/>
      </g>
      <g id="Group_1203864" data-name="Group 1203864" transform="translate(22.441)">
        <path id="Path_1258572" data-name="Path 1258572" d="M403.671,85.5a.928.928,0,0,0-.928.928v36.08a.929.929,0,0,1-.928.928h-.928v-5.1a.928.928,0,1,0-1.857,0v8.5a.929.929,0,0,1-.928.928h-4.575a.928.928,0,0,0,0,1.857H398.1a2.788,2.788,0,0,0,2.785-2.785v-1.547h.928a2.788,2.788,0,0,0,2.785-2.785V86.426A.928.928,0,0,0,403.671,85.5Z" transform="translate(-346.783 -74.916)"/>
        <path id="Path_1258573" data-name="Path 1258573" d="M182.724,0H149.058a2.788,2.788,0,0,0-2.785,2.785v.928h-.928A2.788,2.788,0,0,0,142.56,6.5V16a.928.928,0,1,0,1.857,0V6.5a.929.929,0,0,1,.928-.928h33.666a.929.929,0,0,1,.928.928V39.706a.928.928,0,1,0,1.857,0V6.5a2.788,2.788,0,0,0-2.785-2.785H148.13V2.785a.929.929,0,0,1,.928-.928h33.666a.929.929,0,0,1,.928.928V7.8a.928.928,0,1,0,1.857,0V2.785A2.788,2.788,0,0,0,182.724,0Z" transform="translate(-127.693)"/>
        <path id="Path_1258574" data-name="Path 1258574" d="M193.168,172.157h21.605a.928.928,0,1,0,0-1.857H193.168a.928.928,0,1,0,0,1.857Z" transform="translate(-171.224 -149.222)"/>
        <path id="Path_1258575" data-name="Path 1258575" d="M193.168,132.157H211.06a.928.928,0,0,0,0-1.857H193.168a.928.928,0,0,0,0,1.857Z" transform="translate(-171.224 -114.173)"/>
        <path id="Path_1258576" data-name="Path 1258576" d="M193.168,92.157H218.21a.928.928,0,0,0,0-1.857H193.168a.928.928,0,0,0,0,1.857Z" transform="translate(-171.224 -79.123)"/>
        <path id="Path_1258577" data-name="Path 1258577" d="M68.34,188.885c-1.17-.676-9.308-4.653-10.83-5.395h3.954a.928.928,0,1,0,0-1.857h-7.2L48.9,178.54H69.427a.928.928,0,0,0,0-1.857H47.934a4.867,4.867,0,0,0-.977-1.072,8.727,8.727,0,0,0,.59-.686,2.235,2.235,0,0,0,2.206-1.1l.136-.235H69.427a.928.928,0,0,0,0-1.857H50.913a7.914,7.914,0,0,0,.661-3.094H69.427a.928.928,0,0,0,0-1.857H51.037a12.242,12.242,0,0,0-3.38-3.094h21.77a.928.928,0,0,0,0-1.857H44.311c-1.49-.669-3.371-1.3-4.645-.956a3.72,3.72,0,0,0-.5.176v-8.387a.928.928,0,0,0-1.857,0v9.692a7.781,7.781,0,0,0-1.242,1.553l-.867,1.5a2.169,2.169,0,0,0-.249,1.668,2.236,2.236,0,0,0,.392.806,15.148,15.148,0,0,0-.7,2.5,9.857,9.857,0,0,1-.828,2.654.928.928,0,1,0,1.608.928,11.256,11.256,0,0,0,1.034-3.183,18.307,18.307,0,0,1,.457-1.8l8.893,5.134a18.317,18.317,0,0,1-1.327,1.294,11.251,11.251,0,0,0-2.24,2.487,11.255,11.255,0,0,0-1.034,3.183,18.309,18.309,0,0,1-.457,1.8l-8.891-5.133c.262-.3.56-.585.857-.863a.928.928,0,1,0-1.267-1.357,11.918,11.918,0,0,0-1.333,1.417,2.232,2.232,0,0,0-.894.063A2.169,2.169,0,0,0,27.9,178.06l-.867,1.5A7.059,7.059,0,0,0,26.2,184.2c.547,2.042,4.031,4.188,5.086,4.8.117.068.266.152.44.247H28.965c-4.378,0-6.174,3.931-6.512,6.009a.928.928,0,0,0,.916,1.077H55.382a.928.928,0,0,0,.916-1.077c-.338-2.078-2.135-6.009-6.512-6.009H40.613a7.236,7.236,0,0,0,.975-1.272l.872-1.51a2.237,2.237,0,0,0-.15-2.463,8.751,8.751,0,0,0,.3-.853,4.685,4.685,0,0,0,1.573.314,2.689,2.689,0,0,0,.673-.081,2.2,2.2,0,0,0,.715-.329l4.779,2.759H45.407a.928.928,0,1,0,0,1.857h8.157l.958.553c.643.434,9.032,6.09,10.275,6.808a3.543,3.543,0,1,0,3.543-6.137Zm-13.665-2.726-8-4.619.928-1.608,8,4.619ZM40.146,162.668a1.327,1.327,0,0,1,.338-.037,12.117,12.117,0,0,1,4.95,1.858c2.514,1.452,4.027,2.945,4.221,3.67a2.907,2.907,0,0,1,.04,1.038l-10.466-6.043A2.891,2.891,0,0,1,40.146,162.668Zm-3.356,3.7.012-.02.872-1.51c.057-.1.128-.206.208-.318l11.306,6.527a3.75,3.75,0,0,1-.171.339l-.872,1.51a.38.38,0,0,1-.518.139l-10.687-6.17a.4.4,0,0,1-.191-.244A.319.319,0,0,1,36.791,166.367Zm-4.575,21.018c-2.515-1.452-4.027-2.945-4.221-3.67a2.889,2.889,0,0,1-.038-1.037l10.466,6.043a2.905,2.905,0,0,1-.919.484,1.158,1.158,0,0,1-.237.034h-.206A12.656,12.656,0,0,1,32.216,187.384Zm21.946,7.085H24.6a6.937,6.937,0,0,1,.581-1.2,4.234,4.234,0,0,1,3.787-2.174H49.786A4.649,4.649,0,0,1,54.162,194.469Zm-13.309-8.94-.872,1.51a3.79,3.79,0,0,1-.208.317l-11.306-6.527c.056-.125.114-.24.171-.339l.872-1.51.012-.021a.319.319,0,0,1,.2-.161.37.37,0,0,1,.1-.013.416.416,0,0,1,.207.057l10.687,6.17a.379.379,0,0,1,.139.518Zm2.2-4.208a9.2,9.2,0,0,1,.791-2.488A9.187,9.187,0,0,1,45.6,176.9a2.525,2.525,0,0,1,.892,1.033.3.3,0,0,1-.034.263L44.6,181.416a.3.3,0,0,1-.211.161A2.523,2.523,0,0,1,43.052,181.321ZM68.029,192.8a1.689,1.689,0,0,1-2.3.617c-.9-.518-6.23-4.089-9.474-6.273l.991-1.716c3.514,1.716,9.272,4.55,10.17,5.068A1.689,1.689,0,0,1,68.029,192.8Z" transform="translate(-22.441 -132.954)"/>
      </g>
    </g>
  </g>
</svg>
