<svg xmlns="http://www.w3.org/2000/svg" xmlns:xlink="http://www.w3.org/1999/xlink" width="119.053" height="119.054" viewBox="0 0 119.053 119.054">
  <defs>
    <filter id="Path_874925" x="0" y="0" width="119.053" height="119.054" filterUnits="userSpaceOnUse">
      <feOffset dy="3" input="SourceAlpha"/>
      <feGaussianBlur stdDeviation="3" result="blur"/>
      <feFlood flood-opacity="0.161"/>
      <feComposite operator="in" in2="blur"/>
      <feComposite in="SourceGraphic"/>
    </filter>
  </defs>
  <g id="Group_1203469" data-name="Group 1203469" transform="translate(-320.051 -649.999)">
    <g id="Group_1200946" data-name="Group 1200946" transform="translate(44.051 -5594.875)">
      <g id="Group_1200232" data-name="Group 1200232" transform="translate(285 6250.874)">
        <g id="Group_1187153" data-name="Group 1187153">
          <g id="Group_1182177" data-name="Group 1182177">
            <g id="Group_1181903" data-name="Group 1181903">
              <g id="Group_1181438" data-name="Group 1181438">
                <g id="Group_1111314" data-name="Group 1111314">
                  <g transform="matrix(1, 0, 0, 1, -9, -6)" filter="url(#Path_874925)">
                    <g id="Path_874925-2" data-name="Path 874925" transform="translate(9 6)" fill="#ef8c1a">
                      <path d="M 50.52651596069336 99.55361938476562 C 43.90731430053711 99.55361938476562 37.48691558837891 98.25757598876953 31.44364547729492 95.70149230957031 C 25.60577392578125 93.23227691650391 20.36252975463867 89.69707489013672 15.85953044891357 85.194091796875 C 11.35654449462891 80.69109344482422 7.821344375610352 75.44783782958984 5.35213041305542 69.60997772216797 C 2.796044588088989 63.56670761108398 1.500001668930054 57.14628982543945 1.500001668930054 50.52709197998047 C 1.500001668930054 43.90732192993164 2.796044588088989 37.48691940307617 5.35213041305542 31.44364929199219 C 7.821344375610352 25.60577774047852 11.35654449462891 20.36253356933594 15.85953044891357 15.85953426361084 C 20.36252975463867 11.35654830932617 25.60577392578125 7.821348667144775 31.44364547729492 5.352134227752686 C 37.48691558837891 2.796048641204834 43.90731430053711 1.500005841255188 50.52651596069336 1.500005841255188 C 57.14571762084961 1.500005841255188 63.56611633300781 2.796048641204834 69.60939025878906 5.352134227752686 C 75.44724273681641 7.821348667144775 80.69049835205078 11.35654830932617 85.19348907470703 15.85953426361084 C 89.69648742675781 20.36253356933594 93.231689453125 25.60577774047852 95.70090484619141 31.44364929199219 C 98.25698852539062 37.48691940307617 99.55303192138672 43.90732192993164 99.55303192138672 50.52651977539062 C 99.55303192138672 57.14628982543945 98.25698852539062 63.56670761108398 95.70090484619141 69.60997772216797 C 93.231689453125 75.44783782958984 89.69648742675781 80.69109344482422 85.19348907470703 85.194091796875 C 80.69049835205078 89.69707489013672 75.44724273681641 93.23227691650391 69.60939025878906 95.70149230957031 C 63.56611633300781 98.25757598876953 57.14571762084961 99.55361938476562 50.52651596069336 99.55361938476562 Z" stroke="none"/>
                      <path d="M 50.52651596069336 2.999992370605469 C 44.10914611816406 2.999992370605469 37.88534545898438 4.256172180175781 32.02796173095703 6.733619689941406 C 26.36890411376953 9.127204895019531 21.28591918945312 12.55446624755859 16.92019653320312 16.92018890380859 C 12.55446624755859 21.28591156005859 9.127204895019531 26.368896484375 6.733627319335938 32.02796173095703 C 4.256179809570312 37.88534545898438 2.999992370605469 44.10914611816406 2.999992370605469 50.527099609375 C 2.999992370605469 56.94446563720703 4.256179809570312 63.16826629638672 6.733627319335938 69.025634765625 C 9.127204895019531 74.68471527099609 12.55446624755859 79.7677001953125 16.92019653320312 84.1334228515625 C 21.28591918945312 88.4991455078125 26.36890411376953 91.9263916015625 32.02796173095703 94.31997680664062 C 37.88534545898438 96.79743957519531 44.10914611816406 98.05360412597656 50.52651596069336 98.05360412597656 C 56.94387054443359 98.05360412597656 63.16768646240234 96.79743957519531 69.02505493164062 94.31997680664062 C 74.68411254882812 91.9263916015625 79.76712036132812 88.4991455078125 84.13282775878906 84.1334228515625 C 88.49855041503906 79.7677001953125 91.92581176757812 74.68471527099609 94.31938934326172 69.025634765625 C 96.79683685302734 63.16826629638672 98.05302429199219 56.94446563720703 98.05302429199219 50.52651214599609 C 98.05302429199219 44.10914611816406 96.79683685302734 37.88534545898438 94.31938934326172 32.02796173095703 C 91.92581176757812 26.368896484375 88.49855041503906 21.28591156005859 84.13282775878906 16.92018890380859 C 79.76712036132812 12.55446624755859 74.68411254882812 9.127204895019531 69.02505493164062 6.733619689941406 C 63.16768646240234 4.256172180175781 56.94387054443359 2.999992370605469 50.52651596069336 2.999992370605469 M 50.52651596069336 -7.62939453125e-06 C 78.43153381347656 -7.62939453125e-06 101.0530242919922 22.62148284912109 101.0530242919922 50.52651214599609 L 101.0530242919922 50.527099609375 C 101.0530242919922 78.43212890625 78.43153381347656 101.0536041259766 50.52651596069336 101.0536041259766 C 22.62148284912109 101.0536041259766 -7.62939453125e-06 78.43212890625 -7.62939453125e-06 50.527099609375 L -7.62939453125e-06 50.52651214599609 C -7.62939453125e-06 22.62148284912109 22.62148284912109 -7.62939453125e-06 50.52651596069336 -7.62939453125e-06 Z" stroke="none" fill="#fff"/>
                    </g>
                  </g>
                </g>
              </g>
            </g>
          </g>
        </g>
      </g>
    </g>
    <g id="obediente" transform="translate(336.973 677)">
      <g id="Group_1203838" data-name="Group 1203838" transform="translate(26.527 0.848)">
        <path id="Path_1258516" data-name="Path 1258516" d="M152.895,7.5H116.88a.566.566,0,0,0-.565.565V23.743h3.709a2.771,2.771,0,0,1,.193,5.536v3.438h0a1.13,1.13,0,0,1,.959,1.116v7.02a1.13,1.13,0,0,1-.959,1.116h0v3.438a2.771,2.771,0,0,1-.193,5.536h-3.709v4.641h7.8a1.131,1.131,0,0,1,1.131,1.131v2.25s0,0,0,0h.862a1.131,1.131,0,0,1,1.131,1.131v3.607h26.218V8.065A.566.566,0,0,0,152.895,7.5Z" transform="translate(-116.315 -7.5)" fill="#fff3de"/>
      </g>
      <g id="Group_1203839" data-name="Group 1203839" transform="translate(26.527 0.848)">
        <path id="Path_1258517" data-name="Path 1258517" d="M120.024,23.743l.1,0V8.065a.566.566,0,0,1,.565-.565h-3.81a.566.566,0,0,0-.565.565V23.743Z" transform="translate(-116.315 -7.5)" fill="#ffe5c2"/>
        <path id="Path_1258518" data-name="Path 1258518" d="M120.024,391.629h-3.709v4.641h3.81v-4.643Z" transform="translate(-116.315 -348.185)" fill="#ffe5c2"/>
      </g>
      <g id="Group_1203857" data-name="Group 1203857" transform="translate(15.926 17.091)">
        <g id="Group_1203840" data-name="Group 1203840" transform="translate(15.462 11.667)">
          <path id="Path_1258519" data-name="Path 1258519" d="M159.3,254.29h5.235v3.867H159.3Z" transform="translate(-159.296 -254.29)" fill="#883f2e"/>
          <path id="Path_1258520" data-name="Path 1258520" d="M237.5,254.29h7.477v3.867H237.5Z" transform="translate(-228.657 -254.29)" fill="#883f2e"/>
        </g>
        <g id="Group_1203841" data-name="Group 1203841" transform="translate(15.462 13.67)">
          <path id="Path_1258521" data-name="Path 1258521" d="M159.3,272h5.235v1.865H159.3Z" transform="translate(-159.296 -272)" fill="#6d3326"/>
          <path id="Path_1258522" data-name="Path 1258522" d="M237.5,272h7.477v1.865H237.5Z" transform="translate(-228.657 -272)" fill="#6d3326"/>
        </g>
        <g id="Group_1203842" data-name="Group 1203842" transform="translate(31.783 10.764)">
          <path id="Path_1258523" data-name="Path 1258523" d="M324.629,249.146a2.836,2.836,0,0,1-2.836,2.836H304.261a.645.645,0,0,1-.645-.645v-4.383a.645.645,0,0,1,.645-.645h17.533A2.836,2.836,0,0,1,324.629,249.146Z" transform="translate(-303.616 -246.31)" fill="#ca6e59"/>
        </g>
        <g id="Group_1203843" data-name="Group 1203843" transform="translate(31.783 10.764)">
          <path id="Path_1258524" data-name="Path 1258524" d="M307.471,249.555a.645.645,0,0,1-.645-.645v-2.6h-2.565a.645.645,0,0,0-.645.645v4.383a.645.645,0,0,0,.645.645h17.532a2.836,2.836,0,0,0,2.806-2.428Z" transform="translate(-303.616 -246.31)" fill="#bb5d4c"/>
        </g>
        <g id="Group_1203844" data-name="Group 1203844" transform="translate(20.697 10.764)">
          <path id="Path_1258525" data-name="Path 1258525" d="M209.195,246.876v4.541a.566.566,0,0,1-.565.565H206.15a.566.566,0,0,1-.565-.565v-4.541a.566.566,0,0,1,.565-.565h2.479A.565.565,0,0,1,209.195,246.876Z" transform="translate(-205.585 -246.311)" fill="#ca6e59"/>
        </g>
        <g id="Group_1203845" data-name="Group 1203845" transform="translate(20.697 10.764)">
          <path id="Path_1258526" data-name="Path 1258526" d="M207.225,251.418v-4.541a.566.566,0,0,1,.565-.565h-1.64a.566.566,0,0,0-.565.565v4.541a.566.566,0,0,0,.565.565h1.64A.565.565,0,0,1,207.225,251.418Z" transform="translate(-205.585 -246.311)" fill="#bb5d4c"/>
        </g>
        <g id="Group_1203846" data-name="Group 1203846" transform="translate(7.026 5.536)">
          <path id="Path_1258527" data-name="Path 1258527" d="M92.008,312.311H84.875a1.135,1.135,0,0,1-.172-.014v3.438c.064,0,.128-.007.193-.007h7.09c.065,0,.129,0,.193.007V312.3A1.123,1.123,0,0,1,92.008,312.311Z" transform="translate(-84.703 -299.606)" fill="#883f2e"/>
          <path id="Path_1258528" data-name="Path 1258528" d="M84.875,312.311a1.135,1.135,0,0,1-.172-.014v3.438c.064,0,.128-.007.193-.007h2.655v-3.416H84.875Z" transform="translate(-84.703 -299.606)" fill="#6d3326"/>
          <path id="Path_1258529" data-name="Path 1258529" d="M84.875,203.5h7.133a1.137,1.137,0,0,1,.172.014v-3.438c-.064,0-.128.007-.193.007H84.9c-.065,0-.129,0-.193-.007v3.438a1.137,1.137,0,0,1,.172-.014Z" transform="translate(-84.703 -200.079)" fill="#883f2e"/>
          <path id="Path_1258530" data-name="Path 1258530" d="M84.875,203.5h2.676v-3.416H84.9c-.065,0-.129,0-.193-.007v3.438a1.151,1.151,0,0,1,.172-.014Z" transform="translate(-84.703 -200.078)" fill="#6d3326"/>
        </g>
        <g id="Group_1203847" data-name="Group 1203847" transform="translate(6.067 8.96)">
          <path id="Path_1258531" data-name="Path 1258531" d="M85.62,231.483v7.02a1.131,1.131,0,0,1-1.131,1.131H77.356a1.131,1.131,0,0,1-1.131-1.131v-7.02a1.131,1.131,0,0,1,1.131-1.131h7.133A1.131,1.131,0,0,1,85.62,231.483Z" transform="translate(-76.225 -230.352)" fill="#ca6e59"/>
        </g>
        <g id="Group_1203848" data-name="Group 1203848" transform="translate(6.067 8.96)">
          <path id="Path_1258532" data-name="Path 1258532" d="M80.045,238.5v-7.02a1.131,1.131,0,0,1,1.131-1.131h-3.82a1.131,1.131,0,0,0-1.131,1.131v7.02a1.131,1.131,0,0,0,1.131,1.131h3.82A1.131,1.131,0,0,1,80.045,238.5Z" transform="translate(-76.225 -230.352)" fill="#bb5d4c"/>
        </g>
        <g id="Group_1203851" data-name="Group 1203851" transform="translate(0 31.842)">
          <path id="Path_1258533" data-name="Path 1258533" d="M57.733,436.182a1.157,1.157,0,0,0,.006-.116v-2.25a1.131,1.131,0,0,0-1.131-1.131H41.326a1.131,1.131,0,0,0-1.131,1.131v2.25a1.157,1.157,0,0,0,.006.116Z" transform="translate(-38.203 -432.685)" fill="#ca6e59"/>
          <path id="Path_1258534" data-name="Path 1258534" d="M44.024,436.182a1.157,1.157,0,0,1-.006-.116v-2.25a1.131,1.131,0,0,1,1.131-1.131H41.326a1.131,1.131,0,0,0-1.131,1.131v2.25a1.157,1.157,0,0,0,.006.116Z" transform="translate(-38.203 -432.685)" fill="#bb5d4c"/>
          <g id="Group_1203849" data-name="Group 1203849" transform="translate(0 3.384)">
            <path id="Path_1258535" data-name="Path 1258535" d="M44.107,467.346H23.143a.566.566,0,0,1-.565-.565v-3.041a1.131,1.131,0,0,1,1.131-1.131H42.976a1.131,1.131,0,0,1,1.131,1.131Z" transform="translate(-22.578 -462.608)" fill="#883f2e"/>
          </g>
          <g id="Group_1203850" data-name="Group 1203850" transform="translate(0 3.384)">
            <path id="Path_1258536" data-name="Path 1258536" d="M26.358,466.78v-3.041a1.131,1.131,0,0,1,1.131-1.131h-3.78a1.131,1.131,0,0,0-1.131,1.131v3.041a.566.566,0,0,0,.565.565h3.78A.566.566,0,0,1,26.358,466.78Z" transform="translate(-22.578 -462.608)" fill="#6d3326"/>
          </g>
        </g>
        <g id="Group_1203856" data-name="Group 1203856" transform="translate(4.448)">
          <g id="Group_1203852" data-name="Group 1203852" transform="translate(0 21.658)">
            <path id="Path_1258537" data-name="Path 1258537" d="M74.539,345.4a2.772,2.772,0,0,1-2.772,2.772h-7.09a2.772,2.772,0,1,1,0-5.543h7.09A2.772,2.772,0,0,1,74.539,345.4Z" transform="translate(-61.905 -342.633)" fill="#ca6e59"/>
          </g>
          <g id="Group_1203853" data-name="Group 1203853" transform="translate(0 21.658)">
            <path id="Path_1258538" data-name="Path 1258538" d="M65.68,345.4a2.772,2.772,0,0,1,2.772-2.772H64.677a2.772,2.772,0,1,0,0,5.543h3.775A2.772,2.772,0,0,1,65.68,345.4Z" transform="translate(-61.905 -342.633)" fill="#bb5d4c"/>
          </g>
          <g id="Group_1203854" data-name="Group 1203854" transform="translate(0)">
            <path id="Path_1258539" data-name="Path 1258539" d="M74.539,153.9a2.772,2.772,0,0,1-2.772,2.772h-7.09a2.772,2.772,0,1,1,0-5.543h7.09A2.772,2.772,0,0,1,74.539,153.9Z" transform="translate(-61.905 -151.128)" fill="#ca6e59"/>
          </g>
          <g id="Group_1203855" data-name="Group 1203855">
            <path id="Path_1258540" data-name="Path 1258540" d="M65.68,153.9a2.772,2.772,0,0,1,2.772-2.772H64.677a2.772,2.772,0,1,0,0,5.543h3.775A2.772,2.772,0,0,1,65.68,153.9Z" transform="translate(-61.905 -151.128)" fill="#bb5d4c"/>
          </g>
        </g>
      </g>
      <g id="Group_1203860" data-name="Group 1203860" transform="translate(37.164 6.119)">
        <g id="Group_1203858" data-name="Group 1203858" transform="translate(0)">
          <circle id="Ellipse_12724" data-name="Ellipse 12724" cx="7.936" cy="7.936" r="7.936" fill="#4fc123"/>
        </g>
        <g id="Group_1203859" data-name="Group 1203859" transform="translate(0)">
          <path id="Path_1258541" data-name="Path 1258541" d="M214.175,62.043a7.938,7.938,0,0,1,6.034-7.7,7.936,7.936,0,1,0,0,15.409A7.938,7.938,0,0,1,214.175,62.043Z" transform="translate(-210.372 -54.107)" fill="#47a920"/>
        </g>
      </g>
      <g id="Group_1203861" data-name="Group 1203861" transform="translate(15.078 0)">
        <path id="Path_1258542" data-name="Path 1258542" d="M65.887,27.008H64.521V12.327a.848.848,0,0,0-.874-.848.872.872,0,0,0-.822.883V27.008H57.14a.848.848,0,1,0,0,1.7h8.747a1.988,1.988,0,1,1,0,3.976H48.558V28.7h4.624a.848.848,0,0,0,0-1.7H48.354a1.5,1.5,0,0,0-1.37.9h-6a1.415,1.415,0,0,0-1.317-.9H37.188a1.415,1.415,0,0,0-1.317.9H32.236v-.728a1.978,1.978,0,0,0-.959-1.693V23.33a3.62,3.62,0,0,0-1.041-7.086H27.375V1.7H62.824V8.369a.848.848,0,0,0,.874.848.872.872,0,0,0,.822-.883V1.414A1.414,1.414,0,0,0,63.107,0H27.092a1.414,1.414,0,0,0-1.414,1.414v14.83H23.145A3.62,3.62,0,0,0,22.1,23.33v2.16a1.978,1.978,0,0,0-.959,1.693V34.2a1.978,1.978,0,0,0,.959,1.693v2.16a3.62,3.62,0,0,0,1.042,7.086h2.533v2.945H19.049a1.981,1.981,0,0,0-1.979,1.979v1.4h-.013a1.981,1.981,0,0,0-1.979,1.979V56.49A1.415,1.415,0,0,0,16.492,57.9H63.107a1.414,1.414,0,0,0,1.414-1.414V34.376h1.366a3.684,3.684,0,0,0,0-7.369Zm-24.806,2.6h5.781v2.171H41.081Zm-3.61-.9h1.913V32.68H37.471Zm-5.235.9h3.539v2.171H32.236ZM21.222,19.863a1.926,1.926,0,0,1,1.923-1.923h7.09a1.923,1.923,0,1,1,0,3.847h-7.09A1.926,1.926,0,0,1,21.222,19.863Zm1.9,14.622a.283.283,0,0,1-.283-.283v-7.02a.283.283,0,0,1,.283-.283h7.133a.283.283,0,0,1,.283.283V34.2a.283.283,0,0,1-.283.283Zm6.457,1.7V37.9H23.8v-1.72ZM23.8,25.2v-1.72h5.781V25.2Zm-.655,18.241a1.923,1.923,0,1,1,0-3.847h7.09a1.923,1.923,0,0,1,0,3.847ZM36.607,56.207H16.774V53.448a.283.283,0,0,1,.283-.283h5.25a.848.848,0,1,0,0-1.7h-3.54v-1.4a.283.283,0,0,1,.283-.283H34.332a.283.283,0,0,1,.283.283v1.4H26.265a.848.848,0,1,0,0,1.7H36.324a.283.283,0,0,1,.283.283Zm26.218,0H38.3V53.448a1.981,1.981,0,0,0-1.979-1.979h-.013v-1.4a1.981,1.981,0,0,0-1.979-1.979H27.375V45.141h2.861a3.62,3.62,0,0,0,1.041-7.086v-2.16a1.978,1.978,0,0,0,.959-1.693v-.728h3.636a1.415,1.415,0,0,0,1.317.9h2.479a1.415,1.415,0,0,0,1.317-.9h6a1.5,1.5,0,0,0,1.37.9h14.47V56.207Z" transform="translate(-15.078 0)"/>
        <path id="Path_1258543" data-name="Path 1258543" d="M202.872,55.391a8.784,8.784,0,1,0,8.784-8.784A8.794,8.794,0,0,0,202.872,55.391Zm15.871,0a7.087,7.087,0,1,1-7.087-7.087A7.1,7.1,0,0,1,218.743,55.391Z" transform="translate(-181.634 -41.336)"/>
        <path id="Path_1258544" data-name="Path 1258544" d="M247.791,102.843a.848.848,0,1,0-1.2,1.2l2.609,2.609a.848.848,0,0,0,1.2,0l4.044-4.044a.848.848,0,0,0-1.2-1.2l-3.444,3.444Z" transform="translate(-220.189 -89.719)"/>
        <path id="Path_1258545" data-name="Path 1258545" d="M243.681,327.917a.848.848,0,0,0,.848.848h15.6a.848.848,0,1,0,0-1.7h-15.6A.848.848,0,0,0,243.681,327.917Z" transform="translate(-217.828 -290.08)"/>
        <path id="Path_1258546" data-name="Path 1258546" d="M319.39,363.546h-8.042a.848.848,0,0,0,0,1.7h8.042a.848.848,0,0,0,0-1.7Z" transform="translate(-277.09 -322.432)"/>
        <path id="Path_1258547" data-name="Path 1258547" d="M244.529,365.242h4.616a.848.848,0,1,0,0-1.7h-4.616a.848.848,0,1,0,0,1.7Z" transform="translate(-217.828 -322.432)"/>
        <path id="Path_1258548" data-name="Path 1258548" d="M260.127,400.023h-15.6a.848.848,0,1,0,0,1.7h15.6a.848.848,0,1,0,0-1.7Z" transform="translate(-217.827 -354.783)"/>
        <path id="Path_1258549" data-name="Path 1258549" d="M350.432,436.5h-4.084a.848.848,0,1,0,0,1.7h4.084a.848.848,0,1,0,0-1.7Z" transform="translate(-308.132 -387.135)"/>
        <path id="Path_1258550" data-name="Path 1258550" d="M253.443,436.5h-8.914a.848.848,0,1,0,0,1.7h8.914a.848.848,0,1,0,0-1.7Z" transform="translate(-217.828 -387.135)"/>
      </g>
    </g>
  </g>
</svg>
