<svg xmlns="http://www.w3.org/2000/svg" xmlns:xlink="http://www.w3.org/1999/xlink" width="210" height="210" viewBox="0 0 210 210">
  <defs>
    <clipPath id="clip-path">
      <rect id="Rectangle_411546" data-name="Rectangle 411546" width="162.41" height="173.187" fill="none"/>
    </clipPath>
    <clipPath id="clip-path-3">
      <path id="Path_1258703" data-name="Path 1258703" d="M67.506,153.793a50.585,50.585,0,1,0,50.585-50.585,50.585,50.585,0,0,0-50.585,50.585" transform="translate(-67.506 -103.208)" fill="none"/>
    </clipPath>
    <clipPath id="clip-path-5">
      <rect id="Rectangle_411536" data-name="Rectangle 411536" width="31.214" height="32.486" fill="none"/>
    </clipPath>
    <clipPath id="clip-path-6">
      <rect id="Rectangle_411537" data-name="Rectangle 411537" width="98.171" height="82.475" fill="#fff4da"/>
    </clipPath>
    <clipPath id="clip-path-7">
      <rect id="Rectangle_411541" data-name="Rectangle 411541" width="26.889" height="5.007" fill="none"/>
    </clipPath>
    <clipPath id="clip-path-8">
      <rect id="Rectangle_411542" data-name="Rectangle 411542" width="40.303" height="7.505" fill="none"/>
    </clipPath>
    <clipPath id="clip-path-9">
      <rect id="Rectangle_411543" data-name="Rectangle 411543" width="23.175" height="5.8" fill="none"/>
    </clipPath>
  </defs>
  <g id="Group_1203913" data-name="Group 1203913" transform="translate(-1000.051 -1156)">
    <circle id="Ellipse_12727" data-name="Ellipse 12727" cx="105" cy="105" r="105" transform="translate(1000.051 1156)" fill="#f5fbee"/>
    <g id="Group_1203910" data-name="Group 1203910" transform="translate(1024.051 1168.144)">
      <g id="Group_1203909" data-name="Group 1203909" clip-path="url(#clip-path)">
        <g id="Group_1203886" data-name="Group 1203886">
          <g id="Group_1203885" data-name="Group 1203885" clip-path="url(#clip-path)">
            <path id="Path_1258691" data-name="Path 1258691" d="M149.692,106.618c-2.88-2.885-6.185-5.371-8.677-8.6-5.565-7.2-6.283-16.887-7.2-25.944s-2.645-18.862-9.423-24.937c-6.081-5.451-14.9-6.6-23.051-6.19-4.613.23-9.3.9-13.43,2.971-3.059,1.532-5.7,3.771-8.511,5.714A50.776,50.776,0,0,1,60.525,57.62c-6.515,1.294-13.3,1.311-19.614,3.365-14.17,4.608-23.292,18.577-28.025,32.706a98.922,98.922,0,0,0-4.221,18.1C7.832,117.92,7.574,124.135,6.34,130.2,3.887,142.242-2.4,154.375.968,166.2c2.763,9.71,11.7,16.666,21.285,19.836s19.882,3.188,29.978,3.295c15.7.166,31.4.947,47.368-.5,11.416-1.034,23.074-2.129,33.535-6.815,13.794-6.179,24.673-18.819,28.116-33.537s-.878-31.163-11.557-41.859" transform="translate(0 -22.981)" fill="#fff4da"/>
            <path id="Path_1258692" data-name="Path 1258692" d="M272.371,354.968l.107-3.337-1.514-.049a6.366,6.366,0,0,0-.558-1.5l1.074-1.007L269.2,346.64l-1.054.989a6.4,6.4,0,0,0-1.395-.666l.05-1.566-3.337-.107-.047,1.469a6.4,6.4,0,0,0-1.623.577l-1.019-1.087-2.435,2.284.978,1.043a6.394,6.394,0,0,0-.752,1.609l-1.51-.049-.107,3.337,1.512.049a6.381,6.381,0,0,0,.613,1.616l-1.132,1.061,2.283,2.435,1.159-1.087a6.386,6.386,0,0,0,1.632.706l-.047,1.465,3.337.107.05-1.557a6.4,6.4,0,0,0,1.489-.6l1.053,1.123,2.435-2.284-1.1-1.171a6.4,6.4,0,0,0,.632-1.418Zm-5.819.165a2.717,2.717,0,1,1,.123-3.84,2.717,2.717,0,0,1-.123,3.84" transform="translate(-144.451 -194.117)" fill="#f39706"/>
            <path id="Path_1258693" data-name="Path 1258693" d="M290.794,335.3l.041-1.263-.573-.019a2.43,2.43,0,0,0-.211-.567l.406-.381-.864-.922-.4.374a2.43,2.43,0,0,0-.528-.252l.019-.592-1.263-.041-.018.556a2.407,2.407,0,0,0-.614.218L286.4,332l-.922.864.37.394a2.429,2.429,0,0,0-.285.609l-.571-.018-.041,1.263.572.018a2.442,2.442,0,0,0,.232.612l-.428.4.864.922.439-.411a2.417,2.417,0,0,0,.617.267l-.018.555,1.263.041.019-.59a2.425,2.425,0,0,0,.563-.226l.4.425.922-.864-.415-.443a2.4,2.4,0,0,0,.239-.536Zm-2.2.062a1.028,1.028,0,1,1,.047-1.453,1.028,1.028,0,0,1-.047,1.453" transform="translate(-160.198 -186.443)" fill="#f39706"/>
            <path id="Path_1258694" data-name="Path 1258694" d="M305.972,350.624l.065-2.031-.922-.03a3.878,3.878,0,0,0-.34-.913l.654-.613-1.39-1.482-.641.6a3.912,3.912,0,0,0-.849-.4l.031-.953-2.031-.065-.029.894a3.879,3.879,0,0,0-.988.351l-.62-.662-1.482,1.39.595.634a3.9,3.9,0,0,0-.458.979l-.919-.03-.065,2.031.92.03a3.876,3.876,0,0,0,.373.983l-.689.646,1.39,1.482.706-.662a3.89,3.89,0,0,0,.993.429l-.029.892,2.031.065.031-.948a3.888,3.888,0,0,0,.906-.364l.641.683,1.482-1.39-.668-.712a3.868,3.868,0,0,0,.385-.863Zm-3.541.1a1.654,1.654,0,1,1,.075-2.337,1.653,1.653,0,0,1-.075,2.337" transform="translate(-166.735 -193.805)" fill="#f39706"/>
            <path id="Path_1258695" data-name="Path 1258695" d="M75.312,354.919a6.379,6.379,0,0,0,.633,1.418l-1.1,1.171,2.435,2.284,1.053-1.123a6.388,6.388,0,0,0,1.489.6l.05,1.557,3.337-.107-.047-1.465a6.4,6.4,0,0,0,1.632-.705l1.159,1.087,2.283-2.435-1.132-1.061a6.375,6.375,0,0,0,.613-1.616l1.512-.049-.108-3.337-1.51.049a6.407,6.407,0,0,0-.752-1.609l.978-1.043L85.4,346.248l-1.019,1.087a6.361,6.361,0,0,0-1.623-.577l-.047-1.469-3.337.107.05,1.566a6.4,6.4,0,0,0-1.395.665l-1.054-.989L74.7,349.074l1.074,1.007a6.394,6.394,0,0,0-.558,1.5l-1.514.049.107,3.337Zm4.188-3.627a2.717,2.717,0,1,1,.123,3.84,2.717,2.717,0,0,1-.123-3.84" transform="translate(-41.431 -194.117)" fill="#f39706"/>
            <path id="Path_1258696" data-name="Path 1258696" d="M68.349,335.283a2.413,2.413,0,0,0,.239.537l-.415.443.922.864.4-.425a2.426,2.426,0,0,0,.563.226l.019.589,1.263-.041-.018-.554a2.418,2.418,0,0,0,.617-.267l.439.411.864-.922-.428-.4a2.429,2.429,0,0,0,.232-.612l.572-.018-.04-1.263-.572.018a2.4,2.4,0,0,0-.285-.609l.37-.395L72.168,332l-.386.411a2.42,2.42,0,0,0-.614-.218l-.018-.556-1.263.04.019.593a2.428,2.428,0,0,0-.528.252l-.4-.374-.864.921.406.381a2.415,2.415,0,0,0-.211.568l-.573.018.041,1.263Zm1.585-1.373a1.028,1.028,0,1,1,.047,1.453,1.028,1.028,0,0,1-.047-1.453" transform="translate(-38.081 -186.443)" fill="#f39706"/>
            <path id="Path_1258697" data-name="Path 1258697" d="M48.927,350.595a3.911,3.911,0,0,0,.385.863l-.668.712,1.482,1.39.641-.683a3.909,3.909,0,0,0,.906.364l.031.947,2.031-.065-.029-.892a3.893,3.893,0,0,0,.993-.429l.705.662,1.39-1.482-.689-.646a3.887,3.887,0,0,0,.373-.983l.92-.029-.066-2.031-.919.03a3.892,3.892,0,0,0-.458-.979l.595-.634-1.482-1.39-.62.662a3.85,3.85,0,0,0-.988-.351l-.029-.894L51.4,344.8l.031.953a3.9,3.9,0,0,0-.849.4l-.641-.6-1.39,1.482.653.613a3.88,3.88,0,0,0-.339.913l-.922.029.065,2.031Zm2.549-2.207a1.653,1.653,0,1,1,.075,2.337,1.654,1.654,0,0,1-.075-2.337" transform="translate(-26.954 -193.805)" fill="#f39706"/>
            <path id="Path_1258698" data-name="Path 1258698" d="M168.677,153.792a50.585,50.585,0,1,1-50.585-50.585,50.585,50.585,0,0,1,50.585,50.585" transform="translate(-37.951 -58.022)" fill="#bccdb2"/>
            <path id="Path_1258699" data-name="Path 1258699" d="M190.881,142.875c-.4.023-.8.044-1.206.033l-.088.055Z" transform="translate(-106.584 -80.322)" fill="#9edb4f"/>
            <path id="Path_1258700" data-name="Path 1258700" d="M191.673,128.355a1.382,1.382,0,0,0-1.14-.664,7.242,7.242,0,0,0-6.818,2.8,2.739,2.739,0,0,0-.657,1.867,2.287,2.287,0,0,0,1.631,1.764,4.531,4.531,0,0,0,1.309.206,19.98,19.98,0,0,0,5.228-4.582c.32-.4.641-.917.446-1.389" transform="translate(-102.906 -71.74)" fill="#f39706"/>
          </g>
        </g>
        <g id="Group_1203888" data-name="Group 1203888" transform="translate(29.555 45.186)">
          <g id="Group_1203887" data-name="Group 1203887" clip-path="url(#clip-path-3)">
            <path id="Path_1258701" data-name="Path 1258701" d="M59.139,167.2A94.44,94.44,0,0,0,57.9,155.42c.924-.639,2.27.016,2.821.995a8.932,8.932,0,0,1,.715,3.268c.3,2.234,1.327,4.532,3.305,5.609,1.465.8,3.335.873,4.524,2.042.555.546.895,1.275,1.419,1.851a1.863,1.863,0,0,0,2.076.644c1.605,3.2.093,6.984-1.023,10.384s-1.517,7.816,1.383,9.914a18.494,18.494,0,0,0,3.414,1.545,9.889,9.889,0,0,1,5.4,10.9,17.764,17.764,0,0,0-.82,3.619,4.8,4.8,0,0,0,4.949,4.673,2.212,2.212,0,0,0,1.254-.428,2.481,2.481,0,0,0,.722-1.387c1-4.223-1.305-8.684-.41-12.931,1.683-7.984,13.165-10.525,15.4-18.372a4.4,4.4,0,0,0-.13-3.265c-.873-1.622-3.006-2-4.847-2.038s-3.885.027-5.266-1.191a10.535,10.535,0,0,1-1.651-2.312,10.64,10.64,0,0,0-10.574-4.564c-2.869.523-5.678,2.253-8.5,1.538a8.787,8.787,0,0,1-2.736-1.37c-1.888-1.287-3.76-3.037-3.956-5.314-.192-2.232,1.361-4.321,3.3-5.439A17.85,17.85,0,0,1,75.1,152.01l6.2-.9c2.221-.324,4.807-.91,5.707-2.967.842-1.923-.24-4.286.613-6.2.709-1.593,2.557-2.373,4.292-2.542s3.492.117,5.227-.061a4.422,4.422,0,0,0,2.89-1.229,2.156,2.156,0,0,0,.084-2.9c-.507-.477-1.272-.6-1.785-1.067a3.8,3.8,0,0,1-.868-2.081c-.868-3.928-3.652-7.666-7.571-8.576s-8.6,1.994-8.622,6.017a10.052,10.052,0,0,1-.033,2.193c-.4,1.746-2.5,2.633-4.273,2.378a13,13,0,0,1-4.823-2.273,8.288,8.288,0,0,0-5.006-1.662c-3.042.3-4.971,3.582-5.228,6.628-.166,1.969.045,4.229-1.354,5.624-2.091,2.085-5.8.62-7.812,2.862-1.63,1.818-1.182,4.55-.165,6.486,1.224,2.328,2.466,3.96,3.1,6.607.75,3.134,1.286,6.326,3.465,8.855" transform="translate(-58.599 -114.511)" fill="#f39706"/>
            <path id="Path_1258702" data-name="Path 1258702" d="M234.713,158.841a6.524,6.524,0,0,0-2.211-2.686c-1.552-.977-3.531-.849-5.3-1.32a7.919,7.919,0,0,1-3.171-1.691,15.867,15.867,0,0,0-2.152-1.889c-2.045-1.222-4.633-.4-7.014-.337-5,.124-9.706-3.309-14.665-2.649-3.323.443-6.112,2.672-8.251,5.3a3.93,3.93,0,0,0-2.017,2.726c-.139,1.042.284,2.14-.063,3.132a8.857,8.857,0,0,1-.93,1.529c-1.5,2.5-.013,5.649.11,8.56a6.592,6.592,0,0,0,.233,2.105,3.25,3.25,0,0,0,.942,1.262,5.074,5.074,0,0,0,5.234.789,8.651,8.651,0,0,1,1.575-.675,15.249,15.249,0,0,1,2.509.056,11.33,11.33,0,0,0,3.4-1.188c1.125-.436,2.573-.543,3.377.356,1.057,1.183.229,3.063.549,4.617.418,2.025,2.686,3.135,3.515,5.029a11.169,11.169,0,0,1,.466,4c.265,5.583,4.081,10.385,5.194,15.862.539,2.652.444,5.463,1.507,7.951,2.411,1.037,5.037-.828,6.871-2.706,2.021-2.07,3.967-4.566,4-7.459.014-1.341-.394-2.672-.263-4.006.264-2.686,2.579-4.676,3.617-7.167,1.642-3.943-.1-8.519.782-12.7.628-2.971,2.544-5.537,3.251-8.491a12.331,12.331,0,0,0-1.084-8.307" transform="translate(-135.398 -128.493)" fill="#f39706"/>
          </g>
        </g>
        <g id="Group_1203908" data-name="Group 1203908">
          <g id="Group_1203907" data-name="Group 1203907" clip-path="url(#clip-path)">
            <g id="Group_1203891" data-name="Group 1203891" transform="translate(39.041 58.347)" opacity="0.25">
              <g id="Group_1203890" data-name="Group 1203890">
                <g id="Group_1203889" data-name="Group 1203889" clip-path="url(#clip-path-5)">
                  <path id="Path_1258704" data-name="Path 1258704" d="M114.757,158.265c-6.628,7.556-16.468,9.762-21.978,4.928s-4.6-14.878,2.024-22.433,16.468-9.762,21.978-4.928,4.6,14.877-2.024,22.433" transform="translate(-89.173 -133.27)" fill="#fff"/>
                </g>
              </g>
            </g>
            <g id="Group_1203894" data-name="Group 1203894" transform="translate(32.567 63.837)" opacity="0.42">
              <g id="Group_1203893" data-name="Group 1203893">
                <g id="Group_1203892" data-name="Group 1203892" clip-path="url(#clip-path-6)">
                  <path id="Path_1258705" data-name="Path 1258705" d="M161.237,145.809a50.591,50.591,0,0,1-86.851,49.082,50.59,50.59,0,1,0,86.851-49.082" transform="translate(-74.386 -145.809)" fill="#fff4da"/>
                </g>
              </g>
            </g>
            <path id="Path_1258706" data-name="Path 1258706" d="M135.23,222.778l7.274-14.507,4.216,1.39-4.68-10.715-12.089,1.224,3.379,3.313-4.3,9.02Z" transform="translate(-72.538 -111.845)" fill="#2c411f"/>
            <path id="Path_1258707" data-name="Path 1258707" d="M145.856,241.091l7.483-.126,1.1,12.1-6.262-.264-4.981-6.4Z" transform="translate(-80.501 -135.467)" fill="#3e5b2c"/>
            <path id="Path_1258708" data-name="Path 1258708" d="M177.254,170.04l8.385,13.894-3.426,2.823,11.56,1.762,5.418-10.877-4.6,1.089-5.332-8.451Z" transform="translate(-99.65 -95.594)" fill="#2c411f"/>
            <path id="Path_1258709" data-name="Path 1258709" d="M165.38,175.126l-3.888,6.395-10.819-5.53,3.566-5.155,8.072-.8Z" transform="translate(-84.707 -95.594)" fill="#3e5b2c"/>
            <path id="Path_1258710" data-name="Path 1258710" d="M198.441,235.567l-16.223.418-.76-4.374-7.248,9.176,6.774,10.088,1.331-4.541,9.982-.455Z" transform="translate(-97.939 -130.208)" fill="#2c411f"/>
            <path id="Path_1258711" data-name="Path 1258711" d="M211.323,224.034l-3.636-6.541,10.157-6.669,2.717,5.649-3.3,7.409Z" transform="translate(-116.759 -118.522)" fill="#3e5b2c"/>
            <path id="Path_1258712" data-name="Path 1258712" d="M118.06,330.36a110.523,110.523,0,0,0-2.443-15.017,9.019,9.019,0,0,1-.257-1.194c-.194-1.646.061-3.24-.286-4.894a13.558,13.558,0,0,0-2.139-4.989c-1.276-1.914-2.456-4.545-4.164-6.078-1.292-1.159-3.5-1.645-5.107-2.309q-2.632-1.089-5.263-2.183c-2.693-1.12-5.41-2.2-8.065-3.409-1.24-.563-2.881-.482-3.235,1.08-.366,1.612,1.008,2.5,2.19,3.193,2.545,1.487,5.047,3.055,7.568,4.581,0,0-8.747-1.4-9.965-2.33l-4.559-6.144-3.633-4.9c-1.469-1.98-2.735-4.573-5.273-5.342-2.261-.686-1.98,1.54-1.5,3.1a36.671,36.671,0,0,0,2.689,5.767,67.844,67.844,0,0,0,4.92,8.72,36.623,36.623,0,0,0,5.781,5.892c4.854,4.257,10.321,8.332,16.472,10.476.1.035,1.126.331,1.125.365l-.7,15.609Z" transform="translate(-40.251 -157.582)" fill="#3e5b2c"/>
            <path id="Path_1258713" data-name="Path 1258713" d="M188.4,330.36a110.526,110.526,0,0,1,2.443-15.017,9.019,9.019,0,0,0,.257-1.194c.194-1.646-.061-3.24.286-4.894a13.558,13.558,0,0,1,2.139-4.989c1.276-1.914,2.456-4.545,4.165-6.078,1.292-1.159,3.5-1.645,5.106-2.309q2.632-1.089,5.263-2.183c2.693-1.12,5.41-2.2,8.065-3.409,1.24-.563,2.881-.482,3.236,1.08.366,1.612-1.009,2.5-2.19,3.193-2.545,1.487-5.047,3.055-7.568,4.581,0,0,8.747-1.4,9.965-2.33l4.559-6.144,3.633-4.9c1.469-1.98,2.735-4.573,5.273-5.342,2.261-.686,1.98,1.54,1.5,3.1a36.668,36.668,0,0,1-2.689,5.767,67.842,67.842,0,0,1-4.92,8.72,36.624,36.624,0,0,1-5.781,5.892c-4.854,4.257-10.321,8.332-16.472,10.476-.1.035-1.126.331-1.125.365l.7,15.609Z" transform="translate(-105.916 -157.582)" fill="#3e5b2c"/>
            <path id="Path_1258714" data-name="Path 1258714" d="M194.642.072a41.5,41.5,0,0,0-12.781,15.886.362.362,0,0,0,.543.443A42.44,42.44,0,0,0,195.182.518a.362.362,0,0,0-.54-.446" transform="translate(-102.22 0)" fill="#bccdb2"/>
            <path id="Path_1258715" data-name="Path 1258715" d="M181.93,38.9a41.5,41.5,0,0,0,13.184,15.553.362.362,0,0,0,.537-.45A42.439,42.439,0,0,0,182.47,38.456a.362.362,0,0,0-.54.446" transform="translate(-102.258 -21.58)" fill="#bccdb2"/>
            <path id="Path_1258716" data-name="Path 1258716" d="M136.664,28.943a41.5,41.5,0,0,0,19.881,4.522.362.362,0,0,0,.16-.682,42.436,42.436,0,0,0-19.877-4.521.362.362,0,0,0-.164.681" transform="translate(-76.722 -15.884)" fill="#bccdb2"/>
            <rect id="Rectangle_411538" data-name="Rectangle 411538" width="2.239" height="36.049" transform="translate(78.589 17.295)" fill="#bccdb2"/>
            <path id="Path_1258717" data-name="Path 1258717" d="M181.3,36.7a1.627,1.627,0,1,1-1.627-1.627A1.627,1.627,0,0,1,181.3,36.7" transform="translate(-100.096 -19.72)" fill="#bccdb2"/>
            <path id="Path_1258718" data-name="Path 1258718" d="M124.675,68.461a21.726,21.726,0,0,0,10.653.641.189.189,0,0,0,.025-.366A22.214,22.214,0,0,0,124.7,68.1a.189.189,0,0,0-.027.366" transform="translate(-70.018 -38.076)" fill="#bccdb2"/>
            <path id="Path_1258719" data-name="Path 1258719" d="M150.027,56.368a21.724,21.724,0,0,0,2.643-10.34.189.189,0,0,0-.355-.093,22.217,22.217,0,0,0-2.642,10.338.189.189,0,0,0,.354.1" transform="translate(-84.144 -25.769)" fill="#bccdb2"/>
            <path id="Path_1258720" data-name="Path 1258720" d="M154.286,79.321a21.726,21.726,0,0,0-4.094-9.856.19.19,0,0,0-.34.138,22.217,22.217,0,0,0,4.094,9.854.189.189,0,0,0,.34-.137" transform="translate(-84.243 -39.01)" fill="#bccdb2"/>
            <rect id="Rectangle_411539" data-name="Rectangle 411539" width="1.172" height="18.869" transform="translate(64.888 30.695)" fill="#bccdb2"/>
            <path id="Path_1258721" data-name="Path 1258721" d="M149.149,68.645a.852.852,0,1,1-.852-.852.852.852,0,0,1,.852.852" transform="translate(-82.892 -38.112)" fill="#bccdb2"/>
            <path id="Path_1258722" data-name="Path 1258722" d="M218.381,58.557a17.326,17.326,0,0,0-.686,8.484.151.151,0,0,0,.291.025,17.712,17.712,0,0,0,.686-8.483.151.151,0,0,0-.291-.027" transform="translate(-122.25 -32.864)" fill="#bccdb2"/>
            <path id="Path_1258723" data-name="Path 1258723" d="M218.666,78.764a17.328,17.328,0,0,0,8.2,2.277.151.151,0,0,0,.08-.281,17.72,17.72,0,0,0-8.2-2.276.151.151,0,0,0-.082.281" transform="translate(-122.889 -44.122)" fill="#bccdb2"/>
            <path id="Path_1258724" data-name="Path 1258724" d="M200.7,82a17.327,17.327,0,0,0,7.926-3.1.151.151,0,0,0-.105-.273,17.717,17.717,0,0,0-7.924,3.1.151.151,0,0,0,.1.274" transform="translate(-112.736 -44.2)" fill="#bccdb2"/>
            <rect id="Rectangle_411540" data-name="Rectangle 411540" width="0.935" height="15.05" transform="translate(95.03 35.02)" fill="#bccdb2"/>
            <path id="Path_1258725" data-name="Path 1258725" d="M217.807,78.821a.679.679,0,1,1-.679-.679.679.679,0,0,1,.679.679" transform="translate(-121.685 -43.93)" fill="#3a53af"/>
            <g id="Group_1203897" data-name="Group 1203897" transform="translate(106.293 93.267)" opacity="0.6">
              <g id="Group_1203896" data-name="Group 1203896">
                <g id="Group_1203895" data-name="Group 1203895" clip-path="url(#clip-path-7)">
                  <path id="Path_1258726" data-name="Path 1258726" d="M242.782,218.037a3.268,3.268,0,0,1,3.907-2.8c1.042.216,2.025.94,3.067.728.877-.178,1.474-.958,2.139-1.555a5.045,5.045,0,0,1,5.8-.781c.823.5,1.5,1.307,2.441,1.51,1.449.311,2.736-.908,4.149-1.355a4.171,4.171,0,0,1,3.606.562,5.2,5.2,0,0,1,1.777,3.691Z" transform="translate(-242.782 -213.029)" fill="#fffeff"/>
                </g>
              </g>
            </g>
            <g id="Group_1203900" data-name="Group 1203900" transform="translate(17.179 110.094)" opacity="0.6">
              <g id="Group_1203899" data-name="Group 1203899">
                <g id="Group_1203898" data-name="Group 1203898" clip-path="url(#clip-path-8)">
                  <path id="Path_1258727" data-name="Path 1258727" d="M39.239,258.968a4.9,4.9,0,0,1,5.855-4.194c1.561.324,3.035,1.409,4.6,1.091,1.313-.267,2.208-1.436,3.206-2.331,2.334-2.094,6.022-2.806,8.7-1.172,1.233.754,2.246,1.96,3.659,2.263,2.172.466,4.1-1.362,6.219-2.031a6.248,6.248,0,0,1,5.4.842,7.8,7.8,0,0,1,2.664,5.532Z" transform="translate(-39.239 -251.463)" fill="#fffeff"/>
                </g>
              </g>
            </g>
            <g id="Group_1203903" data-name="Group 1203903" transform="translate(116.013 95.374)" opacity="0.6">
              <g id="Group_1203902" data-name="Group 1203902">
                <g id="Group_1203901" data-name="Group 1203901" clip-path="url(#clip-path-9)">
                  <path id="Path_1258728" data-name="Path 1258728" d="M264.982,223.641a3.78,3.78,0,0,1,3.96-2.979c1.316.135,2.471.97,3.778,1.17a4.064,4.064,0,0,0,3.053-.785c.66-.507,1.149-1.208,1.8-1.731a6.5,6.5,0,0,1,2.29-1.1,8.1,8.1,0,0,1,2.554-.368,6,6,0,0,1,5.743,5.789Z" transform="translate(-264.982 -217.841)" fill="#fffeff"/>
                </g>
              </g>
            </g>
            <g id="Group_1203906" data-name="Group 1203906" transform="translate(54.669 44.815)" opacity="0.6">
              <g id="Group_1203905" data-name="Group 1203905">
                <g id="Group_1203904" data-name="Group 1203904" clip-path="url(#clip-path-9)">
                  <path id="Path_1258729" data-name="Path 1258729" d="M124.869,108.159a3.78,3.78,0,0,1,3.96-2.979c1.316.135,2.471.97,3.778,1.17a4.065,4.065,0,0,0,3.053-.785c.66-.507,1.149-1.208,1.8-1.731a6.5,6.5,0,0,1,2.29-1.1,8.1,8.1,0,0,1,2.554-.368,6,6,0,0,1,5.743,5.789Z" transform="translate(-124.869 -102.359)" fill="#fffeff"/>
                </g>
              </g>
            </g>
            <line id="Line_565" data-name="Line 565" x2="109.574" transform="translate(25.36 172.778)" fill="none" stroke="#3a53af" stroke-miterlimit="10" stroke-width="1.868"/>
          </g>
        </g>
      </g>
    </g>
  </g>
</svg>
