<svg xmlns="http://www.w3.org/2000/svg" xmlns:xlink="http://www.w3.org/1999/xlink" width="210" height="210" viewBox="0 0 210 210">
  <defs>
    <clipPath id="clip-path">
      <rect id="Rectangle_411534" data-name="Rectangle 411534" width="147.617" height="147.463" fill="none"/>
    </clipPath>
    <clipPath id="clip-path-3">
      <rect id="Rectangle_411530" data-name="Rectangle 411530" width="86.266" height="31.992" fill="none"/>
    </clipPath>
  </defs>
  <g id="Group_1203914" data-name="Group 1203914" transform="translate(-390.051 -1156)">
    <circle id="Ellipse_12726" data-name="Ellipse 12726" cx="105" cy="105" r="105" transform="translate(390.051 1156)" fill="#bccdb2"/>
    <g id="Group_1203884" data-name="Group 1203884" transform="translate(421.242 1184.495)">
      <g id="Group_1203883" data-name="Group 1203883" clip-path="url(#clip-path)">
        <g id="Group_1203882" data-name="Group 1203882">
          <g id="Group_1203881" data-name="Group 1203881" clip-path="url(#clip-path)">
            <path id="Path_1258602" data-name="Path 1258602" d="M160.966,367.774c0,4.8-28.245,8.688-63.086,8.688s-63.086-3.89-63.086-8.688,28.245-8.688,63.086-8.688,63.086,3.89,63.086,8.688" transform="translate(-22.685 -234.114)" fill="#f2f2f2"/>
            <path id="Path_1258603" data-name="Path 1258603" d="M179.773,385.191c0,3.055-17.984,5.532-40.169,5.532s-40.169-2.477-40.169-5.532,17.984-5.532,40.169-5.532,40.169,2.477,40.169,5.532" transform="translate(-64.829 -247.527)" fill="#e8e8e8"/>
            <path id="Path_1258604" data-name="Path 1258604" d="M23.192,113.109l1.733-1.668a29.661,29.661,0,0,0-2.161-3.429,29.6,29.6,0,0,0-8.151-7.72l-1.447.883.547-1.408q-.777-.432-1.562-.776l-2.216,2.259.713-2.836a10.446,10.446,0,0,0-4.876-.51,6.536,6.536,0,0,0-3.885,2.112,7.139,7.139,0,0,0-1.725,3.428A8.456,8.456,0,0,0,0,105.364,10.751,10.751,0,0,0,.267,107.4a20.71,20.71,0,0,0,4.646,8.514l2.721-.923L6.311,117.45c.583.594,1.2,1.181,1.839,1.743l1.187-1.157-.3,1.911q.385.317.781.624a25.185,25.185,0,0,0,12.3,5.38,14.938,14.938,0,0,0,5.184-.14s1.817-5.441-1.682-12.981Z" transform="translate(0 -63.763)" fill="#ffd200"/>
            <rect id="Rectangle_411528" data-name="Rectangle 411528" width="0.391" height="27.307" transform="matrix(0.683, -0.731, 0.731, 0.683, 5.651, 41.442)" fill="#fff"/>
            <path id="Path_1258605" data-name="Path 1258605" d="M31.741,125.951c-1.041-1.608-1.947-5.642-1.985-5.813l.382-.085c.009.041.929,4.136,1.932,5.685Z" transform="translate(-19.4 -78.271)" fill="#fff"/>
            <path id="Path_1258606" data-name="Path 1258606" d="M30.827,144.334l-.148-.362c1.561-.637,4.572-.221,4.7-.2l-.055.387c-.031,0-3.035-.419-4.5.177" transform="translate(-20.002 -93.636)" fill="#fff"/>
            <path id="Path_1258607" data-name="Path 1258607" d="M56.974,147.837c-.892-2.067-.373-5.29-.35-5.426l.386.064c-.006.032-.522,3.246.324,5.208Z" transform="translate(-36.806 -92.848)" fill="#fff"/>
            <path id="Path_1258608" data-name="Path 1258608" d="M73.588,120.184S69.353,108.415,69.882,97s-2.824-19.977-8.295-19.311S51.352,99.007,72.176,121.419Z" transform="translate(-37.095 -50.631)" fill="#bce13e"/>
            <path id="Path_1258609" data-name="Path 1258609" d="M84.5,149.561l.426-.268c-.077-.122-7.689-12.388-7.983-25.919l-.5.011c.3,13.674,7.982,26.053,8.06,26.176" transform="translate(-49.839 -80.436)" fill="#fff"/>
            <path id="Path_1258610" data-name="Path 1258610" d="M49.988,176.918s-7.594-3.958-15.382-4.651-13.292-3.758-12.336-7.408,15.4-4.978,28.686,11.215Z" transform="translate(-14.449 -105.964)" fill="#91b31e"/>
            <path id="Path_1258611" data-name="Path 1258611" d="M69.5,185.608l.322-.386c-.077-.064-7.783-6.433-17.052-7.9l-.078.5c9.129,1.444,16.733,7.725,16.809,7.788" transform="translate(-34.35 -115.61)" fill="#fff"/>
            <path id="Path_1258612" data-name="Path 1258612" d="M348.932,113.109l-1.733-1.668a30.669,30.669,0,0,1,10.312-11.149l1.447.883-.547-1.408q.777-.432,1.562-.776l2.216,2.259-.713-2.836a10.446,10.446,0,0,1,4.876-.51,6.536,6.536,0,0,1,3.885,2.112,7.139,7.139,0,0,1,1.725,3.428,8.456,8.456,0,0,1,.158,1.921,10.752,10.752,0,0,1-.263,2.034,20.71,20.71,0,0,1-4.646,8.514l-2.721-.923,1.324,2.461c-.583.594-1.2,1.181-1.839,1.743l-1.187-1.157.3,1.911q-.385.317-.781.624a25.185,25.185,0,0,1-12.3,5.38,14.938,14.938,0,0,1-5.184-.14s-1.817-5.441,1.682-12.981Z" transform="translate(-224.507 -63.763)" fill="#ffd200"/>
            <rect id="Rectangle_411529" data-name="Rectangle 411529" width="27.307" height="0.391" transform="translate(121.746 59.798) rotate(-43.052)" fill="#fff"/>
            <path id="Path_1258613" data-name="Path 1258613" d="M388.078,125.951c1.041-1.608,1.947-5.642,1.985-5.813l-.382-.085c-.009.041-.929,4.136-1.932,5.685Z" transform="translate(-252.802 -78.271)" fill="#fff"/>
            <path id="Path_1258614" data-name="Path 1258614" d="M384.522,144.334l.148-.362c-1.561-.637-4.572-.221-4.7-.2l.055.387c.03,0,3.035-.419,4.5.177" transform="translate(-247.73 -93.636)" fill="#fff"/>
            <path id="Path_1258615" data-name="Path 1258615" d="M365.531,147.837c.892-2.067.373-5.29.35-5.426l-.386.064c.006.032.522,3.246-.324,5.208Z" transform="translate(-238.082 -92.848)" fill="#fff"/>
            <path id="Path_1258616" data-name="Path 1258616" d="M319.294,120.184S323.53,108.415,323,97s2.824-19.977,8.295-19.311,10.235,21.313-10.588,43.726Z" transform="translate(-208.171 -50.631)" fill="#bce13e"/>
            <path id="Path_1258617" data-name="Path 1258617" d="M323.753,149.561l-.426-.268c.077-.122,7.688-12.388,7.983-25.919l.5.011c-.3,13.674-7.982,26.053-8.06,26.176" transform="translate(-210.8 -80.436)" fill="#fff"/>
            <path id="Path_1258618" data-name="Path 1258618" d="M320.223,176.918s7.594-3.958,15.383-4.651,13.292-3.758,12.336-7.408-15.4-4.978-28.687,11.215Z" transform="translate(-208.145 -105.964)" fill="#91b31e"/>
            <path id="Path_1258619" data-name="Path 1258619" d="M322.565,185.608l-.322-.386c.077-.064,7.783-6.433,17.053-7.9l.078.5c-9.129,1.444-16.733,7.725-16.809,7.788" transform="translate(-210.093 -115.61)" fill="#fff"/>
            <path id="Path_1258620" data-name="Path 1258620" d="M198.752,363.1l4.542-19.153h-20.11l4.907,19.283h.063c.305.49,2.552.871,5.282.871s4.976-.381,5.282-.871h0v-.006a.212.212,0,0,0,.034-.108c0-.006,0-.011,0-.016" transform="translate(-119.431 -224.246)" fill="#ff9a5c"/>
            <path id="Path_1258621" data-name="Path 1258621" d="M183.185,343.951l4.906,19.283h.063c.306.49,2.552.871,5.282.871.41,0,.807-.009,1.191-.026l-3.874-20.128Z" transform="translate(-119.431 -224.246)" fill="#e87c3c"/>
            <path id="Path_1258622" data-name="Path 1258622" d="M203.3,340.482c0,1.073-4.5,1.942-10.055,1.942s-10.055-.869-10.055-1.942,4.5-1.942,10.055-1.942,10.055.87,10.055,1.942" transform="translate(-119.431 -220.719)" fill="#753519"/>
            <path id="Path_1258623" data-name="Path 1258623" d="M172.724,62.291A45.06,45.06,0,1,1,127.663,17.23a45.06,45.06,0,0,1,45.061,45.061" transform="translate(-53.855 -11.233)" fill="#1a6652"/>
            <path id="Path_1258624" data-name="Path 1258624" d="M136.728,96.32A40.283,40.283,0,0,1,116.79,21.035a45.065,45.065,0,1,0,54.18,56.222A40.251,40.251,0,0,1,136.728,96.32" transform="translate(-53.855 -13.714)" fill="#19614f"/>
            <path id="Path_1258625" data-name="Path 1258625" d="M161.336,31.406a23.913,23.913,0,0,1-4.144-1.324,6.174,6.174,0,0,0-2.907-1c-.8.034-2.474-.4-3.464,0s-2.037,2.443-3.554,2.816a12.775,12.775,0,0,1-6.39-1.112,2.437,2.437,0,0,1-1.06-2.721,5.749,5.749,0,0,0,.368-2.339c-.062-.444,1.546-1.317,2.1-1.9s1.083-2.488-.234-3.44A44.856,44.856,0,0,0,124.931,28.3a2.749,2.749,0,0,0,.409,1.061c.371.618-.224.989-.2,1.175s.35.164.061.515,0,.289-.266.536a7.955,7.955,0,0,1-.7.618c-.186.124-.124.495-.495.928s-1.052.8-1.052,1.484-1.051,1.608-1.175,1.979-1.175,1.793-1.237,2.721a16.275,16.275,0,0,0,0,2.474,5.822,5.822,0,0,1-.046,1.856,14.443,14.443,0,0,0-.325,2.536,1.889,1.889,0,0,0,1.608,2.165c1.175.371,3.4,1.422,3.957,2.226s.868,1.794,1.3,1.917.8,1.423,2.226,2.412,4.082,1.115,5.258,2.382a23.033,23.033,0,0,1,3.9,6.058,6.241,6.241,0,0,0,2.474,3.161,7.026,7.026,0,0,0,3.154,1.82c.928.062,1.307-.327,1.272-.658s-1.21-1.321-1.4-1.568-.557-1.917-1.113-3.093-.618-1.223-.433-1.787.557-1.8,1.113-2.109.989-.084,1.36-.63a1.8,1.8,0,0,0,.468-1.195c-.035-.341-.592-.552-1.148-.6s-.742-.544-1.484-.667-1.794-.433-2.041-.866a1.167,1.167,0,0,0-1.175-.495,2.525,2.525,0,0,1-2.227-.495c-.742-.742-.8-2.165-.928-2.907a2.679,2.679,0,0,1-.062-1.546c.186-.556.186-.993,1.051-1.393s2.288-.713,3.155,0a2.7,2.7,0,0,0,2.969-.277c.371-.433,1.422-1.732,2.288-1.793s2.289,0,2.845-.495,2.659-1.538,3.03-2.377,1.794-3.273,1.794-4.066,2.6-2.339,3.339-2.092,1.732-.928,2.1-.928,1.484.186,2.1-.556,1.113-1.241,1.608-1.95.866-1.823-.928-2.379" transform="translate(-78.166 -13.292)" fill="#108f6e"/>
            <path id="Path_1258626" data-name="Path 1258626" d="M213.092,176.93a32.78,32.78,0,0,0-3.858-2.052c-1.772-.746-3.077-3.386-3.544-3.931s-.839-5.3,0-6.14a20.308,20.308,0,0,0,2.381-3.357c.7-1.119.977-1.865.7-2.331a7.662,7.662,0,0,1,0-3.562,3.629,3.629,0,0,1,2.331-1.194c.653.093,2.7-.481,3.544-.007s4.01,2.15,5.409,2.244,2.8,1.307,3.917.654,2.761.093,3.712,1.492a11.71,11.71,0,0,0,3.655,3.742c1.585.921,1.447,1.76,2.356,1.946a13.328,13.328,0,0,1,4.036,1.492c1.1.752.739,1.679-.169,2.8s-2.036,2.891-2.778,4.01a3.1,3.1,0,0,0,0,3.264c.471.466.1,2.424-.554,2.984a11,11,0,0,0-2.611,2.518c-.56,1.026-.506,1.786-1.792,2.245s-4.177,1.765-5.948,2.184-3.264.519-4.476,1.542-1.383,3.8-2.524,4.277-4.563,2.618-5.869,2.48-1.3-.4-.559-1.341,2.631-2.6,3.693-4.113-.337-2.973.6-3.585,1.1-2.43,1.387-2.967.213-3.514-3.032-5.292" transform="translate(-133.779 -100.512)" fill="#108f6e"/>
            <path id="Path_1258627" data-name="Path 1258627" d="M292.073,65.206c.187.38,1.181.815,1.927,1.188s1.447-.2,1.749-1.188a1.657,1.657,0,0,1,2.292-.8,2.98,2.98,0,0,0,1.927.435c.491-.123,1.443-.489,1.468-.5A45.187,45.187,0,0,0,288.419,46.75a9.717,9.717,0,0,1-1.32,1.494,4.665,4.665,0,0,0-1.219,1.738,6.479,6.479,0,0,0-.584,3.109c.249.808.145,1.368,1.067,2.052s1.742.916,1.332,2.168-.1,2.589-.535,3.257a2.243,2.243,0,0,0,.535,2.844,4.143,4.143,0,0,0,2.636.746,4.154,4.154,0,0,1,1.741,1.05" transform="translate(-185.968 -30.48)" fill="#108f6e"/>
            <path id="Path_1258628" data-name="Path 1258628" d="M214,119.6a2.08,2.08,0,0,1-.622,1.414c-.622.56-1.244,1.554-.622,1.679a13.465,13.465,0,0,1,2.238.5c.311.188,1.927,1.058,2.362.748s.746-1.057,1.181-1.119.56-1.165.933-1.515,1.679-1.594,1.8-2.588a7.181,7.181,0,0,0,0-2.86c-.249-.373-1.989-.622-2.176-1.119a1.615,1.615,0,0,0-2.14-.373,3.425,3.425,0,0,0-1.342,2.425c-.125.808-1.679,1.4-1.617,2.813" transform="translate(-138.542 -74.41)" fill="#108f6e"/>
            <path id="Path_1258629" data-name="Path 1258629" d="M237.9,131.043a9.755,9.755,0,0,0-1.247,1.4c-.514.732.881.365,1.247.438s.44.6,1.174.412a4.144,4.144,0,0,0,.734-.192,5.593,5.593,0,0,1,1.541-.22c.66-.073.53-.553.889-.974a.742.742,0,0,0,0-1.154c-.376-.368-.6.734-1.329,0s-.709-1.364-1.382-1.049-.5.426-.806.7-.821.642-.821.642" transform="translate(-154.22 -84.507)" fill="#108f6e"/>
            <g id="Group_1203880" data-name="Group 1203880" transform="translate(30.675 64.126)" opacity="0.13" style="mix-blend-mode: multiply;isolation: isolate">
              <g id="Group_1203879" data-name="Group 1203879">
                <g id="Group_1203878" data-name="Group 1203878" clip-path="url(#clip-path-3)">
                  <path id="Path_1258630" data-name="Path 1258630" d="M157.628,189.64c-12.647-.258-24.838,9.336-26.355,19.3-1.517-9.968-13.708-19.562-26.355-19.3a26.251,26.251,0,0,1-16.778-5.386,45.073,45.073,0,0,0,86.266,0,26.251,26.251,0,0,1-16.778,5.386" transform="translate(-88.14 -184.254)" fill="#19614f"/>
                </g>
              </g>
            </g>
            <path id="Path_1258631" data-name="Path 1258631" d="M157.231,201.246c-12.647-.258-24.838,9.336-26.355,19.3-1.517-9.968-13.708-19.562-26.355-19.3a25.943,25.943,0,0,1-16.99-5.566c3.736,28.21,20.341,32.192,31.88,31.376a9.56,9.56,0,0,1,10.234,9.539v11.391h2.463V236.595a9.56,9.56,0,0,1,10.234-9.539c11.539.816,28.143-3.166,31.88-31.376a25.943,25.943,0,0,1-16.99,5.566" transform="translate(-57.068 -127.578)" fill="#bce13e"/>
            <path id="Path_1258632" data-name="Path 1258632" d="M147.578,249.642c9.641.693,22.839-1.958,29.1-19.314a27.037,27.037,0,0,1-14.172,3.608c-12.647-.258-24.838,9.336-26.355,19.3-1.517-9.968-13.708-19.562-26.355-19.3a27.041,27.041,0,0,1-14.172-3.608c6.266,17.356,19.464,20.007,29.1,19.314a9.567,9.567,0,0,1,10.19,9.579v11.354a2.593,2.593,0,0,0,2.362.049l.1-.049V259.221a9.567,9.567,0,0,1,10.19-9.579" transform="translate(-62.347 -150.167)" fill="#91b31e"/>
            <path id="Path_1258633" data-name="Path 1258633" d="M336.456,15.073A11.785,11.785,0,1,1,324.671,3.288a11.785,11.785,0,0,1,11.785,11.785" transform="translate(-203.993 -2.144)" fill="#ffd200"/>
            <path id="Path_1258634" data-name="Path 1258634" d="M342.489,45.837v0c.008,0,.009,0,0,0" transform="translate(-223.293 -29.884)" fill="#1a6652"/>
            <path id="Path_1258635" data-name="Path 1258635" d="M331.959,34.152l-.011,0-.022,0-.018,0-.028,0-.028,0-.033,0-.033,0-.041,0-.041,0-.043,0-.05,0-.046,0-.057,0-.048,0-.066,0-.05,0-.068,0-.056,0-.073,0h-.331c-.1,0-.2,0-.3,0h-.029l-.118,0-.054,0-.1,0-.057,0-.092-.006-.059,0-.088-.008-.062-.006-.083-.009-.062-.008-.08-.011-.06-.009-.077-.013-.059-.011-.073-.015-.056-.013-.069-.017-.054-.014-.064-.019-.05-.016-.06-.022-.046-.018-.054-.024-.041-.02-.049-.028-.035-.021c-.016-.01-.03-.021-.044-.032l-.029-.022a.466.466,0,0,1-.04-.039l-.02-.02a.392.392,0,0,1-.046-.064.4.4,0,0,1-.042-.123.657.657,0,0,1-.005-.084c-.035-.749,1.092-2.395,1.354-2.891l1.229.562-.828-3.259-3.392,1,1.139.619-1.289,2.268a2.958,2.958,0,0,0,2.509,4.467h.081l2.579.031.025-2.137h0l-.014,0" transform="translate(-212.779 -18.191)" fill="#1a6652"/>
            <path id="Path_1258636" data-name="Path 1258636" d="M338.336,18.479l0-.014,0-.01.008-.021.007-.017.011-.027.01-.024.013-.032.015-.033.014-.032.019-.044.016-.035.022-.049.018-.04.025-.055.019-.041.031-.065.018-.038.036-.073.018-.038.041-.082.017-.034.049-.1.013-.024c.064-.125.134-.254.208-.385l.008-.014.066-.115.019-.033.057-.1.026-.042.053-.085.029-.046.051-.079.032-.047.05-.073.034-.049.049-.068.035-.047.049-.064.035-.045.049-.06.037-.043.048-.054.037-.04.048-.049.037-.036.048-.044.037-.031.048-.037.036-.027.048-.031.034-.021c.017-.009.033-.017.05-.024l.032-.015a.465.465,0,0,1,.054-.017l.026-.008a.431.431,0,0,1,.078-.01.4.4,0,0,1,.128.02.7.7,0,0,1,.077.034c.678.319,1.6,2.088,1.919,2.552l-1.073.822,3.267.8.707-3.464-1.081.716-1.4-2.2a2.958,2.958,0,0,0-5.121.122l-.039.071-1.236,2.264,1.876,1.025v0" transform="translate(-219.362 -8.855)" fill="#1a6652"/>
            <path id="Path_1258637" data-name="Path 1258637" d="M341.853,27.661l0,0c0,.008,0,.01,0,0" transform="translate(-222.875 -18.033)" fill="#1a6652"/>
            <path id="Path_1258638" data-name="Path 1258638" d="M353.2,35.3l-1.3-2.323-1.867,1.041h0a.463.463,0,0,1,.034.043l0,.006.06.084.008.012.081.119.013.02q.045.068.1.149l.015.023.11.177.014.023q.059.1.121.2l.01.018c.042.073.086.148.128.225l0,0c.043.077.086.157.128.237l.01.02c.04.077.079.155.117.233l.015.031c.037.076.071.152.1.228l.015.035q.048.112.089.221l.014.037q.04.109.07.212l.01.033c.02.069.035.136.048.2l0,.028a1.39,1.39,0,0,1,.021.184c0,.007,0,.013,0,.02a.8.8,0,0,1-.012.164l0,.01a.459.459,0,0,1-.052.14.405.405,0,0,1-.085.1.665.665,0,0,1-.072.048c-.633.4-2.62.242-3.18.262l-.124-1.346-2.415,2.34L348,41.009l-.03-1.3,2.608-.01a2.958,2.958,0,0,0,2.627-4.4" transform="translate(-225.22 -21.503)" fill="#1a6652"/>
            <path id="Path_1258639" data-name="Path 1258639" d="M358.637,35.969l0,0c-.006-.006-.008-.006,0,0" transform="translate(-233.82 -23.446)" fill="#1a6652"/>
            <path id="Path_1258640" data-name="Path 1258640" d="M61.558,11.729A11.785,11.785,0,1,1,49.773,0,11.757,11.757,0,0,1,61.558,11.729" transform="translate(-24.767)" fill="#ffd200"/>
            <path id="Path_1258641" data-name="Path 1258641" d="M61.607,28.185H55.556V23.893H51.264V17.842h4.292V13.55h6.051v4.292H65.9v6.051H61.607Zm-5-1.047h3.958V22.847h4.292V18.888H60.561V14.6H56.6v4.292H52.311v3.958H56.6Z" transform="translate(-33.423 -8.834)" fill="#1a6652"/>
            <path id="Path_1258642" data-name="Path 1258642" d="M40.825,218.8a11.756,11.756,0,1,1-11.756-11.7,11.728,11.728,0,0,1,11.756,11.7" transform="translate(-11.288 -135.021)" fill="#ffd200"/>
            <rect id="Rectangle_411531" data-name="Rectangle 411531" width="4.58" height="0.624" transform="translate(15.037 89.69)" fill="#1a6652"/>
            <rect id="Rectangle_411532" data-name="Rectangle 411532" width="4.58" height="0.624" transform="translate(15.037 88.612)" fill="#1a6652"/>
            <path id="Path_1258643" data-name="Path 1258643" d="M43.321,260.808a.974.974,0,0,0,.937.715h2.626a.974.974,0,0,0,.937-.715Z" transform="translate(-28.244 -170.039)" fill="#1a6652"/>
            <path id="Path_1258644" data-name="Path 1258644" d="M40.634,218.052a5.136,5.136,0,0,0-3.807,2,7.686,7.686,0,0,0,2.78,2.676,4.357,4.357,0,0,1,1.811,4.887s-.2-1.357-3.118-1.727a4.575,4.575,0,0,1-2.178-.771,5.127,5.127,0,0,0,.955,1.515,3.948,3.948,0,0,1,1.077,2.648v.025a2.211,2.211,0,0,0,.245,1.011h4.957a2.211,2.211,0,0,0,.245-1.011v0a3.707,3.707,0,0,1,.988-2.573,5.133,5.133,0,0,0-3.955-8.677" transform="translate(-23.551 -142.16)" fill="#1a6652"/>
            <path id="Path_1258645" data-name="Path 1258645" d="M32.34,219.679a7.192,7.192,0,0,0,.8,2.3,5.978,5.978,0,0,0,1.49,1.8,8.153,8.153,0,0,0,.973.676,11.037,11.037,0,0,1,1.04.721,7.232,7.232,0,0,1,.95.856,3.954,3.954,0,0,1,.406.506,1.211,1.211,0,0,1,.244.6,1.524,1.524,0,0,0-.433-.427c-.161-.123-.333-.233-.5-.346l-.518-.324-.526-.314-1.057-.626a7.425,7.425,0,0,1-1.059-.764,5.4,5.4,0,0,1-1.493-2.141,5.066,5.066,0,0,1-.313-2.523" transform="translate(-21.055 -143.224)" fill="#1a6652"/>
            <path id="Path_1258646" data-name="Path 1258646" d="M357.13,218.658a11.785,11.785,0,1,1-11.785-11.729,11.757,11.757,0,0,1,11.785,11.729" transform="translate(-217.472 -134.912)" fill="#ffd200"/>
            <path id="Path_1258647" data-name="Path 1258647" d="M353.407,237.164l-.307-.222a23.187,23.187,0,0,1-3.515-3.307c-2.333-2.7-3.6-5.486-3.654-8.07l-.006-.276,4.105-2.932h6.753l4.105,2.932-.006.276c-.057,2.583-1.321,5.374-3.654,8.07a23.159,23.159,0,0,1-3.515,3.307Zm-6.421-11.35c.282,4.854,5.141,9.026,6.421,10.045,1.28-1.019,6.139-5.191,6.421-10.045l-3.379-2.414h-6.084Z" transform="translate(-225.533 -144.97)" fill="#1a6652"/>
            <path id="Path_1258648" data-name="Path 1258648" d="M357.8,238.511c-1.612-1.415-4.611-4.456-5.136-7.879l2.484-1.774h5.3l2.484,1.774c-.525,3.422-3.524,6.464-5.136,7.879" transform="translate(-229.927 -149.209)" fill="#1a6652"/>
            <path id="Path_1258649" data-name="Path 1258649" d="M317.315,399.343a7.167,7.167,0,0,1,1.349,2.021,18.345,18.345,0,0,0,1.491,3.3c.422.414,1.216.081,1.352-.6a48.944,48.944,0,0,0,.51-7.284c-.177-1.4-.29-1.833-.477-1.91a34.837,34.837,0,0,0-3.658-.073c-.712.04-2.2,2.624-.566,4.549" transform="translate(-206.398 -257.384)" fill="#91b31e"/>
            <path id="Path_1258650" data-name="Path 1258650" d="M251.56,316.26s2.479,7.808,2.262,8.138c-.538.82-4.851,5.432-4.851,5.432l2.12,1.288s6.331-5,6.05-7.571l-3.029-8Z" transform="translate(-162.322 -205.73)" fill="#ff9a5c"/>
            <path id="Path_1258651" data-name="Path 1258651" d="M256.373,349.129s-10.9-7.4-14.233-6.4-3.379,3.079-2.816,4.384,10.98,16.514,10.98,16.514l3.447-.525-4.255-7.727a.971.971,0,0,1,1.369-1.043l1.066.5,5.866-1.867Z" transform="translate(-155.856 -223.39)" fill="#0e1a34"/>
            <path id="Path_1258652" data-name="Path 1258652" d="M267.456,255.232a5,5,0,0,0-3.232-3.052,3.695,3.695,0,0,0-6.721-2.132,5.085,5.085,0,0,0-1.268.112A5.111,5.111,0,1,0,252.8,257.6c1.149,2.115,3.46,3.713,5.8,2.992,1.3,1.681,3.781,1.853,5.884,1.077a5.013,5.013,0,0,0,2.969-6.438" transform="translate(-160.797 -161.354)" fill="#753519"/>
            <path id="Path_1258653" data-name="Path 1258653" d="M269.08,350.463s1.161,6.578-2.838,8.771a130.155,130.155,0,0,1-13,5.44l16.074,1.014-.736,4.943s-23.363-.434-25.814-3.658,13.05-14.186,13.05-14.186Z" transform="translate(-158.106 -228.492)" fill="#0e1a34"/>
            <path id="Path_1258654" data-name="Path 1258654" d="M263.293,281.627s-4.111.189-5.284,3.708c-1.557,4.671.063,10.24,5.064,15.356,1.126,1.152,2.51,5.606,2.481,7.217,0,0,11.7-.174,13.264-2.324,0,0-3.815-20.969-15.525-23.957" transform="translate(-167.843 -183.613)" fill="#91b31e"/>
            <path id="Path_1258655" data-name="Path 1258655" d="M256.291,288.215s-3.053,2.72-2.79,11.53c0,0,2.732-.382,2.99-1.672Z" transform="translate(-165.265 -187.908)" fill="#91b31e"/>
            <path id="Path_1258656" data-name="Path 1258656" d="M272.287,312.423l-4.471.6s2.323,4.278,2.494,4.88S260.077,328.4,260.077,328.4s-1,.838-1.161.995h0a2.675,2.675,0,0,0-.476.574,3.945,3.945,0,0,0-.571,1.346c-.082.408.143.571.326.571s.428-.326.428-.326a1.328,1.328,0,0,0,0,.591c.082.224.684-.143.836-.51,0,0,0,.8.174.816s.478-.2.539-.734a5.043,5.043,0,0,0,1.477-1.06l.222-.621c1.781-1.334,10.235-7.717,11.619-9.639,1.548-2.15-1.2-7.976-1.2-7.976" transform="translate(-168.112 -203.691)" fill="#ff9a5c"/>
            <path id="Path_1258657" data-name="Path 1258657" d="M252.195,263.432a6.475,6.475,0,0,1-.284-3.456c.415-1.687,2.786-2.246,4.539-.786a7.017,7.017,0,0,1,1.992,2.451.725.725,0,0,1,.863-.369c.869.144.6,2.194-.53,2.385a3.847,3.847,0,0,1-.378,1.418,3.328,3.328,0,0,1,.489,1.743c-.411,1.565-.993,3.193-1.959,3.043s-.4-1.25-.336-1.758a.454.454,0,0,0-.344-.569c-2.353.73-4.052-4.1-4.052-4.1" transform="translate(-164.153 -168.437)" fill="#ff9a5c"/>
            <path id="Path_1258658" data-name="Path 1258658" d="M252.768,256.669s3.579,3.053,4.907,2.307c0,0-2.281-5.574-4.907-2.307" transform="translate(-164.798 -166.671)" fill="#753519"/>
            <path id="Path_1258659" data-name="Path 1258659" d="M260.557,364.349s-7.845,4.414-8.739,5.442" transform="translate(-164.178 -237.545)" fill="none"/>
            <path id="Path_1258660" data-name="Path 1258660" d="M274.258,281.627a14.552,14.552,0,0,1,9.763,9.832,7.047,7.047,0,0,1-6.708,1.806s-1.892-7.246-3.055-11.638" transform="translate(-178.808 -183.613)" fill="#91b31e"/>
            <path id="Path_1258661" data-name="Path 1258661" d="M249.127,257.156s-.7,4.651-2.194,4.958c0,0-1.931-5.7,2.194-4.958" transform="translate(-160.699 -167.615)" fill="#753519"/>
            <path id="Path_1258662" data-name="Path 1258662" d="M120,182.567c-3.271,3.578-8.441.219-6.055-4a2.515,2.515,0,0,1,.194-.323c2.951-3.767,2.15.391,5.3-2.88s10.635.548,7.308,4.795-5.853,1.432-5.853,1.432Z" transform="translate(-73.889 -113.529)" fill="#0e1a34"/>
            <path id="Path_1258663" data-name="Path 1258663" d="M155.086,299.564l-.093-1.884,14.794-.284.063,1.278Z" transform="translate(-101.051 -193.893)" fill="#ffd200"/>
            <path id="Path_1258664" data-name="Path 1258664" d="M193.988,295.771l-.05-1.021,2.6-1.654.2,4.065Z" transform="translate(-126.442 -191.09)" fill="#ffd200"/>
            <path id="Path_1258665" data-name="Path 1258665" d="M201.056,297.164c-.191.009-.391-.893-.447-2.015s.054-2.04.245-2.05.391.893.447,2.015-.054,2.04-.245,2.05" transform="translate(-130.782 -191.092)" fill="#ec643b"/>
            <path id="Path_1258666" data-name="Path 1258666" d="M141.454,271.619a5.184,5.184,0,0,1,.983-6.877,4.379,4.379,0,0,1,6.309,1.475l-.608.45c-1.273-2-3.672-2.612-5.347-1.371a4.425,4.425,0,0,0-.729,5.873Z" transform="translate(-91.659 -172.085)" fill="#ec643b"/>
            <path id="Path_1258667" data-name="Path 1258667" d="M146.7,282.393a.211.211,0,0,0,.027-.022.237.237,0,0,0,.053-.108l6.884-11.219-6.69-6.06-10.485,7.958a.236.236,0,0,0-.1.063.186.186,0,0,0-.019.029l-.022.017.007.006c-.281.592,1.643,3.006,4.407,5.51s5.357,4.179,5.918,3.842l.007.006Z" transform="translate(-88.883 -172.763)" fill="#ffd200"/>
            <path id="Path_1258668" data-name="Path 1258668" d="M173.468,271.019c-.285.315-2.015-.788-3.864-2.463s-3.117-3.288-2.832-3.6,2.015.788,3.865,2.463,3.117,3.288,2.832,3.6" transform="translate(-108.705 -172.707)" fill="#ec643b"/>
            <path id="Path_1258669" data-name="Path 1258669" d="M146.732,297.711a.237.237,0,0,0,.053-.108l4.631-7.547a11.614,11.614,0,0,1-14.444-.913c-.224-.2-.435-.414-.639-.63-.039.744,1.821,3.029,4.433,5.395,2.765,2.5,5.357,4.179,5.918,3.842l.007.006.015-.024a.213.213,0,0,0,.027-.022" transform="translate(-88.884 -188.103)" fill="#fb0"/>
            <path id="Path_1258670" data-name="Path 1258670" d="M159.864,273.09l1.734-1.378a.355.355,0,0,0,.018-.558.528.528,0,0,0-.658-.021l-1.624,1.291a.426.426,0,1,0,.53.667" transform="translate(-103.776 -176.703)" fill="#fff"/>
            <path id="Path_1258671" data-name="Path 1258671" d="M145.913,278.808l-4.5,3.577a.441.441,0,0,0-.126.553.427.427,0,0,0,.639.128l4.518-3.591a.426.426,0,0,0-.53-.667" transform="translate(-92.082 -181.714)" fill="#fff"/>
            <path id="Path_1258672" data-name="Path 1258672" d="M124.478,394.638a4.95,4.95,0,0,0,1.119,1.254,12.708,12.708,0,0,1,1.952,1.572c.2.355-.157.829-.64.8a33.884,33.884,0,0,1-4.967-.924c-.908-.362-1.177-.512-1.2-.651a24.026,24.026,0,0,1,.586-2.463c.151-.47,2.141-1.02,3.145.411" transform="translate(-78.723 -256.694)" fill="#91b31e"/>
            <path id="Path_1258673" data-name="Path 1258673" d="M77.963,380.425a4.957,4.957,0,0,0,.8,1.478,12.688,12.688,0,0,1,1.539,1.979c.117.392-.343.771-.806.632a33.811,33.811,0,0,1-4.623-2.039c-.8-.56-1.028-.769-1.015-.909A24,24,0,0,1,75,379.3c.254-.423,2.318-.5,2.967,1.122" transform="translate(-48.154 -247.126)" fill="#91b31e"/>
            <path id="Path_1258674" data-name="Path 1258674" d="M99.834,285.518s-1.223,5.548.431,8.2,8.326,12.55,8.711,14.165-2.047,15.569-2.047,15.569l4.028.21s5.111-15.834,4.864-17.556c-.865-6.027-4.206-15.329-3.27-20.865Z" transform="translate(-64.805 -185.968)" fill="#0e1a34"/>
            <path id="Path_1258675" data-name="Path 1258675" d="M105.706,210.8a8.709,8.709,0,0,1,2.813.678c4.243,3.525,4.948,14.625,4.166,26.56L98.783,237s1.641-21.514,6.923-26.2" transform="translate(-64.404 -137.435)" fill="#108f6e"/>
            <path id="Path_1258676" data-name="Path 1258676" d="M85.591,311.9a18.1,18.1,0,0,1-1.746,11.207c-2.947,5.36-7.742,12.561-7.742,12.561l3.439.707s9.71-10.807,11.718-15.708Z" transform="translate(-49.617 -203.352)" fill="#0e1a34"/>
            <path id="Path_1258677" data-name="Path 1258677" d="M124.178,188.941a8.3,8.3,0,0,1-1.507,3.816c-1.108,1.213-2.043.545-2.36.688s-.469,1.055-.44,1.7a1.2,1.2,0,0,1-1.973.671c-1-.665-.633-3.978-.633-3.978a3.981,3.981,0,0,1-.254-2.573,3.006,3.006,0,0,1-.234-1.928c.316-.725.84-.555,1.122-.051,0,0,1.123-2.313,2.946-2.007s3.479,1.2,3.332,3.662" transform="translate(-76.072 -120.779)" fill="#ff9a5c"/>
            <path id="Path_1258678" data-name="Path 1258678" d="M111.519,248.884s-9.339-.621-12.854-2.113-3.278-3.169-2.942-4.393,1.5-3.878,1.5-3.878l3.495,1.984-.006.733-.422,1.324s1.131.561,2.826,1.282,8.524,3.025,8.524,3.025,1.721,1.14-.125,2.036" transform="translate(-62.292 -155.495)" fill="#ff9a5c"/>
            <path id="Path_1258679" data-name="Path 1258679" d="M141.013,263.735a5.925,5.925,0,0,0,1.857,1.058c.136.612.521.837.72.792s.1-.975.1-.975c.223.41.972.765,1.04.493a1.558,1.558,0,0,0-.073-.691s.326.351.541.329.457-.24.311-.707a4.629,4.629,0,0,0-.832-1.5c-.326-.352-.532-.715-1.168-.793a10.251,10.251,0,0,0-1.562.043,13.653,13.653,0,0,0-1.788.188Z" transform="translate(-91.382 -170.628)" fill="#ff9a5c"/>
            <path id="Path_1258680" data-name="Path 1258680" d="M142.791,261.289l-.04-.385a8.1,8.1,0,0,1,2.045-.625c.359.085.736.538.946.7s-2.95.31-2.95.31" transform="translate(-93.07 -169.69)" fill="#ff9a5c"/>
            <path id="Path_1258681" data-name="Path 1258681" d="M104.4,210.3c-.813-.032-5.21.932-7.185,10.268l5.417,1.465s.771-5.963,1.91-11.607c.013-.066-.068-.123-.141-.126" transform="translate(-63.384 -137.112)" fill="#108f6e"/>
            <path id="Path_1258682" data-name="Path 1258682" d="M123.446,178.385a2.81,2.81,0,1,1-1.642-3.618,2.81,2.81,0,0,1,1.642,3.618" transform="translate(-76.936 -113.826)" fill="#0e1a34"/>
            <path id="Path_1258683" data-name="Path 1258683" d="M137.129,183a2.81,2.81,0,1,1-1.642-3.618A2.81,2.81,0,0,1,137.129,183" transform="translate(-85.857 -116.837)" fill="#0e1a34"/>
            <path id="Path_1258684" data-name="Path 1258684" d="M107.239,312.3s4.1,9.133,5.017,10.139" transform="translate(-69.917 -203.611)" fill="none"/>
            <path id="Path_1258685" data-name="Path 1258685" d="M208.152,303.876c.589.8.427,1.266.026,1.561s-.892.31-1.481-.493a5.44,5.44,0,0,1-.653-2.417,5.444,5.444,0,0,1,2.108,1.35" transform="translate(-134.335 -197.238)" fill="#108f6e"/>
            <path id="Path_1258686" data-name="Path 1258686" d="M206.7,317.925c.1.753-.176,1-.552,1.055s-.71-.118-.811-.871a4.15,4.15,0,0,1,.444-1.857,4.15,4.15,0,0,1,.919,1.673" transform="translate(-133.866 -206.187)" fill="#108f6e"/>
            <path id="Path_1258687" data-name="Path 1258687" d="M211.188,335.872c.1.753-.176,1-.552,1.055s-.71-.118-.811-.871a4.149,4.149,0,0,1,.444-1.857,4.149,4.149,0,0,1,.919,1.673" transform="translate(-136.791 -217.888)" fill="#108f6e"/>
            <path id="Path_1258688" data-name="Path 1258688" d="M216.656,322.209c.157,1.168-.272,1.556-.856,1.635s-1.1-.182-1.258-1.35a6.434,6.434,0,0,1,.688-2.878,6.434,6.434,0,0,1,1.426,2.593" transform="translate(-139.863 -208.381)" fill="#108f6e"/>
            <path id="Path_1258689" data-name="Path 1258689" d="M192.048,358.97h.01a.5.5,0,0,0,.426-.6l-.779-3.476a.5.5,0,0,0-.981.22l.779,3.475a.5.5,0,0,0,.545.385" transform="translate(-124.338 -231.122)" fill="#fff"/>
            <path id="Path_1258690" data-name="Path 1258690" d="M195.164,372.375h-.01a.5.5,0,0,0-.426.6l1.6,7.128a.5.5,0,0,0,.981-.22l-1.6-7.127a.5.5,0,0,0-.545-.385" transform="translate(-126.949 -242.776)" fill="#fff"/>
          </g>
        </g>
      </g>
    </g>
  </g>
</svg>
