<svg xmlns="http://www.w3.org/2000/svg" xmlns:xlink="http://www.w3.org/1999/xlink" width="119.053" height="119.054" viewBox="0 0 119.053 119.054">
  <defs>
    <filter id="Path_874925" x="0" y="0" width="119.053" height="119.054" filterUnits="userSpaceOnUse">
      <feOffset dy="3" input="SourceAlpha"/>
      <feGaussianBlur stdDeviation="3" result="blur"/>
      <feFlood flood-opacity="0.161"/>
      <feComposite operator="in" in2="blur"/>
      <feComposite in="SourceGraphic"/>
    </filter>
  </defs>
  <g id="Group_1203914" data-name="Group 1203914" transform="translate(-520 -1521.001)">
    <g id="Group_1203354" data-name="Group 1203354" transform="translate(244 -4723.873)">
      <g id="Group_1200232" data-name="Group 1200232" transform="translate(285 6250.874)">
        <g id="Group_1187153" data-name="Group 1187153">
          <g id="Group_1182177" data-name="Group 1182177">
            <g id="Group_1181903" data-name="Group 1181903">
              <g id="Group_1181438" data-name="Group 1181438">
                <g id="Group_1111314" data-name="Group 1111314">
                  <g transform="matrix(1, 0, 0, 1, -9, -6)" filter="url(#Path_874925)">
                    <g id="Path_874925-2" data-name="Path 874925" transform="translate(9 6)" fill="#ffc94a">
                      <path d="M 50.52651596069336 99.55361938476562 C 43.90731430053711 99.55361938476562 37.48691558837891 98.25757598876953 31.44364547729492 95.70149230957031 C 25.60577392578125 93.23227691650391 20.36252975463867 89.69707489013672 15.85953044891357 85.194091796875 C 11.35654449462891 80.69109344482422 7.821344375610352 75.44783782958984 5.35213041305542 69.60997772216797 C 2.796044588088989 63.56670761108398 1.500001668930054 57.14628982543945 1.500001668930054 50.52709197998047 C 1.500001668930054 43.90732192993164 2.796044588088989 37.48691940307617 5.35213041305542 31.44364929199219 C 7.821344375610352 25.60577774047852 11.35654449462891 20.36253356933594 15.85953044891357 15.85953426361084 C 20.36252975463867 11.35654830932617 25.60577392578125 7.821348667144775 31.44364547729492 5.352134227752686 C 37.48691558837891 2.796048641204834 43.90731430053711 1.500005841255188 50.52651596069336 1.500005841255188 C 57.14571762084961 1.500005841255188 63.56611633300781 2.796048641204834 69.60939025878906 5.352134227752686 C 75.44724273681641 7.821348667144775 80.69049835205078 11.35654830932617 85.19348907470703 15.85953426361084 C 89.69648742675781 20.36253356933594 93.231689453125 25.60577774047852 95.70090484619141 31.44364929199219 C 98.25698852539062 37.48691940307617 99.55303192138672 43.90732192993164 99.55303192138672 50.52651977539062 C 99.55303192138672 57.14628982543945 98.25698852539062 63.56670761108398 95.70090484619141 69.60997772216797 C 93.231689453125 75.44783782958984 89.69648742675781 80.69109344482422 85.19348907470703 85.194091796875 C 80.69049835205078 89.69707489013672 75.44724273681641 93.23227691650391 69.60939025878906 95.70149230957031 C 63.56611633300781 98.25757598876953 57.14571762084961 99.55361938476562 50.52651596069336 99.55361938476562 Z" stroke="none"/>
                      <path d="M 50.52651596069336 2.999992370605469 C 44.10914611816406 2.999992370605469 37.88534545898438 4.256172180175781 32.02796173095703 6.733619689941406 C 26.36890411376953 9.127204895019531 21.28591918945312 12.55446624755859 16.92019653320312 16.92018890380859 C 12.55446624755859 21.28591156005859 9.127204895019531 26.368896484375 6.733627319335938 32.02796173095703 C 4.256179809570312 37.88534545898438 2.999992370605469 44.10914611816406 2.999992370605469 50.527099609375 C 2.999992370605469 56.94446563720703 4.256179809570312 63.16826629638672 6.733627319335938 69.025634765625 C 9.127204895019531 74.68471527099609 12.55446624755859 79.7677001953125 16.92019653320312 84.1334228515625 C 21.28591918945312 88.4991455078125 26.36890411376953 91.9263916015625 32.02796173095703 94.31997680664062 C 37.88534545898438 96.79743957519531 44.10914611816406 98.05360412597656 50.52651596069336 98.05360412597656 C 56.94387054443359 98.05360412597656 63.16768646240234 96.79743957519531 69.02505493164062 94.31997680664062 C 74.68411254882812 91.9263916015625 79.76712036132812 88.4991455078125 84.13282775878906 84.1334228515625 C 88.49855041503906 79.7677001953125 91.92581176757812 74.68471527099609 94.31938934326172 69.025634765625 C 96.79683685302734 63.16826629638672 98.05302429199219 56.94446563720703 98.05302429199219 50.52651214599609 C 98.05302429199219 44.10914611816406 96.79683685302734 37.88534545898438 94.31938934326172 32.02796173095703 C 91.92581176757812 26.368896484375 88.49855041503906 21.28591156005859 84.13282775878906 16.92018890380859 C 79.76712036132812 12.55446624755859 74.68411254882812 9.127204895019531 69.02505493164062 6.733619689941406 C 63.16768646240234 4.256172180175781 56.94387054443359 2.999992370605469 50.52651596069336 2.999992370605469 M 50.52651596069336 -7.62939453125e-06 C 78.43153381347656 -7.62939453125e-06 101.0530242919922 22.62148284912109 101.0530242919922 50.52651214599609 L 101.0530242919922 50.527099609375 C 101.0530242919922 78.43212890625 78.43153381347656 101.0536041259766 50.52651596069336 101.0536041259766 C 22.62148284912109 101.0536041259766 -7.62939453125e-06 78.43212890625 -7.62939453125e-06 50.527099609375 L -7.62939453125e-06 50.52651214599609 C -7.62939453125e-06 22.62148284912109 22.62148284912109 -7.62939453125e-06 50.52651596069336 -7.62939453125e-06 Z" stroke="none" fill="#fff"/>
                    </g>
                  </g>
                </g>
              </g>
            </g>
          </g>
        </g>
      </g>
    </g>
    <g id="amenaza" transform="translate(547.024 1492.761)">
      <g id="Group_1203913" data-name="Group 1203913" transform="translate(1.019 57.274)">
        <g id="Group_1203911" data-name="Group 1203911" transform="translate(0 0)">
          <path id="Path_1258730" data-name="Path 1258730" d="M38.73,68.026,55.3,96.718a7.565,7.565,0,0,1-6.551,11.347H15.613A7.565,7.565,0,0,1,9.062,96.718L25.627,68.026a7.565,7.565,0,0,1,13.1,0Z" transform="translate(-8.041 -64.244)" fill="#fe646f" fill-rule="evenodd"/>
          <path id="Path_1258731" data-name="Path 1258731" d="M194.65,68.026l16.565,28.692a7.565,7.565,0,0,1-6.551,11.347H202.7a7.565,7.565,0,0,0,6.551-11.347L192.682,68.026a7.505,7.505,0,0,0-5.567-3.72,7.723,7.723,0,0,1,.984-.063A7.513,7.513,0,0,1,194.65,68.026Z" transform="translate(-163.961 -64.244)" fill="#fd4755" fill-rule="evenodd"/>
          <path id="Path_1258732" data-name="Path 1258732" d="M61.871,96.554l16.565,28.692a3.621,3.621,0,0,1-3.136,5.432H42.169a3.621,3.621,0,0,1-3.136-5.432L55.6,96.554a3.621,3.621,0,0,1,6.272,0Z" transform="translate(-34.596 -90.8)" fill="#ffe177" fill-rule="evenodd"/>
          <path id="Path_1258733" data-name="Path 1258733" d="M44.137,130.678H42.169a3.621,3.621,0,0,1-3.136-5.432L55.6,96.554a3.57,3.57,0,0,1,3.136-1.811,3.7,3.7,0,0,1,.984.132,3.567,3.567,0,0,0-2.152,1.679L41,125.246a3.621,3.621,0,0,0,3.136,5.432Z" transform="translate(-34.596 -90.8)" fill="#ffd064" fill-rule="evenodd"/>
          <path id="Path_1258734" data-name="Path 1258734" d="M180.777,181.458a2.071,2.071,0,1,1-2.072,2.071A2.071,2.071,0,0,1,180.777,181.458Zm0-2.166a1.617,1.617,0,0,1-1.616-1.559l-.409-11.318a1.617,1.617,0,0,1,1.616-1.675h.818a1.617,1.617,0,0,1,1.616,1.675l-.409,11.318A1.618,1.618,0,0,1,180.777,179.292Z" transform="translate(-156.638 -151.746)" fill="#fe646f" fill-rule="evenodd"/>
          <path id="Path_1258735" data-name="Path 1258735" d="M191.412,181.458a2.071,2.071,0,1,1-.492,4.084,2.072,2.072,0,0,0,0-4.025A2.072,2.072,0,0,1,191.412,181.458Zm0-2.166a1.617,1.617,0,0,1-.492-.076,1.618,1.618,0,0,0,1.124-1.482l.409-11.318a1.617,1.617,0,0,0-1.533-1.673l.083,0h.818a1.617,1.617,0,0,1,1.616,1.675l-.409,11.318A1.618,1.618,0,0,1,191.412,179.292Z" transform="translate(-167.274 -151.746)" fill="#fd4755" fill-rule="evenodd"/>
        </g>
        <g id="Group_1203912" data-name="Group 1203912" transform="translate(23.599 16.343)">
          <path id="Path_1258736" data-name="Path 1258736" d="M313.318,198.747h3.859a1.935,1.935,0,0,1,1.93,1.93v9.875h-7.718v-9.875a1.935,1.935,0,0,1,1.93-1.93Z" transform="translate(-295.765 -197.699)" fill="#685e68" fill-rule="evenodd"/>
          <path id="Path_1258737" data-name="Path 1258737" d="M336.158,198.747h2.586a1.935,1.935,0,0,1,1.93,1.93v9.875h-2.586v-9.875A1.935,1.935,0,0,0,336.158,198.747Z" transform="translate(-317.332 -197.699)" fill="#544854" fill-rule="evenodd"/>
          <circle id="Ellipse_12728" data-name="Ellipse 12728" cx="13.772" cy="13.772" r="13.772" transform="translate(0 19.473) rotate(-45)" fill="#837683"/>
          <path id="Path_1258738" data-name="Path 1258738" d="M332.528,234.736a13.772,13.772,0,0,1,0,27.543c-.436,0-.867-.021-1.293-.061a13.772,13.772,0,0,0,0-27.421C331.661,234.757,332.092,234.736,332.528,234.736Z" transform="translate(-313.046 -229.035)" fill="#685e68" fill-rule="evenodd"/>
        </g>
      </g>
      <path id="Path_1258739" data-name="Path 1258739" d="M53.478,63.585a1.035,1.035,0,0,1,1.413-.379l1.834,1.059a1.034,1.034,0,1,1-1.035,1.791L53.857,65A1.033,1.033,0,0,1,53.478,63.585Zm12.567,7.255a1.035,1.035,0,0,1-1.413.379L62.8,70.159a1.035,1.035,0,1,1,1.035-1.792l1.834,1.06A1.034,1.034,0,0,1,66.044,70.839Zm-3.626-5.161a1.035,1.035,0,0,1,.379-1.413l1.834-1.059A1.034,1.034,0,1,1,65.666,65l-1.834,1.059a1.034,1.034,0,0,1-1.413-.378Zm-1.624-4.687v2.118a1.034,1.034,0,1,1-2.069,0V60.991a1.034,1.034,0,1,1,2.069,0Zm-13.872,15.6v1.961a14.835,14.835,0,0,0-5.649,0V76.595a.9.9,0,0,1,.895-.895h3.86A.9.9,0,0,1,46.923,76.595Zm9.912,16.5A12.737,12.737,0,1,1,44.1,80.354,12.753,12.753,0,0,1,56.835,93.09Zm-48.245,6.97h22.45a14.556,14.556,0,0,1-.843-1.875H8.589A4.656,4.656,0,0,1,4.557,91.2L21.122,62.512a4.655,4.655,0,0,1,8.065,0l9.661,16.735c.119-.045.237-.088.356-.131V76.595a3.017,3.017,0,0,1,.031-.428L30.809,61.574a6.529,6.529,0,0,0-11.31,0L2.934,90.266a6.53,6.53,0,0,0,5.655,9.8ZM29.6,96.117a14.808,14.808,0,0,1,7.361-16L27.395,63.546a2.586,2.586,0,0,0-4.48,0L6.348,92.237a2.586,2.586,0,0,0,2.241,3.88Zm30.158-29.94a1.035,1.035,0,0,0-1.035,1.034,2.376,2.376,0,0,1-.6,1.834c-1.013.939-3.46.75-5.827.569-2.945-.226-5.99-.461-7.807,1.224a4.521,4.521,0,0,0-1.355,2.793h-.964a2.953,2.953,0,0,0-1.7.536L32.6,60.54a8.6,8.6,0,0,0-14.894,0L1.142,89.231a8.6,8.6,0,0,0,7.447,12.9H32.38A14.8,14.8,0,1,0,48.991,79.116V76.595a2.967,2.967,0,0,0-2.963-2.963h-.8a2.322,2.322,0,0,1,.664-1.276c1.156-1.07,3.742-.872,6.243-.679,2.811.215,5.716.438,7.392-1.113a4.356,4.356,0,0,0,1.267-3.352,1.035,1.035,0,0,0-1.034-1.034ZM44.1,100.431a7.349,7.349,0,0,1-7.34-7.34,1.034,1.034,0,1,0-2.069,0A9.421,9.421,0,0,0,44.1,102.5a1.035,1.035,0,0,0,0-2.069ZM25.154,90.095a1.037,1.037,0,1,1,1.037-1.037A1.039,1.039,0,0,1,25.154,90.095Zm0-4.142a3.106,3.106,0,1,1-3.105,3.105A3.108,3.108,0,0,1,25.154,85.952Zm-.827-14.471a.527.527,0,0,1,.419-.179h.818a.584.584,0,0,1,.582.6l-.409,11.319a.583.583,0,0,1-1.164,0l-.409-11.317A.529.529,0,0,1,24.326,71.481Zm.827,14.374A2.641,2.641,0,0,1,22.5,83.3L22.1,71.981a2.652,2.652,0,0,1,2.649-2.747h.818a2.653,2.653,0,0,1,2.65,2.746L27.8,83.3a2.643,2.643,0,0,1-2.65,2.556h0Z" fill-rule="evenodd"/>
    </g>
  </g>
</svg>
