<svg xmlns="http://www.w3.org/2000/svg" xmlns:xlink="http://www.w3.org/1999/xlink" width="119.053" height="119.054" viewBox="0 0 119.053 119.054">
  <defs>
    <filter id="Path_874925" x="0" y="0" width="119.053" height="119.054" filterUnits="userSpaceOnUse">
      <feOffset dy="3" input="SourceAlpha"/>
      <feGaussianBlur stdDeviation="3" result="blur"/>
      <feFlood flood-opacity="0.161"/>
      <feComposite operator="in" in2="blur"/>
      <feComposite in="SourceGraphic"/>
    </filter>
  </defs>
  <g id="Group_1203916" data-name="Group 1203916" transform="translate(-961 -1521)">
    <g id="Group_1203794" data-name="Group 1203794" transform="translate(685 -4723.874)">
      <g id="Group_1200232" data-name="Group 1200232" transform="translate(285 6250.874)">
        <g id="Group_1187153" data-name="Group 1187153">
          <g id="Group_1182177" data-name="Group 1182177">
            <g id="Group_1181903" data-name="Group 1181903">
              <g id="Group_1181438" data-name="Group 1181438">
                <g id="Group_1111314" data-name="Group 1111314">
                  <g transform="matrix(1, 0, 0, 1, -9, -6)" filter="url(#Path_874925)">
                    <g id="Path_874925-2" data-name="Path 874925" transform="translate(9 6)" fill="#ffc94a">
                      <path d="M 50.52651596069336 99.55361938476562 C 43.90731430053711 99.55361938476562 37.48691558837891 98.25757598876953 31.44364547729492 95.70149230957031 C 25.60577392578125 93.23227691650391 20.36252975463867 89.69707489013672 15.85953044891357 85.194091796875 C 11.35654449462891 80.69109344482422 7.821344375610352 75.44783782958984 5.35213041305542 69.60997772216797 C 2.796044588088989 63.56670761108398 1.500001668930054 57.14628982543945 1.500001668930054 50.52709197998047 C 1.500001668930054 43.90732192993164 2.796044588088989 37.48691940307617 5.35213041305542 31.44364929199219 C 7.821344375610352 25.60577774047852 11.35654449462891 20.36253356933594 15.85953044891357 15.85953426361084 C 20.36252975463867 11.35654830932617 25.60577392578125 7.821348667144775 31.44364547729492 5.352134227752686 C 37.48691558837891 2.796048641204834 43.90731430053711 1.500005841255188 50.52651596069336 1.500005841255188 C 57.14571762084961 1.500005841255188 63.56611633300781 2.796048641204834 69.60939025878906 5.352134227752686 C 75.44724273681641 7.821348667144775 80.69049835205078 11.35654830932617 85.19348907470703 15.85953426361084 C 89.69648742675781 20.36253356933594 93.231689453125 25.60577774047852 95.70090484619141 31.44364929199219 C 98.25698852539062 37.48691940307617 99.55303192138672 43.90732192993164 99.55303192138672 50.52651977539062 C 99.55303192138672 57.14628982543945 98.25698852539062 63.56670761108398 95.70090484619141 69.60997772216797 C 93.231689453125 75.44783782958984 89.69648742675781 80.69109344482422 85.19348907470703 85.194091796875 C 80.69049835205078 89.69707489013672 75.44724273681641 93.23227691650391 69.60939025878906 95.70149230957031 C 63.56611633300781 98.25757598876953 57.14571762084961 99.55361938476562 50.52651596069336 99.55361938476562 Z" stroke="none"/>
                      <path d="M 50.52651596069336 2.999992370605469 C 44.10914611816406 2.999992370605469 37.88534545898438 4.256172180175781 32.02796173095703 6.733619689941406 C 26.36890411376953 9.127204895019531 21.28591918945312 12.55446624755859 16.92019653320312 16.92018890380859 C 12.55446624755859 21.28591156005859 9.127204895019531 26.368896484375 6.733627319335938 32.02796173095703 C 4.256179809570312 37.88534545898438 2.999992370605469 44.10914611816406 2.999992370605469 50.527099609375 C 2.999992370605469 56.94446563720703 4.256179809570312 63.16826629638672 6.733627319335938 69.025634765625 C 9.127204895019531 74.68471527099609 12.55446624755859 79.7677001953125 16.92019653320312 84.1334228515625 C 21.28591918945312 88.4991455078125 26.36890411376953 91.9263916015625 32.02796173095703 94.31997680664062 C 37.88534545898438 96.79743957519531 44.10914611816406 98.05360412597656 50.52651596069336 98.05360412597656 C 56.94387054443359 98.05360412597656 63.16768646240234 96.79743957519531 69.02505493164062 94.31997680664062 C 74.68411254882812 91.9263916015625 79.76712036132812 88.4991455078125 84.13282775878906 84.1334228515625 C 88.49855041503906 79.7677001953125 91.92581176757812 74.68471527099609 94.31938934326172 69.025634765625 C 96.79683685302734 63.16826629638672 98.05302429199219 56.94446563720703 98.05302429199219 50.52651214599609 C 98.05302429199219 44.10914611816406 96.79683685302734 37.88534545898438 94.31938934326172 32.02796173095703 C 91.92581176757812 26.368896484375 88.49855041503906 21.28591156005859 84.13282775878906 16.92018890380859 C 79.76712036132812 12.55446624755859 74.68411254882812 9.127204895019531 69.02505493164062 6.733619689941406 C 63.16768646240234 4.256172180175781 56.94387054443359 2.999992370605469 50.52651596069336 2.999992370605469 M 50.52651596069336 -7.62939453125e-06 C 78.43153381347656 -7.62939453125e-06 101.0530242919922 22.62148284912109 101.0530242919922 50.52651214599609 L 101.0530242919922 50.527099609375 C 101.0530242919922 78.43212890625 78.43153381347656 101.0536041259766 50.52651596069336 101.0536041259766 C 22.62148284912109 101.0536041259766 -7.62939453125e-06 78.43212890625 -7.62939453125e-06 50.527099609375 L -7.62939453125e-06 50.52651214599609 C -7.62939453125e-06 22.62148284912109 22.62148284912109 -7.62939453125e-06 50.52651596069336 -7.62939453125e-06 Z" stroke="none" fill="#fff"/>
                    </g>
                  </g>
                </g>
              </g>
            </g>
          </g>
        </g>
      </g>
    </g>
    <g id="ambiental_1_" data-name="ambiental (1)" transform="translate(972.532 1504.407)">
      <g id="Group_1203915" data-name="Group 1203915" transform="translate(16.468 45.593)">
        <path id="Path_1258740" data-name="Path 1258740" d="M19.482,74.043c-.013-.337-.022-.675-.022-1.012A25.13,25.13,0,0,1,55.111,50.208a27.455,27.455,0,0,0,6.515-4.054,2.336,2.336,0,0,1,3.037,0,27.456,27.456,0,0,0,6.523,4.056,30.8,30.8,0,0,0,7.667,2.264,1.53,1.53,0,0,1,1.3,1.478A28.56,28.56,0,0,1,69.367,77.227,25.165,25.165,0,0,1,54.062,96.312,25.476,25.476,0,0,0,59.889,97.6c.961.074,1.34,1.449,1.258,2.277a1.709,1.709,0,0,1-2.137,1.632,44.874,44.874,0,0,1-8.778-2.595q-12.475,3.48-20.95-2.52T16.494,74.917a.729.729,0,0,1,.743-.92q1.141.011,2.245.047Z" transform="translate(-16.468 -45.593)" fill-rule="evenodd"/>
        <path id="Path_1258741" data-name="Path 1258741" d="M280.657,63.535a.089.089,0,0,0-.074-.082,32.267,32.267,0,0,1-8.032-2.372,28.908,28.908,0,0,1-6.865-4.272.905.905,0,0,0-1.168,0,28.908,28.908,0,0,1-6.864,4.272,32.268,32.268,0,0,1-8.032,2.372.089.089,0,0,0-.074.082A27.15,27.15,0,0,0,265.1,88.942,27.151,27.151,0,0,0,280.657,63.535ZM276.947,75.6a.726.726,0,1,1-1.311-.627,24.457,24.457,0,0,0,2.37-9.336,34.6,34.6,0,0,1-6.858-2.3,31.736,31.736,0,0,1-6.045-3.619,30.944,30.944,0,0,1-2.8,1.905,32.563,32.563,0,0,1-3.572,1.861.727.727,0,1,1-.593-1.328,31.1,31.1,0,0,0,3.412-1.781,29.389,29.389,0,0,0,3.09-2.144.728.728,0,0,1,.915-.007,30.139,30.139,0,0,0,6.2,3.789,33.239,33.239,0,0,0,7.15,2.33.727.727,0,0,1,.581.729A25.938,25.938,0,0,1,276.947,75.6ZM254.134,63.632a.728.728,0,1,1,.41,1.4q-.743.221-1.463.4-.427.107-.881.208a24.515,24.515,0,0,0,12.9,20.357,24.494,24.494,0,0,0,7.648-6.4.726.726,0,1,1,1.14.9,25.976,25.976,0,0,1-8.45,6.965.727.727,0,0,1-.672,0A25.969,25.969,0,0,1,250.724,65.1a.727.727,0,0,1,.58-.754q.682-.14,1.423-.326.723-.181,1.406-.384Zm12.86,9.545a1.891,1.891,0,0,1-3.781,0l-.415-8.559a2.186,2.186,0,0,1,.665-1.558,2.349,2.349,0,0,1,1.529-.672,2.069,2.069,0,0,1,.222,0,2.349,2.349,0,0,1,1.529.672,2.186,2.186,0,0,1,.665,1.559l-.415,8.559ZM265.1,76.96a2.6,2.6,0,1,1-1.836.761,2.6,2.6,0,0,1,1.836-.761Z" transform="translate(-218.547 -55.132)" fill="#a0d468" fill-rule="evenodd"/>
        <path id="Path_1258742" data-name="Path 1258742" d="M296.675,354.3h-8.506A25.787,25.787,0,0,1,285,360.918q.211,1,.348,2.046a23.714,23.714,0,0,0,9.886-6.818q.764-.886,1.439-1.846Z" transform="translate(-249.298 -313.254)" fill="#69d6f4" fill-rule="evenodd"/>
        <path id="Path_1258743" data-name="Path 1258743" d="M269.948,354.3h-4.186a20.592,20.592,0,0,1,2.066,4.69,25.61,25.61,0,0,0,2.12-4.69Z" transform="translate(-232.616 -313.254)" fill="#69d6f4" fill-rule="evenodd"/>
        <path id="Path_1258744" data-name="Path 1258744" d="M236,268.886h5.62a41.722,41.722,0,0,0,1.527-8.792,28.757,28.757,0,0,1-2.637-2.623h-7.956v7.773A20.319,20.319,0,0,1,236,268.886Z" transform="translate(-203.82 -229.3)" fill="#69d6f4" fill-rule="evenodd"/>
        <path id="Path_1258745" data-name="Path 1258745" d="M312.145,293.322h9.012a23.52,23.52,0,0,0,2.712-6.669,28.567,28.567,0,0,1-4.18,2.355.726.726,0,0,1-.6,0,28.613,28.613,0,0,1-5.56-3.354A42.919,42.919,0,0,1,312.145,293.322Z" transform="translate(-272.832 -253.735)" fill="#69d6f4" fill-rule="evenodd"/>
        <path id="Path_1258746" data-name="Path 1258746" d="M233.95,159.092h-1.4v11.622H239.3q-.755-.978-1.426-2.021a28.441,28.441,0,0,1-3.926-9.6Z" transform="translate(-203.821 -144.001)" fill="#69d6f4" fill-rule="evenodd"/>
        <path id="Path_1258747" data-name="Path 1258747" d="M151.792,159.092h-9.006a43.069,43.069,0,0,0-1.7,11.622h10.7Z" transform="translate(-124.52 -144.001)" fill="#69d6f4" fill-rule="evenodd"/>
        <path id="Path_1258748" data-name="Path 1258748" d="M61.53,159.092H52.587a23.548,23.548,0,0,0-3.463,11.622H59.893A44.885,44.885,0,0,1,61.53,159.092Z" transform="translate(-44.782 -144.001)" fill="#69d6f4" fill-rule="evenodd"/>
        <path id="Path_1258749" data-name="Path 1258749" d="M82.459,87.425h8.426a29.24,29.24,0,0,1,1.545-3.769,16.992,16.992,0,0,1,4.144-5.539,23.719,23.719,0,0,0-14.116,9.307Z" transform="translate(-73.685 -73.793)" fill="#69d6f4" fill-rule="evenodd"/>
        <path id="Path_1258750" data-name="Path 1258750" d="M157.419,84.137h8.531V74.325c-2.775.373-5.31,2.861-7.221,6.693a27.314,27.314,0,0,0-1.31,3.119Z" transform="translate(-138.678 -70.505)" fill="#69d6f4" fill-rule="evenodd"/>
        <path id="Path_1258751" data-name="Path 1258751" d="M232.547,84.137h1.135a28.783,28.783,0,0,1-.317-5.269,1.53,1.53,0,0,1,1.3-1.478q1.2-.192,2.357-.469a9.593,9.593,0,0,0-2.175-1.782,6.212,6.212,0,0,0-2.3-.813Z" transform="translate(-203.816 -70.505)" fill="#69d6f4" fill-rule="evenodd"/>
        <path id="Path_1258752" data-name="Path 1258752" d="M151.782,257.47h-10.7q.013,1.023.073,2.042a33.36,33.36,0,0,1,9.481,3.858q.592.368,1.149.76Z" transform="translate(-124.511 -229.299)" fill="#69d6f4" fill-rule="evenodd"/>
        <path id="Path_1258753" data-name="Path 1258753" d="M59.873,257.47H49.1q0,.171.013.341a65.653,65.653,0,0,1,10.814,1.353Q59.887,258.318,59.873,257.47Z" transform="translate(-44.761 -229.299)" fill="#69d6f4" fill-rule="evenodd"/>
        <path id="Path_1258754" data-name="Path 1258754" d="M265.478,78.092a13.027,13.027,0,0,1,1.668,1.675q.939-.277,1.846-.609A23.568,23.568,0,0,0,265.478,78.092Z" transform="translate(-232.37 -73.771)" fill="#69d6f4" fill-rule="evenodd"/>
        <path id="Path_1258755" data-name="Path 1258755" d="M211.3,399.865c-5.413-.415-12.508-3.7-19.939-7.333A54.266,54.266,0,0,0,197.7,396.3a48.8,48.8,0,0,0,13.075,4.589C211.4,400.994,211.393,399.873,211.3,399.865Z" transform="translate(-168.105 -346.403)" fill="#f0bc5e" fill-rule="evenodd"/>
        <path id="Path_1258756" data-name="Path 1258756" d="M61.309,290.074a19.212,19.212,0,0,0-9.229-14.369Q43.8,270.559,28.3,270.27q4.155,14.22,11.958,19.745,7.286,5.159,17.893,2.763-1.237-.555-2.488-1.189a51.134,51.134,0,0,1-11.685-8.018.728.728,0,0,1,.77-1.224c5.459,2.643,10.92,5.519,16.56,7.727Z" transform="translate(-26.727 -240.397)" fill="#b4dd7f" fill-rule="evenodd"/>
      </g>
      <circle id="Ellipse_12729" data-name="Ellipse 12729" cx="1.137" cy="1.137" r="1.137" transform="translate(61.887 68.88)" fill="#f24646"/>
      <path id="Path_1258757" data-name="Path 1258757" d="M361.406,120.73a.463.463,0,0,0,.129-.34c.134-2.748.412-5.81.412-8.525a.734.734,0,0,0-.226-.521.889.889,0,0,0-.578-.256c-.025,0-.06,0-.086,0a.889.889,0,0,0-.578.256.734.734,0,0,0-.226.521c0,2.7.277,5.738.41,8.468.02.163,0,.26.132.4a.433.433,0,0,0,.612,0Z" transform="translate(-298.076 -56.786)" fill="#f24646" fill-rule="evenodd"/>
    </g>
  </g>
</svg>
