<svg xmlns="http://www.w3.org/2000/svg" xmlns:xlink="http://www.w3.org/1999/xlink" width="119.053" height="119.054" viewBox="0 0 119.053 119.054">
  <defs>
    <filter id="Path_874925" x="0" y="0" width="119.053" height="119.054" filterUnits="userSpaceOnUse">
      <feOffset dy="3" input="SourceAlpha"/>
      <feGaussianBlur stdDeviation="3" result="blur"/>
      <feFlood flood-opacity="0.161"/>
      <feComposite operator="in" in2="blur"/>
      <feComposite in="SourceGraphic"/>
    </filter>
  </defs>
  <g id="Group_1203936" data-name="Group 1203936" transform="translate(-1056 -4772)">
    <g id="Group_1203799" data-name="Group 1203799" transform="translate(780 -1472.874)">
      <g id="Group_1200232" data-name="Group 1200232" transform="translate(285 6250.874)">
        <g id="Group_1187153" data-name="Group 1187153">
          <g id="Group_1182177" data-name="Group 1182177">
            <g id="Group_1181903" data-name="Group 1181903">
              <g id="Group_1181438" data-name="Group 1181438">
                <g id="Group_1111314" data-name="Group 1111314">
                  <g transform="matrix(1, 0, 0, 1, -9, -6)" filter="url(#Path_874925)">
                    <g id="Path_874925-2" data-name="Path 874925" transform="translate(9 6)" fill="#ffc94a">
                      <path d="M 50.52651596069336 99.55361938476562 C 43.90731430053711 99.55361938476562 37.48691558837891 98.25757598876953 31.44364547729492 95.70149230957031 C 25.60577392578125 93.23227691650391 20.36252975463867 89.69707489013672 15.85953044891357 85.194091796875 C 11.35654449462891 80.69109344482422 7.821344375610352 75.44783782958984 5.35213041305542 69.60997772216797 C 2.796044588088989 63.56670761108398 1.500001668930054 57.14628982543945 1.500001668930054 50.52709197998047 C 1.500001668930054 43.90732192993164 2.796044588088989 37.48691940307617 5.35213041305542 31.44364929199219 C 7.821344375610352 25.60577774047852 11.35654449462891 20.36253356933594 15.85953044891357 15.85953426361084 C 20.36252975463867 11.35654830932617 25.60577392578125 7.821348667144775 31.44364547729492 5.352134227752686 C 37.48691558837891 2.796048641204834 43.90731430053711 1.500005841255188 50.52651596069336 1.500005841255188 C 57.14571762084961 1.500005841255188 63.56611633300781 2.796048641204834 69.60939025878906 5.352134227752686 C 75.44724273681641 7.821348667144775 80.69049835205078 11.35654830932617 85.19348907470703 15.85953426361084 C 89.69648742675781 20.36253356933594 93.231689453125 25.60577774047852 95.70090484619141 31.44364929199219 C 98.25698852539062 37.48691940307617 99.55303192138672 43.90732192993164 99.55303192138672 50.52651977539062 C 99.55303192138672 57.14628982543945 98.25698852539062 63.56670761108398 95.70090484619141 69.60997772216797 C 93.231689453125 75.44783782958984 89.69648742675781 80.69109344482422 85.19348907470703 85.194091796875 C 80.69049835205078 89.69707489013672 75.44724273681641 93.23227691650391 69.60939025878906 95.70149230957031 C 63.56611633300781 98.25757598876953 57.14571762084961 99.55361938476562 50.52651596069336 99.55361938476562 Z" stroke="none"/>
                      <path d="M 50.52651596069336 2.999992370605469 C 44.10914611816406 2.999992370605469 37.88534545898438 4.256172180175781 32.02796173095703 6.733619689941406 C 26.36890411376953 9.127204895019531 21.28591918945312 12.55446624755859 16.92019653320312 16.92018890380859 C 12.55446624755859 21.28591156005859 9.127204895019531 26.368896484375 6.733627319335938 32.02796173095703 C 4.256179809570312 37.88534545898438 2.999992370605469 44.10914611816406 2.999992370605469 50.527099609375 C 2.999992370605469 56.94446563720703 4.256179809570312 63.16826629638672 6.733627319335938 69.025634765625 C 9.127204895019531 74.68471527099609 12.55446624755859 79.7677001953125 16.92019653320312 84.1334228515625 C 21.28591918945312 88.4991455078125 26.36890411376953 91.9263916015625 32.02796173095703 94.31997680664062 C 37.88534545898438 96.79743957519531 44.10914611816406 98.05360412597656 50.52651596069336 98.05360412597656 C 56.94387054443359 98.05360412597656 63.16768646240234 96.79743957519531 69.02505493164062 94.31997680664062 C 74.68411254882812 91.9263916015625 79.76712036132812 88.4991455078125 84.13282775878906 84.1334228515625 C 88.49855041503906 79.7677001953125 91.92581176757812 74.68471527099609 94.31938934326172 69.025634765625 C 96.79683685302734 63.16826629638672 98.05302429199219 56.94446563720703 98.05302429199219 50.52651214599609 C 98.05302429199219 44.10914611816406 96.79683685302734 37.88534545898438 94.31938934326172 32.02796173095703 C 91.92581176757812 26.368896484375 88.49855041503906 21.28591156005859 84.13282775878906 16.92018890380859 C 79.76712036132812 12.55446624755859 74.68411254882812 9.127204895019531 69.02505493164062 6.733619689941406 C 63.16768646240234 4.256172180175781 56.94387054443359 2.999992370605469 50.52651596069336 2.999992370605469 M 50.52651596069336 -7.62939453125e-06 C 78.43153381347656 -7.62939453125e-06 101.0530242919922 22.62148284912109 101.0530242919922 50.52651214599609 L 101.0530242919922 50.527099609375 C 101.0530242919922 78.43212890625 78.43153381347656 101.0536041259766 50.52651596069336 101.0536041259766 C 22.62148284912109 101.0536041259766 -7.62939453125e-06 78.43212890625 -7.62939453125e-06 50.527099609375 L -7.62939453125e-06 50.52651214599609 C -7.62939453125e-06 22.62148284912109 22.62148284912109 -7.62939453125e-06 50.52651596069336 -7.62939453125e-06 Z" stroke="none" fill="#fff"/>
                    </g>
                  </g>
                </g>
              </g>
            </g>
          </g>
        </g>
      </g>
    </g>
    <g id="mundo" transform="translate(1085.897 4800)">
      <g id="Group_1203923" data-name="Group 1203923" transform="translate(13.847 1.124)">
        <circle id="Ellipse_12735" data-name="Ellipse 12735" cx="15" cy="15" r="15" fill="#ccf5fc"/>
      </g>
      <g id="Group_1203934" data-name="Group 1203934" transform="translate(1.227 2.345)">
        <g id="Group_1203924" data-name="Group 1203924" transform="translate(34.417 39.774)">
          <path id="Path_1258812" data-name="Path 1258812" d="M316.4,383.115h6.584a10.607,10.607,0,0,0,9.9-6.809,2.246,2.246,0,0,1,2.511-1.424l.029.005a2.234,2.234,0,0,1,1.672,2.989,15.107,15.107,0,0,1-7.311,8.112v3.143H316.4Z" transform="translate(-316.404 -374.844)" fill="#ffda8f"/>
        </g>
        <g id="Group_1203925" data-name="Group 1203925" transform="translate(37.788 39.942)">
          <g id="XMLID_1188_">
            <path id="Path_1258813" data-name="Path 1258813" d="M349.816,376.336a3.417,3.417,0,0,1,3.417,3.417v1.178a3.417,3.417,0,0,1-6.834,0v-1.178A3.417,3.417,0,0,1,349.816,376.336Z" transform="translate(-346.399 -376.336)" fill="#ffd0c7"/>
          </g>
        </g>
        <g id="Group_1203926" data-name="Group 1203926" transform="translate(24.174 33.259)">
          <g id="XMLID_1186_">
            <path id="Path_1258814" data-name="Path 1258814" d="M228.695,316.863a3.457,3.457,0,0,0-3.457,3.457v1.191a3.457,3.457,0,0,0,6.913,0V320.32A3.457,3.457,0,0,0,228.695,316.863Z" transform="translate(-225.238 -316.863)" fill="#ffd0c7"/>
          </g>
        </g>
        <g id="Group_1203927" data-name="Group 1203927" transform="translate(12.749 30.922)">
          <path id="Path_1258815" data-name="Path 1258815" d="M151.469,296.1a2.247,2.247,0,0,0-2.626,1.79,10.6,10.6,0,0,1-20.822,0,2.247,2.247,0,0,0-4.416.836,15.077,15.077,0,0,0,8.026,10.649V319.2h13.6v-9.826a15.077,15.077,0,0,0,8.025-10.648,2.247,2.247,0,0,0-1.79-2.626Z" transform="translate(-123.565 -296.062)" fill="#66e0f7"/>
        </g>
        <g id="Group_1203931" data-name="Group 1203931" transform="translate(12.621)">
          <g id="Group_1203928" data-name="Group 1203928" transform="translate(19.561 6.826)">
            <path id="Path_1258816" data-name="Path 1258816" d="M305.238,81.622H301.51a5.676,5.676,0,0,0-4.23,1.891,3.043,3.043,0,0,0,2.268,5.072h1.671l1.166,3.083a1.7,1.7,0,0,0-.54,2.319l2.084,3.423.194-.079a15.009,15.009,0,0,0,1.114-15.708Z" transform="translate(-296.505 -81.622)" fill="#a0e5a5"/>
          </g>
          <g id="Group_1203929" data-name="Group 1203929" transform="translate(0)">
            <path id="Path_1258817" data-name="Path 1258817" d="M122.42,34.648c0,.316.011.63.03.941h.229a4.626,4.626,0,0,1,2.639.827l.732.508a1.455,1.455,0,0,0,2.285-1.195v-.6a1.592,1.592,0,0,1,1.592-1.592,1.593,1.593,0,0,0,1.269-.631l3.736-4.931a3.051,3.051,0,0,0-.306-4.03l-3.143-3.077A15,15,0,0,0,122.42,34.648Z" transform="translate(-122.42 -20.869)" fill="#a0e5a5"/>
          </g>
          <g id="Group_1203930" data-name="Group 1203930" transform="translate(9.722 15.63)">
            <path id="Path_1258818" data-name="Path 1258818" d="M214.716,172.961l-1.881-5.336a1.011,1.011,0,0,0-.954-.675h-.3a1.011,1.011,0,0,1-.751-.334l-1.221-1.355a2.605,2.605,0,0,1-.5-2.667l.358-.945a2.605,2.605,0,0,1,2.436-1.683h1.107a3.188,3.188,0,0,1,2.652,1.419,1.011,1.011,0,0,0,.841.45h1.688a1.011,1.011,0,0,1,1.011,1.011v3.171a1.011,1.011,0,0,1-.328.745l-.395.362a1.012,1.012,0,0,0-.29.471l-1.449,5.145Z" transform="translate(-208.94 -159.966)" fill="#a0e5a5"/>
          </g>
        </g>
        <g id="Group_1203932" data-name="Group 1203932" transform="translate(0 39.774)">
          <path id="Path_1258819" data-name="Path 1258819" d="M30.945,383.115H24.361a10.607,10.607,0,0,1-9.9-6.809,2.245,2.245,0,0,0-2.511-1.424l-.029.005a2.234,2.234,0,0,0-1.672,2.989,15.107,15.107,0,0,0,7.311,8.112v3.143H30.945Z" transform="translate(-10.102 -374.844)" fill="#ff7d97"/>
        </g>
        <g id="Group_1203933" data-name="Group 1203933" transform="translate(10.639 39.942)">
          <g id="XMLID_1031_">
            <path id="Path_1258820" data-name="Path 1258820" d="M108.2,376.336a3.417,3.417,0,0,0-3.417,3.417v1.178a3.417,3.417,0,0,0,6.834,0v-1.178A3.417,3.417,0,0,0,108.2,376.336Z" transform="translate(-104.781 -376.336)" fill="#ffd0c7"/>
          </g>
        </g>
      </g>
      <g id="Group_1203935" data-name="Group 1203935" transform="translate(0.103 0)">
        <path id="Path_1258821" data-name="Path 1258821" d="M57.181,296.629a3.346,3.346,0,0,0-2.3-1.656l-.03-.006a3.37,3.37,0,0,0-3.77,2.127,9.476,9.476,0,0,1-4.267,4.892,4.53,4.53,0,0,0,.16-1.191v-1.178A4.547,4.547,0,0,0,42.9,295.1a16.235,16.235,0,0,0,1.871-5.046A3.371,3.371,0,0,0,38.15,288.8a9.456,9.456,0,0,1-4.884,6.6,4.563,4.563,0,0,0,.172-1.236v-1.192a4.58,4.58,0,0,0-9.16,0v1.192a4.565,4.565,0,0,0,.176,1.253,9.456,9.456,0,0,1-4.917-6.618,3.371,3.371,0,0,0-6.624,1.255,16.242,16.242,0,0,0,1.872,5.049,4.547,4.547,0,0,0-4.042,4.513v1.178a4.53,4.53,0,0,0,.16,1.191,9.476,9.476,0,0,1-4.267-4.892,3.369,3.369,0,0,0-3.771-2.127l-.027.005a3.358,3.358,0,0,0-2.513,4.491,16.169,16.169,0,0,0,7.238,8.388v2.468a1.124,1.124,0,0,0,1.124,1.124H49.029a1.124,1.124,0,0,0,1.124-1.124v-2.468a16.17,16.17,0,0,0,7.238-8.388,3.353,3.353,0,0,0-.21-2.835Zm-12.456,2.987v1.178a2.293,2.293,0,1,1-4.586,0v-1.178a2.293,2.293,0,1,1,4.586,0Zm-6.155,3.563h-1.8v-2.012q.575-.323,1.123-.693v.321A4.512,4.512,0,0,0,38.57,303.179ZM26.524,292.973a2.333,2.333,0,1,1,4.666,0v1.191a2.333,2.333,0,0,1-4.666,0ZM15.3,288.794a1.124,1.124,0,0,1,2.032.424,11.723,11.723,0,0,0,23.03,0,1.124,1.124,0,0,1,1.313-.895h0a1.124,1.124,0,0,1,.895,1.313,13.862,13.862,0,0,1-7.428,9.854,1.124,1.124,0,0,0-.617,1v8.7H23.165v-8.7a1.124,1.124,0,0,0-.617-1,14.076,14.076,0,0,1-3.778-2.778,4.588,4.588,0,0,0-.347-.371,13.86,13.86,0,0,1-3.3-6.706,1.116,1.116,0,0,1,.175-.842Zm4.528,11.7q.534.358,1.095.674v2.011H19.144a4.512,4.512,0,0,0,.679-2.385v-.3Zm-6.834-.878a2.293,2.293,0,1,1,4.586,0v1.178a2.293,2.293,0,1,1-4.586,0Zm-3.8,6.557a13.936,13.936,0,0,1-6.767-7.507,1.111,1.111,0,0,1,.832-1.487l.027-.005a1.126,1.126,0,0,1,1.252.72,11.782,11.782,0,0,0,10.951,7.531h5.432V309.2H9.808v-2.019A1.124,1.124,0,0,0,9.191,306.173Zm46.1-7.507a13.936,13.936,0,0,1-6.767,7.507,1.124,1.124,0,0,0-.617,1V309.2H36.768v-3.769h5.46a11.783,11.783,0,0,0,10.951-7.531,1.124,1.124,0,0,1,1.251-.721l.03.006a1.111,1.111,0,0,1,.83,1.487Z" transform="translate(-0.103 -253.912)"/>
        <path id="Path_1258822" data-name="Path 1258822" d="M114.694,22a1.124,1.124,0,0,0,.7-1.425,13.774,13.774,0,0,1-.553-2.233,3.5,3.5,0,0,1,.956.468l.732.509a2.579,2.579,0,0,0,4.05-2.118v-.6a.469.469,0,0,1,.469-.469,2.731,2.731,0,0,0,2.165-1.076l3.736-4.931a4.179,4.179,0,0,0-.419-5.515L124.665,2.8a13.87,13.87,0,0,1,15.156,5.248H138.11a6.808,6.808,0,0,0-5.068,2.266,4.166,4.166,0,0,0,3.1,6.944h.9l.623,1.646-.55.868a1.615,1.615,0,0,0-.016,1.716l2.124,3.487a13.918,13.918,0,0,1-6.605,4.416l.971-3.448.371-.34a2.14,2.14,0,0,0,.692-1.574V20.855a2.137,2.137,0,0,0-2.135-2.135h-1.629a4.3,4.3,0,0,0-3.553-1.87h-1.107a3.748,3.748,0,0,0-3.487,2.408l-.358.945a3.715,3.715,0,0,0,.717,3.817l1.221,1.355a2.138,2.138,0,0,0,1.586.706h.219l1.367,3.878a13.81,13.81,0,0,1-6.4-2.128,1.124,1.124,0,1,0-1.209,1.895,16.1,16.1,0,1,0-6.615-8.426,1.124,1.124,0,0,0,1.425.7Zm11.264,1.831-1.188-1.318A1.476,1.476,0,0,1,124.485,21l.358-.945a1.489,1.489,0,0,1,1.386-.957h1.107a2.06,2.06,0,0,1,1.717.919,2.131,2.131,0,0,0,1.776.95h1.576v3.01l-.358.329a2.133,2.133,0,0,0-.612.995l-1.3,4.607-.268.028L128.22,25.26a2.138,2.138,0,0,0-2.013-1.425Zm14.664-.886-1.4-2.3.644-1.015a1.123,1.123,0,0,0,.1-1l-1.1-2.9a1.124,1.124,0,0,0-1.051-.726h-1.672a1.919,1.919,0,0,1-1.43-3.2A4.558,4.558,0,0,1,138.11,10.3h3.025a13.855,13.855,0,0,1-.513,12.654ZM122.367,3.7l2.6,2.527a1.929,1.929,0,0,1,.193,2.546L121.425,13.7a.471.471,0,0,1-.374.186,2.719,2.719,0,0,0-2.716,2.716v.6a.331.331,0,0,1-.52.272l-.732-.508a5.722,5.722,0,0,0-2.415-.963,13.892,13.892,0,0,1,7.7-12.306Z" transform="translate(-99.8 0)"/>
        <circle id="Ellipse_12736" data-name="Ellipse 12736" cx="1.124" cy="1.124" r="1.124" transform="translate(15.82 24.262)"/>
      </g>
    </g>
  </g>
</svg>
