<svg xmlns="http://www.w3.org/2000/svg" xmlns:xlink="http://www.w3.org/1999/xlink" width="119.053" height="119.054" viewBox="0 0 119.053 119.054">
  <defs>
    <filter id="Path_874925" x="0" y="0" width="119.053" height="119.054" filterUnits="userSpaceOnUse">
      <feOffset dy="3" input="SourceAlpha"/>
      <feGaussianBlur stdDeviation="3" result="blur"/>
      <feFlood flood-opacity="0.161"/>
      <feComposite operator="in" in2="blur"/>
      <feComposite in="SourceGraphic"/>
    </filter>
  </defs>
  <g id="Group_1203921" data-name="Group 1203921" transform="translate(-426 -4772)">
    <g id="Group_1203797" data-name="Group 1203797" transform="translate(150 -1472.874)">
      <g id="Group_1200232" data-name="Group 1200232" transform="translate(285 6250.874)">
        <g id="Group_1187153" data-name="Group 1187153">
          <g id="Group_1182177" data-name="Group 1182177">
            <g id="Group_1181903" data-name="Group 1181903">
              <g id="Group_1181438" data-name="Group 1181438">
                <g id="Group_1111314" data-name="Group 1111314">
                  <g transform="matrix(1, 0, 0, 1, -9, -6)" filter="url(#Path_874925)">
                    <g id="Path_874925-2" data-name="Path 874925" transform="translate(9 6)" fill="#ffc94a">
                      <path d="M 50.52651596069336 99.55361938476562 C 43.90731430053711 99.55361938476562 37.48691558837891 98.25757598876953 31.44364547729492 95.70149230957031 C 25.60577392578125 93.23227691650391 20.36252975463867 89.69707489013672 15.85953044891357 85.194091796875 C 11.35654449462891 80.69109344482422 7.821344375610352 75.44783782958984 5.35213041305542 69.60997772216797 C 2.796044588088989 63.56670761108398 1.500001668930054 57.14628982543945 1.500001668930054 50.52709197998047 C 1.500001668930054 43.90732192993164 2.796044588088989 37.48691940307617 5.35213041305542 31.44364929199219 C 7.821344375610352 25.60577774047852 11.35654449462891 20.36253356933594 15.85953044891357 15.85953426361084 C 20.36252975463867 11.35654830932617 25.60577392578125 7.821348667144775 31.44364547729492 5.352134227752686 C 37.48691558837891 2.796048641204834 43.90731430053711 1.500005841255188 50.52651596069336 1.500005841255188 C 57.14571762084961 1.500005841255188 63.56611633300781 2.796048641204834 69.60939025878906 5.352134227752686 C 75.44724273681641 7.821348667144775 80.69049835205078 11.35654830932617 85.19348907470703 15.85953426361084 C 89.69648742675781 20.36253356933594 93.231689453125 25.60577774047852 95.70090484619141 31.44364929199219 C 98.25698852539062 37.48691940307617 99.55303192138672 43.90732192993164 99.55303192138672 50.52651977539062 C 99.55303192138672 57.14628982543945 98.25698852539062 63.56670761108398 95.70090484619141 69.60997772216797 C 93.231689453125 75.44783782958984 89.69648742675781 80.69109344482422 85.19348907470703 85.194091796875 C 80.69049835205078 89.69707489013672 75.44724273681641 93.23227691650391 69.60939025878906 95.70149230957031 C 63.56611633300781 98.25757598876953 57.14571762084961 99.55361938476562 50.52651596069336 99.55361938476562 Z" stroke="none"/>
                      <path d="M 50.52651596069336 2.999992370605469 C 44.10914611816406 2.999992370605469 37.88534545898438 4.256172180175781 32.02796173095703 6.733619689941406 C 26.36890411376953 9.127204895019531 21.28591918945312 12.55446624755859 16.92019653320312 16.92018890380859 C 12.55446624755859 21.28591156005859 9.127204895019531 26.368896484375 6.733627319335938 32.02796173095703 C 4.256179809570312 37.88534545898438 2.999992370605469 44.10914611816406 2.999992370605469 50.527099609375 C 2.999992370605469 56.94446563720703 4.256179809570312 63.16826629638672 6.733627319335938 69.025634765625 C 9.127204895019531 74.68471527099609 12.55446624755859 79.7677001953125 16.92019653320312 84.1334228515625 C 21.28591918945312 88.4991455078125 26.36890411376953 91.9263916015625 32.02796173095703 94.31997680664062 C 37.88534545898438 96.79743957519531 44.10914611816406 98.05360412597656 50.52651596069336 98.05360412597656 C 56.94387054443359 98.05360412597656 63.16768646240234 96.79743957519531 69.02505493164062 94.31997680664062 C 74.68411254882812 91.9263916015625 79.76712036132812 88.4991455078125 84.13282775878906 84.1334228515625 C 88.49855041503906 79.7677001953125 91.92581176757812 74.68471527099609 94.31938934326172 69.025634765625 C 96.79683685302734 63.16826629638672 98.05302429199219 56.94446563720703 98.05302429199219 50.52651214599609 C 98.05302429199219 44.10914611816406 96.79683685302734 37.88534545898438 94.31938934326172 32.02796173095703 C 91.92581176757812 26.368896484375 88.49855041503906 21.28591156005859 84.13282775878906 16.92018890380859 C 79.76712036132812 12.55446624755859 74.68411254882812 9.127204895019531 69.02505493164062 6.733619689941406 C 63.16768646240234 4.256172180175781 56.94387054443359 2.999992370605469 50.52651596069336 2.999992370605469 M 50.52651596069336 -7.62939453125e-06 C 78.43153381347656 -7.62939453125e-06 101.0530242919922 22.62148284912109 101.0530242919922 50.52651214599609 L 101.0530242919922 50.527099609375 C 101.0530242919922 78.43212890625 78.43153381347656 101.0536041259766 50.52651596069336 101.0536041259766 C 22.62148284912109 101.0536041259766 -7.62939453125e-06 78.43212890625 -7.62939453125e-06 50.527099609375 L -7.62939453125e-06 50.52651214599609 C -7.62939453125e-06 22.62148284912109 22.62148284912109 -7.62939453125e-06 50.52651596069336 -7.62939453125e-06 Z" stroke="none" fill="#fff"/>
                    </g>
                  </g>
                </g>
              </g>
            </g>
          </g>
        </g>
      </g>
    </g>
    <g id="gota-de-agua" transform="translate(408.889 4802)">
      <g id="Group_1203919" data-name="Group 1203919" transform="translate(56.148 1.037)">
        <g id="Group_1203917" data-name="Group 1203917" transform="translate(0)">
          <path id="Path_1258758" data-name="Path 1258758" d="M101.374,39.679a18.252,18.252,0,1,1-32.7-7.869v0L83.362,10l9.414,13.975" transform="translate(-65.111 -10)" fill="#a3e0fb"/>
        </g>
        <g id="Group_1203918" data-name="Group 1203918" transform="translate(23.124 8.591)">
          <path id="Path_1258759" data-name="Path 1258759" d="M288.068,107.439a8.131,8.131,0,0,1,1.593-4.847h0l6.575-9.76,6.575,9.76h0a8.168,8.168,0,1,1-14.743,4.847Z" transform="translate(-288.068 -92.831)" fill="#4696e6"/>
        </g>
      </g>
      <g id="Group_1203920" data-name="Group 1203920" transform="translate(55.111 0)">
        <path id="Path_1258760" data-name="Path 1258760" d="M107.506,262.547a12.159,12.159,0,0,1-6.171-18.821,1.056,1.056,0,0,0,.094-.154,1.037,1.037,0,0,0-1.774-1.064,14.233,14.233,0,0,0,.063,16.944,14.349,14.349,0,0,0,7.172,5.075,1.037,1.037,0,1,0,.616-1.981Z" transform="translate(-92.558 -216.966)"/>
        <path id="Path_1258761" data-name="Path 1258761" d="M96.645,24.236a9.132,9.132,0,0,0-1.78-5.441L88.3,9.049a1.037,1.037,0,0,0-1.72,0l-2.767,4.107L75.259.458a1.037,1.037,0,0,0-1.72,0l-14.684,21.8A19.289,19.289,0,1,0,93.688,33.677a19.469,19.469,0,0,0-.167-2.537A9.185,9.185,0,0,0,96.645,24.236ZM87.44,11.484l5.7,8.469q.017.026.036.052a7.131,7.131,0,1,1-11.482,0c.012-.016.024-.033.035-.05l2.938-4.361.016-.024Zm4.173,22.193A17.214,17.214,0,1,1,60.542,23.463c.013-.017.025-.035.036-.053L74.4,2.893l8.164,12.118-2.548,3.783A9.2,9.2,0,0,0,91.57,32.461q.042.607.043,1.216Z" transform="translate(-55.111 0)"/>
        <path id="Path_1258762" data-name="Path 1258762" d="M313.635,206.178a3.525,3.525,0,0,1,.3-1.441,1.037,1.037,0,1,0-1.9-.843,5.632,5.632,0,0,0,2.018,6.964,1.037,1.037,0,0,0,1.154-1.724A3.551,3.551,0,0,1,313.635,206.178Z" transform="translate(-284.963 -182.195)"/>
        <path id="Path_1258763" data-name="Path 1258763" d="M219.126,447.849a1.037,1.037,0,1,0-1.161,1.414A1.045,1.045,0,0,0,219.126,447.849Z" transform="translate(-200.33 -400.831)"/>
        <path id="Path_1258764" data-name="Path 1258764" d="M357.619,269.059a1.037,1.037,0,1,0,0-1.725A1.042,1.042,0,0,0,357.619,269.059Z" transform="translate(-325.836 -239.451)"/>
      </g>
    </g>
  </g>
</svg>
