<svg xmlns="http://www.w3.org/2000/svg" xmlns:xlink="http://www.w3.org/1999/xlink" width="119.053" height="119.054" viewBox="0 0 119.053 119.054">
  <defs>
    <filter id="Path_874925" x="0" y="0" width="119.053" height="119.054" filterUnits="userSpaceOnUse">
      <feOffset dy="3" input="SourceAlpha"/>
      <feGaussianBlur stdDeviation="3" result="blur"/>
      <feFlood flood-opacity="0.161"/>
      <feComposite operator="in" in2="blur"/>
      <feComposite in="SourceGraphic"/>
    </filter>
  </defs>
  <g id="Group_1203961" data-name="Group 1203961" transform="translate(-1109 -5303.906)">
    <g id="Group_1203803" data-name="Group 1203803" transform="translate(833 -940.968)">
      <g id="Group_1200232" data-name="Group 1200232" transform="translate(285 6250.874)">
        <g id="Group_1187153" data-name="Group 1187153">
          <g id="Group_1182177" data-name="Group 1182177">
            <g id="Group_1181903" data-name="Group 1181903">
              <g id="Group_1181438" data-name="Group 1181438">
                <g id="Group_1111314" data-name="Group 1111314">
                  <g transform="matrix(1, 0, 0, 1, -9, -6)" filter="url(#Path_874925)">
                    <g id="Path_874925-2" data-name="Path 874925" transform="translate(9 6)" fill="#ffc94a">
                      <path d="M 50.52651596069336 99.55361938476562 C 43.90731430053711 99.55361938476562 37.48691558837891 98.25757598876953 31.44364547729492 95.70149230957031 C 25.60577392578125 93.23227691650391 20.36252975463867 89.69707489013672 15.85953044891357 85.194091796875 C 11.35654449462891 80.69109344482422 7.821344375610352 75.44783782958984 5.35213041305542 69.60997772216797 C 2.796044588088989 63.56670761108398 1.500001668930054 57.14628982543945 1.500001668930054 50.52709197998047 C 1.500001668930054 43.90732192993164 2.796044588088989 37.48691940307617 5.35213041305542 31.44364929199219 C 7.821344375610352 25.60577774047852 11.35654449462891 20.36253356933594 15.85953044891357 15.85953426361084 C 20.36252975463867 11.35654830932617 25.60577392578125 7.821348667144775 31.44364547729492 5.352134227752686 C 37.48691558837891 2.796048641204834 43.90731430053711 1.500005841255188 50.52651596069336 1.500005841255188 C 57.14571762084961 1.500005841255188 63.56611633300781 2.796048641204834 69.60939025878906 5.352134227752686 C 75.44724273681641 7.821348667144775 80.69049835205078 11.35654830932617 85.19348907470703 15.85953426361084 C 89.69648742675781 20.36253356933594 93.231689453125 25.60577774047852 95.70090484619141 31.44364929199219 C 98.25698852539062 37.48691940307617 99.55303192138672 43.90732192993164 99.55303192138672 50.52651977539062 C 99.55303192138672 57.14628982543945 98.25698852539062 63.56670761108398 95.70090484619141 69.60997772216797 C 93.231689453125 75.44783782958984 89.69648742675781 80.69109344482422 85.19348907470703 85.194091796875 C 80.69049835205078 89.69707489013672 75.44724273681641 93.23227691650391 69.60939025878906 95.70149230957031 C 63.56611633300781 98.25757598876953 57.14571762084961 99.55361938476562 50.52651596069336 99.55361938476562 Z" stroke="none"/>
                      <path d="M 50.52651596069336 2.999992370605469 C 44.10914611816406 2.999992370605469 37.88534545898438 4.256172180175781 32.02796173095703 6.733619689941406 C 26.36890411376953 9.127204895019531 21.28591918945312 12.55446624755859 16.92019653320312 16.92018890380859 C 12.55446624755859 21.28591156005859 9.127204895019531 26.368896484375 6.733627319335938 32.02796173095703 C 4.256179809570312 37.88534545898438 2.999992370605469 44.10914611816406 2.999992370605469 50.527099609375 C 2.999992370605469 56.94446563720703 4.256179809570312 63.16826629638672 6.733627319335938 69.025634765625 C 9.127204895019531 74.68471527099609 12.55446624755859 79.7677001953125 16.92019653320312 84.1334228515625 C 21.28591918945312 88.4991455078125 26.36890411376953 91.9263916015625 32.02796173095703 94.31997680664062 C 37.88534545898438 96.79743957519531 44.10914611816406 98.05360412597656 50.52651596069336 98.05360412597656 C 56.94387054443359 98.05360412597656 63.16768646240234 96.79743957519531 69.02505493164062 94.31997680664062 C 74.68411254882812 91.9263916015625 79.76712036132812 88.4991455078125 84.13282775878906 84.1334228515625 C 88.49855041503906 79.7677001953125 91.92581176757812 74.68471527099609 94.31938934326172 69.025634765625 C 96.79683685302734 63.16826629638672 98.05302429199219 56.94446563720703 98.05302429199219 50.52651214599609 C 98.05302429199219 44.10914611816406 96.79683685302734 37.88534545898438 94.31938934326172 32.02796173095703 C 91.92581176757812 26.368896484375 88.49855041503906 21.28591156005859 84.13282775878906 16.92018890380859 C 79.76712036132812 12.55446624755859 74.68411254882812 9.127204895019531 69.02505493164062 6.733619689941406 C 63.16768646240234 4.256172180175781 56.94387054443359 2.999992370605469 50.52651596069336 2.999992370605469 M 50.52651596069336 -7.62939453125e-06 C 78.43153381347656 -7.62939453125e-06 101.0530242919922 22.62148284912109 101.0530242919922 50.52651214599609 L 101.0530242919922 50.527099609375 C 101.0530242919922 78.43212890625 78.43153381347656 101.0536041259766 50.52651596069336 101.0536041259766 C 22.62148284912109 101.0536041259766 -7.62939453125e-06 78.43212890625 -7.62939453125e-06 50.527099609375 L -7.62939453125e-06 50.52651214599609 C -7.62939453125e-06 22.62148284912109 22.62148284912109 -7.62939453125e-06 50.52651596069336 -7.62939453125e-06 Z" stroke="none" fill="#fff"/>
                    </g>
                  </g>
                </g>
              </g>
            </g>
          </g>
        </g>
      </g>
    </g>
    <g id="matriz-de-riesgo" transform="translate(1139.652 5302.257)">
      <g id="Group_1203960" data-name="Group 1203960" transform="translate(1.325 31.109)">
        <g id="Group_1203945" data-name="Group 1203945" transform="translate(6.246 9.767)">
          <path id="Path_1258846" data-name="Path 1258846" d="M57.706,116.029h7.047v7.047H57.706Z" transform="translate(-57.706 -116.029)" fill="#ff7e7b" fill-rule="evenodd"/>
        </g>
        <g id="Group_1203946" data-name="Group 1203946" transform="translate(6.246 20.021)">
          <path id="Path_1258847" data-name="Path 1258847" d="M57.706,198.995h7.047v7.047H57.706Z" transform="translate(-57.706 -198.995)" fill="#ffe177" fill-rule="evenodd"/>
        </g>
        <g id="Group_1203947" data-name="Group 1203947" transform="translate(18.257 9.767)">
          <path id="Path_1258848" data-name="Path 1258848" d="M154.891,116.029h7.047v7.047h-7.047Z" transform="translate(-154.891 -116.029)" fill="#ff7e7b" fill-rule="evenodd"/>
        </g>
        <g id="Group_1203948" data-name="Group 1203948" transform="translate(18.257 20.021)">
          <path id="Path_1258849" data-name="Path 1258849" d="M154.891,198.995h7.047v7.047h-7.047Z" transform="translate(-154.891 -198.995)" fill="#ffe177" fill-rule="evenodd"/>
        </g>
        <g id="Group_1203949" data-name="Group 1203949" transform="translate(30.272 9.767)">
          <path id="Path_1258850" data-name="Path 1258850" d="M252.1,116.029h7.047v7.047H252.1Z" transform="translate(-252.105 -116.029)" fill="#ff7e7b" fill-rule="evenodd"/>
        </g>
        <g id="Group_1203950" data-name="Group 1203950" transform="translate(30.272 20.021)">
          <path id="Path_1258851" data-name="Path 1258851" d="M252.1,198.995h7.047v7.047H252.1Z" transform="translate(-252.105 -198.995)" fill="#ffe177" fill-rule="evenodd"/>
        </g>
        <g id="Group_1203951" data-name="Group 1203951" transform="translate(30.272 30.272)">
          <path id="Path_1258852" data-name="Path 1258852" d="M252.1,281.932h7.047v7.047H252.1Z" transform="translate(-252.105 -281.932)" fill="#8db9ff" fill-rule="evenodd"/>
        </g>
        <g id="Group_1203952" data-name="Group 1203952" transform="translate(30.272 40.522)">
          <path id="Path_1258853" data-name="Path 1258853" d="M252.1,364.87h7.047v7.047H252.1Z" transform="translate(-252.105 -364.87)" fill="#66b49d" fill-rule="evenodd"/>
        </g>
        <g id="Group_1203953" data-name="Group 1203953" transform="translate(42.283 9.767)">
          <path id="Path_1258854" data-name="Path 1258854" d="M349.291,116.029h7.047v7.047h-7.047Z" transform="translate(-349.291 -116.029)" fill="#ff7e7b" fill-rule="evenodd"/>
        </g>
        <g id="Group_1203954" data-name="Group 1203954" transform="translate(42.283 20.021)">
          <path id="Path_1258855" data-name="Path 1258855" d="M349.291,198.995h7.047v7.047h-7.047Z" transform="translate(-349.291 -198.995)" fill="#ffe177" fill-rule="evenodd"/>
        </g>
        <g id="Group_1203955" data-name="Group 1203955" transform="translate(42.283 30.272)">
          <path id="Path_1258856" data-name="Path 1258856" d="M349.291,281.932h7.047v7.047h-7.047Z" transform="translate(-349.291 -281.932)" fill="#8db9ff" fill-rule="evenodd"/>
        </g>
        <g id="Group_1203956" data-name="Group 1203956" transform="translate(42.283 40.522)">
          <path id="Path_1258857" data-name="Path 1258857" d="M349.291,364.87h7.047v7.047h-7.047Z" transform="translate(-349.291 -364.87)" fill="#66b49d" fill-rule="evenodd"/>
        </g>
        <g id="Group_1203957" data-name="Group 1203957" transform="translate(6.763 29.82)">
          <path id="Path_1258858" data-name="Path 1258858" d="M72.323,279.186,79.1,290.91a2.719,2.719,0,0,1-2.356,4.082H64.625a2.723,2.723,0,0,1-2.346-4.1l6.911-11.717a1.814,1.814,0,0,1,3.133.014Z" transform="translate(-61.894 -278.279)" fill="#ffd06c" fill-rule="evenodd"/>
        </g>
        <g id="Group_1203958" data-name="Group 1203958" transform="translate(54.463 47.09)">
          <path id="Path_1258859" data-name="Path 1258859" d="M451.357,425.053a3.522,3.522,0,1,0-3.522-3.522A3.529,3.529,0,0,0,451.357,425.053Z" transform="translate(-447.835 -418.009)" fill="#41b3e7" fill-rule="evenodd"/>
        </g>
        <g id="Group_1203959" data-name="Group 1203959">
          <path id="Path_1258860" data-name="Path 1258860" d="M10.695,44.044a3.522,3.522,0,1,0-3.522-3.522A3.529,3.529,0,0,0,10.695,44.044Z" transform="translate(-7.173 -37)" fill="#41b3e7" fill-rule="evenodd"/>
        </g>
      </g>
      <path id="Path_1258861" data-name="Path 1258861" d="M6.738,40.9v7.039A.862.862,0,0,0,7.6,48.8h7.039a.862.862,0,0,0,.862-.862V40.9a.862.862,0,0,0-.862-.862H7.6a.862.862,0,0,0-.862.862Zm1.724.862h5.315v5.315H8.462ZM15.5,58.177V51.135a.862.862,0,0,0-.862-.862H7.6a.862.862,0,0,0-.862.862v7.043a.862.862,0,0,0,.862.862h7.039A.862.862,0,0,0,15.5,58.177Zm-1.724-.862H8.462V52h5.315ZM19.6,48.8h7.039a.862.862,0,0,0,.862-.862V40.9a.862.862,0,0,0-.862-.862H19.6a.862.862,0,0,0-.862.862v7.039A.862.862,0,0,0,19.6,48.8Zm.862-7.039h5.315v5.315H20.46ZM19.6,59.039h7.039a.862.862,0,0,0,.862-.862V51.135a.862.862,0,0,0-.862-.862H19.6a.862.862,0,0,0-.862.862v7.043A.862.862,0,0,0,19.6,59.039ZM20.46,52h5.315v5.319H20.46ZM31.6,48.8h7.039a.862.862,0,0,0,.862-.862V40.9a.862.862,0,0,0-.862-.862H31.6a.862.862,0,0,0-.862.862v7.039A.862.862,0,0,0,31.6,48.8Zm.862-7.039h5.315v5.315H32.461ZM31.6,59.039h7.039a.862.862,0,0,0,.862-.862V51.135a.862.862,0,0,0-.862-.862H31.6a.862.862,0,0,0-.862.862v7.043A.862.862,0,0,0,31.6,59.039ZM32.461,52h5.315v5.319H32.461ZM31.6,69.278h7.039a.862.862,0,0,0,.862-.862V61.377a.862.862,0,0,0-.862-.862H31.6a.862.862,0,0,0-.862.862v7.039A.862.862,0,0,0,31.6,69.278Zm.862-7.039h5.315v5.315H32.461ZM31.6,79.517h7.039a.862.862,0,0,0,.862-.862V71.616a.862.862,0,0,0-.862-.862H31.6a.862.862,0,0,0-.862.862v7.039A.862.862,0,0,0,31.6,79.517Zm.862-7.039h5.315v5.315H32.461ZM43.6,48.8h7.039a.862.862,0,0,0,.862-.862V40.9a.862.862,0,0,0-.862-.862H43.6a.862.862,0,0,0-.862.862v7.039A.862.862,0,0,0,43.6,48.8Zm.862-7.039h5.315v5.315H44.458ZM43.6,59.039h7.039a.862.862,0,0,0,.862-.862V51.135a.862.862,0,0,0-.862-.862H43.6a.862.862,0,0,0-.862.862v7.043A.862.862,0,0,0,43.6,59.039ZM44.458,52h5.315v5.319H44.458ZM43.6,69.278h7.039a.862.862,0,0,0,.862-.862V61.377a.862.862,0,0,0-.862-.862H43.6a.862.862,0,0,0-.862.862v7.039A.862.862,0,0,0,43.6,69.278Zm.862-7.039h5.315v5.315H44.458ZM43.6,79.517h7.039a.862.862,0,0,0,.862-.862V71.616a.862.862,0,0,0-.862-.862H43.6a.862.862,0,0,0-.862.862v7.039A.862.862,0,0,0,43.6,79.517Zm.862-7.039h5.315v5.315H44.458Zm-29.8-11.1-6.9,11.7a3.534,3.534,0,0,0-.025,3.595,3.5,3.5,0,0,0,3.109,1.806h12.1a3.579,3.579,0,0,0,3.1-5.374L19.281,61.4h0a2.62,2.62,0,0,0-2.3-1.336h-.015A2.643,2.643,0,0,0,14.663,61.38Zm2.3.408h.006a.911.911,0,0,1,.822.476L24.555,73.97a1.855,1.855,0,0,1-1.607,2.788h-12.1a1.858,1.858,0,0,1-1.6-2.8l6.9-11.7a.9.9,0,0,1,.813-.467Zm-.928,8.338V66.5a.862.862,0,0,1,1.724,0v3.626a.862.862,0,1,1-1.724,0Zm0,2.762v-.045a.862.862,0,0,1,1.724,0v.045a.862.862,0,1,1-1.724,0ZM59.28,77.314a4.387,4.387,0,0,0-4.294,3.518H5.742V38.952a4.38,4.38,0,1,0-1.724,0V81.693a.862.862,0,0,0,.862.862H54.986a4.378,4.378,0,1,0,4.294-5.242ZM2.224,34.658A2.656,2.656,0,1,1,4.88,37.314a2.659,2.659,0,0,1-2.656-2.656ZM59.28,84.349a2.656,2.656,0,1,1,2.652-2.656A2.659,2.659,0,0,1,59.28,84.349Z"/>
    </g>
  </g>
</svg>
