<svg xmlns="http://www.w3.org/2000/svg" xmlns:xlink="http://www.w3.org/1999/xlink" width="119.053" height="119.054" viewBox="0 0 119.053 119.054">
  <defs>
    <filter id="Path_874925" x="0" y="0" width="119.053" height="119.054" filterUnits="userSpaceOnUse">
      <feOffset dy="3" input="SourceAlpha"/>
      <feGaussianBlur stdDeviation="3" result="blur"/>
      <feFlood flood-opacity="0.161"/>
      <feComposite operator="in" in2="blur"/>
      <feComposite in="SourceGraphic"/>
    </filter>
  </defs>
  <g id="Group_1203944" data-name="Group 1203944" transform="translate(-794 -5304)">
    <g id="Group_1203802" data-name="Group 1203802" transform="translate(518 -940.874)">
      <g id="Group_1200232" data-name="Group 1200232" transform="translate(285 6250.874)">
        <g id="Group_1187153" data-name="Group 1187153">
          <g id="Group_1182177" data-name="Group 1182177">
            <g id="Group_1181903" data-name="Group 1181903">
              <g id="Group_1181438" data-name="Group 1181438">
                <g id="Group_1111314" data-name="Group 1111314">
                  <g transform="matrix(1, 0, 0, 1, -9, -6)" filter="url(#Path_874925)">
                    <g id="Path_874925-2" data-name="Path 874925" transform="translate(9 6)" fill="#ffc94a">
                      <path d="M 50.52651596069336 99.55361938476562 C 43.90731430053711 99.55361938476562 37.48691558837891 98.25757598876953 31.44364547729492 95.70149230957031 C 25.60577392578125 93.23227691650391 20.36252975463867 89.69707489013672 15.85953044891357 85.194091796875 C 11.35654449462891 80.69109344482422 7.821344375610352 75.44783782958984 5.35213041305542 69.60997772216797 C 2.796044588088989 63.56670761108398 1.500001668930054 57.14628982543945 1.500001668930054 50.52709197998047 C 1.500001668930054 43.90732192993164 2.796044588088989 37.48691940307617 5.35213041305542 31.44364929199219 C 7.821344375610352 25.60577774047852 11.35654449462891 20.36253356933594 15.85953044891357 15.85953426361084 C 20.36252975463867 11.35654830932617 25.60577392578125 7.821348667144775 31.44364547729492 5.352134227752686 C 37.48691558837891 2.796048641204834 43.90731430053711 1.500005841255188 50.52651596069336 1.500005841255188 C 57.14571762084961 1.500005841255188 63.56611633300781 2.796048641204834 69.60939025878906 5.352134227752686 C 75.44724273681641 7.821348667144775 80.69049835205078 11.35654830932617 85.19348907470703 15.85953426361084 C 89.69648742675781 20.36253356933594 93.231689453125 25.60577774047852 95.70090484619141 31.44364929199219 C 98.25698852539062 37.48691940307617 99.55303192138672 43.90732192993164 99.55303192138672 50.52651977539062 C 99.55303192138672 57.14628982543945 98.25698852539062 63.56670761108398 95.70090484619141 69.60997772216797 C 93.231689453125 75.44783782958984 89.69648742675781 80.69109344482422 85.19348907470703 85.194091796875 C 80.69049835205078 89.69707489013672 75.44724273681641 93.23227691650391 69.60939025878906 95.70149230957031 C 63.56611633300781 98.25757598876953 57.14571762084961 99.55361938476562 50.52651596069336 99.55361938476562 Z" stroke="none"/>
                      <path d="M 50.52651596069336 2.999992370605469 C 44.10914611816406 2.999992370605469 37.88534545898438 4.256172180175781 32.02796173095703 6.733619689941406 C 26.36890411376953 9.127204895019531 21.28591918945312 12.55446624755859 16.92019653320312 16.92018890380859 C 12.55446624755859 21.28591156005859 9.127204895019531 26.368896484375 6.733627319335938 32.02796173095703 C 4.256179809570312 37.88534545898438 2.999992370605469 44.10914611816406 2.999992370605469 50.527099609375 C 2.999992370605469 56.94446563720703 4.256179809570312 63.16826629638672 6.733627319335938 69.025634765625 C 9.127204895019531 74.68471527099609 12.55446624755859 79.7677001953125 16.92019653320312 84.1334228515625 C 21.28591918945312 88.4991455078125 26.36890411376953 91.9263916015625 32.02796173095703 94.31997680664062 C 37.88534545898438 96.79743957519531 44.10914611816406 98.05360412597656 50.52651596069336 98.05360412597656 C 56.94387054443359 98.05360412597656 63.16768646240234 96.79743957519531 69.02505493164062 94.31997680664062 C 74.68411254882812 91.9263916015625 79.76712036132812 88.4991455078125 84.13282775878906 84.1334228515625 C 88.49855041503906 79.7677001953125 91.92581176757812 74.68471527099609 94.31938934326172 69.025634765625 C 96.79683685302734 63.16826629638672 98.05302429199219 56.94446563720703 98.05302429199219 50.52651214599609 C 98.05302429199219 44.10914611816406 96.79683685302734 37.88534545898438 94.31938934326172 32.02796173095703 C 91.92581176757812 26.368896484375 88.49855041503906 21.28591156005859 84.13282775878906 16.92018890380859 C 79.76712036132812 12.55446624755859 74.68411254882812 9.127204895019531 69.02505493164062 6.733619689941406 C 63.16768646240234 4.256172180175781 56.94387054443359 2.999992370605469 50.52651596069336 2.999992370605469 M 50.52651596069336 -7.62939453125e-06 C 78.43153381347656 -7.62939453125e-06 101.0530242919922 22.62148284912109 101.0530242919922 50.52651214599609 L 101.0530242919922 50.527099609375 C 101.0530242919922 78.43212890625 78.43153381347656 101.0536041259766 50.52651596069336 101.0536041259766 C 22.62148284912109 101.0536041259766 -7.62939453125e-06 78.43212890625 -7.62939453125e-06 50.527099609375 L -7.62939453125e-06 50.52651214599609 C -7.62939453125e-06 22.62148284912109 22.62148284912109 -7.62939453125e-06 50.52651596069336 -7.62939453125e-06 Z" stroke="none" fill="#fff"/>
                    </g>
                  </g>
                </g>
              </g>
            </g>
          </g>
        </g>
      </g>
    </g>
    <g id="chequeo" transform="translate(822 5328)">
      <g id="Group_1203942" data-name="Group 1203942">
        <g id="Group_1203937" data-name="Group 1203937">
          <path id="Path_1258823" data-name="Path 1258823" d="M52,23v3H43.97A17,17,0,1,0,27,44v8H23l-.78-2.5a22.75,22.75,0,0,1-7.74-3.21l-2.33,1.22L6.49,41.85l1.22-2.33A22.75,22.75,0,0,1,4.5,31.78L2,31V23l2.5-.78a22.75,22.75,0,0,1,3.21-7.74L6.49,12.15l5.66-5.66,2.33,1.22A22.75,22.75,0,0,1,22.22,4.5L23,2h8l.78,2.5a22.75,22.75,0,0,1,7.74,3.21l2.33-1.22,5.66,5.66-1.22,2.33a22.75,22.75,0,0,1,3.21,7.74Z" fill="#ffc729"/>
        </g>
        <g id="Group_1203938" data-name="Group 1203938">
          <path id="Path_1258824" data-name="Path 1258824" d="M43.97,26H39.96A13,13,0,1,0,27,40v4A17,17,0,1,1,43.97,26Z" fill="#fcd770"/>
        </g>
        <g id="Group_1203939" data-name="Group 1203939">
          <path id="Path_1258825" data-name="Path 1258825" d="M62,26V62H27V26H62Z" fill="#e6e9ed"/>
        </g>
        <g id="Group_1203940" data-name="Group 1203940">
          <path id="Path_1258826" data-name="Path 1258826" d="M31,46H43V58H31Z" fill="#b4dd7f"/>
        </g>
        <g id="Group_1203941" data-name="Group 1203941">
          <path id="Path_1258827" data-name="Path 1258827" d="M31,30H43V42H31Z" fill="#b4dd7f"/>
        </g>
      </g>
      <g id="Group_1203943" data-name="Group 1203943">
        <circle id="Ellipse_12737" data-name="Ellipse 12737" cx="1" cy="1" r="1" transform="translate(26 5)"/>
        <path id="Path_1258828" data-name="Path 1258828" d="M12.858,12.858a1,1,0,1,0-1.414,0A1,1,0,0,0,12.858,12.858Z"/>
        <path id="Path_1258829" data-name="Path 1258829" d="M11.444,41.142a1,1,0,1,0,1.414,0A1,1,0,0,0,11.444,41.142Z"/>
        <circle id="Ellipse_12738" data-name="Ellipse 12738" cx="1" cy="1" r="1" transform="translate(5 26)"/>
        <path id="Path_1258830" data-name="Path 1258830" d="M42.556,12.858a1,1,0,1,0-1.414,0A1,1,0,0,0,42.556,12.858Z"/>
        <path id="Path_1258831" data-name="Path 1258831" d="M53,25V22.266l-2.652-.833a23.766,23.766,0,0,0-2.9-7l1.289-2.469-6.695-6.7L39.568,6.557a23.766,23.766,0,0,0-7-2.9L31.734,1H22.265l-.833,2.652a23.766,23.766,0,0,0-7,2.9L11.962,5.268l-6.7,6.7,1.29,2.469a23.766,23.766,0,0,0-2.9,7L1,22.266v9.469l2.653.833a23.752,23.752,0,0,0,2.9,7L5.268,42.038l6.7,6.695,2.469-1.289a23.774,23.774,0,0,0,7,2.9L22.266,53H26V63H63V25ZM23.734,51l-.74-2.359-.572-.121a21.828,21.828,0,0,1-7.4-3.067l-.49-.319-2.2,1.146L7.72,41.662l1.147-2.2-.319-.489a21.762,21.762,0,0,1-3.068-7.4l-.121-.572L3,30.266V23.735L5.359,23l.121-.572a21.8,21.8,0,0,1,3.068-7.4l.319-.49-1.147-2.2L12.339,7.72l2.2,1.147.49-.319a21.757,21.757,0,0,1,7.4-3.068l.572-.121L23.734,3h6.531L31,5.359l.572.121a21.78,21.78,0,0,1,7.4,3.068l.49.319,2.2-1.147,4.619,4.619-1.147,2.2.319.49a21.757,21.757,0,0,1,3.068,7.4l.121.572L51,23.734V25H44.869A17.99,17.99,0,1,0,26,44.949V51ZM26,38.949A12,12,0,1,1,38.83,25H26ZM40.843,25A13.993,13.993,0,1,0,26,40.949v2A15.99,15.99,0,1,1,42.859,25ZM61,61H28V27H61Z"/>
        <path id="Path_1258832" data-name="Path 1258832" d="M44,29H30V43H44ZM42,41H32V31H42Z"/>
        <path id="Path_1258833" data-name="Path 1258833" d="M44,45H30V59H44ZM42,57H32V47H42Z"/>
        <path id="Path_1258834" data-name="Path 1258834" d="M46,29H59v2H46Z"/>
        <path id="Path_1258835" data-name="Path 1258835" d="M50,33h9v2H50Z"/>
        <path id="Path_1258836" data-name="Path 1258836" d="M46,33h2v2H46Z"/>
        <path id="Path_1258837" data-name="Path 1258837" d="M46,37H59v2H46Z"/>
        <path id="Path_1258838" data-name="Path 1258838" d="M46,41h9v2H46Z"/>
        <path id="Path_1258839" data-name="Path 1258839" d="M46,45H59v2H46Z"/>
        <path id="Path_1258840" data-name="Path 1258840" d="M50,49h9v2H50Z"/>
        <path id="Path_1258841" data-name="Path 1258841" d="M46,49h2v2H46Z"/>
        <path id="Path_1258842" data-name="Path 1258842" d="M46,53H59v2H46Z"/>
        <path id="Path_1258843" data-name="Path 1258843" d="M46,57h9v2H46Z"/>
        <path id="Path_1258844" data-name="Path 1258844" d="M40.707,34.707l-1.414-1.414L36,36.586l-1.293-1.293-1.414,1.414L36,39.414Z"/>
        <path id="Path_1258845" data-name="Path 1258845" d="M40.707,50.707l-1.414-1.414L36,52.586l-1.293-1.293-1.414,1.414L36,55.414Z"/>
      </g>
    </g>
  </g>
</svg>
