<svg xmlns="http://www.w3.org/2000/svg" xmlns:xlink="http://www.w3.org/1999/xlink" width="119.053" height="119.054" viewBox="0 0 119.053 119.054">
  <defs>
    <filter id="Path_874925" x="0" y="0" width="119.053" height="119.054" filterUnits="userSpaceOnUse">
      <feOffset dy="3" input="SourceAlpha"/>
      <feGaussianBlur stdDeviation="3" result="blur"/>
      <feFlood flood-opacity="0.161"/>
      <feComposite operator="in" in2="blur"/>
      <feComposite in="SourceGraphic"/>
    </filter>
    <clipPath id="clip-path">
      <path id="path9849" d="M0-682.665H73.005v73.005H0Z" transform="translate(0 682.665)"/>
    </clipPath>
  </defs>
  <g id="Group_1203989" data-name="Group 1203989" transform="translate(-256 -6781)">
    <g id="Group_1203980" data-name="Group 1203980" transform="translate(0 607)">
      <g id="Group_1203974" data-name="Group 1203974" transform="translate(-538 870)">
        <g id="Group_1203802" data-name="Group 1203802" transform="translate(518 -940.874)">
          <g id="Group_1200232" data-name="Group 1200232" transform="translate(285 6250.874)">
            <g id="Group_1187153" data-name="Group 1187153">
              <g id="Group_1182177" data-name="Group 1182177">
                <g id="Group_1181903" data-name="Group 1181903">
                  <g id="Group_1181438" data-name="Group 1181438">
                    <g id="Group_1111314" data-name="Group 1111314">
                      <g transform="matrix(1, 0, 0, 1, -9, -6)" filter="url(#Path_874925)">
                        <g id="Path_874925-2" data-name="Path 874925" transform="translate(9 6)" fill="#ffc94a">
                          <path d="M 50.52651596069336 99.55361938476562 C 43.90731430053711 99.55361938476562 37.48691558837891 98.25757598876953 31.44364547729492 95.70149230957031 C 25.60577392578125 93.23227691650391 20.36252975463867 89.69707489013672 15.85953044891357 85.194091796875 C 11.35654449462891 80.69109344482422 7.821344375610352 75.44783782958984 5.35213041305542 69.60997772216797 C 2.796044588088989 63.56670761108398 1.500001668930054 57.14628982543945 1.500001668930054 50.52709197998047 C 1.500001668930054 43.90732192993164 2.796044588088989 37.48691940307617 5.35213041305542 31.44364929199219 C 7.821344375610352 25.60577774047852 11.35654449462891 20.36253356933594 15.85953044891357 15.85953426361084 C 20.36252975463867 11.35654830932617 25.60577392578125 7.821348667144775 31.44364547729492 5.352134227752686 C 37.48691558837891 2.796048641204834 43.90731430053711 1.500005841255188 50.52651596069336 1.500005841255188 C 57.14571762084961 1.500005841255188 63.56611633300781 2.796048641204834 69.60939025878906 5.352134227752686 C 75.44724273681641 7.821348667144775 80.69049835205078 11.35654830932617 85.19348907470703 15.85953426361084 C 89.69648742675781 20.36253356933594 93.231689453125 25.60577774047852 95.70090484619141 31.44364929199219 C 98.25698852539062 37.48691940307617 99.55303192138672 43.90732192993164 99.55303192138672 50.52651977539062 C 99.55303192138672 57.14628982543945 98.25698852539062 63.56670761108398 95.70090484619141 69.60997772216797 C 93.231689453125 75.44783782958984 89.69648742675781 80.69109344482422 85.19348907470703 85.194091796875 C 80.69049835205078 89.69707489013672 75.44724273681641 93.23227691650391 69.60939025878906 95.70149230957031 C 63.56611633300781 98.25757598876953 57.14571762084961 99.55361938476562 50.52651596069336 99.55361938476562 Z" stroke="none"/>
                          <path d="M 50.52651596069336 2.999992370605469 C 44.10914611816406 2.999992370605469 37.88534545898438 4.256172180175781 32.02796173095703 6.733619689941406 C 26.36890411376953 9.127204895019531 21.28591918945312 12.55446624755859 16.92019653320312 16.92018890380859 C 12.55446624755859 21.28591156005859 9.127204895019531 26.368896484375 6.733627319335938 32.02796173095703 C 4.256179809570312 37.88534545898438 2.999992370605469 44.10914611816406 2.999992370605469 50.527099609375 C 2.999992370605469 56.94446563720703 4.256179809570312 63.16826629638672 6.733627319335938 69.025634765625 C 9.127204895019531 74.68471527099609 12.55446624755859 79.7677001953125 16.92019653320312 84.1334228515625 C 21.28591918945312 88.4991455078125 26.36890411376953 91.9263916015625 32.02796173095703 94.31997680664062 C 37.88534545898438 96.79743957519531 44.10914611816406 98.05360412597656 50.52651596069336 98.05360412597656 C 56.94387054443359 98.05360412597656 63.16768646240234 96.79743957519531 69.02505493164062 94.31997680664062 C 74.68411254882812 91.9263916015625 79.76712036132812 88.4991455078125 84.13282775878906 84.1334228515625 C 88.49855041503906 79.7677001953125 91.92581176757812 74.68471527099609 94.31938934326172 69.025634765625 C 96.79683685302734 63.16826629638672 98.05302429199219 56.94446563720703 98.05302429199219 50.52651214599609 C 98.05302429199219 44.10914611816406 96.79683685302734 37.88534545898438 94.31938934326172 32.02796173095703 C 91.92581176757812 26.368896484375 88.49855041503906 21.28591156005859 84.13282775878906 16.92018890380859 C 79.76712036132812 12.55446624755859 74.68411254882812 9.127204895019531 69.02505493164062 6.733619689941406 C 63.16768646240234 4.256172180175781 56.94387054443359 2.999992370605469 50.52651596069336 2.999992370605469 M 50.52651596069336 -7.62939453125e-06 C 78.43153381347656 -7.62939453125e-06 101.0530242919922 22.62148284912109 101.0530242919922 50.52651214599609 L 101.0530242919922 50.527099609375 C 101.0530242919922 78.43212890625 78.43153381347656 101.0536041259766 50.52651596069336 101.0536041259766 C 22.62148284912109 101.0536041259766 -7.62939453125e-06 78.43212890625 -7.62939453125e-06 50.527099609375 L -7.62939453125e-06 50.52651214599609 C -7.62939453125e-06 22.62148284912109 22.62148284912109 -7.62939453125e-06 50.52651596069336 -7.62939453125e-06 Z" stroke="none" fill="#fff"/>
                        </g>
                      </g>
                    </g>
                  </g>
                </g>
              </g>
            </g>
          </g>
        </g>
      </g>
    </g>
    <g id="g9843" transform="translate(279 7483.665)">
      <g id="g9845" transform="translate(0 -682.665)">
        <g id="g9847" clip-path="url(#clip-path)">
          <g id="g9853" transform="translate(41.586 44.76)">
            <path id="path9855" d="M0-81.865q3.068,1.475,6.138,2.945l7.344-8.206a2.724,2.724,0,0,0-.416-4.012,2.724,2.724,0,0,0-3.486.215Z" transform="translate(0 91.668)" fill="#f89f8e"/>
          </g>
          <g id="g9857" transform="translate(40.516 43.691)">
            <path id="path9859" d="M-2.793-86.782a1.067,1.067,0,0,1-.461-.1q-3.072-1.47-6.14-2.945a1.069,1.069,0,0,1-.593-.8,1.069,1.069,0,0,1,.322-.942l9.58-9.058a3.78,3.78,0,0,1,2.607-1.037,3.768,3.768,0,0,1,2.247.737A3.8,3.8,0,0,1,6.3-98.266a3.8,3.8,0,0,1-.946,2.922L-2-87.138A1.069,1.069,0,0,1-2.793-86.782Zm-4.274-4.3q2.006.963,4.012,1.924l6.809-7.609a1.636,1.636,0,0,0,.413-1.275A1.636,1.636,0,0,0,3.5-99.208a1.643,1.643,0,0,0-.98-.322,1.649,1.649,0,0,0-1.138.452Z" transform="translate(10 101.668)"/>
          </g>
          <g id="g9861" transform="translate(46.048 47.452)">
            <path id="path9863" d="M0-77.333Q3-75.717,5.994-74.1l7.719-7.854a2.725,2.725,0,0,0-.228-4.027,2.724,2.724,0,0,0-3.492.052Z" transform="translate(0 86.593)" fill="#fdb0a0"/>
          </g>
          <g id="g9865" transform="translate(44.979 46.382)">
            <path id="path9867" d="M-2.937-81.966a1.067,1.067,0,0,1-.506-.127q-3-1.612-6-3.229a1.069,1.069,0,0,1-.555-.826,1.069,1.069,0,0,1,.366-.926l9.993-8.6a3.8,3.8,0,0,1,2.475-.918,3.805,3.805,0,0,1,2.388.846,3.8,3.8,0,0,1,1.4,2.733A3.8,3.8,0,0,1,5.546-90.14l-7.719,7.855A1.069,1.069,0,0,1-2.937-81.966Zm-4.118-4.5q1.959,1.056,3.918,2.11L4.02-91.639a1.636,1.636,0,0,0,.472-1.254,1.636,1.636,0,0,0-.611-1.192,1.66,1.66,0,0,0-1.042-.369,1.656,1.656,0,0,0-1.08.4Z" transform="translate(10 96.593)"/>
          </g>
          <g id="g9869" transform="translate(10.282 5.518)">
            <path id="path9871" d="M-401.844-200.922a24.06,24.06,0,0,1-24.06,24.06,24.06,24.06,0,0,1-24.06-24.06,24.06,24.06,0,0,1,24.06-24.06,24.06,24.06,0,0,1,24.06,24.06" transform="translate(449.964 224.982)" fill="#64b9fc"/>
          </g>
          <g id="g9873" transform="translate(31.949 5.517)">
            <path id="path9875" d="M-220.9-200.927a24.06,24.06,0,0,1-24.059,24.061c-.807,0-1.607-.039-2.394-.118a24.062,24.062,0,0,0,21.664-23.943,24.062,24.062,0,0,0-21.664-23.943c.787-.078,1.586-.117,2.394-.117A24.06,24.06,0,0,1-220.9-200.927" transform="translate(247.357 224.987)" fill="#31a7fb"/>
          </g>
          <g id="g9877" transform="translate(20.024 5.662)">
            <path id="path9879" d="M-320.484-199.711a23.946,23.946,0,0,1-4.3,13.731l-7.037-2.344a1.426,1.426,0,0,0-1.65.581l-1.512,2.35a1.426,1.426,0,0,1-.6.521l-4.089,1.907a1.426,1.426,0,0,1-1.423-.126l-5.039-3.542a1.426,1.426,0,0,1-.486-1.738l.751-1.719a1.426,1.426,0,0,1,.96-.812l5.483-1.376a1.426,1.426,0,0,0,.922-.733l1.854-3.619a1.425,1.425,0,0,0-.053-1.394l-1.995-3.263a1.426,1.426,0,0,0-1.216-.682h-1.583a1.426,1.426,0,0,0-1.2.656l-2.764,4.305a1.426,1.426,0,0,1-1.614.594l-2.235-.677a1.426,1.426,0,0,0-1.431.366l-1.258,1.281a1.426,1.426,0,0,1-1.8.19l-2.788-1.845a1.426,1.426,0,0,1-.533-.65l-1.635-4a1.425,1.425,0,0,1,.1-1.27l2.506-4.2a1.426,1.426,0,0,1,1.671-.624l4.238,1.4a1.426,1.426,0,0,0,1.1-.087l6.663-3.432a1.426,1.426,0,0,0,.77-1.365l-.2-2.965a1.426,1.426,0,0,0-.67-1.114l-1.449-.9a1.426,1.426,0,0,1-.529-1.835l2.667-5.478a24.063,24.063,0,0,1,21.411,23.915" transform="translate(358.861 223.626)" fill="#99d53b"/>
          </g>
          <g id="g9881" transform="translate(36.557 5.662)">
            <path id="path9883" d="M-182.422-199.711a23.947,23.947,0,0,1-4.3,13.731l-3.937-1.312a23.951,23.951,0,0,0,3.449-12.42,24.067,24.067,0,0,0-17.056-23.024l.433-.891a24.063,24.063,0,0,1,21.411,23.915" transform="translate(204.266 223.626)" fill="#8dc637"/>
          </g>
          <g id="g9885" transform="translate(18.956 4.592)">
            <path id="path9887" d="M-308.975-319.1a2.5,2.5,0,0,1-1.437-.453l-5.039-3.542a2.5,2.5,0,0,1-.851-3.041l.751-1.719a2.512,2.512,0,0,1,1.679-1.421l5.483-1.376a.357.357,0,0,0,.231-.183l1.854-3.619a.359.359,0,0,0-.013-.348l-1.995-3.263a.359.359,0,0,0-.3-.171H-310.2a.355.355,0,0,0-.3.164l-2.764,4.305a2.505,2.505,0,0,1-2.824,1.04l-2.235-.677a.355.355,0,0,0-.358.091l-1.258,1.281a2.5,2.5,0,0,1-3.158.333l-2.788-1.845a2.485,2.485,0,0,1-.933-1.138l-1.635-4a2.507,2.507,0,0,1,.167-2.222l2.506-4.2a2.48,2.48,0,0,1,2.924-1.092l4.238,1.4a.358.358,0,0,0,.274-.022l6.663-3.432a.356.356,0,0,0,.192-.341l-.2-2.965a.357.357,0,0,0-.167-.278l-1.449-.9a2.489,2.489,0,0,1-.926-3.212l2.667-5.478a1.069,1.069,0,0,1,1.43-.494,1.069,1.069,0,0,1,.493,1.43l-2.667,5.478a.356.356,0,0,0,.132.459l1.449.9a2.5,2.5,0,0,1,1.172,1.949l.2,2.965a2.493,2.493,0,0,1-1.347,2.388l-6.663,3.432a2.51,2.51,0,0,1-1.923.152l-4.239-1.4a.354.354,0,0,0-.418.156l-2.507,4.2a.358.358,0,0,0-.024.317l1.635,4a.354.354,0,0,0,.133.162l2.788,1.845a.357.357,0,0,0,.451-.048l1.258-1.281a2.488,2.488,0,0,1,2.5-.64l2.235.677a.358.358,0,0,0,.4-.149l2.764-4.305a2.485,2.485,0,0,1,2.1-1.147h1.583a2.511,2.511,0,0,1,2.129,1.194l1.995,3.263a2.51,2.51,0,0,1,.092,2.44l-1.854,3.619a2.5,2.5,0,0,1-1.614,1.282l-5.482,1.376a.359.359,0,0,0-.24.2l-.751,1.718a.358.358,0,0,0,.121.434l5.039,3.542a.358.358,0,0,0,.356.031l4.089-1.907a.356.356,0,0,0,.149-.13l1.512-2.35a2.494,2.494,0,0,1,2.887-1.017l7.037,2.344a1.069,1.069,0,0,1,.677,1.353,1.069,1.069,0,0,1-1.353.677l-7.037-2.344a.356.356,0,0,0-.412.145l-1.512,2.35a2.492,2.492,0,0,1-1.044.911l-4.089,1.907A2.492,2.492,0,0,1-308.975-319.1Z" transform="translate(328.635 362.029)"/>
          </g>
          <g id="g9889" transform="translate(50.601 20.832)">
            <path id="path9891" d="M-65.149-73.032a24.026,24.026,0,0,1-1.387,8.07c-2.479-.648-7.158-3.141-6.314-8.978a9.4,9.4,0,0,1,5.82-7.785.714.714,0,0,1,.241-.053,23.977,23.977,0,0,1,1.64,8.745" transform="translate(72.95 81.777)" fill="#8dc637"/>
          </g>
          <g id="g9893" transform="translate(12.422 38.308)">
            <path id="path9895" d="M-103.291-57.426a3.09,3.09,0,0,0-3.108.782c-.721.679-1.437,1.628-2.38,2.39a24.12,24.12,0,0,1-6.88-8.848,7.493,7.493,0,0,1,5.432-1.1,9.4,9.4,0,0,1,7.785,5.821.712.712,0,0,1-.848.955" transform="translate(115.66 64.303)" fill="#31a7fb"/>
          </g>
          <g id="g9897" transform="translate(14.013 7.113)">
            <path id="path9899" d="M-75.749-97.511A9.412,9.412,0,0,1-84.82-99.6a24.14,24.14,0,0,1,11.7-9.59q.546.067,1.123.15a2.536,2.536,0,0,1,.579.154,2.488,2.488,0,0,1,1.537,1.9c.4,2.443.017,7.986-5.866,9.469" transform="translate(84.82 109.188)" fill="#31a7fb"/>
          </g>
          <g id="g9901" transform="translate(9.213 4.448)">
            <path id="path9903" d="M-348.582-7.6a25.158,25.158,0,0,1-25.129-25.129,25.158,25.158,0,0,1,25.129-25.13,24.877,24.877,0,0,1,15.5,5.346,1.069,1.069,0,0,1,.181,1.5,1.069,1.069,0,0,1-1.5.181,22.757,22.757,0,0,0-14.176-4.89,23.017,23.017,0,0,0-22.99,22.991,23.016,23.016,0,0,0,22.99,22.99,23.017,23.017,0,0,0,22.991-22.99,22.989,22.989,0,0,0-5.532-14.957,1.069,1.069,0,0,1,.116-1.508,1.069,1.069,0,0,1,1.508.116,25.129,25.129,0,0,1,6.047,16.35A25.158,25.158,0,0,1-348.582-7.6Z" transform="translate(373.711 57.856)"/>
          </g>
          <g id="g9905" transform="translate(8.761 48.854)">
            <path id="path9907" d="M-486.241-26.705a2.724,2.724,0,0,0-3.358-.959l-9.255,4.1a3.631,3.631,0,0,0-3.589-3.085h-7.83a14.283,14.283,0,0,1-4.535-.739l-6.607-2.212a5.915,5.915,0,0,0-3.531-.07l-4.291,1.249a5.916,5.916,0,0,0-3.6,2.952,12.083,12.083,0,0,1-4.154,4.569l-7.48,4.844,9.233,9.233,9.636-7.366,18.584,1.249a5.615,5.615,0,0,0,3.072-.677l16.755-9.17a2.724,2.724,0,0,0,.946-3.921" transform="translate(544.467 29.903)" fill="#ffcec0"/>
          </g>
          <g id="g9909" transform="translate(15.083 50.892)">
            <path id="path9911" d="M-425.551-42.423l-16.755,9.17a5.617,5.617,0,0,1-3.072.678l-18.586-1.25-9.635,7.366-2.911-2.911,10.06-7.69a1,1,0,0,1,.675-.2l18.208,1.224a5.623,5.623,0,0,0,3.073-.677l16.755-9.17a2.712,2.712,0,0,0,1.3-1.617,2.728,2.728,0,0,1,1.828,1.16,2.723,2.723,0,0,1-.946,3.92" transform="translate(476.509 47.503)" fill="#fdb0a0"/>
          </g>
          <g id="g9913" transform="translate(7.692 47.783)">
            <path id="path9915" d="M-8.931-123.527a1.069,1.069,0,0,1-.9-.488,1.069,1.069,0,0,1,.316-1.479l7.48-4.844A11.035,11.035,0,0,0,1.753-134.5,7.017,7.017,0,0,1,6-137.988l4.29-1.249a6.954,6.954,0,0,1,4.17.083l6.607,2.212a13.189,13.189,0,0,0,4.2.684h7.83a4.7,4.7,0,0,1,4.7,4.7,4.7,4.7,0,0,1-4.7,4.7H23.659a19.4,19.4,0,0,0-4.527.536,1.069,1.069,0,0,1-1.29-.79,1.069,1.069,0,0,1,.79-1.29,21.544,21.544,0,0,1,5.027-.6h9.434a2.563,2.563,0,0,0,2.56-2.561,2.563,2.563,0,0,0-2.56-2.56h-7.83a15.325,15.325,0,0,1-4.875-.794l-6.607-2.212a4.825,4.825,0,0,0-2.893-.058L6.6-135.935a4.868,4.868,0,0,0-2.946,2.418A13.178,13.178,0,0,1-.87-128.543L-8.35-123.7A1.065,1.065,0,0,1-8.931-123.527Z" transform="translate(10.001 139.517)"/>
          </g>
          <g id="g9917" transform="translate(16.924 49.788)">
            <path id="path9919" d="M-349.117-27.351a1.068,1.068,0,0,1-.85-.42,1.069,1.069,0,0,1,.2-1.5l9.636-7.366a1.069,1.069,0,0,1,.721-.217l18.584,1.249a4.538,4.538,0,0,0,2.487-.548l16.755-9.17a1.636,1.636,0,0,0,.814-1.064,1.636,1.636,0,0,0-.24-1.318,1.654,1.654,0,0,0-2.04-.583l-9.255,4.1a1.069,1.069,0,0,1-1.411-.544,1.069,1.069,0,0,1,.544-1.411l9.255-4.1a3.792,3.792,0,0,1,4.676,1.336,3.8,3.8,0,0,1,.55,3.021,3.8,3.8,0,0,1-1.867,2.438l-16.755,9.17a6.673,6.673,0,0,1-3.658.806l-18.183-1.222-9.316,7.121A1.065,1.065,0,0,1-349.117-27.351Z" transform="translate(350.188 50.568)"/>
          </g>
          <g id="g9921" transform="translate(7.65 35.412)">
            <path id="path9923" d="M-6.343-74.891a2.491,2.491,0,0,1-.7-2.346c.558-2.413,3.025-7.391,9.029-6.522a9.4,9.4,0,0,1,7.785,5.82.712.712,0,0,1-.848.955,3.091,3.091,0,0,0-3.109.782c-2.078,1.957-4.113,6.159-11.685,1.673a2.547,2.547,0,0,1-.477-.363" transform="translate(7.103 83.859)" fill="#99d53b"/>
          </g>
          <g id="g9925" transform="translate(7.65 38.6)">
            <path id="path9927" d="M-133.859-30.8a3.093,3.093,0,0,0-3.109.781c-2.077,1.958-4.111,6.159-11.684,1.673a2.5,2.5,0,0,1-.477-.363,2.493,2.493,0,0,1-.743-2.075c7.185,4.034,9.176-.031,11.211-1.947a3.089,3.089,0,0,1,3.109-.781.712.712,0,0,0,.847-.956c0-.007-.006-.014-.008-.021a9.483,9.483,0,0,1,1.7,2.733.711.711,0,0,1-.847.955" transform="translate(149.888 34.489)" fill="#8dc637"/>
          </g>
          <g id="g9929" transform="translate(6.582 34.345)">
            <path id="path9931" d="M-72.732,3.466a12.8,12.8,0,0,1-6.381-2.148A3.614,3.614,0,0,1-79.79.8a3.578,3.578,0,0,1-.993-3.354C-80.154-5.271-77.648-9.9-72.244-10a1.069,1.069,0,0,1,1.089,1.049A1.069,1.069,0,0,1-72.2-7.861c-4.088.076-6.006,3.676-6.5,5.792a1.428,1.428,0,0,0,.4,1.337,1.475,1.475,0,0,0,.277.21c5.806,3.439,7.685,1.391,9.5-.59.31-.338.608-.661.905-.942A4.174,4.174,0,0,1-64.2-3.23a8.026,8.026,0,0,0-3.834-3.725,1.069,1.069,0,0,1-.518-1.421,1.069,1.069,0,0,1,1.421-.518,10.2,10.2,0,0,1,5.194,5.477,1.77,1.77,0,0,1-.322,1.861,1.763,1.763,0,0,1-1.807.527A2.035,2.035,0,0,0-66.15-.5c-.262.247-.522.532-.8.83C-68.18,1.68-69.818,3.466-72.732,3.466Z" transform="translate(80.873 10)"/>
          </g>
          <g id="g9933" transform="translate(4.477 38.636)">
            <path id="path9935" d="M-8.932-63.333a1.064,1.064,0,0,1-.6-.184A1.069,1.069,0,0,1-9.817-65a15.766,15.766,0,0,1,13-7.112,1.069,1.069,0,0,1,1.091,1.047A1.069,1.069,0,0,1,3.23-69.976,13.674,13.674,0,0,0-8.046-63.8,1.068,1.068,0,0,1-8.932-63.333Z" transform="translate(10.001 72.115)"/>
          </g>
          <g id="g9937" transform="translate(12.711 3.611)">
            <path id="path9939" d="M-116.487-3.069a2.49,2.49,0,0,1,1.537,1.9c.4,2.443.017,7.986-5.866,9.468a9.4,9.4,0,0,1-9.415-2.418.711.711,0,0,1,.42-1.206,3.092,3.092,0,0,0,2.577-1.907c1.176-2.6,1.458-7.261,10.167-6a2.561,2.561,0,0,1,.579.154Z" transform="translate(130.436 3.437)" fill="#a3e440"/>
          </g>
          <g id="g9941" transform="translate(14.217 3.666)">
            <path id="path9943" d="M-67.752-97.582A9.487,9.487,0,0,1-75.865-98.9a10.375,10.375,0,0,0,4.872-.134c5.882-1.483,6.269-7.026,5.865-9.469a2.5,2.5,0,0,0-.263-.769c.437.036.9.087,1.389.158a2.632,2.632,0,0,1,.579.154,2.49,2.49,0,0,1,1.536,1.905c.4,2.443.019,7.985-5.865,9.467" transform="translate(75.865 109.268)" fill="#8dc637"/>
          </g>
          <g id="g9945" transform="translate(11.64 2.542)">
            <path id="path9947" d="M-128.7-13.437a20.059,20.059,0,0,1,2.853.224,3.634,3.634,0,0,1,.821.219,3.58,3.58,0,0,1,2.2,2.724c.529,3.21-.278,9.071-6.66,10.679a12.535,12.535,0,0,1-3.054.4,10.181,10.181,0,0,1-7.383-3.1,1.77,1.77,0,0,1-.411-1.844,1.763,1.763,0,0,1,1.47-1.175A2.035,2.035,0,0,0-137.145-6.6c.148-.328.28-.691.419-1.07C-135.883-9.965-134.61-13.437-128.7-13.437Zm-3.843,12.1a10.4,10.4,0,0,0,2.531-.33c6.107-1.539,5.117-7.984,5.072-8.257a1.428,1.428,0,0,0-.878-1.085,1.485,1.485,0,0,0-.336-.089,17.928,17.928,0,0,0-2.546-.2c-4.413,0-5.191,2.121-6.015,4.366-.158.431-.31.842-.478,1.215a4.174,4.174,0,0,1-2.711,2.388A8.031,8.031,0,0,0-132.546-1.334Z" transform="translate(140.444 13.437)"/>
          </g>
          <g id="g9949" transform="translate(18.792 0)">
            <path id="path9951" d="M-90.248,2.9a1.07,1.07,0,0,1-.981-.642A1.069,1.069,0,0,1-90.676.852a13.673,13.673,0,0,0,8.076-10,1.069,1.069,0,0,1,1.265-.829,1.069,1.069,0,0,1,.829,1.265A15.766,15.766,0,0,1-89.821,2.813,1.066,1.066,0,0,1-90.248,2.9Z" transform="translate(91.318 10.002)"/>
          </g>
          <g id="g9953" transform="translate(52.739 18.073)">
            <path id="path9955" d="M-74.892-135.051a2.491,2.491,0,0,1-2.346.7c-2.413-.558-7.391-3.025-6.522-9.029a9.4,9.4,0,0,1,5.82-7.785.711.711,0,0,1,.955.848,3.092,3.092,0,0,0,.782,3.109c1.957,2.078,6.159,4.113,1.674,11.685a2.557,2.557,0,0,1-.363.477" transform="translate(83.86 151.223)" fill="#a3e440"/>
          </g>
          <g id="g9957" transform="translate(55.926 18.073)">
            <path id="path9959" d="M-30.8-7.53a3.093,3.093,0,0,0,.781,3.109c1.958,2.077,6.159,4.111,1.674,11.684a2.5,2.5,0,0,1-.363.477,2.494,2.494,0,0,1-2.075.743c4.034-7.185-.031-9.176-1.947-11.211a3.089,3.089,0,0,1-.781-3.109.712.712,0,0,0-.955-.847l-.021.008a9.481,9.481,0,0,1,2.733-1.7.711.711,0,0,1,.955.847" transform="translate(34.491 8.432)" fill="#99d53b"/>
          </g>
          <g id="g9961" transform="translate(51.671 17.003)">
            <path id="path9963" d="M-15.307-118.269a3.5,3.5,0,0,1-.788-.09A10.57,10.57,0,0,1-21.877-122a1.069,1.069,0,0,1,.2-1.5,1.069,1.069,0,0,1,1.5.2,8.334,8.334,0,0,0,4.562,2.857,1.428,1.428,0,0,0,1.338-.4,1.482,1.482,0,0,0,.21-.277c3.439-5.806,1.391-7.685-.59-9.5-.338-.31-.661-.608-.941-.905a4.173,4.173,0,0,1-1.176-3.418,8.321,8.321,0,0,0-4.545,6.666,8.477,8.477,0,0,0-.088,1.11,1.069,1.069,0,0,1-1.082,1.057,1.069,1.069,0,0,1-1.057-1.082,10.623,10.623,0,0,1,.11-1.391A10.465,10.465,0,0,1-16.96-137.2a1.77,1.77,0,0,1,1.862.322,1.763,1.763,0,0,1,.527,1.807,2.035,2.035,0,0,0,.531,2.084c.247.262.532.522.83.8,2.114,1.939,5.309,4.868.985,12.168a3.624,3.624,0,0,1-.516.677A3.588,3.588,0,0,1-15.307-118.269Z" transform="translate(23.544 137.339)"/>
          </g>
          <g id="g9965" transform="translate(55.962 23.898)">
            <path id="path9967" d="M-64.4-109.241a1.064,1.064,0,0,1-.6-.184,15.766,15.766,0,0,1-7.112-13,1.069,1.069,0,0,1,1.047-1.091,1.069,1.069,0,0,1,1.091,1.047A13.673,13.673,0,0,0-63.8-111.2a1.069,1.069,0,0,1,.285,1.485A1.068,1.068,0,0,1-64.4-109.241Z" transform="translate(72.113 123.52)"/>
          </g>
        </g>
      </g>
    </g>
  </g>
</svg>
