<svg xmlns="http://www.w3.org/2000/svg" xmlns:xlink="http://www.w3.org/1999/xlink" width="119.053" height="119.054" viewBox="0 0 119.053 119.054">
  <defs>
    <filter id="Path_874925" x="0" y="0" width="119.053" height="119.054" filterUnits="userSpaceOnUse">
      <feOffset dy="3" input="SourceAlpha"/>
      <feGaussianBlur stdDeviation="3" result="blur"/>
      <feFlood flood-opacity="0.161"/>
      <feComposite operator="in" in2="blur"/>
      <feComposite in="SourceGraphic"/>
    </filter>
  </defs>
  <g id="Group_1204014" data-name="Group 1204014" transform="translate(-2666 6334)">
    <g id="Group_1203804" data-name="Group 1203804" transform="translate(2390 -12578.874)">
      <g id="Group_1200232" data-name="Group 1200232" transform="translate(285 6250.874)">
        <g id="Group_1187153" data-name="Group 1187153">
          <g id="Group_1182177" data-name="Group 1182177">
            <g id="Group_1181903" data-name="Group 1181903">
              <g id="Group_1181438" data-name="Group 1181438">
                <g id="Group_1111314" data-name="Group 1111314">
                  <g transform="matrix(1, 0, 0, 1, -9, -6)" filter="url(#Path_874925)">
                    <g id="Path_874925-2" data-name="Path 874925" transform="translate(9 6)" fill="#ffc94a">
                      <path d="M 50.52651596069336 99.55361938476562 C 43.90731430053711 99.55361938476562 37.48691558837891 98.25757598876953 31.44364547729492 95.70149230957031 C 25.60577392578125 93.23227691650391 20.36252975463867 89.69707489013672 15.85953044891357 85.194091796875 C 11.35654449462891 80.69109344482422 7.821344375610352 75.44783782958984 5.35213041305542 69.60997772216797 C 2.796044588088989 63.56670761108398 1.500001668930054 57.14628982543945 1.500001668930054 50.52709197998047 C 1.500001668930054 43.90732192993164 2.796044588088989 37.48691940307617 5.35213041305542 31.44364929199219 C 7.821344375610352 25.60577774047852 11.35654449462891 20.36253356933594 15.85953044891357 15.85953426361084 C 20.36252975463867 11.35654830932617 25.60577392578125 7.821348667144775 31.44364547729492 5.352134227752686 C 37.48691558837891 2.796048641204834 43.90731430053711 1.500005841255188 50.52651596069336 1.500005841255188 C 57.14571762084961 1.500005841255188 63.56611633300781 2.796048641204834 69.60939025878906 5.352134227752686 C 75.44724273681641 7.821348667144775 80.69049835205078 11.35654830932617 85.19348907470703 15.85953426361084 C 89.69648742675781 20.36253356933594 93.231689453125 25.60577774047852 95.70090484619141 31.44364929199219 C 98.25698852539062 37.48691940307617 99.55303192138672 43.90732192993164 99.55303192138672 50.52651977539062 C 99.55303192138672 57.14628982543945 98.25698852539062 63.56670761108398 95.70090484619141 69.60997772216797 C 93.231689453125 75.44783782958984 89.69648742675781 80.69109344482422 85.19348907470703 85.194091796875 C 80.69049835205078 89.69707489013672 75.44724273681641 93.23227691650391 69.60939025878906 95.70149230957031 C 63.56611633300781 98.25757598876953 57.14571762084961 99.55361938476562 50.52651596069336 99.55361938476562 Z" stroke="none"/>
                      <path d="M 50.52651596069336 2.999992370605469 C 44.10914611816406 2.999992370605469 37.88534545898438 4.256172180175781 32.02796173095703 6.733619689941406 C 26.36890411376953 9.127204895019531 21.28591918945312 12.55446624755859 16.92019653320312 16.92018890380859 C 12.55446624755859 21.28591156005859 9.127204895019531 26.368896484375 6.733627319335938 32.02796173095703 C 4.256179809570312 37.88534545898438 2.999992370605469 44.10914611816406 2.999992370605469 50.527099609375 C 2.999992370605469 56.94446563720703 4.256179809570312 63.16826629638672 6.733627319335938 69.025634765625 C 9.127204895019531 74.68471527099609 12.55446624755859 79.7677001953125 16.92019653320312 84.1334228515625 C 21.28591918945312 88.4991455078125 26.36890411376953 91.9263916015625 32.02796173095703 94.31997680664062 C 37.88534545898438 96.79743957519531 44.10914611816406 98.05360412597656 50.52651596069336 98.05360412597656 C 56.94387054443359 98.05360412597656 63.16768646240234 96.79743957519531 69.02505493164062 94.31997680664062 C 74.68411254882812 91.9263916015625 79.76712036132812 88.4991455078125 84.13282775878906 84.1334228515625 C 88.49855041503906 79.7677001953125 91.92581176757812 74.68471527099609 94.31938934326172 69.025634765625 C 96.79683685302734 63.16826629638672 98.05302429199219 56.94446563720703 98.05302429199219 50.52651214599609 C 98.05302429199219 44.10914611816406 96.79683685302734 37.88534545898438 94.31938934326172 32.02796173095703 C 91.92581176757812 26.368896484375 88.49855041503906 21.28591156005859 84.13282775878906 16.92018890380859 C 79.76712036132812 12.55446624755859 74.68411254882812 9.127204895019531 69.02505493164062 6.733619689941406 C 63.16768646240234 4.256172180175781 56.94387054443359 2.999992370605469 50.52651596069336 2.999992370605469 M 50.52651596069336 -7.62939453125e-06 C 78.43153381347656 -7.62939453125e-06 101.0530242919922 22.62148284912109 101.0530242919922 50.52651214599609 L 101.0530242919922 50.527099609375 C 101.0530242919922 78.43212890625 78.43153381347656 101.0536041259766 50.52651596069336 101.0536041259766 C 22.62148284912109 101.0536041259766 -7.62939453125e-06 78.43212890625 -7.62939453125e-06 50.527099609375 L -7.62939453125e-06 50.52651214599609 C -7.62939453125e-06 22.62148284912109 22.62148284912109 -7.62939453125e-06 50.52651596069336 -7.62939453125e-06 Z" stroke="none" fill="#fff"/>
                    </g>
                  </g>
                </g>
              </g>
            </g>
          </g>
        </g>
      </g>
    </g>
    <g id="flujo-de-trabajo" transform="translate(2670.326 -6306.352)">
      <g id="Group_1203962" data-name="Group 1203962" transform="translate(46.292 0.849)">
        <path id="Path_1258862" data-name="Path 1258862" d="M193.069,18.65H177.616a1.125,1.125,0,0,1-1.125-1.125v-8.9A1.125,1.125,0,0,1,177.616,7.5h15.453a1.125,1.125,0,0,1,1.125,1.125v8.9A1.125,1.125,0,0,1,193.069,18.65Z" transform="translate(-176.491 -7.5)" fill="#9de5d1"/>
        <path id="Path_1258863" data-name="Path 1258863" d="M193.069,150.95H177.616a1.125,1.125,0,0,1-1.125-1.125v-8.9a1.125,1.125,0,0,1,1.125-1.125h15.453a1.125,1.125,0,0,1,1.125,1.125v8.9A1.125,1.125,0,0,1,193.069,150.95Z" transform="translate(-176.491 -124.83)" fill="#fbe88c"/>
        <path id="Path_1258864" data-name="Path 1258864" d="M193.069,283.249H177.616a1.125,1.125,0,0,1-1.125-1.125v-8.9a1.125,1.125,0,0,1,1.125-1.125h15.453a1.125,1.125,0,0,1,1.125,1.125v8.9A1.125,1.125,0,0,1,193.069,283.249Z" transform="translate(-176.491 -242.159)" fill="#9de5d1"/>
        <path id="Path_1258865" data-name="Path 1258865" d="M193.069,415.547H177.616a1.125,1.125,0,0,1-1.125-1.125v-8.9a1.125,1.125,0,0,1,1.125-1.125h15.453a1.125,1.125,0,0,1,1.125,1.125v8.9A1.125,1.125,0,0,1,193.069,415.547Z" transform="translate(-176.491 -359.487)" fill="#fbe88c"/>
        <path id="Path_1258866" data-name="Path 1258866" d="M182.608,15.926a2.113,2.113,0,0,1-2.113-2.113V7.5h-2.88a1.125,1.125,0,0,0-1.125,1.125v8.9a1.125,1.125,0,0,0,1.125,1.125h15.453a1.125,1.125,0,0,0,1.125-1.125v-1.6Z" transform="translate(-176.49 -7.5)" fill="#82dec5"/>
        <path id="Path_1258867" data-name="Path 1258867" d="M183.519,148.224a3.025,3.025,0,0,1-3.025-3.025v-5.4h-2.88a1.125,1.125,0,0,0-1.125,1.125v8.9a1.125,1.125,0,0,0,1.125,1.125h15.453a1.125,1.125,0,0,0,1.125-1.125v-1.6H183.519Z" transform="translate(-176.49 -124.828)" fill="#fbe372"/>
        <path id="Path_1258868" data-name="Path 1258868" d="M182.364,280.523a1.869,1.869,0,0,1-1.869-1.869V272.1h-2.88a1.125,1.125,0,0,0-1.125,1.125v8.9a1.125,1.125,0,0,0,1.125,1.125h15.453a1.125,1.125,0,0,0,1.125-1.125v-1.6H182.364Z" transform="translate(-176.49 -242.157)" fill="#82dec5"/>
        <path id="Path_1258869" data-name="Path 1258869" d="M182.874,412.823a2.379,2.379,0,0,1-2.379-2.379V404.4h-2.88a1.125,1.125,0,0,0-1.125,1.125v8.9a1.125,1.125,0,0,0,1.125,1.125h15.453a1.125,1.125,0,0,0,1.125-1.125v-1.6h-11.32Z" transform="translate(-176.491 -359.487)" fill="#fbe372"/>
      </g>
      <g id="Group_1203963" data-name="Group 1203963" transform="translate(29.68)">
        <path id="Path_1258870" data-name="Path 1258870" d="M186.417,0H170.964a1.976,1.976,0,0,0-1.974,1.974v8.9a1.976,1.976,0,0,0,1.974,1.974h9.569a.849.849,0,0,0,0-1.7h-9.569a.277.277,0,0,1-.277-.276v-8.9a.277.277,0,0,1,.277-.276h15.453a.277.277,0,0,1,.277.276v8.9a.277.277,0,0,1-.277.276h-2.173a.849.849,0,0,0,0,1.7h2.173a1.976,1.976,0,0,0,1.974-1.974v-8.9A1.976,1.976,0,0,0,186.417,0Z" transform="translate(-153.227)"/>
        <path id="Path_1258871" data-name="Path 1258871" d="M186.418,132.3H170.965a1.976,1.976,0,0,0-1.974,1.974v8.9a1.976,1.976,0,0,0,1.974,1.974h15.453a1.976,1.976,0,0,0,1.974-1.974v-8.9A1.976,1.976,0,0,0,186.418,132.3Zm.276,10.873a.277.277,0,0,1-.276.276H170.965a.277.277,0,0,1-.276-.276v-8.9a.277.277,0,0,1,.276-.276h15.453a.277.277,0,0,1,.276.276Z" transform="translate(-153.228 -117.329)"/>
        <path id="Path_1258872" data-name="Path 1258872" d="M186.417,264.6h-8.24a.849.849,0,1,0,0,1.7h8.24a.277.277,0,0,1,.277.276v8.9a.277.277,0,0,1-.277.276H170.964a.277.277,0,0,1-.277-.276v-8.9a.277.277,0,0,1,.277-.276h3.5a.849.849,0,1,0,0-1.7h-3.5a1.976,1.976,0,0,0-1.974,1.974v8.9a1.976,1.976,0,0,0,1.974,1.974h15.453a1.976,1.976,0,0,0,1.974-1.974v-8.9A1.976,1.976,0,0,0,186.417,264.6Z" transform="translate(-153.227 -234.658)"/>
        <path id="Path_1258873" data-name="Path 1258873" d="M186.417,396.9h-2.5a.849.849,0,1,0,0,1.7h2.5a.277.277,0,0,1,.277.276v8.9a.277.277,0,0,1-.277.276H170.964a.277.277,0,0,1-.277-.276v-8.9a.277.277,0,0,1,.277-.276h9.245a.849.849,0,1,0,0-1.7h-9.245a1.976,1.976,0,0,0-1.974,1.974v8.9a1.976,1.976,0,0,0,1.974,1.974h15.453a1.976,1.976,0,0,0,1.974-1.974v-8.9A1.976,1.976,0,0,0,186.417,396.9Z" transform="translate(-153.227 -351.987)"/>
        <path id="Path_1258874" data-name="Path 1258874" d="M362.27,50.966h4.321a6.636,6.636,0,1,1,0,13.273h-1.722l.109-.1A.849.849,0,1,0,363.82,62.9l-1.686,1.571a.849.849,0,0,0,0,1.242l1.686,1.571a.849.849,0,1,0,1.157-1.242l-.109-.1h1.722a8.334,8.334,0,0,0,0-16.667H362.27a.849.849,0,0,0,0,1.7Z" transform="translate(-323.883 -43.694)"/>
        <path id="Path_1258875" data-name="Path 1258875" d="M366.589,313.867h-4.321a.849.849,0,0,0,0,1.7h4.321a6.636,6.636,0,1,1,0,13.273h-1.722l.109-.1a.849.849,0,1,0-1.157-1.242l-1.686,1.571a.849.849,0,0,0,0,1.242l1.686,1.571a.849.849,0,0,0,1.157-1.242l-.109-.1h1.722a8.334,8.334,0,1,0,0-16.667Z" transform="translate(-323.883 -278.352)"/>
        <path id="Path_1258876" data-name="Path 1258876" d="M42.334,181.567H38.014a8.334,8.334,0,0,0,0,16.667h1.722l-.109.1a.849.849,0,1,0,1.157,1.242l1.686-1.571a.849.849,0,0,0,0-1.242l-1.686-1.571a.849.849,0,1,0-1.157,1.242l.109.1H38.014a6.636,6.636,0,0,1,0-13.273h4.321a.849.849,0,0,0,0-1.7Z" transform="translate(-29.68 -161.022)"/>
      </g>
    </g>
  </g>
</svg>
