<svg xmlns="http://www.w3.org/2000/svg" xmlns:xlink="http://www.w3.org/1999/xlink" width="119.053" height="119.054" viewBox="0 0 119.053 119.054">
  <defs>
    <filter id="Path_874925" x="0" y="0" width="119.053" height="119.054" filterUnits="userSpaceOnUse">
      <feOffset dy="3" input="SourceAlpha"/>
      <feGaussianBlur stdDeviation="3" result="blur"/>
      <feFlood flood-opacity="0.161"/>
      <feComposite operator="in" in2="blur"/>
      <feComposite in="SourceGraphic"/>
    </filter>
  </defs>
  <g id="Group_1203987" data-name="Group 1203987" transform="translate(-256 -7430)">
    <g id="Group_1203982" data-name="Group 1203982" transform="translate(0 1256)">
      <g id="Group_1203974" data-name="Group 1203974" transform="translate(-538 870)">
        <g id="Group_1203802" data-name="Group 1203802" transform="translate(518 -940.874)">
          <g id="Group_1200232" data-name="Group 1200232" transform="translate(285 6250.874)">
            <g id="Group_1187153" data-name="Group 1187153">
              <g id="Group_1182177" data-name="Group 1182177">
                <g id="Group_1181903" data-name="Group 1181903">
                  <g id="Group_1181438" data-name="Group 1181438">
                    <g id="Group_1111314" data-name="Group 1111314">
                      <g transform="matrix(1, 0, 0, 1, -9, -6)" filter="url(#Path_874925)">
                        <g id="Path_874925-2" data-name="Path 874925" transform="translate(9 6)" fill="#ffc94a">
                          <path d="M 50.52651596069336 99.55361938476562 C 43.90731430053711 99.55361938476562 37.48691558837891 98.25757598876953 31.44364547729492 95.70149230957031 C 25.60577392578125 93.23227691650391 20.36252975463867 89.69707489013672 15.85953044891357 85.194091796875 C 11.35654449462891 80.69109344482422 7.821344375610352 75.44783782958984 5.35213041305542 69.60997772216797 C 2.796044588088989 63.56670761108398 1.500001668930054 57.14628982543945 1.500001668930054 50.52709197998047 C 1.500001668930054 43.90732192993164 2.796044588088989 37.48691940307617 5.35213041305542 31.44364929199219 C 7.821344375610352 25.60577774047852 11.35654449462891 20.36253356933594 15.85953044891357 15.85953426361084 C 20.36252975463867 11.35654830932617 25.60577392578125 7.821348667144775 31.44364547729492 5.352134227752686 C 37.48691558837891 2.796048641204834 43.90731430053711 1.500005841255188 50.52651596069336 1.500005841255188 C 57.14571762084961 1.500005841255188 63.56611633300781 2.796048641204834 69.60939025878906 5.352134227752686 C 75.44724273681641 7.821348667144775 80.69049835205078 11.35654830932617 85.19348907470703 15.85953426361084 C 89.69648742675781 20.36253356933594 93.231689453125 25.60577774047852 95.70090484619141 31.44364929199219 C 98.25698852539062 37.48691940307617 99.55303192138672 43.90732192993164 99.55303192138672 50.52651977539062 C 99.55303192138672 57.14628982543945 98.25698852539062 63.56670761108398 95.70090484619141 69.60997772216797 C 93.231689453125 75.44783782958984 89.69648742675781 80.69109344482422 85.19348907470703 85.194091796875 C 80.69049835205078 89.69707489013672 75.44724273681641 93.23227691650391 69.60939025878906 95.70149230957031 C 63.56611633300781 98.25757598876953 57.14571762084961 99.55361938476562 50.52651596069336 99.55361938476562 Z" stroke="none"/>
                          <path d="M 50.52651596069336 2.999992370605469 C 44.10914611816406 2.999992370605469 37.88534545898438 4.256172180175781 32.02796173095703 6.733619689941406 C 26.36890411376953 9.127204895019531 21.28591918945312 12.55446624755859 16.92019653320312 16.92018890380859 C 12.55446624755859 21.28591156005859 9.127204895019531 26.368896484375 6.733627319335938 32.02796173095703 C 4.256179809570312 37.88534545898438 2.999992370605469 44.10914611816406 2.999992370605469 50.527099609375 C 2.999992370605469 56.94446563720703 4.256179809570312 63.16826629638672 6.733627319335938 69.025634765625 C 9.127204895019531 74.68471527099609 12.55446624755859 79.7677001953125 16.92019653320312 84.1334228515625 C 21.28591918945312 88.4991455078125 26.36890411376953 91.9263916015625 32.02796173095703 94.31997680664062 C 37.88534545898438 96.79743957519531 44.10914611816406 98.05360412597656 50.52651596069336 98.05360412597656 C 56.94387054443359 98.05360412597656 63.16768646240234 96.79743957519531 69.02505493164062 94.31997680664062 C 74.68411254882812 91.9263916015625 79.76712036132812 88.4991455078125 84.13282775878906 84.1334228515625 C 88.49855041503906 79.7677001953125 91.92581176757812 74.68471527099609 94.31938934326172 69.025634765625 C 96.79683685302734 63.16826629638672 98.05302429199219 56.94446563720703 98.05302429199219 50.52651214599609 C 98.05302429199219 44.10914611816406 96.79683685302734 37.88534545898438 94.31938934326172 32.02796173095703 C 91.92581176757812 26.368896484375 88.49855041503906 21.28591156005859 84.13282775878906 16.92018890380859 C 79.76712036132812 12.55446624755859 74.68411254882812 9.127204895019531 69.02505493164062 6.733619689941406 C 63.16768646240234 4.256172180175781 56.94387054443359 2.999992370605469 50.52651596069336 2.999992370605469 M 50.52651596069336 -7.62939453125e-06 C 78.43153381347656 -7.62939453125e-06 101.0530242919922 22.62148284912109 101.0530242919922 50.52651214599609 L 101.0530242919922 50.527099609375 C 101.0530242919922 78.43212890625 78.43153381347656 101.0536041259766 50.52651596069336 101.0536041259766 C 22.62148284912109 101.0536041259766 -7.62939453125e-06 78.43212890625 -7.62939453125e-06 50.527099609375 L -7.62939453125e-06 50.52651214599609 C -7.62939453125e-06 22.62148284912109 22.62148284912109 -7.62939453125e-06 50.52651596069336 -7.62939453125e-06 Z" stroke="none" fill="#fff"/>
                        </g>
                      </g>
                    </g>
                  </g>
                </g>
              </g>
            </g>
          </g>
        </g>
      </g>
    </g>
    <g id="dia-de-la-tierra" transform="translate(279.001 7449.917)">
      <g id="Group_1203984" data-name="Group 1203984" transform="translate(8.515 34.335)">
        <path id="Path_1258949" data-name="Path 1258949" d="M420.859,238.9a2.452,2.452,0,0,0-2.452,2.452v12.26h4.9v-12.26A2.452,2.452,0,0,0,420.859,238.9Z" transform="translate(-366.914 -238.904)" fill="#ffc552"/>
        <path id="Path_1258950" data-name="Path 1258950" d="M61.827,238.9a2.452,2.452,0,0,1,2.452,2.452v12.26h-4.9v-12.26A2.452,2.452,0,0,1,61.827,238.9Z" transform="translate(-59.375 -238.904)" fill="#ffc552"/>
      </g>
      <g id="Group_1203985" data-name="Group 1203985" transform="translate(12.193 13.493)">
        <circle id="Ellipse_12741" data-name="Ellipse 12741" cx="24.521" cy="24.521" r="24.521" fill="#72ccc5"/>
        <circle id="Ellipse_12742" data-name="Ellipse 12742" cx="24.521" cy="24.521" r="24.521" fill="#72ccc5"/>
      </g>
      <path id="Path_1258951" data-name="Path 1258951" d="M109.541,249.972a24.529,24.529,0,0,1-24.029-19.616,24.521,24.521,0,1,0,48.059,0A24.528,24.528,0,0,1,109.541,249.972Z" transform="translate(-72.827 -197.247)" fill="#11bba3"/>
      <g id="Group_1203986" data-name="Group 1203986" transform="translate(12.193 13.493)">
        <path id="Path_1258952" data-name="Path 1258952" d="M193.73,100.937l1.226,3.678,3.678,1.226v4.9l-2.452,3.678V118.1l6.13,1.226v3.678l6.13,6.13h2.452l1.226-6.13v-4.9l3.678-1.226h3.678l1.832-4.275A24.537,24.537,0,0,0,187.6,95.623v4.088Z" transform="translate(-172.888 -93.581)" fill="#66bf00"/>
        <path id="Path_1258953" data-name="Path 1258953" d="M102.184,241.037l3.678-2.452,1.226-4.9v-6.13l-3.678-1.226-3.678-3.678-2.452-3.678h-4.9l-2.452,4.9L88.7,220.195v-3.678l-2.658-.886a24.543,24.543,0,0,0,17.509,30.8l-.139-.487Z" transform="translate(-85.02 -198.126)" fill="#66bf00"/>
      </g>
      <path id="Path_1258954" data-name="Path 1258954" d="M85.514,230.444a24.523,24.523,0,0,0,18.036,28.673l-.139-.487-1.226-4.9,3.678-2.452.362-1.45A24.539,24.539,0,0,1,85.514,230.444Z" transform="translate(-72.828 -197.322)" fill="#58ab23"/>
      <path id="Path_1258955" data-name="Path 1258955" d="M325.584,213.261c-1.319.062-2.041,1.231-2.334,2.519-.715,3.149-2.452,10.965-2.452,10.965l-7.356,6.13h-3.678l2.973-5.635a2.452,2.452,0,0,0-3.494-3.442s-6.315,9.465-9.156,13.468a7.365,7.365,0,0,0-1.357,4.264v13.414h11.034v-7.356l14.712-15.938,3.678-15.938A2.452,2.452,0,0,0,325.584,213.261Z" transform="translate(-255.887 -182.602)" fill="#ffe5ba"/>
      <path id="Path_1258956" data-name="Path 1258956" d="M369.977,213.856l-3.863,17.13L349.665,248.15v7.305h3.729V248.1l14.712-15.938,3.678-15.938A2.453,2.453,0,0,0,369.977,213.856Z" transform="translate(-299.516 -183.113)" fill="#ffd175"/>
      <path id="Path_1258957" data-name="Path 1258957" d="M10.657,213.261a2.5,2.5,0,0,1,2.334,2.519l2.452,10.965,7.356,6.13h3.678L23.5,227.24A2.452,2.452,0,1,1,27,223.8s6.315,9.465,9.156,13.468a7.365,7.365,0,0,1,1.357,4.264v13.414H26.477v-7.356L11.765,231.649,8.087,215.711A2.452,2.452,0,0,1,10.657,213.261Z" transform="translate(-6.928 -182.602)" fill="#ffe5ba"/>
      <path id="Path_1258958" data-name="Path 1258958" d="M9.893,213.856l3.863,17.13L30.2,248.15v7.305H26.475V248.1L11.763,232.161,8.085,216.222A2.453,2.453,0,0,1,9.893,213.856Z" transform="translate(-6.926 -183.113)" fill="#ffd175"/>
      <path id="Path_1258959" data-name="Path 1258959" d="M414.763,86.248c-2.452-2.452-4.9-.805-4.9,1.226,0,3.678,4.9,6.13,4.9,6.13s4.9-2.452,4.9-6.13C419.667,85.442,417.215,83.8,414.763,86.248Z" transform="translate(-351.077 -72.755)" fill="#ffc552"/>
      <path id="Path_1258960" data-name="Path 1258960" d="M412.312,86.26a2.511,2.511,0,0,1,.306-1.2,2.409,2.409,0,0,0-2.758,2.425c0,3.678,4.9,6.13,4.9,6.13a13,13,0,0,0,2.12-1.407C415.782,91.58,412.312,89.354,412.312,86.26Z" transform="translate(-351.078 -72.767)" fill="#fc9c47"/>
      <path id="Path_1258961" data-name="Path 1258961" d="M38.634,86.248c2.452-2.452,4.9-.805,4.9,1.226,0,3.678-4.9,6.13-4.9,6.13s-4.9-2.452-4.9-6.13C33.73,85.442,36.182,83.8,38.634,86.248Z" transform="translate(-28.893 -72.755)" fill="#ffc552"/>
      <path id="Path_1258962" data-name="Path 1258962" d="M36.182,86.261a2.512,2.512,0,0,1,.307-1.2,2.409,2.409,0,0,0-2.759,2.425c0,3.678,4.9,6.13,4.9,6.13a13.009,13.009,0,0,0,2.119-1.406C39.649,91.58,36.182,89.354,36.182,86.261Z" transform="translate(-28.893 -72.766)" fill="#fc9c47"/>
      <path id="Path_1258963" data-name="Path 1258963" d="M226.7,9.326c-2.452-2.452-4.9-.805-4.9,1.226,0,3.678,4.9,6.13,4.9,6.13s4.9-2.452,4.9-6.13C231.6,8.521,229.15,6.874,226.7,9.326Z" transform="translate(-189.985 -6.865)" fill="#ffc552"/>
      <path id="Path_1258964" data-name="Path 1258964" d="M224.246,9.338a2.511,2.511,0,0,1,.306-1.2,2.41,2.41,0,0,0-2.758,2.425c0,3.678,4.9,6.13,4.9,6.13a13,13,0,0,0,2.12-1.407C227.716,14.658,224.246,12.432,224.246,9.338Z" transform="translate(-189.985 -6.877)" fill="#fc9c47"/>
      <path id="Path_1258965" data-name="Path 1258965" d="M285.693,129.458a1.149,1.149,0,0,0-1.149-1.149h-1.226a1.149,1.149,0,1,0,0,2.3h1.226A1.149,1.149,0,0,0,285.693,129.458Z" transform="translate(-241.7 -109.836)"/>
      <path id="Path_1258966" data-name="Path 1258966" d="M329.66,172.2a1.149,1.149,0,0,0-1.149-1.149h-2.452a1.149,1.149,0,0,0,0,2.3h2.452A1.149,1.149,0,0,0,329.66,172.2Z" transform="translate(-278.311 -146.447)"/>
      <path id="Path_1258967" data-name="Path 1258967" d="M293.091,222.342h-1.226a1.149,1.149,0,0,0,0,2.3h1.226a1.149,1.149,0,0,0,0-2.3Z" transform="translate(-249.022 -190.382)"/>
      <path id="Path_1258968" data-name="Path 1258968" d="M376.295,381.993l-8.337,9.032a1.149,1.149,0,0,0-.3.78v7.356a1.149,1.149,0,0,0,2.3,0v-6.907l8.032-8.7a1.149,1.149,0,0,0-1.689-1.559Z" transform="translate(-314.925 -326.819)"/>
      <path id="Path_1258969" data-name="Path 1258969" d="M72.3,103.727a3.572,3.572,0,0,0-2.658-.991,3.628,3.628,0,0,0-3.426,3.528l-.5,2.22a3.636,3.636,0,0,0-3.787-2.036,25.711,25.711,0,0,0-25.22-20.881A25.452,25.452,0,0,0,21.31,90.7a1.149,1.149,0,1,0,1.381,1.838,23.542,23.542,0,0,1,3.065-1.953v2.261a1.149,1.149,0,0,0,.924,1.127l5.476,1.1,1.015,3.045a1.149,1.149,0,0,0,.727.727l2.892.964v3.728l-2.259,3.389a1.15,1.15,0,0,0-.193.638v3.678a1.149,1.149,0,0,0,.924,1.127l5.206,1.041v2.736a1.15,1.15,0,0,0,.337.813l5.651,5.651c-1.2,1.765-2.353,3.436-3.192,4.618a8.468,8.468,0,0,0-1.569,4.929v1.922a23.71,23.71,0,0,1-9.961,0v-1.923a8.53,8.53,0,0,0-.368-2.482l2.308-1.538a1.15,1.15,0,0,0,.478-.678l1.226-4.9a1.15,1.15,0,0,0,.034-.279v-6.13a1.15,1.15,0,0,0-.786-1.09L31.2,113.91,27.8,110.5l-2.389-3.583a1.149,1.149,0,0,0-.956-.512h-4.9a1.149,1.149,0,0,0-1.028.635l-1.211,2.422-.289-.868v-3.492a1.15,1.15,0,0,0-.786-1.09l-1.57-.523A23.335,23.335,0,0,1,18.9,96.1a1.149,1.149,0,1,0-1.751-1.489A25.664,25.664,0,0,0,11.5,106.452a3.567,3.567,0,0,0-3.819,2.1c-.189-.881-.358-1.7-.484-2.363-.388-2.049-1.694-3.372-3.409-3.453a3.575,3.575,0,0,0-2.658.991,3.62,3.62,0,0,0-.869,1.3,2.857,2.857,0,0,0-.217,1.563L3.717,122.53a1.15,1.15,0,0,0,.275.521L18.4,138.659v6.907a1.149,1.149,0,1,0,2.3,0V138.21a1.15,1.15,0,0,0-.3-.78L5.888,121.716,2.313,106.222a1.315,1.315,0,0,1,1.363-1.19c.9.042,1.19,1.223,1.258,1.584.662,3.494,2.39,10.713,2.464,11.019a1.15,1.15,0,0,0,.382.615l7.356,6.13a1.149,1.149,0,0,0,.736.266h3.678a1.16,1.16,0,0,0,1.015-1.688c-.02-.038-2-3.773-2.969-5.628-.793-1.52-.352-1.954-.186-2.117a1.3,1.3,0,0,1,1.775-.05c.7,1.051,6.448,9.647,9.1,13.39a6.182,6.182,0,0,1,1.145,3.6v13.414a1.149,1.149,0,1,0,2.3,0v-9.145a25.793,25.793,0,0,0,9.961,0v9.144a1.149,1.149,0,1,0,2.3,0V132.152a6.182,6.182,0,0,1,1.145-3.6c2.657-3.743,8.4-12.338,9.1-13.39a1.3,1.3,0,0,1,1.775.049c.154.152.623.614-.179,2.1-.688,1.278-2.956,5.6-2.979,5.647a1.16,1.16,0,0,0,1.018,1.683h3.678a1.15,1.15,0,0,0,.736-.266l7.356-6.13a1.168,1.168,0,0,0,.39-.652l2.448-10.945a1.152,1.152,0,0,0,.028-.251,1.353,1.353,0,0,1,1.238-1.37,1.315,1.315,0,0,1,1.363,1.19l-3.575,15.494-2.2,2.379a1.149,1.149,0,1,0,1.689,1.559l2.4-2.6a1.148,1.148,0,0,0,.275-.521l3.678-15.938a2.74,2.74,0,0,0-.217-1.563A3.633,3.633,0,0,0,72.3,103.727ZM17.639,122.348H16.287l-6.623-5.519v-6.818a1.3,1.3,0,0,1,1.3-1.3,1.321,1.321,0,0,1,.2.017q-.123,1.248-.125,2.512a25.756,25.756,0,0,0,.807,6.41,1.149,1.149,0,0,0,2.226-.572A23.447,23.447,0,0,1,14.01,105.7l.712.237v2.85a1.152,1.152,0,0,0,.059.364l1.226,3.678a1.145,1.145,0,0,0,.224.388,3.6,3.6,0,0,0-.435.361c-.829.817-1.543,2.315-.239,4.818C16.106,119.447,16.98,121.1,17.639,122.348Zm3.386-8.565a1.157,1.157,0,0,0-.137-.169,3.59,3.59,0,0,0-2.546-1.072l1.917-3.834h3.579l2.111,3.166a1.152,1.152,0,0,0,.144.175l3.678,3.678a1.149,1.149,0,0,0,.449.278l2.892.964v5.16l-1.084,4.336-1.639,1.093C30.316,127.445,21.089,113.877,21.026,113.782Zm21.741,1.883v-3.2a1.149,1.149,0,0,0-.924-1.127l-5.206-1.041v-2.388l2.259-3.389a1.15,1.15,0,0,0,.193-.638v-4.9a1.15,1.15,0,0,0-.786-1.09L35.17,96.842l-1.044-3.133a1.15,1.15,0,0,0-.865-.764L28.054,91.9V89.577c0-.02,0-.039,0-.059A23.4,23.4,0,0,1,59.419,105.7a1.146,1.146,0,0,0-.143.243l-1.252,2.922H55.1a1.152,1.152,0,0,0-.364.059l-3.678,1.226a1.149,1.149,0,0,0-.786,1.09V116.6a1.146,1.146,0,0,0,.039.294c-.749,1.115-1.635,2.43-2.545,3.774Zm14.373,6.683h-1.36c.719-1.368,1.679-3.19,2.083-3.941,1.41-2.617.46-4.15-.231-4.832a3.6,3.6,0,0,0-5.056,0v-1.514l2.715-.905h3.492a1.15,1.15,0,0,0,1.057-.7l.212-.494q.034.629.035,1.267a23.49,23.49,0,0,1-.618,5.361,1.149,1.149,0,0,0,2.238.525,25.8,25.8,0,0,0,.678-5.887q0-1.272-.123-2.513a1.34,1.34,0,0,1,.2-.016,1.3,1.3,0,0,1,1.3,1.3v6.818Z" transform="translate(0 -73.224)"/>
      <path id="Path_1258970" data-name="Path 1258970" d="M407.387,87.767a1.159,1.159,0,0,0,1.028,0c.226-.113,5.54-2.82,5.54-7.158a3.587,3.587,0,0,0-2.2-3.339,3.891,3.891,0,0,0-3.855.6,3.891,3.891,0,0,0-3.855-.6,3.587,3.587,0,0,0-2.2,3.339C401.848,84.947,407.161,87.654,407.387,87.767Zm-2.461-8.373a1.19,1.19,0,0,1,.46-.089,2.574,2.574,0,0,1,1.7.891,1.149,1.149,0,0,0,1.626,0c.763-.763,1.551-1.055,2.163-.8a1.313,1.313,0,0,1,.779,1.215c0,2.119-2.363,3.981-3.748,4.812-1.131-.688-3.762-2.535-3.762-4.812A1.313,1.313,0,0,1,404.926,79.394Z" transform="translate(-344.215 -65.89)"/>
      <path id="Path_1258971" data-name="Path 1258971" d="M31.257,87.767a1.159,1.159,0,0,0,1.028,0c.226-.113,5.54-2.82,5.54-7.158a3.587,3.587,0,0,0-2.2-3.339,3.891,3.891,0,0,0-3.855.6,3.891,3.891,0,0,0-3.855-.6,3.587,3.587,0,0,0-2.2,3.339C25.718,84.947,31.031,87.654,31.257,87.767ZM28.8,79.394a1.19,1.19,0,0,1,.46-.089,2.575,2.575,0,0,1,1.7.891,1.149,1.149,0,0,0,1.625,0c.763-.763,1.551-1.055,2.163-.8a1.313,1.313,0,0,1,.779,1.215c0,2.119-2.363,3.981-3.748,4.812-1.131-.688-3.762-2.535-3.762-4.812A1.313,1.313,0,0,1,28.8,79.394Z" transform="translate(-22.03 -65.89)"/>
      <path id="Path_1258972" data-name="Path 1258972" d="M219.321,10.845a1.159,1.159,0,0,0,1.028,0c.226-.113,5.54-2.82,5.54-7.158a3.587,3.587,0,0,0-2.2-3.339,3.891,3.891,0,0,0-3.855.6,3.891,3.891,0,0,0-3.855-.6,3.587,3.587,0,0,0-2.2,3.339C213.782,8.025,219.1,10.732,219.321,10.845ZM216.86,2.472a1.19,1.19,0,0,1,.46-.089,2.575,2.575,0,0,1,1.7.891,1.15,1.15,0,0,0,1.626,0c.763-.763,1.551-1.055,2.163-.8a1.313,1.313,0,0,1,.779,1.215c0,2.119-2.363,3.981-3.748,4.812-1.131-.688-3.762-2.535-3.762-4.812A1.313,1.313,0,0,1,216.86,2.472Z" transform="translate(-183.122)"/>
    </g>
  </g>
</svg>
