<svg xmlns="http://www.w3.org/2000/svg" xmlns:xlink="http://www.w3.org/1999/xlink" width="119.053" height="119.054" viewBox="0 0 119.053 119.054">
  <defs>
    <filter id="Path_874925" x="0" y="0" width="119.053" height="119.054" filterUnits="userSpaceOnUse">
      <feOffset dy="3" input="SourceAlpha"/>
      <feGaussianBlur stdDeviation="3" result="blur"/>
      <feFlood flood-opacity="0.161"/>
      <feComposite operator="in" in2="blur"/>
      <feComposite in="SourceGraphic"/>
    </filter>
  </defs>
  <g id="Group_1204012" data-name="Group 1204012" transform="translate(-886 -6781)">
    <g id="Group_1203981" data-name="Group 1203981" transform="translate(0 607)">
      <g id="Group_1203975" data-name="Group 1203975" transform="translate(92 870)">
        <g id="Group_1203802" data-name="Group 1203802" transform="translate(518 -940.874)">
          <g id="Group_1200232" data-name="Group 1200232" transform="translate(285 6250.874)">
            <g id="Group_1187153" data-name="Group 1187153">
              <g id="Group_1182177" data-name="Group 1182177">
                <g id="Group_1181903" data-name="Group 1181903">
                  <g id="Group_1181438" data-name="Group 1181438">
                    <g id="Group_1111314" data-name="Group 1111314">
                      <g transform="matrix(1, 0, 0, 1, -9, -6)" filter="url(#Path_874925)">
                        <g id="Path_874925-2" data-name="Path 874925" transform="translate(9 6)" fill="#ffe9b5">
                          <path d="M 50.52651596069336 99.55361938476562 C 43.90731430053711 99.55361938476562 37.48691558837891 98.25757598876953 31.44364547729492 95.70149230957031 C 25.60577392578125 93.23227691650391 20.36252975463867 89.69707489013672 15.85953044891357 85.194091796875 C 11.35654449462891 80.69109344482422 7.821344375610352 75.44783782958984 5.35213041305542 69.60997772216797 C 2.796044588088989 63.56670761108398 1.500001668930054 57.14628982543945 1.500001668930054 50.52709197998047 C 1.500001668930054 43.90732192993164 2.796044588088989 37.48691940307617 5.35213041305542 31.44364929199219 C 7.821344375610352 25.60577774047852 11.35654449462891 20.36253356933594 15.85953044891357 15.85953426361084 C 20.36252975463867 11.35654830932617 25.60577392578125 7.821348667144775 31.44364547729492 5.352134227752686 C 37.48691558837891 2.796048641204834 43.90731430053711 1.500005841255188 50.52651596069336 1.500005841255188 C 57.14571762084961 1.500005841255188 63.56611633300781 2.796048641204834 69.60939025878906 5.352134227752686 C 75.44724273681641 7.821348667144775 80.69049835205078 11.35654830932617 85.19348907470703 15.85953426361084 C 89.69648742675781 20.36253356933594 93.231689453125 25.60577774047852 95.70090484619141 31.44364929199219 C 98.25698852539062 37.48691940307617 99.55303192138672 43.90732192993164 99.55303192138672 50.52651977539062 C 99.55303192138672 57.14628982543945 98.25698852539062 63.56670761108398 95.70090484619141 69.60997772216797 C 93.231689453125 75.44783782958984 89.69648742675781 80.69109344482422 85.19348907470703 85.194091796875 C 80.69049835205078 89.69707489013672 75.44724273681641 93.23227691650391 69.60939025878906 95.70149230957031 C 63.56611633300781 98.25757598876953 57.14571762084961 99.55361938476562 50.52651596069336 99.55361938476562 Z" stroke="none"/>
                          <path d="M 50.52651596069336 2.999992370605469 C 44.10914611816406 2.999992370605469 37.88534545898438 4.256172180175781 32.02796173095703 6.733619689941406 C 26.36890411376953 9.127204895019531 21.28591918945312 12.55446624755859 16.92019653320312 16.92018890380859 C 12.55446624755859 21.28591156005859 9.127204895019531 26.368896484375 6.733627319335938 32.02796173095703 C 4.256179809570312 37.88534545898438 2.999992370605469 44.10914611816406 2.999992370605469 50.527099609375 C 2.999992370605469 56.94446563720703 4.256179809570312 63.16826629638672 6.733627319335938 69.025634765625 C 9.127204895019531 74.68471527099609 12.55446624755859 79.7677001953125 16.92019653320312 84.1334228515625 C 21.28591918945312 88.4991455078125 26.36890411376953 91.9263916015625 32.02796173095703 94.31997680664062 C 37.88534545898438 96.79743957519531 44.10914611816406 98.05360412597656 50.52651596069336 98.05360412597656 C 56.94387054443359 98.05360412597656 63.16768646240234 96.79743957519531 69.02505493164062 94.31997680664062 C 74.68411254882812 91.9263916015625 79.76712036132812 88.4991455078125 84.13282775878906 84.1334228515625 C 88.49855041503906 79.7677001953125 91.92581176757812 74.68471527099609 94.31938934326172 69.025634765625 C 96.79683685302734 63.16826629638672 98.05302429199219 56.94446563720703 98.05302429199219 50.52651214599609 C 98.05302429199219 44.10914611816406 96.79683685302734 37.88534545898438 94.31938934326172 32.02796173095703 C 91.92581176757812 26.368896484375 88.49855041503906 21.28591156005859 84.13282775878906 16.92018890380859 C 79.76712036132812 12.55446624755859 74.68411254882812 9.127204895019531 69.02505493164062 6.733619689941406 C 63.16768646240234 4.256172180175781 56.94387054443359 2.999992370605469 50.52651596069336 2.999992370605469 M 50.52651596069336 -7.62939453125e-06 C 78.43153381347656 -7.62939453125e-06 101.0530242919922 22.62148284912109 101.0530242919922 50.52651214599609 L 101.0530242919922 50.527099609375 C 101.0530242919922 78.43212890625 78.43153381347656 101.0536041259766 50.52651596069336 101.0536041259766 C 22.62148284912109 101.0536041259766 -7.62939453125e-06 78.43212890625 -7.62939453125e-06 50.527099609375 L -7.62939453125e-06 50.52651214599609 C -7.62939453125e-06 22.62148284912109 22.62148284912109 -7.62939453125e-06 50.52651596069336 -7.62939453125e-06 Z" stroke="none" fill="#fff"/>
                        </g>
                      </g>
                    </g>
                  </g>
                </g>
              </g>
            </g>
          </g>
        </g>
      </g>
    </g>
    <g id="s1" transform="translate(913 6808)">
      <g id="Group_1204010" data-name="Group 1204010">
        <g id="Group_1203990" data-name="Group 1203990">
          <path id="Path_1258993" data-name="Path 1258993" d="M47,35l4,3,.76-6.84A10,10,0,0,1,60,41H54v2s-4,2-4,6,4,6,4,6H40s4-2,4-6-4-6-4-6a8.633,8.633,0,0,0-2,1.5V39H31a1,1,0,0,1-1-1V32a1,1,0,0,1,1-1h9.22L41,38l4-3Z" fill="#fcd770"/>
        </g>
        <g id="Group_1203991" data-name="Group 1203991">
          <path id="Path_1258994" data-name="Path 1258994" d="M51.76,31.16,51,38l-4-3,1.34-4H50A9.294,9.294,0,0,1,51.76,31.16Z" fill="#ffc729"/>
        </g>
        <g id="Group_1203992" data-name="Group 1203992">
          <path id="Path_1258995" data-name="Path 1258995" d="M43.66,31,45,35l-4,3-.78-7Z" fill="#ffc729"/>
        </g>
        <g id="Group_1203993" data-name="Group 1203993">
          <path id="Path_1258996" data-name="Path 1258996" d="M46.67,11H39a4,4,0,0,0-4,4v2H34a3.071,3.071,0,0,0-1.62.47A11.108,11.108,0,0,1,42.1,1h7.8A11.1,11.1,0,0,1,61,12.1v.82a11.1,11.1,0,0,1-1.08,4.78A2.959,2.959,0,0,0,58,17H57V11a2.015,2.015,0,0,1-2,2h-.4a16.754,16.754,0,0,1-7.93-2Z" fill="#656d78"/>
        </g>
        <g id="Group_1203994" data-name="Group 1203994">
          <path id="Path_1258997" data-name="Path 1258997" d="M19,36V34h3v6a2.015,2.015,0,0,1-2,2,2.006,2.006,0,0,1-2-2V37.73A2,2,0,0,0,19,36Z" fill="#aab2bd"/>
        </g>
        <g id="Group_1203995" data-name="Group 1203995">
          <path id="Path_1258998" data-name="Path 1258998" d="M23,32v1a1,1,0,0,1-1,1H19a2.006,2.006,0,0,0-2-2V29.61A6.746,6.746,0,0,1,20,24a6.768,6.768,0,0,1,3,5.61Z" fill="#ccd1d9"/>
        </g>
        <g id="Group_1203996" data-name="Group 1203996">
          <path id="Path_1258999" data-name="Path 1258999" d="M10,55H57a4,4,0,0,1,4,4,2.015,2.015,0,0,1-2,2H3a2.006,2.006,0,0,1-2-2,3.995,3.995,0,0,1,4-4Z" fill="#cf9e76"/>
        </g>
        <g id="Group_1203997" data-name="Group 1203997">
          <path id="Path_1259000" data-name="Path 1259000" d="M50,49c0-4,4-6,4-6s4,2,4,6-4,6-4,6S50,53,50,49Z" fill="#b4dd7f"/>
        </g>
        <g id="Group_1203998" data-name="Group 1203998">
          <path id="Path_1259001" data-name="Path 1259001" d="M36,49a6.338,6.338,0,0,1,2-4.5A8.633,8.633,0,0,1,40,43s4,2,4,6-4,6-4,6S36,53,36,49Z" fill="#b4dd7f"/>
        </g>
        <g id="Group_1203999" data-name="Group 1203999">
          <path id="Path_1259002" data-name="Path 1259002" d="M22,49c0-4,4-6,4-6s4,2,4,6-4,6-4,6S22,53,22,49Z" fill="#b4dd7f"/>
        </g>
        <g id="Group_1204000" data-name="Group 1204000">
          <path id="Path_1259003" data-name="Path 1259003" d="M6,45c0-4,4-6,4-6s4,2,4,6-4,6-4,6S6,49,6,45Z" fill="#b4dd7f"/>
        </g>
        <g id="Group_1204001" data-name="Group 1204001">
          <path id="Path_1259004" data-name="Path 1259004" d="M60,41v6a2.006,2.006,0,0,1-2,2c0-4-4-6-4-6V41Z" fill="#f0d0b4"/>
        </g>
        <g id="Group_1204002" data-name="Group 1204002">
          <path id="Path_1259005" data-name="Path 1259005" d="M30,32v6H22V34a1,1,0,0,0,1-1V32Z" fill="#f0d0b4"/>
        </g>
        <g id="Group_1204003" data-name="Group 1204003">
          <path id="Path_1259006" data-name="Path 1259006" d="M18,37.73A2,2,0,0,1,17,38H16a1,1,0,0,1-1-1V33a1,1,0,0,1,1-1h1a2.006,2.006,0,0,1,2,2v2A2,2,0,0,1,18,37.73Z" fill="#f0d0b4"/>
        </g>
        <g id="Group_1204004" data-name="Group 1204004">
          <path id="Path_1259007" data-name="Path 1259007" d="M48.34,31,47,35H45l-1.34-4h4.68Z" fill="#f0d0b4"/>
        </g>
        <g id="Group_1204005" data-name="Group 1204005">
          <path id="Path_1259008" data-name="Path 1259008" d="M59.92,17.7A2.962,2.962,0,0,1,61,20a3,3,0,0,1-3,3H57l-.06-.01A8.1,8.1,0,0,0,57,22V17h1a2.959,2.959,0,0,1,1.92.7Z" fill="#f0d0b4"/>
        </g>
        <g id="Group_1204006" data-name="Group 1204006">
          <path id="Path_1259009" data-name="Path 1259009" d="M56.41,12.41A1.955,1.955,0,0,0,57,11V22a8.1,8.1,0,0,1-.06.99,8.983,8.983,0,0,1-8.6,8c-.11.01-.23.01-.34.01H44c-.11,0-.23,0-.34-.01a8.983,8.983,0,0,1-8.6-8A8.1,8.1,0,0,1,35,22V15a4,4,0,0,1,4-4h7.67a16.754,16.754,0,0,0,7.93,2H55A1.955,1.955,0,0,0,56.41,12.41Z" fill="#f0d0b4"/>
        </g>
        <g id="Group_1204007" data-name="Group 1204007">
          <path id="Path_1259010" data-name="Path 1259010" d="M35,22a8.1,8.1,0,0,0,.06.99L35,23H34a3,3,0,0,1-1.62-5.53A3.071,3.071,0,0,1,34,17h1Z" fill="#f0d0b4"/>
        </g>
        <g id="Group_1204008" data-name="Group 1204008">
          <path id="Path_1259011" data-name="Path 1259011" d="M42,23h8a4,4,0,0,1-8,0Z" fill="#ff826e"/>
        </g>
        <g id="Group_1204009" data-name="Group 1204009">
          <circle id="Ellipse_12743" data-name="Ellipse 12743" cx="5" cy="5" r="5" transform="translate(7 7)" fill="#fcd770"/>
        </g>
      </g>
      <g id="Group_1204011" data-name="Group 1204011">
        <path id="Path_1259012" data-name="Path 1259012" d="M12,18a6,6,0,1,0-6-6A6.006,6.006,0,0,0,12,18ZM12,8a4,4,0,1,1-4,4A4,4,0,0,1,12,8Z"/>
        <path id="Path_1259013" data-name="Path 1259013" d="M11,0h2V4H11Z"/>
        <path id="Path_1259014" data-name="Path 1259014" d="M3.929,2.929h2v4h-2Z" transform="translate(-2.042 4.929) rotate(-45)"/>
        <path id="Path_1259015" data-name="Path 1259015" d="M0,11H4v2H0Z"/>
        <path id="Path_1259016" data-name="Path 1259016" d="M2.929,18.071h4v2h-4Z" transform="translate(-12.042 9.071) rotate(-45)"/>
        <path id="Path_1259017" data-name="Path 1259017" d="M11,20h2v4H11Z"/>
        <path id="Path_1259018" data-name="Path 1259018" d="M18.071,17.072h2v4h-2Z" transform="translate(-7.9 19.071) rotate(-45)"/>
        <path id="Path_1259019" data-name="Path 1259019" d="M20,11h4v2H20Z"/>
        <path id="Path_1259020" data-name="Path 1259020" d="M17.072,3.929h4v2h-4Z" transform="translate(2.101 14.929) rotate(-45)"/>
        <path id="Path_1259021" data-name="Path 1259021" d="M62,12.1A12.118,12.118,0,0,0,49.9,0H42.1A12.057,12.057,0,0,0,31.151,17.2,4,4,0,0,0,34,24h.2a10.005,10.005,0,0,0,3.824,6H31a1.993,1.993,0,0,0-1.722,1H24V29.6a7.722,7.722,0,0,0-3.445-6.438L20,22.8l-.555.37A7.72,7.72,0,0,0,16,29.605V31a2,2,0,0,0-2,2v4a2,2,0,0,0,2,2h1v1a3,3,0,0,0,6,0V39h6.278A1.993,1.993,0,0,0,31,40h6v4.1a7.008,7.008,0,0,0,.093,9.9H28.907A7.207,7.207,0,0,0,31,49c0-4.565-4.367-6.8-4.553-6.9L26,41.882l-.447.224C25.367,42.2,21,44.435,21,49a7.207,7.207,0,0,0,2.093,5H11V51.574c1.215-.768,4-2.925,4-6.574,0-4.565-4.367-6.8-4.553-6.9L10,37.882l-.447.224C9.367,38.2,5,40.435,5,45c0,3.649,2.785,5.806,4,6.574V54H5a5.006,5.006,0,0,0-5,5,3,3,0,0,0,3,3H59a3,3,0,0,0,3-3,5.006,5.006,0,0,0-5-5h-.093a7.345,7.345,0,0,0,2.044-4.169A3,3,0,0,0,61,47V41a11.019,11.019,0,0,0-7.746-10.508A10.017,10.017,0,0,0,57.8,24H58a4,4,0,0,0,4-4,3.964,3.964,0,0,0-.914-2.514A12.16,12.16,0,0,0,62,12.924ZM20,25.252a5.721,5.721,0,0,1,2,4.354V33H19.816A3,3,0,0,0,18,31.184V29.6A5.721,5.721,0,0,1,20,25.252ZM16,37V33h1a1,1,0,0,1,1,1v2a1,1,0,0,1-1,1Zm4,4a1,1,0,0,1-1-1V38.22A2.983,2.983,0,0,0,20,36V35h1v5A1,1,0,0,1,20,41Zm3-6.278A1.993,1.993,0,0,0,24,33h5v4H23ZM7,45c0-2.58,2.066-4.226,3-4.837.935.612,3,2.258,3,4.837a5.515,5.515,0,0,1-2,4.056V44.763L9.9,42.552l-1.789.9L9,45.236v3.82A5.515,5.515,0,0,1,7,45ZM32,20a2,2,0,0,1,2-2v4A2,2,0,0,1,32,20Zm2-5v1a3.938,3.938,0,0,0-1.123.18A10.07,10.07,0,0,1,42.1,2h7.791A10.116,10.116,0,0,1,60,12.1v.819a10.177,10.177,0,0,1-.575,3.35A3.991,3.991,0,0,0,58,16V11a3,3,0,0,0-3-3H54v2h1a1,1,0,1,1,0,2h-.4A15.748,15.748,0,0,1,41.814,5.419L40.187,6.581A17.673,17.673,0,0,0,43.407,10H39a5.006,5.006,0,0,0-5,5ZM49.054,32H50c.222,0,.439.017.657.033L50.2,36.149l-2.023-1.517Zm-2.775,2H45.72l-.667-2h1.893Zm-3.333-2,.878,2.633L41.8,36.15,41.34,32ZM40,44.163c.935.612,3,2.258,3,4.837a5.515,5.515,0,0,1-2,4.056V48.763l-1.1-2.211-1.789.9L39,49.236v3.82A5.515,5.515,0,0,1,37,49C37,46.42,39.066,44.774,40,44.163Zm-14,0c.935.612,3,2.258,3,4.837a5.515,5.515,0,0,1-2,4.056V48.763l-1.1-2.211-1.789.9L25,49.236v3.82A5.515,5.515,0,0,1,23,49C23,46.42,25.066,44.774,26,44.163ZM60,59a1,1,0,0,1-1,1H3a1,1,0,0,1-1-1,3,3,0,0,1,3-3H9v2h2V56H25v2h2V56H39v2h2V56H53v2h2V56h2A3,3,0,0,1,60,59Zm-5-5.944V48.763l-1.1-2.211-1.789.9L53,49.236v3.82A5.515,5.515,0,0,1,51,49c0-2.58,2.066-4.226,3-4.837.935.612,3,2.258,3,4.837A5.515,5.515,0,0,1,55,53.056Zm3.834-5.537A8.512,8.512,0,0,0,55,42.427V42h4v5a.974.974,0,0,1-.166.519ZM58.941,40H55V36H53v6.426c-1.215.768-4,2.925-4,6.574a7.207,7.207,0,0,0,2.093,5H42.907A7.207,7.207,0,0,0,45,49c0-4.565-4.367-6.8-4.553-6.9L40,41.882l-.447.224c-.037.019-.248.128-.553.321V36H37v2H31V32h8.327l.872,7.851L45.333,36h1.335L51.8,39.851l.829-7.457A9.02,9.02,0,0,1,58.941,40ZM48,30H44a8.009,8.009,0,0,1-8-8V15a3,3,0,0,1,3-3h7.439A17.711,17.711,0,0,0,54.6,14H55a2.966,2.966,0,0,0,1-.184V22A8.01,8.01,0,0,1,48,30Zm10-8V18a2,2,0,1,1,0,4Z"/>
        <path id="Path_1259022" data-name="Path 1259022" d="M41,23a5,5,0,0,0,10,0V22H41Zm7.829,1a3,3,0,0,1-5.658,0Z"/>
        <path id="Path_1259023" data-name="Path 1259023" d="M43,20h2a4,4,0,0,0-8,0h2a2,2,0,0,1,4,0Z"/>
        <path id="Path_1259024" data-name="Path 1259024" d="M51,16a4,4,0,0,0-4,4h2a2,2,0,1,1,4,0h2A4,4,0,0,0,51,16Z"/>
      </g>
    </g>
  </g>
</svg>
