<svg xmlns="http://www.w3.org/2000/svg" xmlns:xlink="http://www.w3.org/1999/xlink" width="119.053" height="119.054" viewBox="0 0 119.053 119.054">
  <defs>
    <filter id="Path_874925" x="0" y="0" width="119.053" height="119.054" filterUnits="userSpaceOnUse">
      <feOffset dy="3" input="SourceAlpha"/>
      <feGaussianBlur stdDeviation="3" result="blur"/>
      <feFlood flood-opacity="0.161"/>
      <feComposite operator="in" in2="blur"/>
      <feComposite in="SourceGraphic"/>
    </filter>
  </defs>
  <g id="Group_1204026" data-name="Group 1204026" transform="translate(-1067 -1721)">
    <g id="Group_1203825" data-name="Group 1203825" transform="translate(791 -4523.874)">
      <g id="Group_1200232" data-name="Group 1200232" transform="translate(285 6250.874)">
        <g id="Group_1187153" data-name="Group 1187153">
          <g id="Group_1182177" data-name="Group 1182177">
            <g id="Group_1181903" data-name="Group 1181903">
              <g id="Group_1181438" data-name="Group 1181438">
                <g id="Group_1111314" data-name="Group 1111314">
                  <g transform="matrix(1, 0, 0, 1, -9, -6)" filter="url(#Path_874925)">
                    <g id="Path_874925-2" data-name="Path 874925" transform="translate(9 6)" fill="#ef8c1a">
                      <path d="M 50.52651596069336 99.55361938476562 C 43.90731430053711 99.55361938476562 37.48691558837891 98.25757598876953 31.44364547729492 95.70149230957031 C 25.60577392578125 93.23227691650391 20.36252975463867 89.69707489013672 15.85953044891357 85.194091796875 C 11.35654449462891 80.69109344482422 7.821344375610352 75.44783782958984 5.35213041305542 69.60997772216797 C 2.796044588088989 63.56670761108398 1.500001668930054 57.14628982543945 1.500001668930054 50.52709197998047 C 1.500001668930054 43.90732192993164 2.796044588088989 37.48691940307617 5.35213041305542 31.44364929199219 C 7.821344375610352 25.60577774047852 11.35654449462891 20.36253356933594 15.85953044891357 15.85953426361084 C 20.36252975463867 11.35654830932617 25.60577392578125 7.821348667144775 31.44364547729492 5.352134227752686 C 37.48691558837891 2.796048641204834 43.90731430053711 1.500005841255188 50.52651596069336 1.500005841255188 C 57.14571762084961 1.500005841255188 63.56611633300781 2.796048641204834 69.60939025878906 5.352134227752686 C 75.44724273681641 7.821348667144775 80.69049835205078 11.35654830932617 85.19348907470703 15.85953426361084 C 89.69648742675781 20.36253356933594 93.231689453125 25.60577774047852 95.70090484619141 31.44364929199219 C 98.25698852539062 37.48691940307617 99.55303192138672 43.90732192993164 99.55303192138672 50.52651977539062 C 99.55303192138672 57.14628982543945 98.25698852539062 63.56670761108398 95.70090484619141 69.60997772216797 C 93.231689453125 75.44783782958984 89.69648742675781 80.69109344482422 85.19348907470703 85.194091796875 C 80.69049835205078 89.69707489013672 75.44724273681641 93.23227691650391 69.60939025878906 95.70149230957031 C 63.56611633300781 98.25757598876953 57.14571762084961 99.55361938476562 50.52651596069336 99.55361938476562 Z" stroke="none"/>
                      <path d="M 50.52651596069336 2.999992370605469 C 44.10914611816406 2.999992370605469 37.88534545898438 4.256172180175781 32.02796173095703 6.733619689941406 C 26.36890411376953 9.127204895019531 21.28591918945312 12.55446624755859 16.92019653320312 16.92018890380859 C 12.55446624755859 21.28591156005859 9.127204895019531 26.368896484375 6.733627319335938 32.02796173095703 C 4.256179809570312 37.88534545898438 2.999992370605469 44.10914611816406 2.999992370605469 50.527099609375 C 2.999992370605469 56.94446563720703 4.256179809570312 63.16826629638672 6.733627319335938 69.025634765625 C 9.127204895019531 74.68471527099609 12.55446624755859 79.7677001953125 16.92019653320312 84.1334228515625 C 21.28591918945312 88.4991455078125 26.36890411376953 91.9263916015625 32.02796173095703 94.31997680664062 C 37.88534545898438 96.79743957519531 44.10914611816406 98.05360412597656 50.52651596069336 98.05360412597656 C 56.94387054443359 98.05360412597656 63.16768646240234 96.79743957519531 69.02505493164062 94.31997680664062 C 74.68411254882812 91.9263916015625 79.76712036132812 88.4991455078125 84.13282775878906 84.1334228515625 C 88.49855041503906 79.7677001953125 91.92581176757812 74.68471527099609 94.31938934326172 69.025634765625 C 96.79683685302734 63.16826629638672 98.05302429199219 56.94446563720703 98.05302429199219 50.52651214599609 C 98.05302429199219 44.10914611816406 96.79683685302734 37.88534545898438 94.31938934326172 32.02796173095703 C 91.92581176757812 26.368896484375 88.49855041503906 21.28591156005859 84.13282775878906 16.92018890380859 C 79.76712036132812 12.55446624755859 74.68411254882812 9.127204895019531 69.02505493164062 6.733619689941406 C 63.16768646240234 4.256172180175781 56.94387054443359 2.999992370605469 50.52651596069336 2.999992370605469 M 50.52651596069336 -7.62939453125e-06 C 78.43153381347656 -7.62939453125e-06 101.0530242919922 22.62148284912109 101.0530242919922 50.52651214599609 L 101.0530242919922 50.527099609375 C 101.0530242919922 78.43212890625 78.43153381347656 101.0536041259766 50.52651596069336 101.0536041259766 C 22.62148284912109 101.0536041259766 -7.62939453125e-06 78.43212890625 -7.62939453125e-06 50.527099609375 L -7.62939453125e-06 50.52651214599609 C -7.62939453125e-06 22.62148284912109 22.62148284912109 -7.62939453125e-06 50.52651596069336 -7.62939453125e-06 Z" stroke="none" fill="#fff"/>
                    </g>
                  </g>
                </g>
              </g>
            </g>
          </g>
        </g>
      </g>
    </g>
    <g id="documento" transform="translate(1095 1746)">
      <path id="Path_1259049" data-name="Path 1259049" d="M6,2H46V58H6Z" fill="#8892a0"/>
      <path id="Path_1259050" data-name="Path 1259050" d="M46,46h4V61H46Z" fill="#c18e59"/>
      <path id="Path_1259051" data-name="Path 1259051" d="M46,45h4v5H46Z" fill="#976947"/>
      <path id="Path_1259052" data-name="Path 1259052" d="M2,62H42V14H34V6H2Z" fill="#b8cbd9"/>
      <path id="Path_1259053" data-name="Path 1259053" d="M2,51.248C17.975,47.774,30,32.642,30,14.5A40.161,40.161,0,0,0,29.086,6H2Z" fill="#e8eff4"/>
      <path id="Path_1259054" data-name="Path 1259054" d="M42,14,34,6v8Z" fill="#e8eff4"/>
      <circle id="Ellipse_12745" data-name="Ellipse 12745" cx="14" cy="14" r="14" transform="translate(34 18)" fill="#a1cdfb"/>
      <circle id="Ellipse_12746" data-name="Ellipse 12746" cx="10" cy="10" r="10" transform="translate(38 22)" fill="#ebf7fe"/>
      <circle id="Ellipse_12747" data-name="Ellipse 12747" cx="8" cy="8" r="8" transform="translate(6 22)" fill="#c66b60"/>
      <path id="Path_1259055" data-name="Path 1259055" d="M20,27.5a8.448,8.448,0,0,0-.791-3.564A7.993,7.993,0,0,0,7.936,35.209,8.486,8.486,0,0,0,20,27.5Z" fill="#e47c6e"/>
      <circle id="Ellipse_12748" data-name="Ellipse 12748" cx="8" cy="8" r="8" transform="translate(6 42)" fill="#669e4f"/>
      <path id="Path_1259056" data-name="Path 1259056" d="M20,47.5a8.448,8.448,0,0,0-.791-3.564A7.993,7.993,0,0,0,7.936,55.209,8.486,8.486,0,0,0,20,47.5Z" fill="#78b75b"/>
      <path id="Path_1259057" data-name="Path 1259057" d="M47,18H45V3H7V6H5V2A1,1,0,0,1,6,1H46a1,1,0,0,1,1,1Z"/>
      <path id="Path_1259058" data-name="Path 1259058" d="M42,63H2a1,1,0,0,1-1-1V6A1,1,0,0,1,2,5H34a1,1,0,0,1,1,1v7h7a1,1,0,0,1,1,1v5H41V15H34a1,1,0,0,1-1-1V7H3V61H41V45h2V62A1,1,0,0,1,42,63Z"/>
      <path id="Path_1259059" data-name="Path 1259059" d="M37,4.343h2V15.657H37Z" transform="translate(4.059 29.799) rotate(-45)"/>
      <path id="Path_1259060" data-name="Path 1259060" d="M14,59a9,9,0,1,1,9-9A9.011,9.011,0,0,1,14,59Zm0-16a7,7,0,1,0,7,7A7.008,7.008,0,0,0,14,43Z"/>
      <path id="Path_1259061" data-name="Path 1259061" d="M14,55a1,1,0,0,1-.707-.293l-3-3,1.414-1.414,1.9,1.9,2.455-6.546,1.873.7-3,8a1,1,0,0,1-.725.626A.956.956,0,0,1,14,55Z"/>
      <path id="Path_1259062" data-name="Path 1259062" d="M14,39a9,9,0,1,1,9-9A9.011,9.011,0,0,1,14,39Zm0-16a7,7,0,1,0,7,7A7.008,7.008,0,0,0,14,23Z"/>
      <path id="Path_1259063" data-name="Path 1259063" d="M13,25.757h2v8.485H13Z" transform="translate(-17.113 18.686) rotate(-45)"/>
      <path id="Path_1259064" data-name="Path 1259064" d="M9.757,29h8.485v2H9.757Z" transform="translate(-17.113 18.686) rotate(-45)"/>
      <path id="Path_1259065" data-name="Path 1259065" d="M48,47A15,15,0,1,1,63,32,15.017,15.017,0,0,1,48,47Zm0-28A13,13,0,1,0,61,32,13.015,13.015,0,0,0,48,19Z"/>
      <path id="Path_1259066" data-name="Path 1259066" d="M45,46h2V63H45Z"/>
      <path id="Path_1259067" data-name="Path 1259067" d="M49,46h2V63H49Z"/>
      <path id="Path_1259068" data-name="Path 1259068" d="M39,32H37A11.013,11.013,0,0,1,48,21v2A9.011,9.011,0,0,0,39,32Z"/>
      <path id="Path_1259069" data-name="Path 1259069" d="M48,43V41a9.011,9.011,0,0,0,9-9h2A11.013,11.013,0,0,1,48,43Z"/>
      <path id="Path_1259070" data-name="Path 1259070" d="M46,49h4v2H46Z"/>
      <path id="Path_1259071" data-name="Path 1259071" d="M25,57H39v2H25Z"/>
      <path id="Path_1259072" data-name="Path 1259072" d="M25,53H39v2H25Z"/>
      <path id="Path_1259073" data-name="Path 1259073" d="M25,37H35v2H25Z"/>
      <path id="Path_1259074" data-name="Path 1259074" d="M25,33h9v2H25Z"/>
    </g>
  </g>
</svg>
