<svg xmlns="http://www.w3.org/2000/svg" xmlns:xlink="http://www.w3.org/1999/xlink" width="119.053" height="119.054" viewBox="0 0 119.053 119.054">
  <defs>
    <filter id="Path_874925" x="0" y="0" width="119.053" height="119.054" filterUnits="userSpaceOnUse">
      <feOffset dy="3" input="SourceAlpha"/>
      <feGaussianBlur stdDeviation="3" result="blur"/>
      <feFlood flood-opacity="0.161"/>
      <feComposite operator="in" in2="blur"/>
      <feComposite in="SourceGraphic"/>
    </filter>
  </defs>
  <g id="Group_1204014" data-name="Group 1204014" transform="translate(-404 -1721)">
    <g id="Group_1203354" data-name="Group 1203354" transform="translate(128 -4523.874)">
      <g id="Group_1200232" data-name="Group 1200232" transform="translate(285 6250.874)">
        <g id="Group_1187153" data-name="Group 1187153">
          <g id="Group_1182177" data-name="Group 1182177">
            <g id="Group_1181903" data-name="Group 1181903">
              <g id="Group_1181438" data-name="Group 1181438">
                <g id="Group_1111314" data-name="Group 1111314">
                  <g transform="matrix(1, 0, 0, 1, -9, -6)" filter="url(#Path_874925)">
                    <g id="Path_874925-2" data-name="Path 874925" transform="translate(9 6)" fill="#ef8c1a">
                      <path d="M 50.52651596069336 99.55361938476562 C 43.90731430053711 99.55361938476562 37.48691558837891 98.25757598876953 31.44364547729492 95.70149230957031 C 25.60577392578125 93.23227691650391 20.36252975463867 89.69707489013672 15.85953044891357 85.194091796875 C 11.35654449462891 80.69109344482422 7.821344375610352 75.44783782958984 5.35213041305542 69.60997772216797 C 2.796044588088989 63.56670761108398 1.500001668930054 57.14628982543945 1.500001668930054 50.52709197998047 C 1.500001668930054 43.90732192993164 2.796044588088989 37.48691940307617 5.35213041305542 31.44364929199219 C 7.821344375610352 25.60577774047852 11.35654449462891 20.36253356933594 15.85953044891357 15.85953426361084 C 20.36252975463867 11.35654830932617 25.60577392578125 7.821348667144775 31.44364547729492 5.352134227752686 C 37.48691558837891 2.796048641204834 43.90731430053711 1.500005841255188 50.52651596069336 1.500005841255188 C 57.14571762084961 1.500005841255188 63.56611633300781 2.796048641204834 69.60939025878906 5.352134227752686 C 75.44724273681641 7.821348667144775 80.69049835205078 11.35654830932617 85.19348907470703 15.85953426361084 C 89.69648742675781 20.36253356933594 93.231689453125 25.60577774047852 95.70090484619141 31.44364929199219 C 98.25698852539062 37.48691940307617 99.55303192138672 43.90732192993164 99.55303192138672 50.52651977539062 C 99.55303192138672 57.14628982543945 98.25698852539062 63.56670761108398 95.70090484619141 69.60997772216797 C 93.231689453125 75.44783782958984 89.69648742675781 80.69109344482422 85.19348907470703 85.194091796875 C 80.69049835205078 89.69707489013672 75.44724273681641 93.23227691650391 69.60939025878906 95.70149230957031 C 63.56611633300781 98.25757598876953 57.14571762084961 99.55361938476562 50.52651596069336 99.55361938476562 Z" stroke="none"/>
                      <path d="M 50.52651596069336 2.999992370605469 C 44.10914611816406 2.999992370605469 37.88534545898438 4.256172180175781 32.02796173095703 6.733619689941406 C 26.36890411376953 9.127204895019531 21.28591918945312 12.55446624755859 16.92019653320312 16.92018890380859 C 12.55446624755859 21.28591156005859 9.127204895019531 26.368896484375 6.733627319335938 32.02796173095703 C 4.256179809570312 37.88534545898438 2.999992370605469 44.10914611816406 2.999992370605469 50.527099609375 C 2.999992370605469 56.94446563720703 4.256179809570312 63.16826629638672 6.733627319335938 69.025634765625 C 9.127204895019531 74.68471527099609 12.55446624755859 79.7677001953125 16.92019653320312 84.1334228515625 C 21.28591918945312 88.4991455078125 26.36890411376953 91.9263916015625 32.02796173095703 94.31997680664062 C 37.88534545898438 96.79743957519531 44.10914611816406 98.05360412597656 50.52651596069336 98.05360412597656 C 56.94387054443359 98.05360412597656 63.16768646240234 96.79743957519531 69.02505493164062 94.31997680664062 C 74.68411254882812 91.9263916015625 79.76712036132812 88.4991455078125 84.13282775878906 84.1334228515625 C 88.49855041503906 79.7677001953125 91.92581176757812 74.68471527099609 94.31938934326172 69.025634765625 C 96.79683685302734 63.16826629638672 98.05302429199219 56.94446563720703 98.05302429199219 50.52651214599609 C 98.05302429199219 44.10914611816406 96.79683685302734 37.88534545898438 94.31938934326172 32.02796173095703 C 91.92581176757812 26.368896484375 88.49855041503906 21.28591156005859 84.13282775878906 16.92018890380859 C 79.76712036132812 12.55446624755859 74.68411254882812 9.127204895019531 69.02505493164062 6.733619689941406 C 63.16768646240234 4.256172180175781 56.94387054443359 2.999992370605469 50.52651596069336 2.999992370605469 M 50.52651596069336 -7.62939453125e-06 C 78.43153381347656 -7.62939453125e-06 101.0530242919922 22.62148284912109 101.0530242919922 50.52651214599609 L 101.0530242919922 50.527099609375 C 101.0530242919922 78.43212890625 78.43153381347656 101.0536041259766 50.52651596069336 101.0536041259766 C 22.62148284912109 101.0536041259766 -7.62939453125e-06 78.43212890625 -7.62939453125e-06 50.527099609375 L -7.62939453125e-06 50.52651214599609 C -7.62939453125e-06 22.62148284912109 22.62148284912109 -7.62939453125e-06 50.52651596069336 -7.62939453125e-06 Z" stroke="none" fill="#fff"/>
                    </g>
                  </g>
                </g>
              </g>
            </g>
          </g>
        </g>
      </g>
    </g>
    <g id="requisito1" transform="translate(391.322 1727.981)">
      <path id="Path_1259025" data-name="Path 1259025" d="M109.929,142.3a13.307,13.307,0,0,1,8.82-18.181V114.011L114,115.138a.9.9,0,0,1-1.06-1.177l.724-2.419a.875.875,0,0,1,.037-.1l.78-2.25a.9.9,0,0,1,.251-.416l4.017-3.792V93.976a.616.616,0,0,0-.612-.612h-8.5v.915a.9.9,0,0,1-.9.9H90.46a.9.9,0,0,1-.9-.9v-.915h-8.5a.616.616,0,0,0-.612.612v47.714a.616.616,0,0,0,.612.612Z" transform="translate(-32.427 -66.411)" fill="#f7f7f8" fill-rule="evenodd"/>
      <g id="Group_1204013" data-name="Group 1204013" transform="translate(52.393 34.322)">
        <path id="Path_1259026" data-name="Path 1259026" d="M112.481,342.214a.9.9,0,0,1,.959-1.524l1.249.789,1.993-2.175a3.253,3.253,0,1,0,1.054,1.51l-2.2,2.4a.9.9,0,0,1-1.178.194Z" transform="translate(-111.399 -311.295)" fill="#41ba7d" fill-rule="evenodd"/>
        <path id="Path_1259027" data-name="Path 1259027" d="M112.486,245.667a.9.9,0,0,1,.959-1.524l1.249.789,1.993-2.175a3.253,3.253,0,1,0,1.054,1.51l-2.2,2.4a.9.9,0,0,1-1.178.194Z" transform="translate(-111.404 -228.396)" fill="#41ba7d" fill-rule="evenodd"/>
        <path id="Path_1259028" data-name="Path 1259028" d="M112.486,149.118a.9.9,0,1,1,.959-1.524l1.249.789,1.993-2.175a3.253,3.253,0,1,0,1.054,1.51l-2.2,2.4a.9.9,0,0,1-1.178.194Z" transform="translate(-111.404 -145.496)" fill="#41ba7d" fill-rule="evenodd"/>
      </g>
      <path id="Path_1259029" data-name="Path 1259029" d="M162.09,32.513h-4.408v5.37h16.467v-5.37h-4.408v0a.9.9,0,0,1-.9-.889,2.926,2.926,0,0,0-5.85-.067c0,.019,0,.038,0,.057a.9.9,0,0,1-.9.9Z" transform="translate(-98.746 -10.919)" fill="#6298c6" fill-rule="evenodd"/>
      <path id="Path_1259030" data-name="Path 1259030" d="M351.045,125.546,349.2,123.6a.26.26,0,0,0-.182-.081.267.267,0,0,0-.191.073l-8.774,8.282a.9.9,0,0,1-.09.085l-3.6,3.4,2.2,2.334.163-.154a.912.912,0,0,1,.091-.085l12.214-11.53a.261.261,0,0,0,.081-.182A.267.267,0,0,0,351.045,125.546Z" transform="translate(-252.169 -92.3)" fill="#f5ca81" fill-rule="evenodd"/>
      <path id="Path_1259031" data-name="Path 1259031" d="M326.594,220.677l.979-.232-1.349-1.43-.313.9-.008.027-.288.964Z" transform="translate(-242.939 -174.3)" fill="#9c9c9c" fill-rule="evenodd"/>
      <path id="Path_1259032" data-name="Path 1259032" d="M297.864,81.82l1.727-1.63V72.519a4.159,4.159,0,0,0-4.145-4.144h-8.5V70.1h8.5a2.422,2.422,0,0,1,2.417,2.417Z" transform="translate(-209.736 -44.955)" fill="#85beed" fill-rule="evenodd"/>
      <path id="Path_1259033" data-name="Path 1259033" d="M313.582,324.016a11.491,11.491,0,1,0,3.366,8.125A11.491,11.491,0,0,0,313.582,324.016Z" transform="translate(-215.762 -261.567)" fill="#2fa369" fill-rule="evenodd"/>
      <path id="Path_1259034" data-name="Path 1259034" d="M90.739,124.377a13.36,13.36,0,0,1-1.3-1.726H59.6a2.423,2.423,0,0,1-2.417-2.417V72.519A2.422,2.422,0,0,1,59.6,70.1h8.5V68.375H59.6a4.159,4.159,0,0,0-4.144,4.144v47.714a4.159,4.159,0,0,0,4.144,4.144Z" transform="translate(-10.971 -44.955)" fill="#85beed" fill-rule="evenodd"/>
      <path id="Path_1259035" data-name="Path 1259035" d="M365.75,230.9h.161V218.231l-1.727,1.63V231A13.44,13.44,0,0,1,365.75,230.9Z" transform="translate(-276.056 -173.626)" fill="#85beed" fill-rule="evenodd"/>
      <path id="Path_1259036" data-name="Path 1259036" d="M63.866,63.2a.9.9,0,1,1,0-1.806H75.731a.9.9,0,1,1,0,1.806Zm0,4.361a.9.9,0,1,1,0-1.806h9.967a.9.9,0,0,1,0,1.806ZM58.9,61l.636-.694a.9.9,0,1,1,1.326,1.214l-.8.878A5.07,5.07,0,1,1,58.9,61Zm-5.425,4.243a.9.9,0,1,1,.959-1.524l1.249.789,1.993-2.175a3.253,3.253,0,1,0,1.054,1.51l-2.2,2.4a.9.9,0,0,1-1.178.194l-1.883-1.189Zm10.39-15.688a.9.9,0,0,1,0-1.806H77.578a.9.9,0,1,1,0,1.806Zm0,4.361a.9.9,0,0,1,0-1.806H82.2a.9.9,0,1,1,0,1.806ZM58.9,47.35l.636-.694a.9.9,0,0,1,1.326,1.213l-.8.878a5.07,5.07,0,1,1-1.158-1.4Zm-5.425,4.243a.9.9,0,1,1,.959-1.524l1.249.789,1.993-2.175a3.253,3.253,0,1,0,1.054,1.51l-2.2,2.4a.9.9,0,0,1-1.178.194l-1.883-1.189ZM63.865,35.9a.9.9,0,0,1,0-1.806H82.2a.9.9,0,1,1,0,1.806Zm0,4.361a.9.9,0,0,1,0-1.806H82.2a.9.9,0,1,1,0,1.806ZM58.9,33.7l.636-.694a.9.9,0,1,1,1.326,1.213l-.8.878A5.07,5.07,0,1,1,58.9,33.7Zm-5.425,4.243a.9.9,0,1,1,.959-1.524l1.249.789,1.993-2.175a3.253,3.253,0,1,0,1.054,1.51l-2.2,2.4a.9.9,0,0,1-1.178.194l-1.883-1.189Zm9.869-16.349H58.936v5.37H75.4v-5.37H71v0a.9.9,0,0,1-.9-.889,2.926,2.926,0,0,0-5.85-.067c0,.019,0,.038,0,.057a.9.9,0,0,1-.9.9ZM98.876,33.246,97.035,31.3a.26.26,0,0,0-.182-.081.267.267,0,0,0-.191.073l-8.774,8.282a.906.906,0,0,1-.09.085l-3.6,3.4,2.2,2.334.163-.154a.909.909,0,0,1,.091-.085l12.214-11.53a.261.261,0,0,0,.081-.182.267.267,0,0,0-.073-.191ZM83.655,46.377l-.979.232.288-.964.008-.027.313-.9,1.349,1.43Zm4.473-9.512,1.727-1.63V27.564A4.159,4.159,0,0,0,85.71,23.42h-8.5v1.727h8.5a2.422,2.422,0,0,1,2.417,2.417v9.3ZM97.82,62.449a11.491,11.491,0,1,0,3.366,8.125A11.491,11.491,0,0,0,97.82,62.449ZM77.5,75.89a13.307,13.307,0,0,1,8.82-18.181V47.6l-4.75,1.127a.9.9,0,0,1-1.06-1.177l.724-2.419a.876.876,0,0,1,.037-.1l.78-2.25a.9.9,0,0,1,.251-.416l4.018-3.792V27.564a.616.616,0,0,0-.612-.612h-8.5v.915a.9.9,0,0,1-.9.9H58.033a.9.9,0,0,1-.9-.9v-.915h-8.5a.616.616,0,0,0-.612.612V75.278a.616.616,0,0,0,.612.612Zm2.266,3.532a13.361,13.361,0,0,1-1.3-1.726H48.629a2.423,2.423,0,0,1-2.417-2.417V27.564a2.422,2.422,0,0,1,2.417-2.417h8.5V23.42h-8.5a4.159,4.159,0,0,0-4.144,4.144V75.278a4.159,4.159,0,0,0,4.144,4.144Zm11.893-22V42.9l8.441-7.968a2.072,2.072,0,0,0,.086-2.92l-1.841-1.95a2.072,2.072,0,0,0-2.92-.086l-3.766,3.556V27.565a5.966,5.966,0,0,0-5.951-5.952h-8.5v-.923a.9.9,0,0,0-.9-.9H71.8a4.726,4.726,0,0,0-9.257,0H58.033a.9.9,0,0,0-.9.9v.923h-8.5a5.966,5.966,0,0,0-5.951,5.95V75.278a5.966,5.966,0,0,0,5.951,5.95H81.737a13.3,13.3,0,1,0,9.925-23.806Zm-1.967-.145a13.448,13.448,0,0,0-1.567.092l0-11.135,1.727-1.63V57.279h-.161ZM83.656,72.446a.9.9,0,1,1,.959-1.524L88.19,73.18l6.4-6.98a.9.9,0,1,1,1.326,1.213l-6.872,7.5a.9.9,0,0,1-1.178.194Z" transform="translate(0)" fill-rule="evenodd"/>
    </g>
  </g>
</svg>
