<svg xmlns="http://www.w3.org/2000/svg" xmlns:xlink="http://www.w3.org/1999/xlink" width="119.053" height="119.054" viewBox="0 0 119.053 119.054">
  <defs>
    <filter id="Path_874925" x="0" y="0" width="119.053" height="119.054" filterUnits="userSpaceOnUse">
      <feOffset dy="3" input="SourceAlpha"/>
      <feGaussianBlur stdDeviation="3" result="blur"/>
      <feFlood flood-opacity="0.161"/>
      <feComposite operator="in" in2="blur"/>
      <feComposite in="SourceGraphic"/>
    </filter>
  </defs>
  <g id="Group_1204025" data-name="Group 1204025" transform="translate(-730 -1721)">
    <g id="Group_1203824" data-name="Group 1203824" transform="translate(454 -4523.874)">
      <g id="Group_1200232" data-name="Group 1200232" transform="translate(285 6250.874)">
        <g id="Group_1187153" data-name="Group 1187153">
          <g id="Group_1182177" data-name="Group 1182177">
            <g id="Group_1181903" data-name="Group 1181903">
              <g id="Group_1181438" data-name="Group 1181438">
                <g id="Group_1111314" data-name="Group 1111314">
                  <g transform="matrix(1, 0, 0, 1, -9, -6)" filter="url(#Path_874925)">
                    <g id="Path_874925-2" data-name="Path 874925" transform="translate(9 6)" fill="#ef8c1a">
                      <path d="M 50.52651596069336 99.55361938476562 C 43.90731430053711 99.55361938476562 37.48691558837891 98.25757598876953 31.44364547729492 95.70149230957031 C 25.60577392578125 93.23227691650391 20.36252975463867 89.69707489013672 15.85953044891357 85.194091796875 C 11.35654449462891 80.69109344482422 7.821344375610352 75.44783782958984 5.35213041305542 69.60997772216797 C 2.796044588088989 63.56670761108398 1.500001668930054 57.14628982543945 1.500001668930054 50.52709197998047 C 1.500001668930054 43.90732192993164 2.796044588088989 37.48691940307617 5.35213041305542 31.44364929199219 C 7.821344375610352 25.60577774047852 11.35654449462891 20.36253356933594 15.85953044891357 15.85953426361084 C 20.36252975463867 11.35654830932617 25.60577392578125 7.821348667144775 31.44364547729492 5.352134227752686 C 37.48691558837891 2.796048641204834 43.90731430053711 1.500005841255188 50.52651596069336 1.500005841255188 C 57.14571762084961 1.500005841255188 63.56611633300781 2.796048641204834 69.60939025878906 5.352134227752686 C 75.44724273681641 7.821348667144775 80.69049835205078 11.35654830932617 85.19348907470703 15.85953426361084 C 89.69648742675781 20.36253356933594 93.231689453125 25.60577774047852 95.70090484619141 31.44364929199219 C 98.25698852539062 37.48691940307617 99.55303192138672 43.90732192993164 99.55303192138672 50.52651977539062 C 99.55303192138672 57.14628982543945 98.25698852539062 63.56670761108398 95.70090484619141 69.60997772216797 C 93.231689453125 75.44783782958984 89.69648742675781 80.69109344482422 85.19348907470703 85.194091796875 C 80.69049835205078 89.69707489013672 75.44724273681641 93.23227691650391 69.60939025878906 95.70149230957031 C 63.56611633300781 98.25757598876953 57.14571762084961 99.55361938476562 50.52651596069336 99.55361938476562 Z" stroke="none"/>
                      <path d="M 50.52651596069336 2.999992370605469 C 44.10914611816406 2.999992370605469 37.88534545898438 4.256172180175781 32.02796173095703 6.733619689941406 C 26.36890411376953 9.127204895019531 21.28591918945312 12.55446624755859 16.92019653320312 16.92018890380859 C 12.55446624755859 21.28591156005859 9.127204895019531 26.368896484375 6.733627319335938 32.02796173095703 C 4.256179809570312 37.88534545898438 2.999992370605469 44.10914611816406 2.999992370605469 50.527099609375 C 2.999992370605469 56.94446563720703 4.256179809570312 63.16826629638672 6.733627319335938 69.025634765625 C 9.127204895019531 74.68471527099609 12.55446624755859 79.7677001953125 16.92019653320312 84.1334228515625 C 21.28591918945312 88.4991455078125 26.36890411376953 91.9263916015625 32.02796173095703 94.31997680664062 C 37.88534545898438 96.79743957519531 44.10914611816406 98.05360412597656 50.52651596069336 98.05360412597656 C 56.94387054443359 98.05360412597656 63.16768646240234 96.79743957519531 69.02505493164062 94.31997680664062 C 74.68411254882812 91.9263916015625 79.76712036132812 88.4991455078125 84.13282775878906 84.1334228515625 C 88.49855041503906 79.7677001953125 91.92581176757812 74.68471527099609 94.31938934326172 69.025634765625 C 96.79683685302734 63.16826629638672 98.05302429199219 56.94446563720703 98.05302429199219 50.52651214599609 C 98.05302429199219 44.10914611816406 96.79683685302734 37.88534545898438 94.31938934326172 32.02796173095703 C 91.92581176757812 26.368896484375 88.49855041503906 21.28591156005859 84.13282775878906 16.92018890380859 C 79.76712036132812 12.55446624755859 74.68411254882812 9.127204895019531 69.02505493164062 6.733619689941406 C 63.16768646240234 4.256172180175781 56.94387054443359 2.999992370605469 50.52651596069336 2.999992370605469 M 50.52651596069336 -7.62939453125e-06 C 78.43153381347656 -7.62939453125e-06 101.0530242919922 22.62148284912109 101.0530242919922 50.52651214599609 L 101.0530242919922 50.527099609375 C 101.0530242919922 78.43212890625 78.43153381347656 101.0536041259766 50.52651596069336 101.0536041259766 C 22.62148284912109 101.0536041259766 -7.62939453125e-06 78.43212890625 -7.62939453125e-06 50.527099609375 L -7.62939453125e-06 50.52651214599609 C -7.62939453125e-06 22.62148284912109 22.62148284912109 -7.62939453125e-06 50.52651596069336 -7.62939453125e-06 Z" stroke="none" fill="#fff"/>
                    </g>
                  </g>
                </g>
              </g>
            </g>
          </g>
        </g>
      </g>
    </g>
    <g id="presentacion56" transform="translate(755 1744)">
      <rect id="Rectangle_411547" data-name="Rectangle 411547" width="61.183" height="40.877" transform="translate(3.165 12.131)" fill="#f9f3f1"/>
      <rect id="Rectangle_411548" data-name="Rectangle 411548" width="3.956" height="40.877" transform="translate(60.392 12.131)" fill="#f3eae6"/>
      <path id="Path_1259037" data-name="Path 1259037" d="M70.925,406.22H9.61a2.11,2.11,0,0,1-2.11-2.11h0A2.11,2.11,0,0,1,9.61,402H70.925a2.11,2.11,0,0,1,2.11,2.11h0A2.11,2.11,0,0,1,70.925,406.22Z" transform="translate(-6.511 -348.992)" fill="#d9e7ec"/>
      <path id="Path_1259038" data-name="Path 1259038" d="M462.456,402H458.5a2.11,2.11,0,0,1,2.11,2.11h0a2.11,2.11,0,0,1-2.11,2.11h3.956a2.11,2.11,0,0,0,2.11-2.11h0A2.11,2.11,0,0,0,462.456,402Z" transform="translate(-398.042 -348.992)" fill="#c5d3dd"/>
      <path id="Path_1259039" data-name="Path 1259039" d="M73.2,333.236h-3.73a.772.772,0,0,1-.772-.772v-3.73a.772.772,0,0,1,.772-.772H73.2a.772.772,0,0,1,.772.772v3.73A.772.772,0,0,1,73.2,333.236Z" transform="translate(-59.638 -284.717)" fill="#8ac9fe"/>
      <path id="Path_1259040" data-name="Path 1259040" d="M313.757,233.836v-2.467a.566.566,0,0,0-.448-.553l-2.273-.485a.265.265,0,0,1-.194-.17q-.107-.294-.238-.576a.266.266,0,0,1,.017-.257l1.264-1.949a.566.566,0,0,0-.075-.708l-1.745-1.745a.566.566,0,0,0-.708-.075l-1.949,1.264a.266.266,0,0,1-.257.017q-.282-.131-.576-.238a.266.266,0,0,1-.17-.194l-.485-2.273a.566.566,0,0,0-.553-.448H302.9a.565.565,0,0,0-.553.448l-.485,2.273a.266.266,0,0,1-.17.194q-.294.107-.576.238a.266.266,0,0,1-.257-.017l-1.949-1.264a.566.566,0,0,0-.708.075l-1.745,1.745a.566.566,0,0,0-.075.708l1.264,1.949a.266.266,0,0,1,.017.257q-.131.282-.238.576a.266.266,0,0,1-.194.17l-2.273.485a.566.566,0,0,0-.448.553v2.467a.566.566,0,0,0,.448.553l2.273.485a.266.266,0,0,1,.194.17q.107.294.238.576a.266.266,0,0,1-.017.257l-1.264,1.949a.566.566,0,0,0,.075.708l1.745,1.745a.566.566,0,0,0,.708.075l1.949-1.264a.266.266,0,0,1,.257-.017q.282.131.576.238a.266.266,0,0,1,.17.194l.485,2.273a.566.566,0,0,0,.553.448h2.467a.566.566,0,0,0,.553-.448l.485-2.273a.266.266,0,0,1,.17-.194q.294-.107.576-.238a.266.266,0,0,1,.257.017l1.949,1.264a.566.566,0,0,0,.708-.075l1.745-1.745a.566.566,0,0,0,.075-.708l-1.264-1.949a.266.266,0,0,1-.017-.257q.131-.282.238-.576a.266.266,0,0,1,.194-.17l2.273-.485A.566.566,0,0,0,313.757,233.836Z" transform="translate(-255.676 -193.577)" fill="#7ca1b1"/>
      <circle id="Ellipse_12744" data-name="Ellipse 12744" cx="4.22" cy="4.22" r="4.22" transform="translate(44.238 34.806)" fill="#fedba6"/>
      <path id="Path_1259041" data-name="Path 1259041" d="M354.47,263.962a4.2,4.2,0,0,0-1.978.492,4.22,4.22,0,0,1,0,7.455,4.22,4.22,0,1,0,1.978-7.947Z" transform="translate(-306.012 -229.156)" fill="#fece85"/>
      <path id="Path_1259042" data-name="Path 1259042" d="M416.849,133.049h-3.887a.694.694,0,0,1-.694-.694v-9.162a.694.694,0,0,1,.694-.694h3.887a.694.694,0,0,1,.694.694v9.162A.694.694,0,0,1,416.849,133.049Z" transform="translate(-357.906 -106.347)" fill="#fe646f"/>
      <path id="Path_1259043" data-name="Path 1259043" d="M107.4,49.066a9.184,9.184,0,0,1-2.966,6.919,7.488,7.488,0,0,0-2.39,5.5v1.519H94.053V61.488A7.449,7.449,0,0,0,91.679,56,9.185,9.185,0,0,1,88.7,49.223a9.353,9.353,0,0,1,18.7-.157Z" transform="translate(-77.001 -34.699)" fill="#fedba6"/>
      <path id="Path_1259044" data-name="Path 1259044" d="M146.732,39.97a9.489,9.489,0,0,0-2.109.209,9.317,9.317,0,0,1,7.371,8.887,9.184,9.184,0,0,1-2.966,6.919,7.488,7.488,0,0,0-2.39,5.5v1.519h3.956V61.488a7.488,7.488,0,0,1,2.39-5.5,9.183,9.183,0,0,0,2.966-6.919A9.332,9.332,0,0,0,146.732,39.97Z" transform="translate(-125.553 -34.699)" fill="#fece85"/>
      <path id="Path_1259045" data-name="Path 1259045" d="M136.166,219.452h-5.694a1.147,1.147,0,0,1-1.147-1.147v-3.622h7.987v3.622A1.146,1.146,0,0,1,136.166,219.452Z" transform="translate(-112.272 -186.375)" fill="#7ca1b1"/>
      <path id="Path_1259046" data-name="Path 1259046" d="M152.352,214.683v3.622a1.147,1.147,0,0,1-1.147,1.147h3.956a1.147,1.147,0,0,0,1.147-1.147v-3.622Z" transform="translate(-131.267 -186.375)" fill="#678d98"/>
      <path id="Path_1259047" data-name="Path 1259047" d="M99.552,408.286H90.246a.621.621,0,0,1-.621-.621V402h10.549v5.665A.621.621,0,0,1,99.552,408.286Z" transform="translate(-77.807 -348.992)" fill="#ade194"/>
      <path id="Path_1259048" data-name="Path 1259048" d="M135.534,402v5.665a.621.621,0,0,1-.621.621h3.956a.621.621,0,0,0,.621-.621V402Z" transform="translate(-117.123 -348.992)" fill="#97da7b"/>
      <g id="Group_1204024" data-name="Group 1204024" transform="translate(0)">
        <path id="Elipse_12745" data-name="Elipse 12745" d="M-2.292-7.5A5.214,5.214,0,0,1,2.917-2.292,5.214,5.214,0,0,1-2.292,2.917,5.214,5.214,0,0,1-7.5-2.292,5.214,5.214,0,0,1-2.292-7.5Zm0,8.439A3.234,3.234,0,0,0,.939-2.292,3.234,3.234,0,0,0-2.292-5.522,3.234,3.234,0,0,0-5.522-2.292,3.234,3.234,0,0,0-2.292.939Z" transform="translate(50.749 41.317)"/>
        <path id="Trazado_1259049" data-name="Trazado 1259049" d="M298.856,236.7h-2.467a1.562,1.562,0,0,1-1.52-1.23l-.385-1.8-1.548,1a1.555,1.555,0,0,1-1.945-.205l-1.745-1.745a1.563,1.563,0,0,1-.205-1.945l1-1.548-1.8-.385a1.562,1.562,0,0,1-1.23-1.52v-2.467a1.562,1.562,0,0,1,1.23-1.52l1.8-.385-1-1.548a1.563,1.563,0,0,1,.205-1.945l1.745-1.745a1.555,1.555,0,0,1,1.945-.205l1.548,1,.385-1.8a1.562,1.562,0,0,1,1.52-1.23h2.467a1.562,1.562,0,0,1,1.52,1.23l.385,1.8,1.548-1a1.555,1.555,0,0,1,1.945.205L306,219.46a1.563,1.563,0,0,1,.205,1.945l-1,1.548,1.8.385a1.562,1.562,0,0,1,1.23,1.52v2.467a1.562,1.562,0,0,1-1.23,1.52l-1.8.385,1,1.548a1.563,1.563,0,0,1-.205,1.945l-1.745,1.745a1.545,1.545,0,0,1-1.1.455h0a1.551,1.551,0,0,1-.845-.25l-1.548-1-.385,1.8A1.562,1.562,0,0,1,298.856,236.7Zm-2.124-1.978h1.782l.414-1.938a1.247,1.247,0,0,1,.8-.917q.253-.092.5-.205a1.6,1.6,0,0,1,.531-.118,1.249,1.249,0,0,1,.681.2l1.662,1.078,1.26-1.26-1.077-1.662a1.249,1.249,0,0,1-.083-1.213q.113-.243.2-.5a1.248,1.248,0,0,1,.917-.8l1.938-.414V225.2l-1.938-.414a1.247,1.247,0,0,1-.917-.8q-.092-.253-.205-.5a1.248,1.248,0,0,1,.084-1.212l1.078-1.662-1.26-1.26-1.662,1.077a1.249,1.249,0,0,1-.681.2,1.6,1.6,0,0,1-.532-.118q-.243-.113-.5-.2a1.248,1.248,0,0,1-.8-.917l-.414-1.938h-1.782l-.414,1.938a1.247,1.247,0,0,1-.8.917q-.253.092-.5.205a1.6,1.6,0,0,1-.531.118,1.249,1.249,0,0,1-.681-.2l-1.662-1.078-1.26,1.26,1.077,1.662a1.249,1.249,0,0,1,.083,1.213q-.113.243-.2.5a1.248,1.248,0,0,1-.917.8l-1.938.414v1.782l1.938.414a1.248,1.248,0,0,1,.917.8q.092.253.205.5a1.248,1.248,0,0,1-.084,1.212l-1.078,1.662,1.26,1.26,1.662-1.077a1.249,1.249,0,0,1,.681-.2,1.6,1.6,0,0,1,.532.118q.243.113.5.2a1.248,1.248,0,0,1,.8.917Z" transform="translate(-249.165 -187.066)"/>
        <path id="Línea_566" data-name="Línea 566" d="M-5.192-5.522H-6.511A.989.989,0,0,1-7.5-6.511.989.989,0,0,1-6.511-7.5h1.319a.989.989,0,0,1,.989.989A.989.989,0,0,1-5.192-5.522Z" transform="translate(54.381 45.537)"/>
        <path id="Trazado_1259050" data-name="Trazado 1259050" d="M410.338,127.527h-3.887a1.684,1.684,0,0,1-1.683-1.683v-9.162A1.684,1.684,0,0,1,406.451,115h3.887a1.684,1.684,0,0,1,1.683,1.683v9.162A1.685,1.685,0,0,1,410.338,127.527Zm-3.592-1.978h3.3v-8.571h-3.3Z" transform="translate(-351.395 -99.836)"/>
        <g id="Group_1204015" data-name="Group 1204015" transform="translate(41.201 16.859)">
          <path id="Línea_567" data-name="Línea 567" d="M-1.44-5.522H-6.511A.989.989,0,0,1-7.5-6.511.989.989,0,0,1-6.511-7.5H-1.44a.989.989,0,0,1,.989.989A.989.989,0,0,1-1.44-5.522Z" transform="translate(9.893 7.5)"/>
          <path id="Línea_568" data-name="Línea 568" d="M.953-5.522H-6.511A.989.989,0,0,1-7.5-6.511.989.989,0,0,1-6.511-7.5H.953a.989.989,0,0,1,.989.989A.989.989,0,0,1,.953-5.522Z" transform="translate(7.5 10.654)"/>
          <path id="Línea_569" data-name="Línea 569" d="M.953-5.522H-6.511A.989.989,0,0,1-7.5-6.511.989.989,0,0,1-6.511-7.5H.953a.989.989,0,0,1,.989.989A.989.989,0,0,1,.953-5.522Z" transform="translate(7.5 13.807)"/>
        </g>
        <g id="Group_1204016" data-name="Group 1204016" transform="translate(18.949 43.317)">
          <path id="Línea_570" data-name="Línea 570" d="M-1.1-5.522H-6.511A.989.989,0,0,1-7.5-6.511.989.989,0,0,1-6.511-7.5H-1.1a.989.989,0,0,1,.989.989A.989.989,0,0,1-1.1-5.522Z" transform="translate(7.5 7.5)"/>
          <path id="Línea_571" data-name="Línea 571" d="M4.315-5.522H-6.511A.989.989,0,0,1-7.5-6.511.989.989,0,0,1-6.511-7.5H4.315a.989.989,0,0,1,.989.989A.989.989,0,0,1,4.315-5.522Z" transform="translate(7.5 10.654)"/>
        </g>
        <path id="Trazado_1259051" data-name="Trazado 1259051" d="M17.489,105.349a.989.989,0,0,1-.989-.989V85.489a.989.989,0,0,1,.989-.989h8.7a.989.989,0,0,1,0,1.978H18.478V104.36A.989.989,0,0,1,17.489,105.349Z" transform="translate(-14.324 -73.358)"/>
        <path id="Trazado_1259052" data-name="Trazado 1259052" d="M78.672,127.355H17.489a.989.989,0,0,1-.989-.989v-17.2a.989.989,0,1,1,1.978,0v16.211H77.683v-38.9H44.722a.989.989,0,0,1,0-1.978h33.95a.989.989,0,0,1,.989.989v40.877A.989.989,0,0,1,78.672,127.355Z" transform="translate(-14.324 -73.358)"/>
        <path id="Trazado_1259053" data-name="Trazado 1259053" d="M91.536,32.469h.146a10.365,10.365,0,0,1,10.193,10.068A10.22,10.22,0,0,1,98.591,50.2a6.517,6.517,0,0,0-2.072,4.777V56.5a.989.989,0,0,1-.989.989H87.542a.989.989,0,0,1-.989-.989V54.977A6.473,6.473,0,0,0,84.5,50.216a10.223,10.223,0,0,1,7.038-17.747Zm3,23.038v-.53a8.5,8.5,0,0,1,2.707-6.229A8.24,8.24,0,0,0,99.9,42.572a8.373,8.373,0,0,0-8.243-8.124h-.119a8.245,8.245,0,0,0-5.7,14.314,8.456,8.456,0,0,1,2.693,6.216v.53Z" transform="translate(-70.489 -28.188)"/>
        <path id="Trazado_1259054" data-name="Trazado 1259054" d="M129.655,213.93h-5.694a2.138,2.138,0,0,1-2.136-2.136v-3.622a.989.989,0,0,1,.989-.989H130.8a.989.989,0,0,1,.989.989v3.622a2.135,2.135,0,0,1-2.135,2.136Zm-5.852-4.769v2.633a.158.158,0,0,0,.158.158h5.694a.177.177,0,0,0,.158-.158v-2.633Z" transform="translate(-105.761 -179.864)"/>
        <g id="Group_1204023" data-name="Group 1204023" transform="translate(4.449)">
          <g id="Group_1204017" data-name="Group 1204017" transform="translate(15.609)">
            <path id="Línea_572" data-name="Línea 572" d="M-6.511-4.533A.989.989,0,0,1-7.5-5.522v-.989A.989.989,0,0,1-6.511-7.5a.989.989,0,0,1,.989.989v.989A.989.989,0,0,1-6.511-4.533Z" transform="translate(7.5 7.5)"/>
          </g>
          <g id="Group_1204018" data-name="Group 1204018" transform="translate(7.804 2.091)">
            <path id="Línea_573" data-name="Línea 573" d="M-6.017-4.667a.989.989,0,0,1-.857-.495l-.494-.856a.989.989,0,0,1,.362-1.351.989.989,0,0,1,1.351.362l.494.856A.989.989,0,0,1-5.523-4.8.985.985,0,0,1-6.017-4.667Z" transform="translate(7.501 7.501)"/>
            <path id="Línea_574" data-name="Línea 574" d="M-6.017-4.667a.989.989,0,0,1-.857-.495l-.494-.856a.989.989,0,0,1,.362-1.351.989.989,0,0,1,1.351.362l.494.856A.989.989,0,0,1-5.523-4.8.985.985,0,0,1-6.017-4.667Z" transform="translate(22.616 33.68)"/>
          </g>
          <g id="Group_1204019" data-name="Group 1204019" transform="translate(2.091 7.804)">
            <path id="Línea_575" data-name="Línea 575" d="M-5.657-5.029a.984.984,0,0,1-.494-.133l-.856-.494a.989.989,0,0,1-.362-1.351.989.989,0,0,1,1.351-.362l.856.494A.989.989,0,0,1-4.8-5.523.989.989,0,0,1-5.657-5.029Z" transform="translate(7.501 7.501)"/>
            <path id="Línea_576" data-name="Línea 576" d="M-5.657-5.029a.984.984,0,0,1-.494-.133l-.856-.494a.989.989,0,0,1-.362-1.351.989.989,0,0,1,1.351-.362l.856.494A.989.989,0,0,1-4.8-5.523.989.989,0,0,1-5.657-5.029Z" transform="translate(33.68 22.616)"/>
          </g>
          <g id="Group_1204020" data-name="Group 1204020" transform="translate(0 15.609)">
            <path id="Línea_577" data-name="Línea 577" d="M-5.522-5.522h-.989A.989.989,0,0,1-7.5-6.511.989.989,0,0,1-6.511-7.5h.989a.989.989,0,0,1,.989.989A.989.989,0,0,1-5.522-5.522Z" transform="translate(7.5 7.5)"/>
            <path id="Línea_578" data-name="Línea 578" d="M-5.522-5.522h-.989A.989.989,0,0,1-7.5-6.511.989.989,0,0,1-6.511-7.5h.989a.989.989,0,0,1,.989.989A.989.989,0,0,1-5.522-5.522Z" transform="translate(37.729 7.5)"/>
          </g>
          <g id="Group_1204021" data-name="Group 1204021" transform="translate(2.091 7.804)">
            <path id="Línea_579" data-name="Línea 579" d="M-6.511-5.029a.989.989,0,0,1-.857-.495.989.989,0,0,1,.362-1.351l.856-.494A.989.989,0,0,1-4.8-7.007a.989.989,0,0,1-.362,1.351l-.856.494A.985.985,0,0,1-6.511-5.029Z" transform="translate(7.501 22.616)"/>
            <path id="Línea_580" data-name="Línea 580" d="M-6.511-5.029a.989.989,0,0,1-.857-.495.989.989,0,0,1,.362-1.351l.856-.494A.989.989,0,0,1-4.8-7.007a.989.989,0,0,1-.362,1.351l-.856.494A.985.985,0,0,1-6.511-5.029Z" transform="translate(33.68 7.501)"/>
          </g>
          <g id="Group_1204022" data-name="Group 1204022" transform="translate(7.804 2.091)">
            <path id="Línea_581" data-name="Línea 581" d="M-6.513-4.667A.984.984,0,0,1-7.007-4.8.989.989,0,0,1-7.369-6.15l.494-.856a.989.989,0,0,1,1.351-.362.989.989,0,0,1,.362,1.351l-.494.856A.989.989,0,0,1-6.513-4.667Z" transform="translate(7.501 33.68)"/>
            <path id="Línea_582" data-name="Línea 582" d="M-6.513-4.667A.984.984,0,0,1-7.007-4.8.989.989,0,0,1-7.369-6.15l.494-.856a.989.989,0,0,1,1.351-.362.989.989,0,0,1,.362,1.351l-.494.856A.989.989,0,0,1-6.513-4.667Z" transform="translate(22.616 7.501)"/>
          </g>
        </g>
        <path id="Trazado_1259055" data-name="Trazado 1259055" d="M124.79,98a.989.989,0,0,1-.989-.989V90.089a2.3,2.3,0,0,0-.6-1.554l-2.564-2.813a4.276,4.276,0,0,1-1.118-2.886V81.3a1.8,1.8,0,0,1,1.8-1.8h5.549a1.887,1.887,0,0,1,1.885,1.885v2.5a.989.989,0,1,1-1.978,0v-2.5l-5.275.089v1.361a2.3,2.3,0,0,0,.6,1.554l2.564,2.813a4.276,4.276,0,0,1,1.118,2.886v6.917A.989.989,0,0,1,124.79,98Z" transform="translate(-103.758 -69.017)"/>
        <path id="Línea_583" data-name="Línea 583" d="M23.883-5.522H-6.511A.989.989,0,0,1-7.5-6.511.989.989,0,0,1-6.511-7.5H23.883a.989.989,0,0,1,.989.989A.989.989,0,0,1,23.883-5.522Z" transform="translate(29.081 63.738)"/>
        <path id="Trazado_1259056" data-name="Trazado 1259056" d="M64.414,400.7H57.667a.989.989,0,1,1,0-1.978h6.747a1.121,1.121,0,0,0,0-2.242H3.1a1.121,1.121,0,0,0,0,2.242h8.439a.989.989,0,1,1,0,1.978H3.1a3.1,3.1,0,0,1,0-6.2H64.414a3.1,3.1,0,0,1,0,6.2Z" transform="translate(0 -342.481)"/>
        <path id="Trazado_1259057" data-name="Trazado 1259057" d="M199.982,466.471a.984.984,0,0,1-.48-.125l-8.385-4.669-8.385,4.669a.989.989,0,1,1-.962-1.728l8.866-4.937a.989.989,0,0,1,.962,0l8.866,4.937a.989.989,0,0,1-.482,1.853Z" transform="translate(-157.36 -398.959)"/>
        <path id="Línea_584" data-name="Línea 584" d="M-6.511,3.573A.989.989,0,0,1-7.5,2.585v-9.1A.989.989,0,0,1-6.511-7.5a.989.989,0,0,1,.989.989v9.1A.989.989,0,0,1-6.511,3.573Z" transform="translate(40.267 63.939)"/>
        <path id="Trazado_1259058" data-name="Trazado 1259058" d="M170.89,251.275H155.22a3.11,3.11,0,0,1-3.106-3.106v-3.831a.989.989,0,1,1,1.978,0v3.831a1.13,1.13,0,0,0,1.128,1.128h15.67a.989.989,0,1,1,0,1.978Z" transform="translate(-132.056 -211.26)"/>
        <path id="Trazado_1259059" data-name="Trazado 1259059" d="M66.687,327.714h-3.73a1.763,1.763,0,0,1-1.761-1.761v-3.73a1.763,1.763,0,0,1,1.761-1.761h3.73a1.763,1.763,0,0,1,1.761,1.761v3.73A1.763,1.763,0,0,1,66.687,327.714Zm-3.513-1.978h3.3v-3.3h-3.3Z" transform="translate(-53.127 -278.206)"/>
        <path id="Trazado_1259060" data-name="Trazado 1259060" d="M93.041,402.764H83.735a1.612,1.612,0,0,1-1.61-1.61v-5.665a.989.989,0,0,1,.989-.989H93.663a.989.989,0,0,1,.989.989v5.665A1.612,1.612,0,0,1,93.041,402.764ZM84.1,400.786h8.571v-4.308H84.1Z" transform="translate(-71.296 -342.481)"/>
      </g>
    </g>
  </g>
</svg>
