<svg xmlns="http://www.w3.org/2000/svg" xmlns:xlink="http://www.w3.org/1999/xlink" width="119.053" height="119.054" viewBox="0 0 119.053 119.054">
  <defs>
    <filter id="Path_874925" x="0" y="0" width="119.053" height="119.054" filterUnits="userSpaceOnUse">
      <feOffset dy="3" input="SourceAlpha"/>
      <feGaussianBlur stdDeviation="3" result="blur"/>
      <feFlood flood-opacity="0.161"/>
      <feComposite operator="in" in2="blur"/>
      <feComposite in="SourceGraphic"/>
    </filter>
  </defs>
  <g id="Group_1204030" data-name="Group 1204030" transform="translate(-5730 9910)">
    <g id="Group_1203827" data-name="Group 1203827" transform="translate(5454 -16154.874)">
      <g id="Group_1200232" data-name="Group 1200232" transform="translate(285 6250.874)">
        <g id="Group_1187153" data-name="Group 1187153">
          <g id="Group_1182177" data-name="Group 1182177">
            <g id="Group_1181903" data-name="Group 1181903">
              <g id="Group_1181438" data-name="Group 1181438">
                <g id="Group_1111314" data-name="Group 1111314">
                  <g transform="matrix(1, 0, 0, 1, -9, -6)" filter="url(#Path_874925)">
                    <g id="Path_874925-2" data-name="Path 874925" transform="translate(9 6)" fill="#ef8c1a">
                      <path d="M 50.52651596069336 99.55361938476562 C 43.90731430053711 99.55361938476562 37.48691558837891 98.25757598876953 31.44364547729492 95.70149230957031 C 25.60577392578125 93.23227691650391 20.36252975463867 89.69707489013672 15.85953044891357 85.194091796875 C 11.35654449462891 80.69109344482422 7.821344375610352 75.44783782958984 5.35213041305542 69.60997772216797 C 2.796044588088989 63.56670761108398 1.500001668930054 57.14628982543945 1.500001668930054 50.52709197998047 C 1.500001668930054 43.90732192993164 2.796044588088989 37.48691940307617 5.35213041305542 31.44364929199219 C 7.821344375610352 25.60577774047852 11.35654449462891 20.36253356933594 15.85953044891357 15.85953426361084 C 20.36252975463867 11.35654830932617 25.60577392578125 7.821348667144775 31.44364547729492 5.352134227752686 C 37.48691558837891 2.796048641204834 43.90731430053711 1.500005841255188 50.52651596069336 1.500005841255188 C 57.14571762084961 1.500005841255188 63.56611633300781 2.796048641204834 69.60939025878906 5.352134227752686 C 75.44724273681641 7.821348667144775 80.69049835205078 11.35654830932617 85.19348907470703 15.85953426361084 C 89.69648742675781 20.36253356933594 93.231689453125 25.60577774047852 95.70090484619141 31.44364929199219 C 98.25698852539062 37.48691940307617 99.55303192138672 43.90732192993164 99.55303192138672 50.52651977539062 C 99.55303192138672 57.14628982543945 98.25698852539062 63.56670761108398 95.70090484619141 69.60997772216797 C 93.231689453125 75.44783782958984 89.69648742675781 80.69109344482422 85.19348907470703 85.194091796875 C 80.69049835205078 89.69707489013672 75.44724273681641 93.23227691650391 69.60939025878906 95.70149230957031 C 63.56611633300781 98.25757598876953 57.14571762084961 99.55361938476562 50.52651596069336 99.55361938476562 Z" stroke="none"/>
                      <path d="M 50.52651596069336 2.999992370605469 C 44.10914611816406 2.999992370605469 37.88534545898438 4.256172180175781 32.02796173095703 6.733619689941406 C 26.36890411376953 9.127204895019531 21.28591918945312 12.55446624755859 16.92019653320312 16.92018890380859 C 12.55446624755859 21.28591156005859 9.127204895019531 26.368896484375 6.733627319335938 32.02796173095703 C 4.256179809570312 37.88534545898438 2.999992370605469 44.10914611816406 2.999992370605469 50.527099609375 C 2.999992370605469 56.94446563720703 4.256179809570312 63.16826629638672 6.733627319335938 69.025634765625 C 9.127204895019531 74.68471527099609 12.55446624755859 79.7677001953125 16.92019653320312 84.1334228515625 C 21.28591918945312 88.4991455078125 26.36890411376953 91.9263916015625 32.02796173095703 94.31997680664062 C 37.88534545898438 96.79743957519531 44.10914611816406 98.05360412597656 50.52651596069336 98.05360412597656 C 56.94387054443359 98.05360412597656 63.16768646240234 96.79743957519531 69.02505493164062 94.31997680664062 C 74.68411254882812 91.9263916015625 79.76712036132812 88.4991455078125 84.13282775878906 84.1334228515625 C 88.49855041503906 79.7677001953125 91.92581176757812 74.68471527099609 94.31938934326172 69.025634765625 C 96.79683685302734 63.16826629638672 98.05302429199219 56.94446563720703 98.05302429199219 50.52651214599609 C 98.05302429199219 44.10914611816406 96.79683685302734 37.88534545898438 94.31938934326172 32.02796173095703 C 91.92581176757812 26.368896484375 88.49855041503906 21.28591156005859 84.13282775878906 16.92018890380859 C 79.76712036132812 12.55446624755859 74.68411254882812 9.127204895019531 69.02505493164062 6.733619689941406 C 63.16768646240234 4.256172180175781 56.94387054443359 2.999992370605469 50.52651596069336 2.999992370605469 M 50.52651596069336 -7.62939453125e-06 C 78.43153381347656 -7.62939453125e-06 101.0530242919922 22.62148284912109 101.0530242919922 50.52651214599609 L 101.0530242919922 50.527099609375 C 101.0530242919922 78.43212890625 78.43153381347656 101.0536041259766 50.52651596069336 101.0536041259766 C 22.62148284912109 101.0536041259766 -7.62939453125e-06 78.43212890625 -7.62939453125e-06 50.527099609375 L -7.62939453125e-06 50.52651214599609 C -7.62939453125e-06 22.62148284912109 22.62148284912109 -7.62939453125e-06 50.52651596069336 -7.62939453125e-06 Z" stroke="none" fill="#fff"/>
                    </g>
                  </g>
                </g>
              </g>
            </g>
          </g>
        </g>
      </g>
    </g>
    <g id="monitoreo-ambiental" transform="translate(5760.004 -9892.589)">
      <g id="Group_1204033" data-name="Group 1204033" transform="translate(1.91 11.503)">
        <g id="Group_1204028" data-name="Group 1204028" transform="translate(0 0)">
          <path id="Path_1259091" data-name="Path 1259091" d="M140.145,331.852l-17.621.226-3.915,6.718a.411.411,0,0,0,.356.619h24.872a.411.411,0,0,0,.356-.619Z" transform="translate(-106.038 -296.074)" fill="#003748" fill-rule="evenodd"/>
          <path id="Path_1259092" data-name="Path 1259092" d="M291.814,331.852l-2.038.026,4.031,6.918a.411.411,0,0,1-.356.619h2.054a.411.411,0,0,0,.356-.619Z" transform="translate(-257.707 -296.074)" fill="#00242f" fill-rule="evenodd"/>
          <path id="Path_1259093" data-name="Path 1259093" d="M57.076,18.595a2.656,2.656,0,0,1,2.648,2.648V52.094a2.656,2.656,0,0,1-2.648,2.648H11.647A2.656,2.656,0,0,1,9,52.094V21.243a2.656,2.656,0,0,1,2.648-2.648Z" transform="translate(-8.999 -18.595)" fill="#e5f7ff" fill-rule="evenodd"/>
          <path id="Path_1259094" data-name="Path 1259094" d="M406.042,18.595a2.656,2.656,0,0,1,2.648,2.648V52.094a2.656,2.656,0,0,1-2.648,2.648h-3.081a2.656,2.656,0,0,0,2.648-2.648V21.243a2.656,2.656,0,0,0-2.648-2.648Z" transform="translate(-357.966 -18.595)" fill="#cff0ff" fill-rule="evenodd"/>
          <path id="Path_1259095" data-name="Path 1259095" d="M59.724,305.248H9v1.786a2.656,2.656,0,0,0,2.648,2.648H57.076a2.656,2.656,0,0,0,2.648-2.648Z" transform="translate(-8.999 -272.508)" fill="#004960" fill-rule="evenodd"/>
          <path id="Path_1259096" data-name="Path 1259096" d="M408.69,305.248h-3.08v1.786a2.656,2.656,0,0,1-2.648,2.648h3.081a2.656,2.656,0,0,0,2.648-2.648Z" transform="translate(-357.966 -272.508)" fill="#003748" fill-rule="evenodd"/>
        </g>
        <g id="Group_1204029" data-name="Group 1204029" transform="translate(3.208 2.927)">
          <path id="Path_1259097" data-name="Path 1259097" d="M45.931,71.3H37.768a.687.687,0,0,1-.685-.685V67.677a.687.687,0,0,1,.685-.685h8.163a.687.687,0,0,1,.685.685V70.61A.687.687,0,0,1,45.931,71.3ZM70.98,44.222h8.163a.687.687,0,0,1,.685.685V47.84a.687.687,0,0,1-.685.685H70.98a.687.687,0,0,1-.685-.685V44.907A.687.687,0,0,1,70.98,44.222Z" transform="translate(-37.083 -44.222)" fill="#fb685b" fill-rule="evenodd"/>
          <path id="Path_1259098" data-name="Path 1259098" d="M45.931,71.3H37.768a.687.687,0,0,1-.685-.685v-.457h7.706a.687.687,0,0,0,.685-.685V66.992h.457a.687.687,0,0,1,.685.685V70.61A.687.687,0,0,1,45.931,71.3ZM78.686,44.222h.457a.687.687,0,0,1,.685.685V47.84a.687.687,0,0,1-.685.685H70.98a.687.687,0,0,1-.685-.685v-.457H78a.687.687,0,0,0,.685-.685Z" transform="translate(-37.083 -44.222)" fill="#f25244" fill-rule="evenodd"/>
        </g>
        <g id="Group_1204030-2" data-name="Group 1204030" transform="translate(9.684 6.177)">
          <path id="Path_1259099" data-name="Path 1259099" d="M93.791,72.678c9.887.819,13.579,6.559,10.294,9.968C94.912,87.094,97.256,75.146,93.791,72.678Zm26.247,5.811c-9.917-.257-14.209,5.049-11.314,8.794C117.361,92.7,116.326,80.567,120.038,78.489Z" transform="translate(-93.791 -72.678)" fill="#72d461" fill-rule="evenodd"/>
          <path id="Path_1259100" data-name="Path 1259100" d="M93.791,72.678q.509.042,1,.1c2.08,3.817,1.187,12.7,9.3,8.768a4.01,4.01,0,0,0,1.129-2.2,3.844,3.844,0,0,1-1.129,3.295c-9.174,4.449-6.83-7.5-10.294-9.968Zm26.247,5.811c-.384-.01-.759-.011-1.126,0-2.475,3.575-2.556,12.486-10.188,7.7a4.118,4.118,0,0,1-.846-1.907,3.883,3.883,0,0,0,.846,3C117.361,92.7,116.326,80.567,120.038,78.489Z" transform="translate(-93.791 -72.678)" fill="#57c95a" fill-rule="evenodd"/>
        </g>
        <g id="Group_1204031" data-name="Group 1204031" transform="translate(30.652 19.342)">
          <path id="Path_1259101" data-name="Path 1259101" d="M409.259,359.349l2.23-1.388-2.565-4.442L406.6,354.75Z" transform="translate(-391.843 -334.608)" fill="#b3d1d6" fill-rule="evenodd"/>
          <path id="Path_1259102" data-name="Path 1259102" d="M409.259,364.691l2.23-1.388-.014-.024-1.248.777-2.6-4.506-1.022.542Z" transform="translate(-391.843 -339.949)" fill="#9ab8c2" fill-rule="evenodd"/>
          <circle id="Ellipse_12751" data-name="Ellipse 12751" cx="10.995" cy="10.995" r="10.995" fill="#64b4f5"/>
          <path id="Path_1259103" data-name="Path 1259103" d="M318.883,206.755a10.995,10.995,0,1,1-14.431,16.49,10.994,10.994,0,0,0,14.431-16.49Z" transform="translate(-301.359 -204.606)" fill="#42a4f4" fill-rule="evenodd"/>
          <circle id="Ellipse_12752" data-name="Ellipse 12752" cx="8.103" cy="8.103" r="8.103" transform="matrix(0.16, -0.987, 0.987, 0.16, 1.69, 17.694)" fill="#e5f7ff"/>
          <path id="Path_1259104" data-name="Path 1259104" d="M310.794,213.26a8.086,8.086,0,0,1,6.224,2.914,8.1,8.1,0,0,0-11.412,11.412,8.1,8.1,0,0,1,5.189-14.326Z" transform="translate(-299.799 -210.368)" fill="#cff0ff" fill-rule="evenodd"/>
          <path id="Path_1259105" data-name="Path 1259105" d="M421.724,380.844l-3.654,2.11a.213.213,0,0,0-.078.29l5.354,9.273a2.322,2.322,0,0,0,4.021-2.322l-5.354-9.273A.213.213,0,0,0,421.724,380.844Z" transform="translate(-401.906 -358.786)" fill="#8c9ba7" fill-rule="evenodd"/>
          <path id="Path_1259106" data-name="Path 1259106" d="M419.1,394.34l-1.028.593a.212.212,0,0,0-.078.29l5.354,9.273a2.328,2.328,0,0,0,3.172.85,2.3,2.3,0,0,0,.475-.364,2.331,2.331,0,0,1-2.619-1.079l-5.354-9.273A.212.212,0,0,1,419.1,394.34Z" transform="translate(-401.906 -370.766)" fill="#7a8b97" fill-rule="evenodd"/>
          <path id="Path_1259107" data-name="Path 1259107" d="M418.069,382.953a.212.212,0,0,0-.078.29l1.389,2.406,4.021-2.322-1.389-2.406a.213.213,0,0,0-.29-.078Z" transform="translate(-401.906 -358.786)" fill="#7a8b97" fill-rule="evenodd"/>
          <path id="Path_1259108" data-name="Path 1259108" d="M418.069,394.933a.212.212,0,0,0-.078.29l1.389,2.406,1.028-.593-1.389-2.406a.213.213,0,0,1,.078-.29Z" transform="translate(-401.906 -370.766)" fill="#596c76" fill-rule="evenodd"/>
        </g>
        <g id="Group_1204032" data-name="Group 1204032" transform="translate(37.137 25.827)">
          <path id="Path_1259109" data-name="Path 1259109" d="M347.131,250.136a4.507,4.507,0,1,1-4.216,2.907,1.8,1.8,0,0,0,2.5-2.568,4.5,4.5,0,0,1,1.719-.339Z" transform="translate(-341.653 -249.518)" fill="#cff0ff" fill-rule="evenodd"/>
          <path id="Path_1259110" data-name="Path 1259110" d="M338.659,244.721a4.507,4.507,0,1,1-4.216,2.907,1.8,1.8,0,0,0,2.5-2.568A4.5,4.5,0,0,1,338.659,244.721Z" transform="translate(-334.149 -244.721)" fill="#64b4f5" fill-rule="evenodd"/>
          <path id="Path_1259111" data-name="Path 1259111" d="M347.44,251.737a4.51,4.51,0,1,1-6.275,6.275,4.51,4.51,0,0,0,6.275-6.275Z" transform="translate(-340.364 -250.936)" fill="#42a4f4" fill-rule="evenodd"/>
        </g>
      </g>
      <path id="Path_1259112" data-name="Path 1259112" d="M43.556,45.436a3.6,3.6,0,0,1-3.6-3.6c0-.115.005-.231.017-.345a2.677,2.677,0,0,0,.479.044,2.717,2.717,0,0,0,2.714-2.715,2.8,2.8,0,0,0-.056-.553,3.83,3.83,0,0,1,.443-.026,3.6,3.6,0,1,1,0,7.192Zm0-9.02a5.4,5.4,0,0,0-2.067.408.914.914,0,0,0-.353,1.431.868.868,0,0,1,.206.568.888.888,0,0,1-.887.887.878.878,0,0,1-.549-.191.913.913,0,0,0-1.42.393,5.424,5.424,0,1,0,5.07-3.5ZM6.03,38.114h7.706V40.59H6.03Zm-.228,4.3h8.163a1.6,1.6,0,0,0,1.6-1.6v-.553h3.043a.912.912,0,0,0,.87-.636l1.86-5.837a.914.914,0,1,0-1.741-.555l-1.657,5.2H15.564v-.553a1.6,1.6,0,0,0-1.6-1.6H5.8a1.6,1.6,0,0,0-1.6,1.6v2.933a1.6,1.6,0,0,0,1.6,1.6ZM39.242,15.344h7.706V17.82H39.242ZM30.81,22.309a.9.9,0,0,0,.481.138.911.911,0,0,0,.777-.432L34.879,17.5h2.536v.553a1.6,1.6,0,0,0,1.6,1.6h8.163a1.6,1.6,0,0,0,1.6-1.6V15.116a1.6,1.6,0,0,0-1.6-1.6H39.014a1.6,1.6,0,0,0-1.6,1.6v.553H34.371a.915.915,0,0,0-.776.431L30.516,21.05A.914.914,0,0,0,30.81,22.309Zm-8.879,1.479a2.866,2.866,0,0,1-.1,2.4,10.063,10.063,0,0,0-3.73-3.505.913.913,0,0,0-.814,1.636A8.331,8.331,0,0,1,20.374,27.3a4.088,4.088,0,0,1-3.07.193c-1.452-.673-2.04-2.967-2.607-5.186a20.562,20.562,0,0,0-1.1-3.46c5.056.861,7.64,3.109,8.33,4.937ZM26.9,28.442c.883-1.742,3.695-3.7,8.815-4a20.456,20.456,0,0,0-1.464,3.32c-.807,2.144-1.639,4.361-3.155,4.874a4.124,4.124,0,0,1-3.071-.546,9.39,9.39,0,0,1,3.433-2.607.914.914,0,0,0-.632-1.714,11.169,11.169,0,0,0-4.1,3.055,2.864,2.864,0,0,1,.17-2.377ZM11.063,18.424a.914.914,0,0,1,.606-1.655c7.281.6,10.958,3.688,11.971,6.373a4.719,4.719,0,0,1-.793,4.8,23.429,23.429,0,0,1,1.91,5.474c.229-.359.469-.709.717-1.049a4.707,4.707,0,0,1-.2-4.749c1.3-2.559,5.289-5.23,12.589-5.038a.913.913,0,0,1,.424,1.71c-.985.552-1.665,2.362-2.323,4.113-.91,2.424-1.943,5.172-4.28,5.962a4.234,4.234,0,0,1-1.356.217,7.409,7.409,0,0,1-3.465-1.041,18.436,18.436,0,0,0-1.672,2.829.932.932,0,0,1-.122.265,13.672,13.672,0,0,0-.855,2.435.914.914,0,0,1-.888.7.9.9,0,0,1-.213-.025.913.913,0,0,1-.675-1.1,15.356,15.356,0,0,1,.927-2.668,23.67,23.67,0,0,0-2.077-7.063,7.947,7.947,0,0,1-2.893.636,4.362,4.362,0,0,1-1.858-.392c-2.239-1.038-2.968-3.882-3.61-6.392-.465-1.811-.945-3.684-1.864-4.339Zm32.492,30.6a7.19,7.19,0,1,0-7.19-7.19A7.2,7.2,0,0,0,43.556,49.029Zm0-16.207a9.017,9.017,0,1,0,9.017,9.017,9.027,9.027,0,0,0-9.017-9.017Zm13.159,31.81a1.408,1.408,0,0,1-1.923-.515l-3.507-6.075,2.44-1.408,3.506,6.075A1.409,1.409,0,0,1,56.714,64.632ZM52.228,54.044l.582,1.007L50.371,56.46l-.582-1.007Zm-2.377-2.1.59,1.022-.691.4-.589-1.021q.351-.188.69-.4Zm-16.375-10.1a10.082,10.082,0,1,0,10.08-10.081A10.091,10.091,0,0,0,33.476,41.839ZM38.833,53.93H15.709l2.53-4.34H34.523a11.988,11.988,0,0,0,3.368,2.722Zm-36.01-7.9v-.872H32.118a11.808,11.808,0,0,0,1.109,2.606H4.557a1.736,1.736,0,0,1-1.734-1.734ZM4.557,12.417a1.736,1.736,0,0,0-1.734,1.735V43.329H31.74a11.9,11.9,0,0,1,19.981-10.15V14.151a1.737,1.737,0,0,0-1.735-1.735ZM58.815,61.795,53.45,52.51a1.1,1.1,0,0,0-1.422-.453l-.7-1.2a11.888,11.888,0,0,0,2.217-15.485V14.151a3.567,3.567,0,0,0-3.561-3.562H4.557A3.566,3.566,0,0,0,1,14.151V46.029A3.565,3.565,0,0,0,4.557,49.59H16.124l-2.433,4.174a1.305,1.305,0,0,0-.008,1.322,1.335,1.335,0,0,0,1.153.671H39.707a1.335,1.335,0,0,0,1.154-.671,1.308,1.308,0,0,0-.008-1.322l-.223-.38a11.938,11.938,0,0,0,6.847-.3l.692,1.2a1.112,1.112,0,0,0-.321,1.462l5.36,9.286a3.237,3.237,0,0,0,5.607-3.236Z" fill-rule="evenodd"/>
    </g>
  </g>
</svg>
