<svg xmlns="http://www.w3.org/2000/svg" xmlns:xlink="http://www.w3.org/1999/xlink" width="119.053" height="119.054" viewBox="0 0 119.053 119.054">
  <defs>
    <filter id="Path_874925" x="0" y="0" width="119.053" height="119.054" filterUnits="userSpaceOnUse">
      <feOffset dy="3" input="SourceAlpha"/>
      <feGaussianBlur stdDeviation="3" result="blur"/>
      <feFlood flood-opacity="0.161"/>
      <feComposite operator="in" in2="blur"/>
      <feComposite in="SourceGraphic"/>
    </filter>
  </defs>
  <g id="Group_1203471" data-name="Group 1203471" transform="translate(-1160.524 -649.675)">
    <g id="Group_1203354" data-name="Group 1203354" transform="translate(884.524 -5595.199)">
      <g id="Group_1200232" data-name="Group 1200232" transform="translate(285 6250.874)">
        <g id="Group_1187153" data-name="Group 1187153">
          <g id="Group_1182177" data-name="Group 1182177">
            <g id="Group_1181903" data-name="Group 1181903">
              <g id="Group_1181438" data-name="Group 1181438">
                <g id="Group_1111314" data-name="Group 1111314">
                  <g transform="matrix(1, 0, 0, 1, -9, -6)" filter="url(#Path_874925)">
                    <g id="Path_874925-2" data-name="Path 874925" transform="translate(9 6)" fill="#ef8c1a">
                      <path d="M 50.52651596069336 99.55361938476562 C 43.90731430053711 99.55361938476562 37.48691558837891 98.25757598876953 31.44364547729492 95.70149230957031 C 25.60577392578125 93.23227691650391 20.36252975463867 89.69707489013672 15.85953044891357 85.194091796875 C 11.35654449462891 80.69109344482422 7.821344375610352 75.44783782958984 5.35213041305542 69.60997772216797 C 2.796044588088989 63.56670761108398 1.500001668930054 57.14628982543945 1.500001668930054 50.52709197998047 C 1.500001668930054 43.90732192993164 2.796044588088989 37.48691940307617 5.35213041305542 31.44364929199219 C 7.821344375610352 25.60577774047852 11.35654449462891 20.36253356933594 15.85953044891357 15.85953426361084 C 20.36252975463867 11.35654830932617 25.60577392578125 7.821348667144775 31.44364547729492 5.352134227752686 C 37.48691558837891 2.796048641204834 43.90731430053711 1.500005841255188 50.52651596069336 1.500005841255188 C 57.14571762084961 1.500005841255188 63.56611633300781 2.796048641204834 69.60939025878906 5.352134227752686 C 75.44724273681641 7.821348667144775 80.69049835205078 11.35654830932617 85.19348907470703 15.85953426361084 C 89.69648742675781 20.36253356933594 93.231689453125 25.60577774047852 95.70090484619141 31.44364929199219 C 98.25698852539062 37.48691940307617 99.55303192138672 43.90732192993164 99.55303192138672 50.52651977539062 C 99.55303192138672 57.14628982543945 98.25698852539062 63.56670761108398 95.70090484619141 69.60997772216797 C 93.231689453125 75.44783782958984 89.69648742675781 80.69109344482422 85.19348907470703 85.194091796875 C 80.69049835205078 89.69707489013672 75.44724273681641 93.23227691650391 69.60939025878906 95.70149230957031 C 63.56611633300781 98.25757598876953 57.14571762084961 99.55361938476562 50.52651596069336 99.55361938476562 Z" stroke="none"/>
                      <path d="M 50.52651596069336 2.999992370605469 C 44.10914611816406 2.999992370605469 37.88534545898438 4.256172180175781 32.02796173095703 6.733619689941406 C 26.36890411376953 9.127204895019531 21.28591918945312 12.55446624755859 16.92019653320312 16.92018890380859 C 12.55446624755859 21.28591156005859 9.127204895019531 26.368896484375 6.733627319335938 32.02796173095703 C 4.256179809570312 37.88534545898438 2.999992370605469 44.10914611816406 2.999992370605469 50.527099609375 C 2.999992370605469 56.94446563720703 4.256179809570312 63.16826629638672 6.733627319335938 69.025634765625 C 9.127204895019531 74.68471527099609 12.55446624755859 79.7677001953125 16.92019653320312 84.1334228515625 C 21.28591918945312 88.4991455078125 26.36890411376953 91.9263916015625 32.02796173095703 94.31997680664062 C 37.88534545898438 96.79743957519531 44.10914611816406 98.05360412597656 50.52651596069336 98.05360412597656 C 56.94387054443359 98.05360412597656 63.16768646240234 96.79743957519531 69.02505493164062 94.31997680664062 C 74.68411254882812 91.9263916015625 79.76712036132812 88.4991455078125 84.13282775878906 84.1334228515625 C 88.49855041503906 79.7677001953125 91.92581176757812 74.68471527099609 94.31938934326172 69.025634765625 C 96.79683685302734 63.16826629638672 98.05302429199219 56.94446563720703 98.05302429199219 50.52651214599609 C 98.05302429199219 44.10914611816406 96.79683685302734 37.88534545898438 94.31938934326172 32.02796173095703 C 91.92581176757812 26.368896484375 88.49855041503906 21.28591156005859 84.13282775878906 16.92018890380859 C 79.76712036132812 12.55446624755859 74.68411254882812 9.127204895019531 69.02505493164062 6.733619689941406 C 63.16768646240234 4.256172180175781 56.94387054443359 2.999992370605469 50.52651596069336 2.999992370605469 M 50.52651596069336 -7.62939453125e-06 C 78.43153381347656 -7.62939453125e-06 101.0530242919922 22.62148284912109 101.0530242919922 50.52651214599609 L 101.0530242919922 50.527099609375 C 101.0530242919922 78.43212890625 78.43153381347656 101.0536041259766 50.52651596069336 101.0536041259766 C 22.62148284912109 101.0536041259766 -7.62939453125e-06 78.43212890625 -7.62939453125e-06 50.527099609375 L -7.62939453125e-06 50.52651214599609 C -7.62939453125e-06 22.62148284912109 22.62148284912109 -7.62939453125e-06 50.52651596069336 -7.62939453125e-06 Z" stroke="none" fill="#fff"/>
                    </g>
                  </g>
                </g>
              </g>
            </g>
          </g>
        </g>
      </g>
    </g>
    <g id="tecnicas" transform="translate(1188.051 674)">
      <g id="Group_1203874" data-name="Group 1203874">
        <g id="Group_1203866" data-name="Group 1203866">
          <path id="Path_1258578" data-name="Path 1258578" d="M54,26.96V56a2.006,2.006,0,0,1-2,2H32a4,4,0,1,1-8,0H4a2.006,2.006,0,0,1-2-2V22H6V54H50V30h1l.65-2.57a11.909,11.909,0,0,0,1.84-.77Z" fill="#ff826e"/>
        </g>
        <g id="Group_1203867" data-name="Group 1203867">
          <path id="Path_1258579" data-name="Path 1258579" d="M45,30l-.65-2.57a11.909,11.909,0,0,1-1.84-.77l-2.29,1.36-4.24-4.24,1.36-2.29a11.91,11.91,0,0,1-.77-1.84L34,19V16H32a4,4,0,0,0-4,4,4,4,0,0,0-4-4H20a2.006,2.006,0,0,1-2,2H16v2.59a1.414,1.414,0,0,1-2.41,1L10,18H6V54H50V30Z" fill="#e6e9ed"/>
        </g>
        <g id="Group_1203868" data-name="Group 1203868">
          <path id="Path_1258580" data-name="Path 1258580" d="M32,38H46v8H32Z" fill="#4fc1e9"/>
        </g>
        <g id="Group_1203869" data-name="Group 1203869">
          <path id="Path_1258581" data-name="Path 1258581" d="M2,16V8A2.006,2.006,0,0,1,4,6H18a2.006,2.006,0,0,1,2,2v8a2.006,2.006,0,0,1-2,2H16v2.59a1.414,1.414,0,0,1-2.41,1L10,18H4A2.006,2.006,0,0,1,2,16Z" fill="#ffeaa7"/>
        </g>
        <g id="Group_1203870" data-name="Group 1203870">
          <path id="Path_1258582" data-name="Path 1258582" d="M24,43v3H10V43a7,7,0,1,1,14,0Z" fill="#b4dd7f"/>
        </g>
        <g id="Group_1203871" data-name="Group 1203871">
          <circle id="Ellipse_12725" data-name="Ellipse 12725" cx="4" cy="4" r="4" transform="translate(13 28)" fill="#f0d0b4"/>
        </g>
        <g id="Group_1203872" data-name="Group 1203872">
          <path id="Path_1258583" data-name="Path 1258583" d="M34,16V13l2.57-.65a11.909,11.909,0,0,1,.77-1.84L35.98,8.22l4.24-4.24,2.29,1.36a11.909,11.909,0,0,1,1.84-.77L45,2h6l.65,2.57a11.909,11.909,0,0,1,1.84.77l2.29-1.36,4.24,4.24-1.36,2.29a11.909,11.909,0,0,1,.77,1.84L62,13v6l-2.57.65a11.91,11.91,0,0,1-.77,1.84l1.36,2.29-4.24,4.24L54,26.96l-.51-.3a11.91,11.91,0,0,1-1.84.77L51,30H45l-.65-2.57a11.909,11.909,0,0,1-1.84-.77l-2.29,1.36-4.24-4.24,1.36-2.29a11.91,11.91,0,0,1-.77-1.84L34,19Zm22,0a8,8,0,1,0-8,8A8,8,0,0,0,56,16Z" fill="#ffc729"/>
        </g>
        <g id="Group_1203873" data-name="Group 1203873">
          <path id="Path_1258584" data-name="Path 1258584" d="M48,8a8,8,0,1,1-8,8A8,8,0,0,1,48,8Zm4,8a4,4,0,1,0-4,4A4,4,0,0,0,52,16Z" fill="#fcd770"/>
        </g>
      </g>
      <g id="Group_1203875" data-name="Group 1203875">
        <path id="Path_1258585" data-name="Path 1258585" d="M63,19.777V12.222l-2.8-.713c-.119-.318-.252-.639-.4-.956l1.48-2.489L55.936,2.722,53.447,4.2c-.317-.147-.637-.281-.956-.4L51.777,1H44.222L43.51,3.8c-.319.119-.639.253-.956.4L40.065,2.723,34.723,8.065l1.48,2.489c-.147.317-.281.638-.4.956l-2.8.713V15H32a4.982,4.982,0,0,0-4,2.031A4.982,4.982,0,0,0,24,15H21V8a3,3,0,0,0-3-3H4A3,3,0,0,0,1,8v8a3,3,0,0,0,3,3H5v2H1V56a3,3,0,0,0,3,3H23.1a5,5,0,0,0,9.8,0H52a3,3,0,0,0,3-3V28.721l.936.556,5.342-5.342L59.8,21.446c.147-.317.281-.638.4-.956ZM32,17h1v2.777l2.8.713c.119.318.252.639.4.956l-1.48,2.489,5.342,5.342L42.553,27.8c.317.147.637.281.956.4l.714,2.8H49V53H29V20a3,3,0,0,1,3-3ZM3,16V8A1,1,0,0,1,4,7H18a1,1,0,0,1,1,1v8a1,1,0,0,1-1,1H15v3.586a.43.43,0,0,1-.707.293L10.414,17H4a1,1,0,0,1-1-1Zm6.586,3,3.293,3.294A2.415,2.415,0,0,0,17,20.586V19h1a3,3,0,0,0,2.816-2H24a3,3,0,0,1,3,3V53H7V19ZM52,57H31v1a3,3,0,0,1-6,0V57H4a1,1,0,0,1-1-1V23H5V55H51V31h.777l.713-2.8c.17-.064.34-.142.51-.214V56A1,1,0,0,1,52,57Zm6.764-33.379-3.143,3.143-2.1-1.246-.493.256a11.006,11.006,0,0,1-1.683.7l-.528.168L50.223,29H45.778l-.6-2.354-.528-.168a11.006,11.006,0,0,1-1.683-.7l-.493-.256-2.1,1.246-3.143-3.143,1.246-2.095-.254-.492a10.977,10.977,0,0,1-.7-1.686l-.169-.528L35,18.223V13.778l2.354-.6.169-.528a10.978,10.978,0,0,1,.7-1.686l.254-.492-1.246-2.1,3.143-3.143,2.1,1.246.493-.256a11.006,11.006,0,0,1,1.683-.7l.528-.168L45.777,3h4.445l.6,2.354.528.168a11.006,11.006,0,0,1,1.683.7l.493.256,2.1-1.246,3.143,3.143-1.246,2.1.254.492a10.978,10.978,0,0,1,.7,1.686l.169.528,2.355.6v4.445l-2.354.6-.169.528a10.978,10.978,0,0,1-.7,1.686l-.254.492Z"/>
        <path id="Path_1258586" data-name="Path 1258586" d="M48,7a9,9,0,1,0,9,9A9.01,9.01,0,0,0,48,7Zm0,16a7,7,0,1,1,7-7A7.008,7.008,0,0,1,48,23Z"/>
        <path id="Path_1258587" data-name="Path 1258587" d="M48,11a5,5,0,1,0,5,5A5.006,5.006,0,0,0,48,11Zm0,8a3,3,0,1,1,3-3A3,3,0,0,1,48,19Z"/>
        <path id="Path_1258588" data-name="Path 1258588" d="M25,43a8.005,8.005,0,0,0-4.695-7.277,5,5,0,1,0-6.61,0A8.005,8.005,0,0,0,9,43v4H25ZM14,32a3,3,0,1,1,3,3A3,3,0,0,1,14,32Zm9,13H11V43a6,6,0,0,1,12,0Z"/>
        <path id="Path_1258589" data-name="Path 1258589" d="M5,9H17v2H5Z"/>
        <path id="Path_1258590" data-name="Path 1258590" d="M5,13h8v2H5Z"/>
        <path id="Path_1258591" data-name="Path 1258591" d="M15,13h2v2H15Z"/>
        <path id="Path_1258592" data-name="Path 1258592" d="M47,37H31V47H47Zm-2,8H33V39H45Z"/>
        <path id="Path_1258593" data-name="Path 1258593" d="M31,33h2v2H31Z"/>
        <path id="Path_1258594" data-name="Path 1258594" d="M35,33H47v2H35Z"/>
        <path id="Path_1258595" data-name="Path 1258595" d="M31,29h6v2H31Z"/>
        <path id="Path_1258596" data-name="Path 1258596" d="M21,19h4v2H21Z"/>
        <path id="Path_1258597" data-name="Path 1258597" d="M19,23h6v2H19Z"/>
        <path id="Path_1258598" data-name="Path 1258598" d="M45,49h2v2H45Z"/>
        <path id="Path_1258599" data-name="Path 1258599" d="M31,49H43v2H31Z"/>
        <path id="Path_1258600" data-name="Path 1258600" d="M23,49h2v2H23Z"/>
        <path id="Path_1258601" data-name="Path 1258601" d="M9,49H21v2H9Z"/>
      </g>
    </g>
  </g>
</svg>
