<svg xmlns="http://www.w3.org/2000/svg" xmlns:xlink="http://www.w3.org/1999/xlink" width="119.053" height="119.054" viewBox="0 0 119.053 119.054">
  <defs>
    <filter id="Path_874925" x="0" y="0" width="119.053" height="119.054" filterUnits="userSpaceOnUse">
      <feOffset dy="3" input="SourceAlpha"/>
      <feGaussianBlur stdDeviation="3" result="blur"/>
      <feFlood flood-opacity="0.161"/>
      <feComposite operator="in" in2="blur"/>
      <feComposite in="SourceGraphic"/>
    </filter>
  </defs>
  <g id="Group_1203922" data-name="Group 1203922" transform="translate(-740.5 -4772)">
    <g id="Group_1203798" data-name="Group 1203798" transform="translate(464.5 -1472.874)">
      <g id="Group_1200232" data-name="Group 1200232" transform="translate(285 6250.874)">
        <g id="Group_1187153" data-name="Group 1187153">
          <g id="Group_1182177" data-name="Group 1182177">
            <g id="Group_1181903" data-name="Group 1181903">
              <g id="Group_1181438" data-name="Group 1181438">
                <g id="Group_1111314" data-name="Group 1111314">
                  <g transform="matrix(1, 0, 0, 1, -9, -6)" filter="url(#Path_874925)">
                    <g id="Path_874925-2" data-name="Path 874925" transform="translate(9 6)" fill="#ffc94a">
                      <path d="M 50.52651596069336 99.55361938476562 C 43.90731430053711 99.55361938476562 37.48691558837891 98.25757598876953 31.44364547729492 95.70149230957031 C 25.60577392578125 93.23227691650391 20.36252975463867 89.69707489013672 15.85953044891357 85.194091796875 C 11.35654449462891 80.69109344482422 7.821344375610352 75.44783782958984 5.35213041305542 69.60997772216797 C 2.796044588088989 63.56670761108398 1.500001668930054 57.14628982543945 1.500001668930054 50.52709197998047 C 1.500001668930054 43.90732192993164 2.796044588088989 37.48691940307617 5.35213041305542 31.44364929199219 C 7.821344375610352 25.60577774047852 11.35654449462891 20.36253356933594 15.85953044891357 15.85953426361084 C 20.36252975463867 11.35654830932617 25.60577392578125 7.821348667144775 31.44364547729492 5.352134227752686 C 37.48691558837891 2.796048641204834 43.90731430053711 1.500005841255188 50.52651596069336 1.500005841255188 C 57.14571762084961 1.500005841255188 63.56611633300781 2.796048641204834 69.60939025878906 5.352134227752686 C 75.44724273681641 7.821348667144775 80.69049835205078 11.35654830932617 85.19348907470703 15.85953426361084 C 89.69648742675781 20.36253356933594 93.231689453125 25.60577774047852 95.70090484619141 31.44364929199219 C 98.25698852539062 37.48691940307617 99.55303192138672 43.90732192993164 99.55303192138672 50.52651977539062 C 99.55303192138672 57.14628982543945 98.25698852539062 63.56670761108398 95.70090484619141 69.60997772216797 C 93.231689453125 75.44783782958984 89.69648742675781 80.69109344482422 85.19348907470703 85.194091796875 C 80.69049835205078 89.69707489013672 75.44724273681641 93.23227691650391 69.60939025878906 95.70149230957031 C 63.56611633300781 98.25757598876953 57.14571762084961 99.55361938476562 50.52651596069336 99.55361938476562 Z" stroke="none"/>
                      <path d="M 50.52651596069336 2.999992370605469 C 44.10914611816406 2.999992370605469 37.88534545898438 4.256172180175781 32.02796173095703 6.733619689941406 C 26.36890411376953 9.127204895019531 21.28591918945312 12.55446624755859 16.92019653320312 16.92018890380859 C 12.55446624755859 21.28591156005859 9.127204895019531 26.368896484375 6.733627319335938 32.02796173095703 C 4.256179809570312 37.88534545898438 2.999992370605469 44.10914611816406 2.999992370605469 50.527099609375 C 2.999992370605469 56.94446563720703 4.256179809570312 63.16826629638672 6.733627319335938 69.025634765625 C 9.127204895019531 74.68471527099609 12.55446624755859 79.7677001953125 16.92019653320312 84.1334228515625 C 21.28591918945312 88.4991455078125 26.36890411376953 91.9263916015625 32.02796173095703 94.31997680664062 C 37.88534545898438 96.79743957519531 44.10914611816406 98.05360412597656 50.52651596069336 98.05360412597656 C 56.94387054443359 98.05360412597656 63.16768646240234 96.79743957519531 69.02505493164062 94.31997680664062 C 74.68411254882812 91.9263916015625 79.76712036132812 88.4991455078125 84.13282775878906 84.1334228515625 C 88.49855041503906 79.7677001953125 91.92581176757812 74.68471527099609 94.31938934326172 69.025634765625 C 96.79683685302734 63.16826629638672 98.05302429199219 56.94446563720703 98.05302429199219 50.52651214599609 C 98.05302429199219 44.10914611816406 96.79683685302734 37.88534545898438 94.31938934326172 32.02796173095703 C 91.92581176757812 26.368896484375 88.49855041503906 21.28591156005859 84.13282775878906 16.92018890380859 C 79.76712036132812 12.55446624755859 74.68411254882812 9.127204895019531 69.02505493164062 6.733619689941406 C 63.16768646240234 4.256172180175781 56.94387054443359 2.999992370605469 50.52651596069336 2.999992370605469 M 50.52651596069336 -7.62939453125e-06 C 78.43153381347656 -7.62939453125e-06 101.0530242919922 22.62148284912109 101.0530242919922 50.52651214599609 L 101.0530242919922 50.527099609375 C 101.0530242919922 78.43212890625 78.43153381347656 101.0536041259766 50.52651596069336 101.0536041259766 C 22.62148284912109 101.0536041259766 -7.62939453125e-06 78.43212890625 -7.62939453125e-06 50.527099609375 L -7.62939453125e-06 50.52651214599609 C -7.62939453125e-06 22.62148284912109 22.62148284912109 -7.62939453125e-06 50.52651596069336 -7.62939453125e-06 Z" stroke="none" fill="#fff"/>
                    </g>
                  </g>
                </g>
              </g>
            </g>
          </g>
        </g>
      </g>
    </g>
    <g id="Layer_32" data-name="Layer 32" transform="translate(768 4797)">
      <path id="Path_1258765" data-name="Path 1258765" d="M30,39h4V62H30Z" fill="#719301"/>
      <path id="Path_1258766" data-name="Path 1258766" d="M32,39h2V62H32Z" fill="#8dbf00"/>
      <path id="Path_1258767" data-name="Path 1258767" d="M18,50h4a8,8,0,0,1,8,8H26A8,8,0,0,1,18,50Z" transform="translate(48 108) rotate(180)" fill="#8dbf00"/>
      <path id="Path_1258768" data-name="Path 1258768" d="M30,58,18,50h4A8,8,0,0,1,30,58Z" fill="#719301"/>
      <path id="Path_1258769" data-name="Path 1258769" d="M42,50h4a8,8,0,0,1-8,8H34A8,8,0,0,1,42,50Z" fill="#8dbf00"/>
      <path id="Path_1258770" data-name="Path 1258770" d="M47,28a5,5,0,0,0-3.49-4.77,5,5,0,0,0-6.74-6.74,5,5,0,0,0-9.54,0,5,5,0,0,0-6.74,6.74,5,5,0,0,0,0,9.54,5,5,0,0,0,6.74,6.74,5,5,0,0,0,9.54,0,5,5,0,0,0,6.74-6.74A5,5,0,0,0,47,28Z" fill="#d53e7a"/>
      <path id="Path_1258771" data-name="Path 1258771" d="M32,41a2.992,2.992,0,0,1-2.863-2.094l-.719-2.271-2.112,1.1a3,3,0,0,1-4.042-4.042l1.1-2.111-2.27-.72a3,3,0,0,1,0-5.726l2.27-.72-1.1-2.112a3,3,0,0,1,4.042-4.041l2.112,1.1.719-2.271a3,3,0,0,1,5.726,0l.719,2.271,2.112-1.1A3,3,0,0,1,41.736,22.3l-1.1,2.112,2.27.72a3,3,0,0,1,0,5.726l-2.27.72,1.1,2.111a3,3,0,0,1-4.042,4.042l-2.112-1.1-.719,2.271A2.992,2.992,0,0,1,32,41Z" fill="#df5b90"/>
      <path id="Path_1258772" data-name="Path 1258772" d="M34,58l12-8H42A8,8,0,0,0,34,58Z" fill="#719301"/>
      <path id="Path_1258773" data-name="Path 1258773" d="M13.1,40v2H14.87A4.593,4.593,0,0,0,19,39.447l-1.789-.894A2.6,2.6,0,0,1,14.87,40Z" fill="#212121"/>
      <path id="Path_1258774" data-name="Path 1258774" d="M13.1,44v2H14.87a2.6,2.6,0,0,1,2.341,1.447L19,46.553A4.6,4.6,0,0,0,14.87,44Z" fill="#212121"/>
      <circle id="Ellipse_12730" data-name="Ellipse 12730" cx="3" cy="3" r="3" transform="translate(9.105 40)" fill="#683c32"/>
      <path id="Path_1258775" data-name="Path 1258775" d="M7.105,40c-1.656,0-5,3-5,3s3.344,3,5,3a3,3,0,0,0,0-6Z" fill="#fcb732"/>
      <path id="Path_1258776" data-name="Path 1258776" d="M5.605,44.5h3a4,4,0,0,1,4,4h-3a4,4,0,0,1-4-4Z" transform="translate(-37.395 55.605) rotate(-90)" fill="#c1cfe8"/>
      <path id="Path_1258777" data-name="Path 1258777" d="M9.6,37.5h3a4,4,0,0,1-4,4h-3a4,4,0,0,1,4-4Z" transform="translate(48.605 30.395) rotate(90)" fill="#c1cfe8"/>
      <path id="Path_1258778" data-name="Path 1258778" d="M8.1,49.859V48.146a3.991,3.991,0,0,1,3-3.859V46a3.99,3.99,0,0,1-3,3.859Z" fill="#d7e0ef"/>
      <path id="Path_1258779" data-name="Path 1258779" d="M11.1,40v2a3.991,3.991,0,0,1-3-3.858v-2A3.99,3.99,0,0,1,11.1,40Z" fill="#d7e0ef"/>
      <path id="Path_1258780" data-name="Path 1258780" d="M5.105,40.76a4.5,4.5,0,0,1,2-.76v6a4.5,4.5,0,0,1-2-.76Z" fill="#ec8329"/>
      <path id="Path_1258781" data-name="Path 1258781" d="M58,36.9H56V35.13A4.593,4.593,0,0,1,58.553,31l.894,1.789A2.6,2.6,0,0,0,58,35.13Z" fill="#212121"/>
      <path id="Path_1258782" data-name="Path 1258782" d="M54,36.9H52V35.13a2.6,2.6,0,0,0-1.447-2.341L51.447,31A4.6,4.6,0,0,1,54,35.13Z" fill="#212121"/>
      <circle id="Ellipse_12731" data-name="Ellipse 12731" cx="3" cy="3" r="3" transform="translate(52 34.895)" fill="#683c32"/>
      <path id="Path_1258783" data-name="Path 1258783" d="M58,42.9c0,1.656-3,5-3,5s-3-3.344-3-5a3,3,0,1,1,6,0Z" fill="#fcb732"/>
      <path id="Path_1258784" data-name="Path 1258784" d="M52,38.9h3a4,4,0,0,1-4,4H48A4,4,0,0,1,52,38.9Z" fill="#c1cfe8"/>
      <path id="Path_1258785" data-name="Path 1258785" d="M55,38.9h3a4,4,0,0,1,4,4H59A4,4,0,0,1,55,38.9Z" transform="translate(117 81.789) rotate(180)" fill="#c1cfe8"/>
      <path id="Path_1258786" data-name="Path 1258786" d="M48.141,41.9h1.713a3.991,3.991,0,0,0,3.859-3H52a3.99,3.99,0,0,0-3.859,3Z" fill="#d7e0ef"/>
      <path id="Path_1258787" data-name="Path 1258787" d="M58,38.9H56a3.991,3.991,0,0,0,3.858,3h2.005A3.99,3.99,0,0,0,58,38.9Z" fill="#d7e0ef"/>
      <path id="Path_1258788" data-name="Path 1258788" d="M57.24,44.9a4.5,4.5,0,0,0,.76-2H52a4.5,4.5,0,0,0,.76,2Z" fill="#ec8329"/>
      <path id="Path_1258789" data-name="Path 1258789" d="M45,6V8H43.236A4.594,4.594,0,0,1,39.1,5.447l1.79-.894A2.6,2.6,0,0,0,43.236,6Z" fill="#212121"/>
      <path id="Path_1258790" data-name="Path 1258790" d="M45,10v2H43.236A2.6,2.6,0,0,0,40.9,13.447l-1.79-.894A4.6,4.6,0,0,1,43.236,10Z" fill="#212121"/>
      <circle id="Ellipse_12732" data-name="Ellipse 12732" cx="3" cy="3" r="3" transform="translate(43 6)" fill="#683c32"/>
      <path id="Path_1258791" data-name="Path 1258791" d="M51,6c1.657,0,5,3,5,3s-3.343,3-5,3a3,3,0,0,1,0-6Z" fill="#fcb732"/>
      <path id="Path_1258792" data-name="Path 1258792" d="M49.5,10.5h3a4,4,0,0,1-4,4h-3A4,4,0,0,1,49.5,10.5Z" transform="translate(36.5 61.5) rotate(-90)" fill="#c1cfe8"/>
      <path id="Path_1258793" data-name="Path 1258793" d="M45.5,3.5h3a4,4,0,0,1,4,4h-3a4,4,0,0,1-4-4Z" transform="translate(54.5 -43.5) rotate(90)" fill="#c1cfe8"/>
      <path id="Path_1258794" data-name="Path 1258794" d="M50,15.859V14.146a3.991,3.991,0,0,0-3-3.859V12a3.991,3.991,0,0,0,3,3.859Z" fill="#d7e0ef"/>
      <path id="Path_1258795" data-name="Path 1258795" d="M47,6V8a3.991,3.991,0,0,0,3-3.858v-2A3.991,3.991,0,0,0,47,6Z" fill="#d7e0ef"/>
      <path id="Path_1258796" data-name="Path 1258796" d="M53,6.76A4.5,4.5,0,0,0,51,6v6a4.5,4.5,0,0,0,2-.76Z" fill="#ec8329"/>
      <path id="Path_1258797" data-name="Path 1258797" d="M12,7h2V5.236a4.594,4.594,0,0,0-2.553-4.131L10.553,2.9A2.6,2.6,0,0,1,12,5.236Z" fill="#212121"/>
      <path id="Path_1258798" data-name="Path 1258798" d="M16,7h2V5.236A2.6,2.6,0,0,1,19.447,2.9l-.894-1.79A4.6,4.6,0,0,0,16,5.236Z" fill="#212121"/>
      <circle id="Ellipse_12733" data-name="Ellipse 12733" cx="3" cy="3" r="3" transform="translate(12 5)" fill="#683c32"/>
      <path id="Path_1258799" data-name="Path 1258799" d="M12,13c0,1.657,3,5,3,5s3-3.343,3-5a3,3,0,1,0-6,0Z" fill="#fcb732"/>
      <path id="Path_1258800" data-name="Path 1258800" d="M15,9h3a4,4,0,0,1,4,4H19a4,4,0,0,1-4-4Z" transform="translate(37 22) rotate(180)" fill="#c1cfe8"/>
      <path id="Path_1258801" data-name="Path 1258801" d="M12,9h3a4,4,0,0,1-4,4H8a4,4,0,0,1,4-4Z" fill="#c1cfe8"/>
      <path id="Path_1258802" data-name="Path 1258802" d="M21.859,12H20.146a3.991,3.991,0,0,1-3.859-3H18a3.991,3.991,0,0,1,3.859,3Z" fill="#d7e0ef"/>
      <path id="Path_1258803" data-name="Path 1258803" d="M12,9h2a3.991,3.991,0,0,1-3.858,3h-2A3.991,3.991,0,0,1,12,9Z" fill="#d7e0ef"/>
      <path id="Path_1258804" data-name="Path 1258804" d="M12.76,15A4.5,4.5,0,0,1,12,13h6a4.5,4.5,0,0,1-.76,2Z" fill="#ec8329"/>
      <circle id="Ellipse_12734" data-name="Ellipse 12734" cx="5" cy="5" r="5" transform="translate(27 23)" fill="#ffbf3e"/>
      <path id="Path_1258805" data-name="Path 1258805" d="M32.024,23a4.985,4.985,0,0,0,2.952,9,4.985,4.985,0,0,0-2.952-9Z" fill="#ffd180"/>
      <path id="Path_1258806" data-name="Path 1258806" d="M32,22a6,6,0,1,0,6,6,6,6,0,0,0-6-6Zm0,10a4,4,0,1,1,4-4A4,4,0,0,1,32,32Z"/>
      <path id="Path_1258807" data-name="Path 1258807" d="M7,13a1,1,0,0,0,1,1h3c.063,0,.122-.016.185-.019a16.613,16.613,0,0,0,3.071,4.687,1,1,0,0,0,1.488,0,16.613,16.613,0,0,0,3.071-4.687c.063,0,.122.019.185.019h3a1,1,0,0,0,1-1,5.009,5.009,0,0,0-4.008-4.9c0-.033.008-.066.008-.1a3.966,3.966,0,0,0-1-2.618V5.236A2.6,2.6,0,0,1,19.447,2.9l-.894-1.79A4.586,4.586,0,0,0,16.13,4.182a3.6,3.6,0,0,0-2.26,0A4.586,4.586,0,0,0,11.447,1.1L10.553,2.9A2.6,2.6,0,0,1,12,5.236v.146A3.966,3.966,0,0,0,11,8c0,.034.008.067.008.1A5.009,5.009,0,0,0,7,13Zm8,3.451A12.9,12.9,0,0,1,13.14,13.5,5,5,0,0,0,15,11.969a5.017,5.017,0,0,0,1.876,1.54A13.017,13.017,0,0,1,15,16.451ZM20.829,12H19a3.006,3.006,0,0,1-2.829-2H18a3.006,3.006,0,0,1,2.829,2ZM17,8H13a2,2,0,0,1,4,0Zm-5,2h1.829A3.006,3.006,0,0,1,11,12H9.171A3.006,3.006,0,0,1,12,10Z"/>
      <path id="Path_1258808" data-name="Path 1258808" d="M58.992,38.1c0-.033.008-.066.008-.1a3.962,3.962,0,0,0-1-2.618v-.146A2.6,2.6,0,0,1,59.447,32.9l-.894-1.79a4.586,4.586,0,0,0-2.423,3.077,3.6,3.6,0,0,0-2.26,0,4.586,4.586,0,0,0-2.423-3.077l-.894,1.79A2.6,2.6,0,0,1,52,35.236v.146A3.962,3.962,0,0,0,51,38c0,.034.008.067.008.1A5.009,5.009,0,0,0,47,43a1,1,0,0,0,1,1h3c.063,0,.122-.016.185-.019a16.6,16.6,0,0,0,3.071,4.687,1,1,0,0,0,1.488,0,16.6,16.6,0,0,0,3.071-4.687c.063,0,.122.019.185.019h3a1,1,0,0,0,1-1,5.009,5.009,0,0,0-4.008-4.9ZM57,38H53a2,2,0,0,1,4,0Zm-7.829,4A3.006,3.006,0,0,1,52,40h1.829A3.006,3.006,0,0,1,51,42ZM55,46.451a12.706,12.706,0,0,1-1.862-2.95A5.014,5.014,0,0,0,55,41.969a5.017,5.017,0,0,0,1.876,1.54A12.97,12.97,0,0,1,55,46.451ZM59,42a3.006,3.006,0,0,1-2.829-2H58a3.006,3.006,0,0,1,2.829,2Z"/>
      <path id="Path_1258809" data-name="Path 1258809" d="M39.1,12.553l1.79.894A2.6,2.6,0,0,1,43.236,12h.146A3.966,3.966,0,0,0,46,13c.034,0,.066-.008.1-.008A5.009,5.009,0,0,0,51,17a1,1,0,0,0,1-1V13c0-.063-.016-.122-.019-.185a16.6,16.6,0,0,0,4.687-3.071,1,1,0,0,0,0-1.488,16.6,16.6,0,0,0-4.687-3.071c0-.063.019-.122.019-.185V2a1,1,0,0,0-1-1,5.009,5.009,0,0,0-4.9,4.008c-.034,0-.066-.008-.1-.008a3.966,3.966,0,0,0-2.618,1h-.146A2.6,2.6,0,0,1,40.9,4.553l-1.79.894A4.59,4.59,0,0,0,42.183,7.87,3.919,3.919,0,0,0,42,9a3.919,3.919,0,0,0,.183,1.13A4.59,4.59,0,0,0,39.1,12.553ZM50,14.829A3.006,3.006,0,0,1,48,12V10.171A3.006,3.006,0,0,1,50,13Zm1.509-7.7A12.994,12.994,0,0,1,54.452,9a12.994,12.994,0,0,1-2.943,1.876A5.027,5.027,0,0,0,49.969,9a5.027,5.027,0,0,0,1.54-1.876ZM48,6a3.006,3.006,0,0,1,2-2.829V5a3.006,3.006,0,0,1-2,2.829ZM46,7v4a2,2,0,0,1,0-4Z"/>
      <path id="Path_1258810" data-name="Path 1258810" d="M37.307,15.191a6.009,6.009,0,0,0-10.614,0,6,6,0,0,0-7.5,7.5,6.009,6.009,0,0,0,0,10.614,6,6,0,0,0,7.5,7.5A5.959,5.959,0,0,0,29,43.194v9.161A8.985,8.985,0,0,0,22,49H18a1,1,0,0,0-1,1,9.01,9.01,0,0,0,9,9h3v3a1,1,0,0,0,1,1h4a1,1,0,0,0,1-1V59h3a9.01,9.01,0,0,0,9-9,1,1,0,0,0-1-1H42a8.985,8.985,0,0,0-7,3.355V43.194a5.959,5.959,0,0,0,2.307-2.385,6,6,0,0,0,7.5-7.5,6.009,6.009,0,0,0,0-10.614,6,6,0,0,0-7.5-7.5ZM28.678,55.917,21.3,51H22a7.008,7.008,0,0,1,6.678,4.917Zm-9.356-3.834L26.7,57H26A7.008,7.008,0,0,1,19.322,52.083ZM38,57h-.7l7.375-4.917A7.008,7.008,0,0,1,38,57Zm4-6h.7l-7.375,4.917A7.008,7.008,0,0,1,42,51ZM33,61H31V43.908a5.481,5.481,0,0,0,2,0Zm8.9-42.9a3.989,3.989,0,0,1,.722,4.673,1,1,0,0,0,.585,1.415,4,4,0,0,1,0,7.634,1,1,0,0,0-.585,1.415,4,4,0,0,1-5.392,5.391,1,1,0,0,0-1.415.585,4,4,0,0,1-7.632,0,1,1,0,0,0-1.415-.585,4,4,0,0,1-5.392-5.391,1,1,0,0,0-.585-1.415,4.005,4.005,0,0,1,0-7.634,1,1,0,0,0,.585-1.415,4,4,0,0,1,5.392-5.391,1,1,0,0,0,1.415-.585,4,4,0,0,1,7.632,0,1,1,0,0,0,1.415.585,3.99,3.99,0,0,1,4.67.718Z"/>
      <path id="Path_1258811" data-name="Path 1258811" d="M1,43a1,1,0,0,0,.332.744,16.6,16.6,0,0,0,4.687,3.071c0,.063-.019.122-.019.185v3a1,1,0,0,0,1,1,5.009,5.009,0,0,0,4.9-4.008c.033,0,.066.008.1.008a3.962,3.962,0,0,0,2.618-1h.146A2.6,2.6,0,0,1,17.1,47.447l1.79-.894a4.59,4.59,0,0,0-3.077-2.423,3.6,3.6,0,0,0,0-2.26A4.59,4.59,0,0,0,18.9,39.447l-1.79-.894A2.6,2.6,0,0,1,14.764,40h-.146A3.962,3.962,0,0,0,12,39c-.034,0-.067.008-.1.008A5.009,5.009,0,0,0,7,35a1,1,0,0,0-1,1v3c0,.063.016.122.019.185a16.6,16.6,0,0,0-4.687,3.071A1,1,0,0,0,1,43Zm9,3a3.006,3.006,0,0,1-2,2.829V47a3.006,3.006,0,0,1,2-2.829Zm4-3a2,2,0,0,1-2,2V41A2,2,0,0,1,14,43ZM8,37.171A3.006,3.006,0,0,1,10,40v1.829A3.006,3.006,0,0,1,8,39ZM6.491,41.124A5.017,5.017,0,0,0,8.031,43a5.017,5.017,0,0,0-1.54,1.876A12.994,12.994,0,0,1,3.548,43a12.994,12.994,0,0,1,2.943-1.876Z"/>
    </g>
  </g>
</svg>
