<svg xmlns="http://www.w3.org/2000/svg" xmlns:xlink="http://www.w3.org/1999/xlink" width="119.053" height="119.054" viewBox="0 0 119.053 119.054">
  <defs>
    <filter id="Path_874925" x="0" y="0" width="119.053" height="119.054" filterUnits="userSpaceOnUse">
      <feOffset dy="3" input="SourceAlpha"/>
      <feGaussianBlur stdDeviation="3" result="blur"/>
      <feFlood flood-opacity="0.161"/>
      <feComposite operator="in" in2="blur"/>
      <feComposite in="SourceGraphic"/>
    </filter>
  </defs>
  <g id="Group_1203978" data-name="Group 1203978" transform="translate(-886 -6174)">
    <g id="Group_1203975" data-name="Group 1203975" transform="translate(92 870)">
      <g id="Group_1203802" data-name="Group 1203802" transform="translate(518 -940.874)">
        <g id="Group_1200232" data-name="Group 1200232" transform="translate(285 6250.874)">
          <g id="Group_1187153" data-name="Group 1187153">
            <g id="Group_1182177" data-name="Group 1182177">
              <g id="Group_1181903" data-name="Group 1181903">
                <g id="Group_1181438" data-name="Group 1181438">
                  <g id="Group_1111314" data-name="Group 1111314">
                    <g transform="matrix(1, 0, 0, 1, -9, -6)" filter="url(#Path_874925)">
                      <g id="Path_874925-2" data-name="Path 874925" transform="translate(9 6)" fill="#ffe9b5">
                        <path d="M 50.52651596069336 99.55361938476562 C 43.90731430053711 99.55361938476562 37.48691558837891 98.25757598876953 31.44364547729492 95.70149230957031 C 25.60577392578125 93.23227691650391 20.36252975463867 89.69707489013672 15.85953044891357 85.194091796875 C 11.35654449462891 80.69109344482422 7.821344375610352 75.44783782958984 5.35213041305542 69.60997772216797 C 2.796044588088989 63.56670761108398 1.500001668930054 57.14628982543945 1.500001668930054 50.52709197998047 C 1.500001668930054 43.90732192993164 2.796044588088989 37.48691940307617 5.35213041305542 31.44364929199219 C 7.821344375610352 25.60577774047852 11.35654449462891 20.36253356933594 15.85953044891357 15.85953426361084 C 20.36252975463867 11.35654830932617 25.60577392578125 7.821348667144775 31.44364547729492 5.352134227752686 C 37.48691558837891 2.796048641204834 43.90731430053711 1.500005841255188 50.52651596069336 1.500005841255188 C 57.14571762084961 1.500005841255188 63.56611633300781 2.796048641204834 69.60939025878906 5.352134227752686 C 75.44724273681641 7.821348667144775 80.69049835205078 11.35654830932617 85.19348907470703 15.85953426361084 C 89.69648742675781 20.36253356933594 93.231689453125 25.60577774047852 95.70090484619141 31.44364929199219 C 98.25698852539062 37.48691940307617 99.55303192138672 43.90732192993164 99.55303192138672 50.52651977539062 C 99.55303192138672 57.14628982543945 98.25698852539062 63.56670761108398 95.70090484619141 69.60997772216797 C 93.231689453125 75.44783782958984 89.69648742675781 80.69109344482422 85.19348907470703 85.194091796875 C 80.69049835205078 89.69707489013672 75.44724273681641 93.23227691650391 69.60939025878906 95.70149230957031 C 63.56611633300781 98.25757598876953 57.14571762084961 99.55361938476562 50.52651596069336 99.55361938476562 Z" stroke="none"/>
                        <path d="M 50.52651596069336 2.999992370605469 C 44.10914611816406 2.999992370605469 37.88534545898438 4.256172180175781 32.02796173095703 6.733619689941406 C 26.36890411376953 9.127204895019531 21.28591918945312 12.55446624755859 16.92019653320312 16.92018890380859 C 12.55446624755859 21.28591156005859 9.127204895019531 26.368896484375 6.733627319335938 32.02796173095703 C 4.256179809570312 37.88534545898438 2.999992370605469 44.10914611816406 2.999992370605469 50.527099609375 C 2.999992370605469 56.94446563720703 4.256179809570312 63.16826629638672 6.733627319335938 69.025634765625 C 9.127204895019531 74.68471527099609 12.55446624755859 79.7677001953125 16.92019653320312 84.1334228515625 C 21.28591918945312 88.4991455078125 26.36890411376953 91.9263916015625 32.02796173095703 94.31997680664062 C 37.88534545898438 96.79743957519531 44.10914611816406 98.05360412597656 50.52651596069336 98.05360412597656 C 56.94387054443359 98.05360412597656 63.16768646240234 96.79743957519531 69.02505493164062 94.31997680664062 C 74.68411254882812 91.9263916015625 79.76712036132812 88.4991455078125 84.13282775878906 84.1334228515625 C 88.49855041503906 79.7677001953125 91.92581176757812 74.68471527099609 94.31938934326172 69.025634765625 C 96.79683685302734 63.16826629638672 98.05302429199219 56.94446563720703 98.05302429199219 50.52651214599609 C 98.05302429199219 44.10914611816406 96.79683685302734 37.88534545898438 94.31938934326172 32.02796173095703 C 91.92581176757812 26.368896484375 88.49855041503906 21.28591156005859 84.13282775878906 16.92018890380859 C 79.76712036132812 12.55446624755859 74.68411254882812 9.127204895019531 69.02505493164062 6.733619689941406 C 63.16768646240234 4.256172180175781 56.94387054443359 2.999992370605469 50.52651596069336 2.999992370605469 M 50.52651596069336 -7.62939453125e-06 C 78.43153381347656 -7.62939453125e-06 101.0530242919922 22.62148284912109 101.0530242919922 50.52651214599609 L 101.0530242919922 50.527099609375 C 101.0530242919922 78.43212890625 78.43153381347656 101.0536041259766 50.52651596069336 101.0536041259766 C 22.62148284912109 101.0536041259766 -7.62939453125e-06 78.43212890625 -7.62939453125e-06 50.527099609375 L -7.62939453125e-06 50.52651214599609 C -7.62939453125e-06 22.62148284912109 22.62148284912109 -7.62939453125e-06 50.52651596069336 -7.62939453125e-06 Z" stroke="none" fill="#fff"/>
                      </g>
                    </g>
                  </g>
                </g>
              </g>
            </g>
          </g>
        </g>
      </g>
    </g>
    <g id="filled_outline" data-name="filled outline" transform="translate(899 6151.205)">
      <path id="Path_1258909" data-name="Path 1258909" d="M457.077,437.387A1.077,1.077,0,0,1,456,436.31v-3.232a1.077,1.077,0,0,1,2.155,0v3.232A1.077,1.077,0,0,1,457.077,437.387Z" transform="translate(-380.74 -332.284)" fill="#683b0d"/>
      <path id="Path_1258910" data-name="Path 1258910" d="M443.232,368,440,377.7h6.465Z" transform="translate(-366.895 -276.903)" fill="#aac16b"/>
      <path id="Path_1258911" data-name="Path 1258911" d="M49.077,126.465A1.077,1.077,0,0,1,48,125.387v-4.31a1.077,1.077,0,0,1,2.155,0v4.31A1.077,1.077,0,0,1,49.077,126.465Z" transform="translate(-27.69 -62.304)" fill="#683b0d"/>
      <path id="Path_1258912" data-name="Path 1258912" d="M24,160h9.7l6.465,10.775,5.423,2.155,5.352,11.852,10.775,8.62v8.62H24Z" transform="translate(-6.923 -96.917)" fill="#ea9d2d"/>
      <path id="Path_1258913" data-name="Path 1258913" d="M263.542,458.155h-6.465a1.077,1.077,0,1,1,0-2.155h6.465a1.077,1.077,0,0,1,0,2.155Z" transform="translate(-207.676 -353.051)" fill="#c38325"/>
      <path id="Path_1258914" data-name="Path 1258914" d="M137.077,228.465l1.077.428v2.8a1.077,1.077,0,1,1-2.155,0V226.67Z" transform="translate(-103.838 -154.608)" fill="#ea9d2d"/>
      <path id="Path_1258915" data-name="Path 1258915" d="M218.155,329.779v2.37a1.077,1.077,0,1,1-2.155,0v-5.387a1.007,1.007,0,0,1,.017-.193l1.06,2.347Z" transform="translate(-173.064 -241.053)" fill="#ea9d2d"/>
      <path id="Path_1258916" data-name="Path 1258916" d="M24,240h5.387l3.232,7.542h5.387l4.31,9.7h4.31l4.31,7.542h4.31l2.155,6.465H24Z" transform="translate(-6.923 -166.143)" fill="#c38325"/>
      <path id="Path_1258917" data-name="Path 1258917" d="M82.155,280.381v5.387a1.077,1.077,0,0,1-2.155,0v-7.542a1.093,1.093,0,0,1,.035-.276l1.042,2.431Z" transform="translate(-55.38 -198.982)" fill="#c38325"/>
      <path id="Path_1258918" data-name="Path 1258918" d="M0,0H12.929V8.62H0Z" transform="translate(73.105 105.103) rotate(180)" fill="#eaeae8"/>
      <path id="Path_1258919" data-name="Path 1258919" d="M344,366.465h12.929L350.465,360Z" transform="translate(-283.824 -269.981)" fill="#0a9acd"/>
      <path id="Path_1258920" data-name="Path 1258920" d="M0,0H4.31V4.31H0Z" transform="translate(68.795 105.103) rotate(180)" fill="#0a9acd"/>
      <path id="Path_1258921" data-name="Path 1258921" d="M0,0H5.387V8.62H0Z" transform="translate(60.176 105.103) rotate(180)" fill="#cbcbcb"/>
      <path id="Path_1258922" data-name="Path 1258922" d="M315.852,360h-5.387L304,366.465h5.387Z" transform="translate(-249.212 -269.981)" fill="#026ca2"/>
      <path id="Path_1258923" data-name="Path 1258923" d="M295.386,162.439a1.076,1.076,0,0,1-.879-.453l-1.872-2.635a1.077,1.077,0,0,1,1.757-1.248l1.872,2.635a1.077,1.077,0,0,1-.877,1.7Z" transform="translate(-239.205 -94.883)" fill="#683b0d"/>
      <path id="Path_1258924" data-name="Path 1258924" d="M268,120l1.733,8.02,5.27-3.744Z" transform="translate(-218.06 -62.304)" fill="#aac16b"/>
      <path id="Path_1258925" data-name="Path 1258925" d="M35.232,56,32,65.7h6.465Z" transform="translate(-13.845 -6.924)" fill="#02a437"/>
      <path id="Path_1258926" data-name="Path 1258926" d="M72,437.387v-4.31a1.077,1.077,0,1,1,2.155,0v4.31Z" transform="translate(-48.458 -332.284)" fill="#683b0d"/>
      <path id="Path_1258927" data-name="Path 1258927" d="M59.232,368,56,377.7h6.465Z" transform="translate(-34.613 -276.903)" fill="#aac16b"/>
      <path id="Path_1258928" data-name="Path 1258928" d="M152,437.387v-4.31a1.077,1.077,0,0,1,2.155,0v4.31Z" transform="translate(-117.683 -332.284)" fill="#683b0d"/>
      <path id="Path_1258929" data-name="Path 1258929" d="M139.232,368,136,377.7h6.465Z" transform="translate(-103.838 -276.903)" fill="#02a437"/>
      <path id="Path_1258930" data-name="Path 1258930" d="M146.155,136,144,139.232v3.232l4.31,2.155,4.31-2.155v-4.31L149.387,136Z" transform="translate(-110.761 -76.15)" fill="#c38325"/>
      <path id="Path_1258931" data-name="Path 1258931" d="M208,212.31l3.232,2.155h3.232l2.155-3.232L214.465,208h-4.31Z" transform="translate(-166.141 -138.452)" fill="#c38325"/>
      <path id="Path_1258932" data-name="Path 1258932" d="M248,292.31l3.232,3.232h2.155l3.232-3.232L253.387,288l-3.232,1.077Z" transform="translate(-200.754 -207.678)" fill="#c38325"/>
      <g id="Group_1203977" data-name="Group 1203977" transform="translate(41.859 62.005)">
        <path id="Path_1258933" data-name="Path 1258933" d="M234.155,155.232a1.074,1.074,0,0,1-.762-.316l-1.077-1.077a1.077,1.077,0,1,1,1.524-1.524l1.077,1.077a1.077,1.077,0,0,1-.762,1.839Z" transform="translate(-228.767 -152)" fill="#8feaff"/>
        <path id="Path_1258934" data-name="Path 1258934" d="M297.077,220.31A1.077,1.077,0,0,1,296,219.232v-2.155a1.077,1.077,0,1,1,2.155,0v2.155A1.077,1.077,0,0,1,297.077,220.31Z" transform="translate(-284.148 -207.38)" fill="#8feaff"/>
        <path id="Path_1258935" data-name="Path 1258935" d="M211.23,275.229a1.074,1.074,0,0,1-.481-.114l-2.155-1.077a1.077,1.077,0,1,1,.964-1.927l2.155,1.077a1.077,1.077,0,0,1-.483,2.041Z" transform="translate(-207.998 -255.835)" fill="#8feaff"/>
        <path id="Path_1258936" data-name="Path 1258936" d="M330.155,299.232a1.074,1.074,0,0,1-.762-.316l-1.077-1.077a1.077,1.077,0,1,1,1.524-1.524l1.077,1.077a1.077,1.077,0,0,1-.762,1.839Z" transform="translate(-311.838 -276.606)" fill="#8feaff"/>
      </g>
      <path id="Path_1258937" data-name="Path 1258937" d="M82.155,280.381v5.387a1.077,1.077,0,0,1-2.155,0v-7.542a1.093,1.093,0,0,1,.035-.276l1.042,2.431Z" transform="translate(-55.38 -198.982)" fill="#97661d"/>
      <path id="Path_1258938" data-name="Path 1258938" d="M138.155,228.894v2.8a1.077,1.077,0,1,1-2.155,0V226.67l1.077,1.8Z" transform="translate(-103.838 -154.608)" fill="#97661d"/>
      <path id="Path_1258939" data-name="Path 1258939" d="M218.155,329.779v2.37a1.077,1.077,0,1,1-2.155,0v-5.387a1.007,1.007,0,0,1,.017-.193l1.06,2.347Z" transform="translate(-173.064 -241.053)" fill="#97661d"/>
      <path id="Path_1258940" data-name="Path 1258940" d="M261.758,121.326a1.077,1.077,0,0,0,1.677.651l1.757-1.248,1.248,1.757a1.077,1.077,0,1,0,1.757-1.248l-1.248-1.757,1.757-1.248a1.077,1.077,0,0,0-.063-1.8l-7-4.276a1.077,1.077,0,0,0-1.615,1.147Zm4.367-3.9-1.3.925h0l-1.3.925-.857-3.966Z" transform="translate(-211.138 -55.382)"/>
      <path id="Path_1258941" data-name="Path 1258941" d="M136.6,136.506l4.31,2.155a1.078,1.078,0,0,0,.964,0l4.31-2.155a1.077,1.077,0,0,0,.6-.964v-4.31a1.077,1.077,0,0,0-.48-.9l-3.232-2.155a1.077,1.077,0,0,0-.6-.181h-3.232a1.077,1.077,0,0,0-.9.48l-2.155,3.232a1.077,1.077,0,0,0-.181.6v3.232a1.077,1.077,0,0,0,.6.964Zm1.559-3.87,1.654-2.481h2.33l2.481,1.654v3.067l-3.232,1.616-3.232-1.616Z" transform="translate(-103.838 -69.227)"/>
      <path id="Path_1258942" data-name="Path 1258942" d="M200.479,206.284l3.232,2.155a1.078,1.078,0,0,0,.6.181h3.232a1.077,1.077,0,0,0,.9-.48l2.155-3.232a1.077,1.077,0,0,0,0-1.2l-2.155-3.232a1.077,1.077,0,0,0-.9-.48h-4.31a1.077,1.077,0,0,0-.964.6l-2.155,4.31A1.077,1.077,0,0,0,200.479,206.284Zm3.418-4.129h3.067l1.436,2.155-1.436,2.155h-2.33l-2.17-1.446Z" transform="translate(-159.218 -131.53)"/>
      <path id="Path_1258943" data-name="Path 1258943" d="M246.124,280.055l-3.232,1.077a1.076,1.076,0,0,0-.556.424l-2.155,3.232a1.077,1.077,0,0,0,.135,1.36l3.232,3.232a1.077,1.077,0,0,0,.762.316h2.155a1.077,1.077,0,0,0,.762-.316l3.232-3.232a1.078,1.078,0,0,0,.1-1.408l-3.232-4.31a1.077,1.077,0,0,0-1.2-.376Zm-.105,7.487h-1.263l-2.292-2.292,1.46-2.19,2.145-.715,2.206,2.941Z" transform="translate(-193.832 -200.755)"/>
      <path id="Path_1258944" data-name="Path 1258944" d="M233.393,154.917a1.077,1.077,0,0,0,1.524-1.524l-1.077-1.077a1.077,1.077,0,1,0-1.524,1.524Z" transform="translate(-186.909 -89.994)"/>
      <path id="Path_1258945" data-name="Path 1258945" d="M298.155,219.232v-2.155a1.077,1.077,0,1,0-2.155,0v2.155a1.077,1.077,0,1,0,2.155,0Z" transform="translate(-242.289 -145.375)"/>
      <path id="Path_1258946" data-name="Path 1258946" d="M209.558,272.112a1.077,1.077,0,1,0-.964,1.927l2.155,1.077a1.077,1.077,0,0,0,.964-1.927Z" transform="translate(-166.14 -193.831)"/>
      <path id="Path_1258947" data-name="Path 1258947" d="M329.393,298.917a1.077,1.077,0,1,0,1.524-1.524l-1.077-1.077a1.077,1.077,0,0,0-1.524,1.524Z" transform="translate(-269.979 -214.6)"/>
      <path id="Path_1258948" data-name="Path 1258948" d="M79.57,104.026H77.415v-2.155H79.57a1.077,1.077,0,0,0,1.022-1.418l-3.232-9.7a1.077,1.077,0,0,0-2.044,0l-1.6,4.811L67.4,89.257a1.073,1.073,0,0,0-.7-.312.6.6,0,0,0-.064,0H61.253a1.078,1.078,0,0,0-.762.316L54.708,95.04l-9.819-7.855L39.644,75.569a1.077,1.077,0,0,0-.584-.558l-5.084-2.02L27.7,62.529a1.077,1.077,0,0,0-.924-.523h-4.31V59.85H24.62a1.077,1.077,0,0,0,1.022-1.418l-3.232-9.7a1.077,1.077,0,0,0-2.044,0l-3.232,9.7a1.077,1.077,0,0,0,1.022,1.418H20.31v2.155H17.077A1.077,1.077,0,0,0,16,63.083V105.1a1.077,1.077,0,0,0,1.077,1.077H79.57a1.077,1.077,0,1,0,0-2.155ZM21.387,52.483,23.125,57.7H19.65ZM75.26,104.026H74.182v-2.155H75.26ZM68.8,99.716h-4.31a1.077,1.077,0,0,0-1.077,1.077v3.232H61.253V97.561H72.028v6.465H69.873v-3.232A1.077,1.077,0,0,0,68.8,99.716ZM76.337,94.5l1.737,5.212H74.6Zm-5.833.9H62.777l3.864-3.864ZM61.7,91.1h2.34l-4.31,4.31h-2.34ZM26.165,64.16l6,10V77.09a1.077,1.077,0,0,0,2.155,0V75.445l3.542,1.408L42.936,88.1v3a1.077,1.077,0,0,0,2.155,0v-.99l8.62,6.9v7.024H51.255L49.346,98.3a1.077,1.077,0,0,0-1.022-.737H44.639l-4-7a1.077,1.077,0,0,0-.935-.543H36.094l-4.025-9.057a1.077,1.077,0,0,0-.985-.64H26.408l-2.952-6.889a1.077,1.077,0,0,0-.99-.653h-4.31V64.16ZM35.394,94.5l1.737,5.212H33.657Zm3.232,7.367a1.077,1.077,0,0,0,1.022-1.418l-2.76-8.279h2.19l4,7a1.077,1.077,0,0,0,.935.543h3.533l1.437,4.31H36.472v-2.155ZM18.155,74.935h3.6l2.865,6.686v5.166a1.077,1.077,0,1,0,2.155,0v-4.31h3.609l3.856,8.675-3.1,9.3a1.077,1.077,0,0,0,1.022,1.418h2.155v2.155H25.7v-2.155h2.155a1.077,1.077,0,0,0,1.022-1.418l-3.232-9.7a1.077,1.077,0,0,0-2.044,0l-3.232,9.7a1.077,1.077,0,0,0,1.022,1.418h2.155v2.155H18.155Zm4.727,24.781L24.62,94.5l1.737,5.212Zm32.983-2.155H59.1v6.465H55.866Zm9.7,6.465v-2.155h2.155v2.155Z" transform="translate(0 0)"/>
    </g>
  </g>
</svg>
