<svg xmlns="http://www.w3.org/2000/svg" xmlns:xlink="http://www.w3.org/1999/xlink" width="119.053" height="119.054" viewBox="0 0 119.053 119.054">
  <defs>
    <filter id="Path_874925" x="0" y="0" width="119.053" height="119.054" filterUnits="userSpaceOnUse">
      <feOffset dy="3" input="SourceAlpha"/>
      <feGaussianBlur stdDeviation="3" result="blur"/>
      <feFlood flood-opacity="0.161"/>
      <feComposite operator="in" in2="blur"/>
      <feComposite in="SourceGraphic"/>
    </filter>
  </defs>
  <g id="Group_1204015" data-name="Group 1204015" transform="translate(-2993 6334)">
    <g id="Group_1203805" data-name="Group 1203805" transform="translate(2717 -12578.874)">
      <g id="Group_1200232" data-name="Group 1200232" transform="translate(285 6250.874)">
        <g id="Group_1187153" data-name="Group 1187153">
          <g id="Group_1182177" data-name="Group 1182177">
            <g id="Group_1181903" data-name="Group 1181903">
              <g id="Group_1181438" data-name="Group 1181438">
                <g id="Group_1111314" data-name="Group 1111314">
                  <g transform="matrix(1, 0, 0, 1, -9, -6)" filter="url(#Path_874925)">
                    <g id="Path_874925-2" data-name="Path 874925" transform="translate(9 6)" fill="#ffc94a">
                      <path d="M 50.52651596069336 99.55361938476562 C 43.90731430053711 99.55361938476562 37.48691558837891 98.25757598876953 31.44364547729492 95.70149230957031 C 25.60577392578125 93.23227691650391 20.36252975463867 89.69707489013672 15.85953044891357 85.194091796875 C 11.35654449462891 80.69109344482422 7.821344375610352 75.44783782958984 5.35213041305542 69.60997772216797 C 2.796044588088989 63.56670761108398 1.500001668930054 57.14628982543945 1.500001668930054 50.52709197998047 C 1.500001668930054 43.90732192993164 2.796044588088989 37.48691940307617 5.35213041305542 31.44364929199219 C 7.821344375610352 25.60577774047852 11.35654449462891 20.36253356933594 15.85953044891357 15.85953426361084 C 20.36252975463867 11.35654830932617 25.60577392578125 7.821348667144775 31.44364547729492 5.352134227752686 C 37.48691558837891 2.796048641204834 43.90731430053711 1.500005841255188 50.52651596069336 1.500005841255188 C 57.14571762084961 1.500005841255188 63.56611633300781 2.796048641204834 69.60939025878906 5.352134227752686 C 75.44724273681641 7.821348667144775 80.69049835205078 11.35654830932617 85.19348907470703 15.85953426361084 C 89.69648742675781 20.36253356933594 93.231689453125 25.60577774047852 95.70090484619141 31.44364929199219 C 98.25698852539062 37.48691940307617 99.55303192138672 43.90732192993164 99.55303192138672 50.52651977539062 C 99.55303192138672 57.14628982543945 98.25698852539062 63.56670761108398 95.70090484619141 69.60997772216797 C 93.231689453125 75.44783782958984 89.69648742675781 80.69109344482422 85.19348907470703 85.194091796875 C 80.69049835205078 89.69707489013672 75.44724273681641 93.23227691650391 69.60939025878906 95.70149230957031 C 63.56611633300781 98.25757598876953 57.14571762084961 99.55361938476562 50.52651596069336 99.55361938476562 Z" stroke="none"/>
                      <path d="M 50.52651596069336 2.999992370605469 C 44.10914611816406 2.999992370605469 37.88534545898438 4.256172180175781 32.02796173095703 6.733619689941406 C 26.36890411376953 9.127204895019531 21.28591918945312 12.55446624755859 16.92019653320312 16.92018890380859 C 12.55446624755859 21.28591156005859 9.127204895019531 26.368896484375 6.733627319335938 32.02796173095703 C 4.256179809570312 37.88534545898438 2.999992370605469 44.10914611816406 2.999992370605469 50.527099609375 C 2.999992370605469 56.94446563720703 4.256179809570312 63.16826629638672 6.733627319335938 69.025634765625 C 9.127204895019531 74.68471527099609 12.55446624755859 79.7677001953125 16.92019653320312 84.1334228515625 C 21.28591918945312 88.4991455078125 26.36890411376953 91.9263916015625 32.02796173095703 94.31997680664062 C 37.88534545898438 96.79743957519531 44.10914611816406 98.05360412597656 50.52651596069336 98.05360412597656 C 56.94387054443359 98.05360412597656 63.16768646240234 96.79743957519531 69.02505493164062 94.31997680664062 C 74.68411254882812 91.9263916015625 79.76712036132812 88.4991455078125 84.13282775878906 84.1334228515625 C 88.49855041503906 79.7677001953125 91.92581176757812 74.68471527099609 94.31938934326172 69.025634765625 C 96.79683685302734 63.16826629638672 98.05302429199219 56.94446563720703 98.05302429199219 50.52651214599609 C 98.05302429199219 44.10914611816406 96.79683685302734 37.88534545898438 94.31938934326172 32.02796173095703 C 91.92581176757812 26.368896484375 88.49855041503906 21.28591156005859 84.13282775878906 16.92018890380859 C 79.76712036132812 12.55446624755859 74.68411254882812 9.127204895019531 69.02505493164062 6.733619689941406 C 63.16768646240234 4.256172180175781 56.94387054443359 2.999992370605469 50.52651596069336 2.999992370605469 M 50.52651596069336 -7.62939453125e-06 C 78.43153381347656 -7.62939453125e-06 101.0530242919922 22.62148284912109 101.0530242919922 50.52651214599609 L 101.0530242919922 50.527099609375 C 101.0530242919922 78.43212890625 78.43153381347656 101.0536041259766 50.52651596069336 101.0536041259766 C 22.62148284912109 101.0536041259766 -7.62939453125e-06 78.43212890625 -7.62939453125e-06 50.527099609375 L -7.62939453125e-06 50.52651214599609 C -7.62939453125e-06 22.62148284912109 22.62148284912109 -7.62939453125e-06 50.52651596069336 -7.62939453125e-06 Z" stroke="none" fill="#fff"/>
                    </g>
                  </g>
                </g>
              </g>
            </g>
          </g>
        </g>
      </g>
    </g>
    <g id="mapa" transform="translate(3019.115 -6338.267)">
      <g id="Group_1203971" data-name="Group 1203971" transform="translate(0.975 32.471)">
        <path id="Path_1258877" data-name="Path 1258877" d="M171.017,155.6c-6.8-1.172-13.73-2.547-20.748-4.038-4.212-19.037-6.027-29.55.161-43.6,6.8,1.172,13.73,2.547,20.748,4.038C174.047,122.009,177.461,140.26,171.017,155.6Z" transform="translate(-128.288 -98.95)" fill="#dfeaef"/>
        <path id="Path_1258878" data-name="Path 1258878" d="M334.827,165.544c6.029-1.324,12.143-2.757,18.322-4.242a4,4,0,0,0,3.047-3.511,167.208,167.208,0,0,0-.282-34.833,4,4,0,0,0-4.475-3.53c-5.407.695-10.9,1.547-16.451,2.511Q335.776,143.741,334.827,165.544Z" transform="translate(-292.098 -108.899)" fill="#f0f4f6"/>
        <path id="Path_1258879" data-name="Path 1258879" d="M13,154.069c5.407-.695,10.9-1.547,16.451-2.511q-.788-21.8.161-43.6c-6.029,1.324-12.143,2.757-18.322,4.242a4,4,0,0,0-3.047,3.511,167.218,167.218,0,0,0,.282,34.833A4,4,0,0,0,13,154.069Z" transform="translate(-7.468 -98.95)" fill="#f0f4f6"/>
        <g id="Group_1203965" data-name="Group 1203965" transform="translate(3.92 12.992)">
          <path id="Path_1258880" data-name="Path 1258880" d="M76.219,178.182c5.016-1.108,10.6-2.4,17.5-4.06a.088.088,0,0,0,.063-.081,164.11,164.11,0,0,0-.275-34.018.092.092,0,0,0-.071-.086c-5.089.654-10.415,1.467-16.295,2.487l-.743.129-.738-.157c-7.432-1.577-13.934-2.848-19.844-3.878-5.078,1.121-10.665,2.417-17.5,4.06a.088.088,0,0,0-.064.081,164.1,164.1,0,0,0,.276,34.018.089.089,0,0,0,.071.084h.013c5.069-.651,10.395-1.463,16.282-2.484l.744-.129.738.157c7.432,1.577,13.934,2.848,19.844,3.878Z" transform="translate(-37.5 -138.519)" fill="#2bb180"/>
        </g>
        <g id="Group_1203966" data-name="Group 1203966" transform="translate(21.625 12.993)">
          <path id="Path_1258881" data-name="Path 1258881" d="M194.4,178.132l-.251.055c-5.91-1.03-12.413-2.3-19.844-3.878l-.739-.157-.2.035q-.517-17.8.128-35.607l.251-.056c5.91,1.03,12.412,2.3,19.844,3.878l.739.157.2-.035Q195.048,160.328,194.4,178.132Z" transform="translate(-173.138 -138.525)" fill="#118f5e"/>
        </g>
        <g id="Group_1203967" data-name="Group 1203967" transform="translate(3.921 23.039)">
          <path id="Path_1258882" data-name="Path 1258882" d="M55.287,216.209q-.07,4.168-.074,8.337a6.092,6.092,0,0,0-3.858,1.475c-3.958,3.959-4.412,11.7-13.375,11.7a164.308,164.308,0,0,1-.315-19.686c4.2-4.2,12.251-1.981,17.623-1.829Z" transform="translate(-37.506 -215.489)" fill="#bed8fb"/>
        </g>
        <g id="Group_1203968" data-name="Group 1203968" transform="translate(42.951 29)">
          <path id="Path_1258883" data-name="Path 1258883" d="M353.775,280.671a.089.089,0,0,1-.064.081c-6.751,1.621-12.25,2.9-17.185,3.99q.206-5.641.292-11.28c3.439-.914,5.034-3.544,5.327-6.641.433-4.567,6.458-8.081,12.371-3.57A163.246,163.246,0,0,1,353.775,280.671Z" transform="translate(-336.526 -261.156)" fill="#f19028"/>
        </g>
        <g id="Group_1203969" data-name="Group 1203969" transform="translate(21.626 13.806)">
          <path id="Path_1258884" data-name="Path 1258884" d="M188.556,159.184c-2.831,5.448-10.288,3.364-15.409,3.856q0-4.168.074-8.337a7.41,7.41,0,0,0,4.016-.7c4.008-2.506,1.094-9.126,1.039-9.25,3.229.6,6.64,1.265,10.279,2.011,0,0,3.7,5.3,0,12.421Z" transform="translate(-173.147 -144.752)" fill="#80b4fb"/>
        </g>
        <g id="Group_1203970" data-name="Group 1203970" transform="translate(26.691 41.154)">
          <path id="Path_1258885" data-name="Path 1258885" d="M228.445,354.5q-.086,5.641-.292,11.28l-.312.069c-4.837-.843-10.07-1.847-15.884-3.049,0-4,2.441-9.774,10.279-8.3A14.128,14.128,0,0,0,228.445,354.5Z" transform="translate(-211.957 -354.271)" fill="#f17e00"/>
        </g>
        <path id="Path_1258886" data-name="Path 1258886" d="M386.57,44.661a7.33,7.33,0,0,0-14.284,0,12.416,12.416,0,0,0,7.142,14.253,12.416,12.416,0,0,0,7.142-14.253Z" transform="translate(-324.377 -38.982)" fill="#ee596b"/>
        <circle id="Ellipse_12739" data-name="Ellipse 12739" cx="3.462" cy="3.462" r="3.462" transform="translate(51.59 3.928)" fill="#f0f4f6"/>
      </g>
      <g id="Group_1203972" data-name="Group 1203972" transform="translate(0.001 31.493)">
        <path id="Path_1258887" data-name="Path 1258887" d="M65.764,46.419a5.016,5.016,0,0,0-1.493-3.034,13.417,13.417,0,0,0-.149-5.461,8.981,8.981,0,0,0-.615-1.767.979.979,0,0,0-1.77.837,7.017,7.017,0,0,1,.479,1.381,11.438,11.438,0,0,1-6.19,12.951,11.43,11.43,0,0,1-6.189-12.951,6.156,6.156,0,0,1,3.809-4.488,6.6,6.6,0,0,1,6.032.67.979.979,0,0,0,1.108-1.615,8.582,8.582,0,0,0-7.845-.882,8.166,8.166,0,0,0-5.009,5.863,13.39,13.39,0,0,0-.061,5.917c-1.286.211-2.6.433-3.989.673-7.718-1.637-14.459-2.948-20.6-4.006v0a.98.98,0,0,0-.376.007c-5.287,1.161-11.115,2.51-18.341,4.246A4.984,4.984,0,0,0,.775,49.131a168.972,168.972,0,0,0,.283,35.036A4.981,4.981,0,0,0,5.989,88.6a5.031,5.031,0,0,0,.642-.041c5.1-.655,10.434-1.468,16.307-2.485,7.717,1.637,14.455,2.947,20.593,4a.976.976,0,0,0,.384-.007C49.225,88.9,54.882,87.6,62.256,85.824a4.986,4.986,0,0,0,3.792-4.369,169.014,169.014,0,0,0-.284-35.036ZM55.637,53.3a.978.978,0,0,0,.778,0,13.383,13.383,0,0,0,3.88-2.561q.492,5.486.611,11A8.845,8.845,0,0,0,53,61.166a7.261,7.261,0,0,0-4.426,5.876,6.564,6.564,0,0,1-2.384,4.74,5.909,5.909,0,0,1-1.034.619c.1-7.379.041-14.769-.16-22.119,1.822-.315,3.668-.622,5.5-.915A13.382,13.382,0,0,0,55.637,53.3Zm4.623,26.962C54.27,81.7,49.327,82.848,44.887,83.839q.157-4.65.236-9.316a8.1,8.1,0,0,0,2.243-1.176,8.362,8.362,0,0,0,3.156-6.12,5.3,5.3,0,0,1,3.261-4.267,7.287,7.287,0,0,1,7.159,1.105C60.983,69.477,60.757,74.889,60.261,80.262ZM38.192,72.817c-3.363-.634-6.111-.09-8.17,1.617a9.634,9.634,0,0,0-3.208,6.452q-1.4-.291-2.841-.6l-.189-.04q-.2-7.365-.2-14.768c1.008-.041,2.1-.011,3.22.02,4.539.127,9.682.272,12.079-4.34a13.7,13.7,0,0,0,.9-11.507q1.507.313,3.065.644l.189.04c.206,7.53.256,15.1.15,22.661A14.4,14.4,0,0,1,38.192,72.817Zm4.964,2.165q-.08,4.52-.233,9.026c-4.37-.771-9.048-1.669-14.176-2.723a7.813,7.813,0,0,1,2.525-5.345c1.589-1.317,3.795-1.72,6.557-1.2A16.79,16.79,0,0,0,43.156,74.982ZM27.022,47.14c.536,1.444,1.884,5.849-.847,7.556a5.16,5.16,0,0,1-2.5.553q.079-4.342.228-8.672Q25.434,46.848,27.022,47.14ZM23.641,57.21a7.032,7.032,0,0,0,3.571-.852c2-1.251,2.861-3.507,2.489-6.524a14.594,14.594,0,0,0-.481-2.282c2.6.492,5.321,1.027,8.181,1.612.671,1.181,2.655,5.488-.258,11.1a5.686,5.686,0,0,1-4.1,2.975,25.474,25.474,0,0,1-6.19.31c-1.123-.031-2.226-.062-3.272-.024q.01-3.156.057-6.31ZM42.98,48.324c-7.075-1.5-13.3-2.719-19.009-3.722q.037-.988.079-1.975c5.668.993,11.86,2.2,18.862,3.681Q42.948,47.316,42.98,48.324ZM21.716,55.2c-.938-.062-1.944-.167-2.97-.274-4.3-.448-9.077-.946-12.606,1.081q.162-2.847.423-5.683c5.908-1.418,10.851-2.567,15.374-3.576Q21.794,50.967,21.716,55.2ZM13.949,73.414a.979.979,0,0,0-1.378.136,8.3,8.3,0,0,1-6.294,3.182A163.306,163.306,0,0,1,6.016,58.5c2.954-2.62,8.031-2.091,12.527-1.622,1.1.115,2.153.224,3.141.287q-.048,3.269-.059,6.54a6.315,6.315,0,0,0-3.573,1.647A20.659,20.659,0,0,0,14.914,69.9q-.146.259-.294.518a.979.979,0,1,0,1.7.969l.3-.523a18.941,18.941,0,0,1,2.818-4.129A4.214,4.214,0,0,1,21.623,65.7q.005,7.316.2,14.609C16.411,81.24,11.479,82,6.8,82.613q-.209-1.96-.371-3.926a10.227,10.227,0,0,0,7.659-3.9.979.979,0,0,0-.136-1.378Zm9.893,8.848c7.069,1.5,13.3,2.718,19.009,3.722q-.037.988-.079,1.974c-5.667-.992-11.859-2.2-18.863-3.681q-.035-1.007-.067-2.015ZM48.429,45.733a13.371,13.371,0,0,0,.859,1.845c-1.452.235-2.908.479-4.351.727q-.031-.989-.064-1.976C46.1,46.118,47.276,45.921,48.429,45.733ZM6.382,86.617A2.981,2.981,0,0,1,4.146,86,3.017,3.017,0,0,1,3,83.948a167.011,167.011,0,0,1-.28-34.629,3.025,3.025,0,0,1,2.3-2.653c6.652-1.6,12.115-2.867,17.061-3.964q-.042,1.011-.078,2.023C17.183,45.8,11.9,47.027,5.485,48.569a1.065,1.065,0,0,0-.813.94A165.07,165.07,0,0,0,4.95,83.736a1.049,1.049,0,0,0,1.2.936c4.9-.628,10.053-1.412,15.736-2.39q.031.988.064,1.976C16.361,85.217,11.26,85.99,6.382,86.617ZM64.1,81.267a3.027,3.027,0,0,1-2.3,2.654c-6.789,1.631-12.118,2.869-17.062,3.964q.042-1.011.078-2.023c4.729-1.051,10.014-2.281,16.522-3.843a1.065,1.065,0,0,0,.813-.94,165.126,165.126,0,0,0-.085-32.389A13.387,13.387,0,0,0,63.6,45.8a3.066,3.066,0,0,1,.218.841A167.04,167.04,0,0,1,64.1,81.267Z" transform="translate(-0.001 -31.493)"/>
        <path id="Path_1258888" data-name="Path 1258888" d="M399.648,61.563A4.441,4.441,0,1,0,404.088,66,4.446,4.446,0,0,0,399.648,61.563Zm0,6.924A2.483,2.483,0,1,1,402.131,66,2.486,2.486,0,0,1,399.648,68.487Z" transform="translate(-343.622 -57.638)"/>
      </g>
    </g>
  </g>
</svg>
