<svg xmlns="http://www.w3.org/2000/svg" xmlns:xlink="http://www.w3.org/1999/xlink" width="119.053" height="119.054" viewBox="0 0 119.053 119.054">
  <defs>
    <filter id="Path_874925" x="0" y="0" width="119.053" height="119.054" filterUnits="userSpaceOnUse">
      <feOffset dy="3" input="SourceAlpha"/>
      <feGaussianBlur stdDeviation="3" result="blur"/>
      <feFlood flood-opacity="0.161"/>
      <feComposite operator="in" in2="blur"/>
      <feComposite in="SourceGraphic"/>
    </filter>
  </defs>
  <g id="Group_1203979" data-name="Group 1203979" transform="translate(-256 -6174)">
    <g id="Group_1203974" data-name="Group 1203974" transform="translate(-538 870)">
      <g id="Group_1203802" data-name="Group 1203802" transform="translate(518 -940.874)">
        <g id="Group_1200232" data-name="Group 1200232" transform="translate(285 6250.874)">
          <g id="Group_1187153" data-name="Group 1187153">
            <g id="Group_1182177" data-name="Group 1182177">
              <g id="Group_1181903" data-name="Group 1181903">
                <g id="Group_1181438" data-name="Group 1181438">
                  <g id="Group_1111314" data-name="Group 1111314">
                    <g transform="matrix(1, 0, 0, 1, -9, -6)" filter="url(#Path_874925)">
                      <g id="Path_874925-2" data-name="Path 874925" transform="translate(9 6)" fill="#ffc94a">
                        <path d="M 50.52651596069336 99.55361938476562 C 43.90731430053711 99.55361938476562 37.48691558837891 98.25757598876953 31.44364547729492 95.70149230957031 C 25.60577392578125 93.23227691650391 20.36252975463867 89.69707489013672 15.85953044891357 85.194091796875 C 11.35654449462891 80.69109344482422 7.821344375610352 75.44783782958984 5.35213041305542 69.60997772216797 C 2.796044588088989 63.56670761108398 1.500001668930054 57.14628982543945 1.500001668930054 50.52709197998047 C 1.500001668930054 43.90732192993164 2.796044588088989 37.48691940307617 5.35213041305542 31.44364929199219 C 7.821344375610352 25.60577774047852 11.35654449462891 20.36253356933594 15.85953044891357 15.85953426361084 C 20.36252975463867 11.35654830932617 25.60577392578125 7.821348667144775 31.44364547729492 5.352134227752686 C 37.48691558837891 2.796048641204834 43.90731430053711 1.500005841255188 50.52651596069336 1.500005841255188 C 57.14571762084961 1.500005841255188 63.56611633300781 2.796048641204834 69.60939025878906 5.352134227752686 C 75.44724273681641 7.821348667144775 80.69049835205078 11.35654830932617 85.19348907470703 15.85953426361084 C 89.69648742675781 20.36253356933594 93.231689453125 25.60577774047852 95.70090484619141 31.44364929199219 C 98.25698852539062 37.48691940307617 99.55303192138672 43.90732192993164 99.55303192138672 50.52651977539062 C 99.55303192138672 57.14628982543945 98.25698852539062 63.56670761108398 95.70090484619141 69.60997772216797 C 93.231689453125 75.44783782958984 89.69648742675781 80.69109344482422 85.19348907470703 85.194091796875 C 80.69049835205078 89.69707489013672 75.44724273681641 93.23227691650391 69.60939025878906 95.70149230957031 C 63.56611633300781 98.25757598876953 57.14571762084961 99.55361938476562 50.52651596069336 99.55361938476562 Z" stroke="none"/>
                        <path d="M 50.52651596069336 2.999992370605469 C 44.10914611816406 2.999992370605469 37.88534545898438 4.256172180175781 32.02796173095703 6.733619689941406 C 26.36890411376953 9.127204895019531 21.28591918945312 12.55446624755859 16.92019653320312 16.92018890380859 C 12.55446624755859 21.28591156005859 9.127204895019531 26.368896484375 6.733627319335938 32.02796173095703 C 4.256179809570312 37.88534545898438 2.999992370605469 44.10914611816406 2.999992370605469 50.527099609375 C 2.999992370605469 56.94446563720703 4.256179809570312 63.16826629638672 6.733627319335938 69.025634765625 C 9.127204895019531 74.68471527099609 12.55446624755859 79.7677001953125 16.92019653320312 84.1334228515625 C 21.28591918945312 88.4991455078125 26.36890411376953 91.9263916015625 32.02796173095703 94.31997680664062 C 37.88534545898438 96.79743957519531 44.10914611816406 98.05360412597656 50.52651596069336 98.05360412597656 C 56.94387054443359 98.05360412597656 63.16768646240234 96.79743957519531 69.02505493164062 94.31997680664062 C 74.68411254882812 91.9263916015625 79.76712036132812 88.4991455078125 84.13282775878906 84.1334228515625 C 88.49855041503906 79.7677001953125 91.92581176757812 74.68471527099609 94.31938934326172 69.025634765625 C 96.79683685302734 63.16826629638672 98.05302429199219 56.94446563720703 98.05302429199219 50.52651214599609 C 98.05302429199219 44.10914611816406 96.79683685302734 37.88534545898438 94.31938934326172 32.02796173095703 C 91.92581176757812 26.368896484375 88.49855041503906 21.28591156005859 84.13282775878906 16.92018890380859 C 79.76712036132812 12.55446624755859 74.68411254882812 9.127204895019531 69.02505493164062 6.733619689941406 C 63.16768646240234 4.256172180175781 56.94387054443359 2.999992370605469 50.52651596069336 2.999992370605469 M 50.52651596069336 -7.62939453125e-06 C 78.43153381347656 -7.62939453125e-06 101.0530242919922 22.62148284912109 101.0530242919922 50.52651214599609 L 101.0530242919922 50.527099609375 C 101.0530242919922 78.43212890625 78.43153381347656 101.0536041259766 50.52651596069336 101.0536041259766 C 22.62148284912109 101.0536041259766 -7.62939453125e-06 78.43212890625 -7.62939453125e-06 50.527099609375 L -7.62939453125e-06 50.52651214599609 C -7.62939453125e-06 22.62148284912109 22.62148284912109 -7.62939453125e-06 50.52651596069336 -7.62939453125e-06 Z" stroke="none" fill="#fff"/>
                      </g>
                    </g>
                  </g>
                </g>
              </g>
            </g>
          </g>
        </g>
      </g>
    </g>
    <g id="analisis-ambiental" transform="translate(267 6173.088)">
      <path id="Path_1258889" data-name="Path 1258889" d="M51.558,30.475h6.368a6.8,6.8,0,0,1,6.786,6.786v9.216a12.467,12.467,0,0,1,6.469,18.93,1.856,1.856,0,0,1,.4,1.466l2.553,3.013a1.9,1.9,0,0,1,1.922.619l5.068,6.022h0a2.4,2.4,0,0,1-.294,3.376v0l-2.109,1.769a2.4,2.4,0,0,1-3.381-.3l-5.067-6.02h0a1.9,1.9,0,0,1-.265-2.032l-2.552-3.012a1.859,1.859,0,0,1-1.353-.645,12.4,12.4,0,0,1-1.391.539V82.1a6.8,6.8,0,0,1-6.786,6.786H22.787A6.8,6.8,0,0,1,16,82.1V37.261a6.8,6.8,0,0,1,6.786-6.786h6.368v-.787a.874.874,0,0,1,.874-.874h4.957c.826-1.928,3.2-2.9,5.371-2.9s4.545.974,5.371,2.9h4.957a.874.874,0,0,1,.874.874v.787Z" fill-rule="evenodd"/>
      <path id="Path_1258890" data-name="Path 1258890" d="M63.626,99.19H57.258a1.327,1.327,0,0,0-1.321,1.321V145.35a1.327,1.327,0,0,0,1.321,1.321H92.4a1.327,1.327,0,0,0,1.321-1.321V133.94q-.366-.049-.729-.12a12.4,12.4,0,0,1-7.081-4.146l-.009-.009h0l-.049-.057a12.445,12.445,0,0,1,1.455-17.491l.009-.01h0a12.41,12.41,0,0,1,6.4-2.861v-8.736A1.327,1.327,0,0,0,92.4,99.19H86.03v.769a.874.874,0,0,1-.874.874H64.5a.874.874,0,0,1-.874-.874V99.19Zm10.5,4.568a.872.872,0,0,1,1.409,0q13.886,15.55.17,24.459V130.8a.874.874,0,0,1-1.748,0v-2.578q-13.717-8.908.17-24.459ZM60.636,136.245a.874.874,0,0,1,0-1.748H60.9a.874.874,0,1,1,0,1.748Zm3.41,0a.874.874,0,1,1,0-1.748H89.02a.874.874,0,0,1,0,1.748Zm-3.41,5.829a.874.874,0,0,1,0-1.748H60.9a.874.874,0,1,1,0,1.748Zm3.41,0a.874.874,0,1,1,0-1.748H89.02a.874.874,0,0,1,0,1.748Z" transform="translate(-34.472 -63.25)" fill="#e6e6e6" fill-rule="evenodd"/>
      <path id="Path_1258891" data-name="Path 1258891" d="M65.942,99.191H59.574a1.318,1.318,0,0,0-.954.411,31.26,31.26,0,0,0,10.893,19.237q-.7-6.538,6.926-15.079a.872.872,0,0,1,1.409,0q11.61,13,3.922,21.36a31.21,31.21,0,0,0,4.238.775,12.453,12.453,0,0,1,3.614-13.777l.009-.01h0a12.41,12.41,0,0,1,6.4-2.861v-8.736a1.327,1.327,0,0,0-1.321-1.321H88.346v.769a.874.874,0,0,1-.874.874H66.816a.874.874,0,0,1-.874-.874v-.769Z" transform="translate(-36.787 -63.251)" fill="#fff" fill-rule="evenodd"/>
      <path id="Path_1258892" data-name="Path 1258892" d="M275.887,206.051c.025,0,.049,0,.074.005a10.69,10.69,0,0,0,5.7-1.216.872.872,0,0,1,1.112.259l.382.455a.137.137,0,0,0,.172.015l2.168-1.822h0c.118-.118.143-.121.019-.285l-.367-.437a.87.87,0,0,1-.021-1.094l0,0a10.71,10.71,0,1,0-16.72.274.855.855,0,0,1,.1.12,10.709,10.709,0,0,0,7.38,3.729Zm-5.48-17.012a8.962,8.962,0,1,1,0,12.674A8.961,8.961,0,0,1,270.407,189.04Z" transform="translate(-215.741 -137.023)" fill="#f2aa24" fill-rule="evenodd"/>
      <path id="Path_1258893" data-name="Path 1258893" d="M287.233,193.65a10.714,10.714,0,1,0-20.32,6.178q.791.04,1.592.04c.16,0,.319,0,.478-.006a8.963,8.963,0,1,1,16.7-5.127Q286.474,194.215,287.233,193.65Z" transform="translate(-215.741 -137.024)" fill="#ffc447" fill-rule="evenodd"/>
      <path id="Path_1258894" data-name="Path 1258894" d="M72.023,110.61v11.3a3.076,3.076,0,0,1-3.07,3.069H33.814a3.076,3.076,0,0,1-3.07-3.069V77.07A3.076,3.076,0,0,1,33.814,74h6.368V72.032H33.814a5.055,5.055,0,0,0-5.038,5.038v44.839a5.055,5.055,0,0,0,5.038,5.038h35.14a5.055,5.055,0,0,0,5.038-5.038V110.442a12.472,12.472,0,0,1-1.969.168Z" transform="translate(-11.028 -39.809)" fill="#6db2e3" fill-rule="evenodd"/>
      <path id="Path_1258895" data-name="Path 1258895" d="M56.145,74.24A3.046,3.046,0,0,1,57.332,74H63.7V72.032H57.332a5,5,0,0,0-1.309.174q.029,1.026.122,2.034Z" transform="translate(-34.546 -39.809)" fill="#8cccfe" fill-rule="evenodd"/>
      <path id="Path_1258896" data-name="Path 1258896" d="M275.834,74H282.2a3.076,3.076,0,0,1,3.069,3.069V85.7a12.436,12.436,0,0,1,1.969.169V77.071a5.055,5.055,0,0,0-5.038-5.038h-6.368V74Z" transform="translate(-224.276 -39.809)" fill="#8cccfe" fill-rule="evenodd"/>
      <path id="Path_1258897" data-name="Path 1258897" d="M129.623,41.591H124.9v5.273h18.907V41.591h-4.722v0a.871.871,0,0,1-.857-.717c-.348-1.927-4.17-2.955-6.57-1.483a2.389,2.389,0,0,0-1.167,1.424.874.874,0,0,1-.869.779Z" transform="translate(-93.998 -11.028)" fill="#5aa1d8" fill-rule="evenodd"/>
      <circle id="Ellipse_12740" data-name="Ellipse 12740" cx="7.213" cy="7.213" r="7.213" transform="translate(53.789 51.14)" fill="#96c9f2"/>
      <g id="Group_1203976" data-name="Group 1203976" transform="translate(34.565 43.398)">
        <path id="Path_1258898" data-name="Path 1258898" d="M299.351,210.258a7.213,7.213,0,0,0-5.723,11.6,31.108,31.108,0,0,0,12.924-3.968c.008-.14.013-.281.013-.423A7.213,7.213,0,0,0,299.351,210.258Z" transform="translate(-272.913 -202.516)" fill="#b9e0ff" fill-rule="evenodd"/>
        <path id="Path_1258899" data-name="Path 1258899" d="M203.906,193.631l-3.537,3.538v4.04l4.606-4.606a15.366,15.366,0,0,0-1.068-2.972Z" transform="translate(-193.703 -188.165)" fill="#5cab45" fill-rule="evenodd"/>
        <path id="Path_1258900" data-name="Path 1258900" d="M158.542,197.168,155,193.63a15.367,15.367,0,0,0-1.068,2.972l4.606,4.606Z" transform="translate(-153.624 -188.164)" fill="#5cab45" fill-rule="evenodd"/>
        <path id="Path_1258901" data-name="Path 1258901" d="M167.983,157.538l2.684,2.684V153.69a31.151,31.151,0,0,0-2.684,3.848Z" transform="translate(-165.749 -153.69)" fill="#5cab45" fill-rule="evenodd"/>
        <path id="Path_1258902" data-name="Path 1258902" d="M200.368,160.219l2.683-2.684a31.155,31.155,0,0,0-2.683-3.848v6.531Z" transform="translate(-193.702 -153.688)" fill="#5cab45" fill-rule="evenodd"/>
        <path id="Path_1258903" data-name="Path 1258903" d="M205.279,231.182l-4.911,4.911v3.93Q205.468,236.271,205.279,231.182Z" transform="translate(-193.702 -220.577)" fill="#4c9137" fill-rule="evenodd"/>
        <path id="Path_1258904" data-name="Path 1258904" d="M205.279,231.182l-4.911,4.911v1.736q.894.354,1.815.654A9.5,9.5,0,0,0,205.279,231.182Z" transform="translate(-193.702 -220.577)" fill="#5cab45" fill-rule="evenodd"/>
        <path id="Path_1258905" data-name="Path 1258905" d="M156.575,236.093l-4.911-4.911q-.189,5.089,4.911,8.841Z" transform="translate(-151.658 -220.577)" fill="#4c9137" fill-rule="evenodd"/>
        <path id="Path_1258906" data-name="Path 1258906" d="M156.575,236.093l-4.911-4.911a8.974,8.974,0,0,0,.5,3.364,31.285,31.285,0,0,0,4.407,2.525Z" transform="translate(-151.658 -220.577)" fill="#5cab45" fill-rule="evenodd"/>
        <path id="Path_1258907" data-name="Path 1258907" d="M425.031,359.622l-2.878,2.415,0,0a.161.161,0,0,0-.015.214l0,0,5.068,6.021a.671.671,0,0,0,.929.078l2.109-1.769,0,0a.665.665,0,0,0,.074-.923l0,0-5.067-6.02A.165.165,0,0,0,425.031,359.622Z" transform="translate(-385.092 -331.411)" fill="#f2aa24" fill-rule="evenodd"/>
        <path id="Path_1258908" data-name="Path 1258908" d="M406.131,339.7l1.442-1.21-2.137-2.523-1.441,1.211Z" transform="translate(-369.462 -311.02)" fill="#f2aa24" fill-rule="evenodd"/>
      </g>
    </g>
  </g>
</svg>
