<svg xmlns="http://www.w3.org/2000/svg" xmlns:xlink="http://www.w3.org/1999/xlink" width="119.053" height="119.054" viewBox="0 0 119.053 119.054">
  <defs>
    <filter id="Path_874925" x="0" y="0" width="119.053" height="119.054" filterUnits="userSpaceOnUse">
      <feOffset dy="3" input="SourceAlpha"/>
      <feGaussianBlur stdDeviation="3" result="blur"/>
      <feFlood flood-opacity="0.161"/>
      <feComposite operator="in" in2="blur"/>
      <feComposite in="SourceGraphic"/>
    </filter>
  </defs>
  <g id="Group_1203988" data-name="Group 1203988" transform="translate(-886 -7430)">
    <g id="Group_1203983" data-name="Group 1203983" transform="translate(0 1256)">
      <g id="Group_1203975" data-name="Group 1203975" transform="translate(92 870)">
        <g id="Group_1203802" data-name="Group 1203802" transform="translate(518 -940.874)">
          <g id="Group_1200232" data-name="Group 1200232" transform="translate(285 6250.874)">
            <g id="Group_1187153" data-name="Group 1187153">
              <g id="Group_1182177" data-name="Group 1182177">
                <g id="Group_1181903" data-name="Group 1181903">
                  <g id="Group_1181438" data-name="Group 1181438">
                    <g id="Group_1111314" data-name="Group 1111314">
                      <g transform="matrix(1, 0, 0, 1, -9, -6)" filter="url(#Path_874925)">
                        <g id="Path_874925-2" data-name="Path 874925" transform="translate(9 6)" fill="#ffe9b5">
                          <path d="M 50.52651596069336 99.55361938476562 C 43.90731430053711 99.55361938476562 37.48691558837891 98.25757598876953 31.44364547729492 95.70149230957031 C 25.60577392578125 93.23227691650391 20.36252975463867 89.69707489013672 15.85953044891357 85.194091796875 C 11.35654449462891 80.69109344482422 7.821344375610352 75.44783782958984 5.35213041305542 69.60997772216797 C 2.796044588088989 63.56670761108398 1.500001668930054 57.14628982543945 1.500001668930054 50.52709197998047 C 1.500001668930054 43.90732192993164 2.796044588088989 37.48691940307617 5.35213041305542 31.44364929199219 C 7.821344375610352 25.60577774047852 11.35654449462891 20.36253356933594 15.85953044891357 15.85953426361084 C 20.36252975463867 11.35654830932617 25.60577392578125 7.821348667144775 31.44364547729492 5.352134227752686 C 37.48691558837891 2.796048641204834 43.90731430053711 1.500005841255188 50.52651596069336 1.500005841255188 C 57.14571762084961 1.500005841255188 63.56611633300781 2.796048641204834 69.60939025878906 5.352134227752686 C 75.44724273681641 7.821348667144775 80.69049835205078 11.35654830932617 85.19348907470703 15.85953426361084 C 89.69648742675781 20.36253356933594 93.231689453125 25.60577774047852 95.70090484619141 31.44364929199219 C 98.25698852539062 37.48691940307617 99.55303192138672 43.90732192993164 99.55303192138672 50.52651977539062 C 99.55303192138672 57.14628982543945 98.25698852539062 63.56670761108398 95.70090484619141 69.60997772216797 C 93.231689453125 75.44783782958984 89.69648742675781 80.69109344482422 85.19348907470703 85.194091796875 C 80.69049835205078 89.69707489013672 75.44724273681641 93.23227691650391 69.60939025878906 95.70149230957031 C 63.56611633300781 98.25757598876953 57.14571762084961 99.55361938476562 50.52651596069336 99.55361938476562 Z" stroke="none"/>
                          <path d="M 50.52651596069336 2.999992370605469 C 44.10914611816406 2.999992370605469 37.88534545898438 4.256172180175781 32.02796173095703 6.733619689941406 C 26.36890411376953 9.127204895019531 21.28591918945312 12.55446624755859 16.92019653320312 16.92018890380859 C 12.55446624755859 21.28591156005859 9.127204895019531 26.368896484375 6.733627319335938 32.02796173095703 C 4.256179809570312 37.88534545898438 2.999992370605469 44.10914611816406 2.999992370605469 50.527099609375 C 2.999992370605469 56.94446563720703 4.256179809570312 63.16826629638672 6.733627319335938 69.025634765625 C 9.127204895019531 74.68471527099609 12.55446624755859 79.7677001953125 16.92019653320312 84.1334228515625 C 21.28591918945312 88.4991455078125 26.36890411376953 91.9263916015625 32.02796173095703 94.31997680664062 C 37.88534545898438 96.79743957519531 44.10914611816406 98.05360412597656 50.52651596069336 98.05360412597656 C 56.94387054443359 98.05360412597656 63.16768646240234 96.79743957519531 69.02505493164062 94.31997680664062 C 74.68411254882812 91.9263916015625 79.76712036132812 88.4991455078125 84.13282775878906 84.1334228515625 C 88.49855041503906 79.7677001953125 91.92581176757812 74.68471527099609 94.31938934326172 69.025634765625 C 96.79683685302734 63.16826629638672 98.05302429199219 56.94446563720703 98.05302429199219 50.52651214599609 C 98.05302429199219 44.10914611816406 96.79683685302734 37.88534545898438 94.31938934326172 32.02796173095703 C 91.92581176757812 26.368896484375 88.49855041503906 21.28591156005859 84.13282775878906 16.92018890380859 C 79.76712036132812 12.55446624755859 74.68411254882812 9.127204895019531 69.02505493164062 6.733619689941406 C 63.16768646240234 4.256172180175781 56.94387054443359 2.999992370605469 50.52651596069336 2.999992370605469 M 50.52651596069336 -7.62939453125e-06 C 78.43153381347656 -7.62939453125e-06 101.0530242919922 22.62148284912109 101.0530242919922 50.52651214599609 L 101.0530242919922 50.527099609375 C 101.0530242919922 78.43212890625 78.43153381347656 101.0536041259766 50.52651596069336 101.0536041259766 C 22.62148284912109 101.0536041259766 -7.62939453125e-06 78.43212890625 -7.62939453125e-06 50.527099609375 L -7.62939453125e-06 50.52651214599609 C -7.62939453125e-06 22.62148284912109 22.62148284912109 -7.62939453125e-06 50.52651596069336 -7.62939453125e-06 Z" stroke="none" fill="#fff"/>
                        </g>
                      </g>
                    </g>
                  </g>
                </g>
              </g>
            </g>
          </g>
        </g>
      </g>
    </g>
    <g id="filoutline" transform="translate(913 7454.776)">
      <g id="_15-_Pudding_copy_4" data-name="15- Pudding copy 4" transform="translate(2 2.224)">
        <path id="Path_1258973" data-name="Path 1258973" d="M3,36H30.373l-4-3L31,29H3Z" transform="translate(-2 -2.224)" fill="#d8cdc9"/>
        <path id="Path_1258974" data-name="Path 1258974" d="M31,29H27l-4.627,4,4,3h4l-4-3Z" transform="translate(-2 -2.224)" fill="#bdaaa4"/>
        <path id="Path_1258975" data-name="Path 1258975" d="M61,43V57H52c-4,0-11.17-.64-16.25-3.26A17.249,17.249,0,0,1,30.37,49l1-5-5-3,4-5-4-3s5-9,15-7a14.731,14.731,0,0,1,8.49,4.71,1.808,1.808,0,0,1-1.83,2.92A25.575,25.575,0,0,0,43.25,33a3.773,3.773,0,0,0-2.88,6.12,11.489,11.489,0,0,0,6,3.88C53.37,45,61,43,61,43Z" transform="translate(-2 -2.224)" fill="#57c1ef"/>
        <path id="Path_1258976" data-name="Path 1258976" d="M46.37,43a11.489,11.489,0,0,1-6-3.88A3.773,3.773,0,0,1,43.25,33a25.575,25.575,0,0,1,4.78.63,1.808,1.808,0,0,0,1.83-2.92,13.531,13.531,0,0,0-1.219-1.221,2.185,2.185,0,0,1-2.622,2.383,27.493,27.493,0,0,0-5.521-.785c-3.592,0-5.556,4.587-3.327,7.628A13.253,13.253,0,0,0,44.1,43.55c8.086,2.493,16.9,0,16.9,0V43S53.37,45,46.37,43Z" transform="translate(-2 -2.224)" fill="#44b3e6"/>
        <path id="Path_1258977" data-name="Path 1258977" d="M61,57v4H3V36H30.37l-4,5,5,3-1,5a17.547,17.547,0,0,0,5.13,4.6c.08.05.17.1.25.14a24.491,24.491,0,0,0,5.07,1.87,39.338,39.338,0,0,0,5.07.98,48.739,48.739,0,0,0,5.98.41Z" transform="translate(-2 -2.224)" fill="#8d6e63"/>
        <path id="Path_1258978" data-name="Path 1258978" d="M26.37,44l-1,5a17.547,17.547,0,0,0,5.13,4.6c.08.05.17.1.25.14a24.492,24.492,0,0,0,5.07,1.87,39.339,39.339,0,0,0,5.07.98,48.739,48.739,0,0,0,5.98.41h5a48.739,48.739,0,0,1-5.98-.41,39.338,39.338,0,0,1-5.07-.98,24.492,24.492,0,0,1-5.07-1.87c-.08-.04-.17-.09-.25-.14A17.547,17.547,0,0,1,30.37,49l1-5-5-3,4-5h-5l-4,5Z" transform="translate(-2 -2.224)" fill="#795649"/>
        <path id="Path_1258979" data-name="Path 1258979" d="M9.913,25.02l2.22.54c-.09-1.26-.2-2.75-.31-4.24-.6-.1-1.21-.2-1.38-.22a2.022,2.022,0,0,0-2.03,1.43,1.856,1.856,0,0,0,1.5,2.49Z" transform="translate(-2 -2.224)" fill="#8d6e63"/>
        <path id="Path_1258980" data-name="Path 1258980" d="M3.373,15a4.236,4.236,0,0,0,1.6,1.57,8.094,8.094,0,0,0,5.67,1.05l.93-.14c-.07-1.17-.2-3.38-.2-3.48A1.851,1.851,0,0,1,13,12.1a2,2,0,0,1,2.26,1.69l.62,3.05,2.67-.4.46.67a2.086,2.086,0,0,0,2.25.89,1.979,1.979,0,0,0,1.37-1.32c-.02,0-.03-.01-.05-.02a1.975,1.975,0,0,1-.96-2.56,4,4,0,0,1-.1-6.39,2.823,2.823,0,0,0-.01-.71,2.992,2.992,0,0,0-4.77-1.96,5.782,5.782,0,0,0-.69-.61A5.925,5.925,0,0,0,11.6,3.29a6,6,0,0,0-5.09,6.79A3.324,3.324,0,0,0,3.373,15Z" transform="translate(-2 -2.224)" fill="#66bb6a"/>
        <path id="Path_1258981" data-name="Path 1258981" d="M8.513,12.08A6,6,0,0,1,13.6,5.29a5.925,5.925,0,0,1,4.45,1.14,5.79,5.79,0,0,1,.69.61,3,3,0,0,1,2.65-.483,2.965,2.965,0,0,0-4.65-1.517,5.79,5.79,0,0,0-.69-.61A5.925,5.925,0,0,0,11.6,3.29a6,6,0,0,0-5.09,6.79A3.324,3.324,0,0,0,3.373,15a4.236,4.236,0,0,0,1.6,1.57c.093.059.19.106.285.16a3.3,3.3,0,0,1,3.255-4.65Z" transform="translate(-2 -2.224)" fill="#4daf4e"/>
        <path id="Path_1258982" data-name="Path 1258982" d="M17.263,15.79a1.994,1.994,0,0,0-1.94-1.7l.56,2.754,1.546-.232Z" transform="translate(-2 -2.224)" fill="#4daf4e"/>
        <path id="Path_1258983" data-name="Path 1258983" d="M11.373,14c0,.1,1,15,1,15h5.98l-3.09-15.21A2,2,0,0,0,13,12.1,1.851,1.851,0,0,0,11.373,14Z" transform="translate(-2 -2.224)" fill="#a1887f"/>
        <path id="Path_1258984" data-name="Path 1258984" d="M14.28,12.353A1.965,1.965,0,0,0,13,12.1a1.851,1.851,0,0,0-1.63,1.9c0,.1,1,15,1,15h2s-1-14.9-1-15A1.852,1.852,0,0,1,14.28,12.353Z" transform="translate(-2 -2.224)" fill="#8d6e63"/>
        <path id="Path_1258985" data-name="Path 1258985" d="M20.393,12.65a4,4,0,0,0,1.23,1.45,1.975,1.975,0,0,0,.96,2.56c.02.01.03.02.05.02a2.072,2.072,0,0,0,2.32-.49l.58-.57,2.55.87,1.16-2.88a1.993,1.993,0,0,1,3.85,1c-.01.09-.98,3.26-.98,3.26l.98.34a8.081,8.081,0,0,0,5.77-.01,4.28,4.28,0,0,0,1.86-1.25,3.329,3.329,0,0,0-2.2-5.41,6.011,6.011,0,0,0-3.78-7.6,5.94,5.94,0,0,0-4.58.32,5.152,5.152,0,0,0-.79.47,2.977,2.977,0,0,0-5.19,2.15,3.953,3.953,0,0,0-2.66.83,4,4,0,0,0-1.13,4.94Z" transform="translate(-2 -2.224)" fill="#66bb6a"/>
        <path id="Path_1258986" data-name="Path 1258986" d="M33.373,4.73a5.151,5.151,0,0,1,.79-.47,6.053,6.053,0,0,1,.675-.282c-.033-.012-.063-.027-.1-.038A5.913,5.913,0,0,0,31.5,3.785a3.02,3.02,0,0,1,1.874.945Z" transform="translate(-2 -2.224)" fill="#4daf4e"/>
        <path id="Path_1258987" data-name="Path 1258987" d="M25.623,14.1a4,4,0,0,1-.1-6.39,3.953,3.953,0,0,1,2.66-.83,3.027,3.027,0,0,1,.14-1.08,2.994,2.994,0,0,1,.847-1.262A3,3,0,0,0,24.323,5.8a3.027,3.027,0,0,0-.14,1.08,3.993,3.993,0,0,0-2.56,7.22,1.975,1.975,0,0,0,.96,2.56c.02.01.03.02.05.02a2.072,2.072,0,0,0,2.32-.49l.58-.57.1.033a1.984,1.984,0,0,1-.006-1.553Z" transform="translate(-2 -2.224)" fill="#4daf4e"/>
        <path id="Path_1258988" data-name="Path 1258988" d="M33.1,14.609C33.08,14.7,28.373,29,28.373,29h-5l5.872-15.394a2,2,0,0,1,3.852,1Z" transform="translate(-2 -2.224)" fill="#a1887f"/>
        <path id="Path_1258989" data-name="Path 1258989" d="M32.14,12.524a2.027,2.027,0,0,0-.367-.171,2,2,0,0,0-2.528,1.254L23.373,29h2l5.872-15.394A1.99,1.99,0,0,1,32.14,12.524Z" transform="translate(-2 -2.224)" fill="#8d6e63"/>
        <path id="Path_1258990" data-name="Path 1258990" d="M42.37,53l-1.55,2.61a24.491,24.491,0,0,1-5.07-1.87c-.08-.04-.17-.09-.25-.14L39.37,50Z" transform="translate(-2 -2.224)" fill="#a1887f"/>
        <path id="Path_1258991" data-name="Path 1258991" d="M52.37,56l-.5,1a48.74,48.74,0,0,1-5.98-.41L49.37,54Z" transform="translate(-2 -2.224)" fill="#a1887f"/>
        <path id="Path_1258992" data-name="Path 1258992" d="M39.584,45.738A12.457,12.457,0,0,0,46.1,49.962a26.828,26.828,0,0,0,7.3.932,37.134,37.134,0,0,0,8.22-.924,1,1,0,1,0-.486-1.94c-.077.02-7.817,1.915-14.482.008a10.5,10.5,0,0,1-5.5-3.542,3.137,3.137,0,0,1-.268-3.37A12.9,12.9,0,0,0,46.1,43.962a26.828,26.828,0,0,0,7.3.932,37.135,37.135,0,0,0,8.22-.924L61.13,42.03c-.077.02-7.817,1.912-14.482.009A10.517,10.517,0,0,1,41.157,38.5a2.8,2.8,0,0,1-.311-2.968A2.633,2.633,0,0,1,43.253,34a24.619,24.619,0,0,1,4.546.6,2.84,2.84,0,0,0,3.109-1.308,2.709,2.709,0,0,0-.291-3.241,15.791,15.791,0,0,0-9.048-5.034,14.163,14.163,0,0,0-11.727,2.716c1.306-3.969,2.208-6.714,2.832-8.612a18.587,18.587,0,0,0,3.352.617,8.577,8.577,0,0,0,3.2-.61,5.15,5.15,0,0,0,2.293-1.58,4.628,4.628,0,0,0,.6-4.427,4.05,4.05,0,0,0-2.391-2.3,7.027,7.027,0,0,0-4.669-7.834,6.924,6.924,0,0,0-5.348.373c-.076.038-.158.08-.245.126A3.963,3.963,0,0,0,26.1,2.907,4.03,4.03,0,0,0,23.369,5.5a4.178,4.178,0,0,0-.109.421,4.911,4.911,0,0,0-.932.239,4.045,4.045,0,0,0-2.041-2.331A3.987,3.987,0,0,0,16.871,3.8q-.1-.084-.215-.168A6.888,6.888,0,0,0,11.461,2.3a7.012,7.012,0,0,0-6.01,6.86,4.046,4.046,0,0,0-2.77,1.83,4.612,4.612,0,0,0-.2,4.457,5.072,5.072,0,0,0,1.961,1.969,8.84,8.84,0,0,0,4.728,1.331,9.714,9.714,0,0,0,1.509-.123c.03.458.064.961.1,1.514-.1-.016-.189-.028-.241-.034a2.981,2.981,0,0,0-3.048,2.045,2.668,2.668,0,0,0,.081,2.259,3.161,3.161,0,0,0,2.108,1.583l1.518.369L11.3,28H3a1,1,0,0,0-1,1V61a1,1,0,0,0,1,1H61a1,1,0,0,0,1-1V57a1,1,0,0,0-1-1c-1.455,0-2.969.083-4.573.171-1.014.056-2.06.1-3.123.142a.989.989,0,0,0-.379-1.145l-3-2a1,1,0,0,0-1.22.085L45.59,56.026A29.83,29.83,0,0,1,42.3,55.39l.972-1.943a1,1,0,0,0-.188-1.154l-3-3A.966.966,0,0,0,39.33,49a1,1,0,0,0-.722.354l-2.887,3.424a21.977,21.977,0,0,1-4.648-4.05L31.98,44.2a1,1,0,0,0-.466-1.054L27.5,40.731l3.285-4.106a1,1,0,0,0,.121-1.059.987.987,0,0,0-.27-.33l.006-.007L27.688,32.79c1.362-1.982,5.83-7.347,13.489-5.809a13.737,13.737,0,0,1,7.937,4.392.724.724,0,0,1,.08.893.826.826,0,0,1-.928.392A26.7,26.7,0,0,0,43.253,32a4.651,4.651,0,0,0-4.207,2.661,4.765,4.765,0,0,0,.419,4.9A5.3,5.3,0,0,0,39.584,45.738ZM19.17,28l-2.1-10.327,1.012-.151.1.153a3.139,3.139,0,0,0,2.568,1.4,2.872,2.872,0,0,0,.779-.108,2.992,2.992,0,0,0,1.6-1.127,3.129,3.129,0,0,0,2.521-.932l.14-.138,1.04.354L22.684,28ZM30.191,13.928a1,1,0,0,1,1.93.453c-.256.8-3.111,9.484-4.472,13.62H24.825Zm-6.07-6.05a.977.977,0,0,0,.766-.288,1,1,0,0,0,.294-.764,1.994,1.994,0,0,1,.088-.7,2.023,2.023,0,0,1,1.373-1.29,1.987,1.987,0,0,1,2,.576,1,1,0,0,0,1.334.12,4.158,4.158,0,0,1,.636-.375,4.936,4.936,0,0,1,3.813-.267,5.02,5.02,0,0,1,3.152,6.336,1,1,0,0,0,.792,1.3,2.281,2.281,0,0,1,1.9,1.348,2.622,2.622,0,0,1-.342,2.468,3.329,3.329,0,0,1-1.438.929,7.071,7.071,0,0,1-5.069-.007l-.124-.043c.765-2.336.774-2.383.784-2.432a3,3,0,0,0-5.771-1.54l-.764,2-1.691-.577a1,1,0,0,0-1.023.233l-.592.582a1.083,1.083,0,0,1-1.188.283L23,15.748a.972.972,0,0,1-.454-1.254,1,1,0,0,0-.329-1.2A3,3,0,0,1,22.135,8.5a2.952,2.952,0,0,1,1.986-.623ZM10.476,16.634A7.079,7.079,0,0,1,5.5,15.721a3.3,3.3,0,0,1-1.234-1.168,2.613,2.613,0,0,1,.1-2.49,2.326,2.326,0,0,1,2.118-.983,1.012,1.012,0,0,0,.772-.335A1,1,0,0,0,7.5,9.939a5,5,0,0,1,4.246-5.66,4.916,4.916,0,0,1,3.7.947,4.774,4.774,0,0,1,.571.5,1,1,0,0,0,1.328.107,1.988,1.988,0,0,1,2.063-.21,2.021,2.021,0,0,1,1.111,1.5c.007.057,0,.092,0,.144a4.972,4.972,0,0,0-.031,7.184,2.985,2.985,0,0,0,.775,2.46,1.047,1.047,0,0,1-.277.124,1.1,1.1,0,0,1-1.154-.494l-.46-.67a.99.99,0,0,0-.972-.423l-1.733.26-.42-2.066a3,3,0,0,0-3.4-2.534A2.865,2.865,0,0,0,10.373,14c0,.024,0,.067.17,2.624Zm-.328,7.414a1.18,1.18,0,0,1-.8-.548.674.674,0,0,1-.016-.582c.247-.587.587-.872.992-.825.09.011.314.046.588.09l.14,2.085ZM12.373,14a.852.852,0,0,1,.775-.911,1,1,0,0,1,.733.187,1.043,1.043,0,0,1,.4.713L17.129,28H13.308C12.959,22.791,12.387,14.25,12.373,14ZM27.386,30A15.794,15.794,0,0,0,25.5,32.514a1,1,0,0,0,.237,1.256L27.222,35H4V30ZM49.458,55.261l1.623,1.082-.01.02c-.764.005-1.519,0-2.246-.041-.176-.008-.344-.026-.518-.036ZM39.436,51.477,41.156,53.2l-.814,1.628a26.971,26.971,0,0,1-2.79-1.114Zm-14.216-11.1a1,1,0,0,0,.266,1.482l1.62.972a10.991,10.991,0,0,0-1.939,2.725L21,42.219a1,1,0,0,0-1.249,1.562l4.744,3.8a6.5,6.5,0,0,0-.1.855,6.9,6.9,0,0,0,2.276,5.275,1,1,0,1,0,1.414-1.414,4.993,4.993,0,0,1-1.693-3.761c.1-2.263,1.964-4.152,2.489-4.64l1.005.6L29.02,48.8a1,1,0,0,0,.2.821,23.157,23.157,0,0,0,5.68,4.992,30.657,30.657,0,0,0,13.83,3.7c.958.048,1.961.061,2.972.041,1.68-.021,3.284-.107,4.834-.192,1.206-.066,2.361-.13,3.464-.155V60H4V37H18.959l2.707,2.707a1,1,0,1,0,1.414-1.414L21.787,37h6.132ZM16.08,45.293a1,1,0,1,1-1.414,1.414l-1-1a1,1,0,1,1,1.414-1.414Zm-6,3a1,1,0,1,1-1.414,1.414l-1-1A1,1,0,1,1,9.08,47.293Zm10,0,1,1a1,1,0,1,1-1.414,1.414l-1-1a1,1,0,1,1,1.414-1.414Zm-5,4a1,1,0,1,1-1.414,1.414l-1-1a1,1,0,1,1,1.414-1.414Zm-6,2a1,1,0,1,1-1.414,1.414l-1-1A1,1,0,1,1,8.08,53.293Zm12,1a1,1,0,1,1-1.414,1.414l-1-1a1,1,0,1,1,1.414-1.414Zm7.586,1.414a1,1,0,1,1,1.414-1.414l1,1a1,1,0,1,1-1.414,1.414Zm6.414-9.414,1,1a1,1,0,1,1-1.414,1.414l-1-1a1,1,0,1,1,1.414-1.414ZM36.373,46a1,1,0,0,1-.707-.293l-1-1a1,1,0,1,1,1.414-1.414l1,1A1,1,0,0,1,36.373,46ZM18.08,41.707a1,1,0,0,1-1.414,0l-1-1a1,1,0,1,1,1.414-1.414l1,1A1,1,0,0,1,18.08,41.707Zm-7-1.414a1,1,0,1,1-1.414,1.414l-1-1a1,1,0,1,1,1.414-1.414ZM48.373,10a3,3,0,0,1,3-3,1,1,0,1,1,0,2,1,1,0,0,0,0,2h6a1,1,0,0,1,0,2h-6A3,3,0,0,1,48.373,10Zm10,6a1,1,0,0,1,1-1h2a1,1,0,0,1,0,2h-2A1,1,0,0,1,58.373,16Zm-12,2a3,3,0,0,1,3-3h5a1,1,0,0,1,0,2h-5a1,1,0,0,0,0,2,1,1,0,0,1,0,2,3,3,0,0,1-3-3Zm9,4a1,1,0,0,0,1,1,1,1,0,0,1,0,2,3,3,0,1,1,0-6,1,1,0,1,1,0,2,1,1,0,0,0-1,1Z" transform="translate(-2 -2.224)"/>
      </g>
    </g>
  </g>
</svg>
