<svg xmlns="http://www.w3.org/2000/svg" xmlns:xlink="http://www.w3.org/1999/xlink" width="119.053" height="119.054" viewBox="0 0 119.053 119.054">
  <defs>
    <filter id="Path_874925" x="0" y="0" width="119.053" height="119.054" filterUnits="userSpaceOnUse">
      <feOffset dy="3" input="SourceAlpha"/>
      <feGaussianBlur stdDeviation="3" result="blur"/>
      <feFlood flood-opacity="0.161"/>
      <feComposite operator="in" in2="blur"/>
      <feComposite in="SourceGraphic"/>
    </filter>
  </defs>
  <g id="Group_1204029" data-name="Group 1204029" transform="translate(-5393 9910)">
    <g id="Group_1203826" data-name="Group 1203826" transform="translate(5117 -16154.874)">
      <g id="Group_1200232" data-name="Group 1200232" transform="translate(285 6250.874)">
        <g id="Group_1187153" data-name="Group 1187153">
          <g id="Group_1182177" data-name="Group 1182177">
            <g id="Group_1181903" data-name="Group 1181903">
              <g id="Group_1181438" data-name="Group 1181438">
                <g id="Group_1111314" data-name="Group 1111314">
                  <g transform="matrix(1, 0, 0, 1, -9, -6)" filter="url(#Path_874925)">
                    <g id="Path_874925-2" data-name="Path 874925" transform="translate(9 6)" fill="#ef8c1a">
                      <path d="M 50.52651596069336 99.55361938476562 C 43.90731430053711 99.55361938476562 37.48691558837891 98.25757598876953 31.44364547729492 95.70149230957031 C 25.60577392578125 93.23227691650391 20.36252975463867 89.69707489013672 15.85953044891357 85.194091796875 C 11.35654449462891 80.69109344482422 7.821344375610352 75.44783782958984 5.35213041305542 69.60997772216797 C 2.796044588088989 63.56670761108398 1.500001668930054 57.14628982543945 1.500001668930054 50.52709197998047 C 1.500001668930054 43.90732192993164 2.796044588088989 37.48691940307617 5.35213041305542 31.44364929199219 C 7.821344375610352 25.60577774047852 11.35654449462891 20.36253356933594 15.85953044891357 15.85953426361084 C 20.36252975463867 11.35654830932617 25.60577392578125 7.821348667144775 31.44364547729492 5.352134227752686 C 37.48691558837891 2.796048641204834 43.90731430053711 1.500005841255188 50.52651596069336 1.500005841255188 C 57.14571762084961 1.500005841255188 63.56611633300781 2.796048641204834 69.60939025878906 5.352134227752686 C 75.44724273681641 7.821348667144775 80.69049835205078 11.35654830932617 85.19348907470703 15.85953426361084 C 89.69648742675781 20.36253356933594 93.231689453125 25.60577774047852 95.70090484619141 31.44364929199219 C 98.25698852539062 37.48691940307617 99.55303192138672 43.90732192993164 99.55303192138672 50.52651977539062 C 99.55303192138672 57.14628982543945 98.25698852539062 63.56670761108398 95.70090484619141 69.60997772216797 C 93.231689453125 75.44783782958984 89.69648742675781 80.69109344482422 85.19348907470703 85.194091796875 C 80.69049835205078 89.69707489013672 75.44724273681641 93.23227691650391 69.60939025878906 95.70149230957031 C 63.56611633300781 98.25757598876953 57.14571762084961 99.55361938476562 50.52651596069336 99.55361938476562 Z" stroke="none"/>
                      <path d="M 50.52651596069336 2.999992370605469 C 44.10914611816406 2.999992370605469 37.88534545898438 4.256172180175781 32.02796173095703 6.733619689941406 C 26.36890411376953 9.127204895019531 21.28591918945312 12.55446624755859 16.92019653320312 16.92018890380859 C 12.55446624755859 21.28591156005859 9.127204895019531 26.368896484375 6.733627319335938 32.02796173095703 C 4.256179809570312 37.88534545898438 2.999992370605469 44.10914611816406 2.999992370605469 50.527099609375 C 2.999992370605469 56.94446563720703 4.256179809570312 63.16826629638672 6.733627319335938 69.025634765625 C 9.127204895019531 74.68471527099609 12.55446624755859 79.7677001953125 16.92019653320312 84.1334228515625 C 21.28591918945312 88.4991455078125 26.36890411376953 91.9263916015625 32.02796173095703 94.31997680664062 C 37.88534545898438 96.79743957519531 44.10914611816406 98.05360412597656 50.52651596069336 98.05360412597656 C 56.94387054443359 98.05360412597656 63.16768646240234 96.79743957519531 69.02505493164062 94.31997680664062 C 74.68411254882812 91.9263916015625 79.76712036132812 88.4991455078125 84.13282775878906 84.1334228515625 C 88.49855041503906 79.7677001953125 91.92581176757812 74.68471527099609 94.31938934326172 69.025634765625 C 96.79683685302734 63.16826629638672 98.05302429199219 56.94446563720703 98.05302429199219 50.52651214599609 C 98.05302429199219 44.10914611816406 96.79683685302734 37.88534545898438 94.31938934326172 32.02796173095703 C 91.92581176757812 26.368896484375 88.49855041503906 21.28591156005859 84.13282775878906 16.92018890380859 C 79.76712036132812 12.55446624755859 74.68411254882812 9.127204895019531 69.02505493164062 6.733619689941406 C 63.16768646240234 4.256172180175781 56.94387054443359 2.999992370605469 50.52651596069336 2.999992370605469 M 50.52651596069336 -7.62939453125e-06 C 78.43153381347656 -7.62939453125e-06 101.0530242919922 22.62148284912109 101.0530242919922 50.52651214599609 L 101.0530242919922 50.527099609375 C 101.0530242919922 78.43212890625 78.43153381347656 101.0536041259766 50.52651596069336 101.0536041259766 C 22.62148284912109 101.0536041259766 -7.62939453125e-06 78.43212890625 -7.62939453125e-06 50.527099609375 L -7.62939453125e-06 50.52651214599609 C -7.62939453125e-06 22.62148284912109 22.62148284912109 -7.62939453125e-06 50.52651596069336 -7.62939453125e-06 Z" stroke="none" fill="#fff"/>
                    </g>
                  </g>
                </g>
              </g>
            </g>
          </g>
        </g>
      </g>
    </g>
    <g id="aprobar" transform="translate(5386 -9892)">
      <path id="Path_1259075" data-name="Path 1259075" d="M48,16H89.588V75.411H48Z" transform="translate(-7.01 -7.01)" fill="#e0e0e2"/>
      <path id="Path_1259076" data-name="Path 1259076" d="M80,64H93.863V77.863H80Z" transform="translate(-35.049 -49.069)" fill="#ffda44"/>
      <ellipse id="Ellipse_12749" data-name="Ellipse 12749" cx="9.5" cy="10" rx="9.5" ry="10" transform="translate(73 45.392)" fill="#91cc04"/>
      <ellipse id="Ellipse_12750" data-name="Ellipse 12750" cx="3" cy="2.5" rx="3" ry="2.5" transform="translate(49 17.392)" fill="#d9ccbc"/>
      <path id="Path_1259077" data-name="Path 1259077" d="M105.9,140.951H96v-.99A3.961,3.961,0,0,1,99.961,136h1.98a3.961,3.961,0,0,1,3.961,3.961Z" transform="translate(-49.069 -112.157)" fill="#3d9ae2"/>
      <path id="Path_1259078" data-name="Path 1259078" d="M80,208h33.666v3.961H80Z" transform="translate(-35.049 -175.246)" fill="#ffda44"/>
      <path id="Path_1259079" data-name="Path 1259079" d="M93.47,55.529a10.907,10.907,0,0,0-9.9-10.847V8.99a.99.99,0,0,0-.99-.99H40.99a.99.99,0,0,0-.99.99V68.4a.99.99,0,0,0,.99.99H82.578a.99.99,0,0,0,.99-.99V66.375A10.907,10.907,0,0,0,93.47,55.529ZM41.98,67.411V9.98H81.588v34.7a10.892,10.892,0,0,0,0,21.693v1.036Zm40.6-2.971a8.912,8.912,0,1,1,8.912-8.912A8.912,8.912,0,0,1,82.578,64.44Z"/>
      <path id="Path_1259080" data-name="Path 1259080" d="M348.627,368.338a.99.99,0,0,0-1.4-.093l-7.224,6.321-2.316-2.316a.99.99,0,0,0-1.4,1.4l2.971,2.971a.99.99,0,0,0,1.352.045l7.921-6.931A.99.99,0,0,0,348.627,368.338Z" transform="translate(-259.363 -315.441)"/>
      <path id="Path_1259081" data-name="Path 1259081" d="M72.99,71.843H86.853a.99.99,0,0,0,.99-.99V56.99a.99.99,0,0,0-.99-.99H72.99a.99.99,0,0,0-.99.99V70.853A.99.99,0,0,0,72.99,71.843Zm2.971-1.98a2.974,2.974,0,0,1,2.971-2.971h1.98a2.974,2.974,0,0,1,2.971,2.971Zm3.961-5.941a1.98,1.98,0,1,1,1.98-1.98A1.98,1.98,0,0,1,79.921,63.921ZM73.98,57.98H85.863V69.863A4.959,4.959,0,0,0,82.3,65.11a3.961,3.961,0,1,0-4.747,0,4.959,4.959,0,0,0-3.567,4.753Z" transform="translate(-28.039 -42.059)"/>
      <path id="Path_1259082" data-name="Path 1259082" d="M216.99,97.98h15.843a.99.99,0,1,0,0-1.98H216.99a.99.99,0,1,0,0,1.98Z" transform="translate(-154.216 -77.108)"/>
      <path id="Path_1259083" data-name="Path 1259083" d="M216.99,121.98h15.843a.99.99,0,1,0,0-1.98H216.99a.99.99,0,1,0,0,1.98Z" transform="translate(-154.216 -98.137)"/>
      <path id="Path_1259084" data-name="Path 1259084" d="M216.99,145.98h5.941a.99.99,0,1,0,0-1.98H216.99a.99.99,0,1,0,0,1.98Z" transform="translate(-154.216 -119.167)"/>
      <path id="Path_1259085" data-name="Path 1259085" d="M288.99,144a.99.99,0,0,0,0,1.98h.99a.99.99,0,0,0,0-1.98Z" transform="translate(-217.304 -119.167)"/>
      <path id="Path_1259086" data-name="Path 1259086" d="M88.833,264H72.99a.99.99,0,1,0,0,1.98H88.833a.99.99,0,1,0,0-1.98Z" transform="translate(-28.039 -224.314)"/>
      <path id="Path_1259087" data-name="Path 1259087" d="M88.833,288H72.99a.99.99,0,1,0,0,1.98H88.833a.99.99,0,1,0,0-1.98Z" transform="translate(-28.039 -245.344)"/>
      <path id="Path_1259088" data-name="Path 1259088" d="M78.931,312H72.99a.99.99,0,1,0,0,1.98h5.941a.99.99,0,1,0,0-1.98Z" transform="translate(-28.039 -266.373)"/>
      <path id="Path_1259089" data-name="Path 1259089" d="M145.98,312h-.99a.99.99,0,0,0,0,1.98h.99a.99.99,0,1,0,0-1.98Z" transform="translate(-91.128 -266.373)"/>
      <path id="Path_1259090" data-name="Path 1259090" d="M72.99,205.941h33.666a.99.99,0,0,0,.99-.99V200.99a.99.99,0,0,0-.99-.99H72.99a.99.99,0,0,0-.99.99v3.961A.99.99,0,0,0,72.99,205.941Zm.99-3.961h31.686v1.98H73.98Z" transform="translate(-28.039 -168.236)"/>
    </g>
  </g>
</svg>
